<svg xmlns="http://www.w3.org/2000/svg" xmlns:xlink="http://www.w3.org/1999/xlink" width="1085.148" height="118" viewBox="0 0 1085.148 118">
  <defs>
    <filter id="Dot" x="700.7" y="40.293" width="34.817" height="34.817" filterUnits="userSpaceOnUse">
      <feOffset dy="2" input="SourceAlpha"/>
      <feGaussianBlur stdDeviation="2" result="blur"/>
      <feFlood flood-opacity="0.302"/>
      <feComposite operator="in" in2="blur"/>
      <feComposite in="SourceGraphic"/>
    </filter>
    <filter id="Dot-2" x="42.984" y="45.793" width="23.817" height="23.817" filterUnits="userSpaceOnUse">
      <feOffset dy="2" input="SourceAlpha"/>
      <feGaussianBlur stdDeviation="2" result="blur-2"/>
      <feFlood flood-opacity="0.302"/>
      <feComposite operator="in" in2="blur-2"/>
      <feComposite in="SourceGraphic"/>
    </filter>
    <filter id="Dot-3" x="95.984" y="45.793" width="23.817" height="23.817" filterUnits="userSpaceOnUse">
      <feOffset dy="2" input="SourceAlpha"/>
      <feGaussianBlur stdDeviation="2" result="blur-3"/>
      <feFlood flood-opacity="0.302"/>
      <feComposite operator="in" in2="blur-3"/>
      <feComposite in="SourceGraphic"/>
    </filter>
    <filter id="Dot-4" x="148.984" y="45.793" width="23.817" height="23.817" filterUnits="userSpaceOnUse">
      <feOffset dy="2" input="SourceAlpha"/>
      <feGaussianBlur stdDeviation="2" result="blur-4"/>
      <feFlood flood-opacity="0.302"/>
      <feComposite operator="in" in2="blur-4"/>
      <feComposite in="SourceGraphic"/>
    </filter>
    <filter id="Dot-5" x="201.984" y="45.793" width="23.817" height="23.817" filterUnits="userSpaceOnUse">
      <feOffset dy="2" input="SourceAlpha"/>
      <feGaussianBlur stdDeviation="2" result="blur-5"/>
      <feFlood flood-opacity="0.302"/>
      <feComposite operator="in" in2="blur-5"/>
      <feComposite in="SourceGraphic"/>
    </filter>
    <filter id="Dot-6" x="254.984" y="45.793" width="23.817" height="23.817" filterUnits="userSpaceOnUse">
      <feOffset dy="2" input="SourceAlpha"/>
      <feGaussianBlur stdDeviation="2" result="blur-6"/>
      <feFlood flood-opacity="0.302"/>
      <feComposite operator="in" in2="blur-6"/>
      <feComposite in="SourceGraphic"/>
    </filter>
    <filter id="Dot-7" x="307.984" y="45.793" width="23.817" height="23.817" filterUnits="userSpaceOnUse">
      <feOffset dy="2" input="SourceAlpha"/>
      <feGaussianBlur stdDeviation="2" result="blur-7"/>
      <feFlood flood-opacity="0.302"/>
      <feComposite operator="in" in2="blur-7"/>
      <feComposite in="SourceGraphic"/>
    </filter>
    <filter id="Dot-8" x="360.984" y="45.793" width="23.817" height="23.817" filterUnits="userSpaceOnUse">
      <feOffset dy="2" input="SourceAlpha"/>
      <feGaussianBlur stdDeviation="2" result="blur-8"/>
      <feFlood flood-opacity="0.302"/>
      <feComposite operator="in" in2="blur-8"/>
      <feComposite in="SourceGraphic"/>
    </filter>
    <filter id="Dot-9" x="413.984" y="45.793" width="23.817" height="23.817" filterUnits="userSpaceOnUse">
      <feOffset dy="2" input="SourceAlpha"/>
      <feGaussianBlur stdDeviation="2" result="blur-9"/>
      <feFlood flood-opacity="0.302"/>
      <feComposite operator="in" in2="blur-9"/>
      <feComposite in="SourceGraphic"/>
    </filter>
    <filter id="Dot-10" x="466.984" y="45.793" width="23.817" height="23.817" filterUnits="userSpaceOnUse">
      <feOffset dy="2" input="SourceAlpha"/>
      <feGaussianBlur stdDeviation="2" result="blur-10"/>
      <feFlood flood-opacity="0.302"/>
      <feComposite operator="in" in2="blur-10"/>
      <feComposite in="SourceGraphic"/>
    </filter>
    <filter id="Dot-11" x="519.984" y="45.793" width="23.817" height="23.817" filterUnits="userSpaceOnUse">
      <feOffset dy="2" input="SourceAlpha"/>
      <feGaussianBlur stdDeviation="2" result="blur-11"/>
      <feFlood flood-opacity="0.302"/>
      <feComposite operator="in" in2="blur-11"/>
      <feComposite in="SourceGraphic"/>
    </filter>
    <filter id="Dot-12" x="572.984" y="45.793" width="23.817" height="23.817" filterUnits="userSpaceOnUse">
      <feOffset dy="2" input="SourceAlpha"/>
      <feGaussianBlur stdDeviation="2" result="blur-12"/>
      <feFlood flood-opacity="0.302"/>
      <feComposite operator="in" in2="blur-12"/>
      <feComposite in="SourceGraphic"/>
    </filter>
    <filter id="Dot-13" x="625.984" y="45.793" width="23.817" height="23.817" filterUnits="userSpaceOnUse">
      <feOffset dy="2" input="SourceAlpha"/>
      <feGaussianBlur stdDeviation="2" result="blur-13"/>
      <feFlood flood-opacity="0.302"/>
      <feComposite operator="in" in2="blur-13"/>
      <feComposite in="SourceGraphic"/>
    </filter>
    <filter id="Dot-14" x="678.984" y="45.793" width="23.817" height="23.817" filterUnits="userSpaceOnUse">
      <feOffset dy="2" input="SourceAlpha"/>
      <feGaussianBlur stdDeviation="2" result="blur-14"/>
      <feFlood flood-opacity="0.302"/>
      <feComposite operator="in" in2="blur-14"/>
      <feComposite in="SourceGraphic"/>
    </filter>
    <filter id="Dot-15" x="731.984" y="45.793" width="23.817" height="23.817" filterUnits="userSpaceOnUse">
      <feOffset dy="2" input="SourceAlpha"/>
      <feGaussianBlur stdDeviation="2" result="blur-15"/>
      <feFlood flood-opacity="0.302"/>
      <feComposite operator="in" in2="blur-15"/>
      <feComposite in="SourceGraphic"/>
    </filter>
    <filter id="Dot-16" x="784.984" y="45.793" width="23.817" height="23.817" filterUnits="userSpaceOnUse">
      <feOffset dy="2" input="SourceAlpha"/>
      <feGaussianBlur stdDeviation="2" result="blur-16"/>
      <feFlood flood-opacity="0.302"/>
      <feComposite operator="in" in2="blur-16"/>
      <feComposite in="SourceGraphic"/>
    </filter>
    <filter id="Dot-17" x="837.984" y="45.793" width="23.817" height="23.817" filterUnits="userSpaceOnUse">
      <feOffset dy="2" input="SourceAlpha"/>
      <feGaussianBlur stdDeviation="2" result="blur-17"/>
      <feFlood flood-opacity="0.302"/>
      <feComposite operator="in" in2="blur-17"/>
      <feComposite in="SourceGraphic"/>
    </filter>
    <filter id="Dot-18" x="890.984" y="45.793" width="23.817" height="23.817" filterUnits="userSpaceOnUse">
      <feOffset dy="2" input="SourceAlpha"/>
      <feGaussianBlur stdDeviation="2" result="blur-18"/>
      <feFlood flood-opacity="0.302"/>
      <feComposite operator="in" in2="blur-18"/>
      <feComposite in="SourceGraphic"/>
    </filter>
    <filter id="Dot-19" x="943.984" y="45.793" width="23.817" height="23.817" filterUnits="userSpaceOnUse">
      <feOffset dy="2" input="SourceAlpha"/>
      <feGaussianBlur stdDeviation="2" result="blur-19"/>
      <feFlood flood-opacity="0.302"/>
      <feComposite operator="in" in2="blur-19"/>
      <feComposite in="SourceGraphic"/>
    </filter>
    <filter id="Dot-20" x="996.984" y="45.793" width="23.817" height="23.817" filterUnits="userSpaceOnUse">
      <feOffset dy="2" input="SourceAlpha"/>
      <feGaussianBlur stdDeviation="2" result="blur-20"/>
      <feFlood flood-opacity="0.302"/>
      <feComposite operator="in" in2="blur-20"/>
      <feComposite in="SourceGraphic"/>
    </filter>
    <filter id="Dot-21" x="2.852" y="40.293" width="34.817" height="34.817" filterUnits="userSpaceOnUse">
      <feOffset dy="2" input="SourceAlpha"/>
      <feGaussianBlur stdDeviation="2" result="blur-21"/>
      <feFlood flood-opacity="0.302"/>
      <feComposite operator="in" in2="blur-21"/>
      <feComposite in="SourceGraphic"/>
    </filter>
    <filter id="Dot-22" x="1050.331" y="40.293" width="34.817" height="34.817" filterUnits="userSpaceOnUse">
      <feOffset dy="2" input="SourceAlpha"/>
      <feGaussianBlur stdDeviation="2" result="blur-22"/>
      <feFlood flood-opacity="0.302"/>
      <feComposite operator="in" in2="blur-22"/>
      <feComposite in="SourceGraphic"/>
    </filter>
    <filter id="Dot-23" x="142" y="40" width="34.817" height="34.817" filterUnits="userSpaceOnUse">
      <feOffset dy="2" input="SourceAlpha"/>
      <feGaussianBlur stdDeviation="2" result="blur-23"/>
      <feFlood flood-opacity="0.302"/>
      <feComposite operator="in" in2="blur-23"/>
      <feComposite in="SourceGraphic"/>
    </filter>
    <filter id="Dot-24" x="225" y="40" width="34.817" height="34.817" filterUnits="userSpaceOnUse">
      <feOffset dy="2" input="SourceAlpha"/>
      <feGaussianBlur stdDeviation="2" result="blur-24"/>
      <feFlood flood-opacity="0.302"/>
      <feComposite operator="in" in2="blur-24"/>
      <feComposite in="SourceGraphic"/>
    </filter>
    <filter id="Dot-25" x="355" y="40" width="34.817" height="34.817" filterUnits="userSpaceOnUse">
      <feOffset dy="2" input="SourceAlpha"/>
      <feGaussianBlur stdDeviation="2" result="blur-25"/>
      <feFlood flood-opacity="0.302"/>
      <feComposite operator="in" in2="blur-25"/>
      <feComposite in="SourceGraphic"/>
    </filter>
  </defs>
  <text id="_00km" data-name="00km" transform="translate(16 113)" fill="#008755" font-size="13" font-family="SegoeUI, Segoe UI"><tspan x="-15.837" y="0">00km</tspan></text>
  <text id="_50km_Service" data-name="50km Service" transform="translate(159 113)" fill="#008755" font-size="13" font-family="SegoeUI, Segoe UI"><tspan x="-37.819" y="0">50km Service</tspan></text>
  <text id="Sterilization" transform="translate(246 86)" fill="#008755" font-size="13" font-family="SegoeUI, Segoe UI"><tspan x="-33.338" y="0">Sterilization</tspan></text>
  <text id="_100km_Service" data-name="100km Service" transform="translate(375 115)" fill="#008755" font-size="13" font-family="SegoeUI-Bold, Segoe UI" font-weight="700"><tspan x="-44.611" y="0">100km Service</tspan></text>
  <text id="_150km_Service" data-name="150km Service" transform="translate(720 113)" fill="#7c7e85" font-size="13" font-family="SegoeUI, Segoe UI"><tspan x="-41.323" y="0">150km Service</tspan></text>
  <text id="_200km" data-name="200km" transform="translate(1065 113)" fill="#5d6068" font-size="13" font-family="SegoeUI, Segoe UI"><tspan x="-19.341" y="0">200km</tspan></text>
  <text id="_2026" data-name="2026" transform="translate(1066 14)" fill="#5d6068" font-size="13" font-family="SegoeUI, Segoe UI"><tspan x="-14.016" y="0">2026</tspan></text>
  <text id="_2020" data-name="2020" transform="translate(20 14)" fill="#5d6068" font-size="13" font-family="SegoeUI, Segoe UI"><tspan x="-14.016" y="0">2020</tspan></text>
  <text id="_2021" data-name="2021" transform="translate(160 14)" fill="#5d6068" font-size="13" font-family="SegoeUI, Segoe UI"><tspan x="-14.016" y="0">2021</tspan></text>
  <text id="_2022" data-name="2022" transform="translate(367 14)" fill="#5d6068" font-size="13" font-family="SegoeUI, Segoe UI"><tspan x="-14.016" y="0">2022</tspan></text>
  <text id="_2024" data-name="2024" transform="translate(720 14)" fill="#5d6068" font-size="13" font-family="SegoeUI, Segoe UI"><tspan x="-14.016" y="0">2024</tspan></text>
  <text id="_2022-2" data-name="2022" transform="translate(242 37)" fill="#008755" font-size="13" font-family="SegoeUI, Segoe UI"><tspan x="-14.016" y="0">2022</tspan></text>
  <g id="Group_37695" data-name="Group 37695" transform="translate(10.352 37.3)">
    <path id="Rectangle" d="M2.831,0h1040.4a2.831,2.831,0,1,1,0,5.662H2.831A2.831,2.831,0,0,1,2.831,0Z" transform="translate(10.616 15.571)" fill="#e6e6e6"/>
    <rect id="Rectangle_12" data-name="Rectangle 12" width="350" height="5" transform="translate(10.648 15.7)" fill="#008755"/>
    <g transform="matrix(1, 0, 0, 1, -10.35, -37.3)" filter="url(#Dot)">
      <rect id="Dot-26" data-name="Dot" width="19.817" height="19.817" rx="9.909" transform="translate(708.2 45.79)" fill="#a0a0a0" stroke="#fff" stroke-miterlimit="10" stroke-width="3"/>
    </g>
    <g transform="matrix(1, 0, 0, 1, -10.35, -37.3)" filter="url(#Dot-2)">
      <rect id="Dot-27" data-name="Dot" width="11.817" height="11.817" rx="5.909" transform="translate(48.98 49.79)" fill="#008755"/>
    </g>
    <g transform="matrix(1, 0, 0, 1, -10.35, -37.3)" filter="url(#Dot-3)">
      <rect id="Dot-28" data-name="Dot" width="11.817" height="11.817" rx="5.909" transform="translate(101.98 49.79)" fill="#008755"/>
    </g>
    <g transform="matrix(1, 0, 0, 1, -10.35, -37.3)" filter="url(#Dot-4)">
      <rect id="Dot-29" data-name="Dot" width="11.817" height="11.817" rx="5.909" transform="translate(154.98 49.79)" fill="#008755"/>
    </g>
    <g transform="matrix(1, 0, 0, 1, -10.35, -37.3)" filter="url(#Dot-5)">
      <rect id="Dot-30" data-name="Dot" width="11.817" height="11.817" rx="5.909" transform="translate(207.98 49.79)" fill="#008755"/>
    </g>
    <g transform="matrix(1, 0, 0, 1, -10.35, -37.3)" filter="url(#Dot-6)">
      <rect id="Dot-31" data-name="Dot" width="11.817" height="11.817" rx="5.909" transform="translate(260.98 49.79)" fill="#008755"/>
    </g>
    <g transform="matrix(1, 0, 0, 1, -10.35, -37.3)" filter="url(#Dot-7)">
      <rect id="Dot-32" data-name="Dot" width="11.817" height="11.817" rx="5.909" transform="translate(313.98 49.79)" fill="#008755"/>
    </g>
    <g transform="matrix(1, 0, 0, 1, -10.35, -37.3)" filter="url(#Dot-8)">
      <rect id="Dot-33" data-name="Dot" width="11.817" height="11.817" rx="5.909" transform="translate(366.98 49.79)" fill="#008755"/>
    </g>
    <g transform="matrix(1, 0, 0, 1, -10.35, -37.3)" filter="url(#Dot-9)">
      <rect id="Dot-34" data-name="Dot" width="11.817" height="11.817" rx="5.909" transform="translate(419.98 49.79)" fill="#a0a0a0"/>
    </g>
    <g transform="matrix(1, 0, 0, 1, -10.35, -37.3)" filter="url(#Dot-10)">
      <rect id="Dot-35" data-name="Dot" width="11.817" height="11.817" rx="5.909" transform="translate(472.98 49.79)" fill="#a0a0a0"/>
    </g>
    <g transform="matrix(1, 0, 0, 1, -10.35, -37.3)" filter="url(#Dot-11)">
      <rect id="Dot-36" data-name="Dot" width="11.817" height="11.817" rx="5.909" transform="translate(525.98 49.79)" fill="#a0a0a0"/>
    </g>
    <g transform="matrix(1, 0, 0, 1, -10.35, -37.3)" filter="url(#Dot-12)">
      <rect id="Dot-37" data-name="Dot" width="11.817" height="11.817" rx="5.909" transform="translate(578.98 49.79)" fill="#a0a0a0"/>
    </g>
    <g transform="matrix(1, 0, 0, 1, -10.35, -37.3)" filter="url(#Dot-13)">
      <rect id="Dot-38" data-name="Dot" width="11.817" height="11.817" rx="5.909" transform="translate(631.98 49.79)" fill="#a0a0a0"/>
    </g>
    <g transform="matrix(1, 0, 0, 1, -10.35, -37.3)" filter="url(#Dot-14)">
      <rect id="Dot-39" data-name="Dot" width="11.817" height="11.817" rx="5.909" transform="translate(684.98 49.79)" fill="#a0a0a0"/>
    </g>
    <g transform="matrix(1, 0, 0, 1, -10.35, -37.3)" filter="url(#Dot-15)">
      <rect id="Dot-40" data-name="Dot" width="11.817" height="11.817" rx="5.909" transform="translate(737.98 49.79)" fill="#a0a0a0"/>
    </g>
    <g transform="matrix(1, 0, 0, 1, -10.35, -37.3)" filter="url(#Dot-16)">
      <rect id="Dot-41" data-name="Dot" width="11.817" height="11.817" rx="5.909" transform="translate(790.98 49.79)" fill="#a0a0a0"/>
    </g>
    <g transform="matrix(1, 0, 0, 1, -10.35, -37.3)" filter="url(#Dot-17)">
      <rect id="Dot-42" data-name="Dot" width="11.817" height="11.817" rx="5.909" transform="translate(843.98 49.79)" fill="#a0a0a0"/>
    </g>
    <g transform="matrix(1, 0, 0, 1, -10.35, -37.3)" filter="url(#Dot-18)">
      <rect id="Dot-43" data-name="Dot" width="11.817" height="11.817" rx="5.909" transform="translate(896.98 49.79)" fill="#a0a0a0"/>
    </g>
    <g transform="matrix(1, 0, 0, 1, -10.35, -37.3)" filter="url(#Dot-19)">
      <rect id="Dot-44" data-name="Dot" width="11.817" height="11.817" rx="5.909" transform="translate(949.98 49.79)" fill="#a0a0a0"/>
    </g>
    <g transform="matrix(1, 0, 0, 1, -10.35, -37.3)" filter="url(#Dot-20)">
      <rect id="Dot-45" data-name="Dot" width="11.817" height="11.817" rx="5.909" transform="translate(1002.98 49.79)" fill="#a0a0a0"/>
    </g>
    <g transform="matrix(1, 0, 0, 1, -10.35, -37.3)" filter="url(#Dot-21)">
      <rect id="Dot-46" data-name="Dot" width="19.817" height="19.817" rx="9.909" transform="translate(10.35 45.79)" fill="#008755" stroke="#fff" stroke-miterlimit="10" stroke-width="3"/>
    </g>
    <g transform="matrix(1, 0, 0, 1, -10.35, -37.3)" filter="url(#Dot-22)">
      <rect id="Dot-47" data-name="Dot" width="19.817" height="19.817" rx="9.909" transform="translate(1057.83 45.79)" fill="#a0a0a0" stroke="#fff" stroke-miterlimit="10" stroke-width="3"/>
    </g>
  </g>
  <g id="Group_37769" data-name="Group 37769" transform="translate(-723 -194)">
    <g transform="matrix(1, 0, 0, 1, 723, 194)" filter="url(#Dot-23)">
      <rect id="Dot-48" data-name="Dot" width="19.817" height="19.817" rx="9.909" transform="translate(149.5 45.5)" fill="#008755" stroke="#fff" stroke-miterlimit="10" stroke-width="3"/>
    </g>
  </g>
  <g id="Group_37771" data-name="Group 37771" transform="translate(-640 -194)">
    <g transform="matrix(1, 0, 0, 1, 640, 194)" filter="url(#Dot-24)">
      <rect id="Dot-49" data-name="Dot" width="19.817" height="19.817" rx="9.909" transform="translate(232.5 45.5)" fill="#008755" stroke="#fff" stroke-miterlimit="10" stroke-width="3"/>
    </g>
  </g>
  <g id="Group_37770" data-name="Group 37770" transform="translate(-510 -194)">
    <rect id="Dot-50" data-name="Dot" width="36" height="37" rx="18" transform="translate(864 231)" fill="#008755" opacity="0.308"/>
    <g transform="matrix(1, 0, 0, 1, 510, 194)" filter="url(#Dot-25)">
      <rect id="Dot-51" data-name="Dot" width="19.817" height="19.817" rx="9.909" transform="translate(362.5 45.5)" fill="#008755" stroke="#fff" stroke-miterlimit="10" stroke-width="3"/>
    </g>
  </g>
</svg>
