<svg xmlns="http://www.w3.org/2000/svg" width="19.23" height="20" viewBox="0 0 19.23 20"><defs></defs><g transform="translate(-7.085 0)"><g transform="translate(7.085 8.832)"><path d="M17.34,165.281l-2.621-2.63a.435.435,0,0,0-.613,0l-1.561,1.561a.435.435,0,0,0,0,.613l.265.265-5.556,5.56a.435.435,0,0,0-.126.3l-.043,2.308a.435.435,0,0,0,.435.435H9.346a.435.435,0,0,0,.309-.126l1.026-1.026a.435.435,0,0,0,.126-.3l.026-.93.743.091a.435.435,0,0,0,.361-.126l.648-.63a.435.435,0,0,0,.126-.265l.083-.869,1.061-.235a.435.435,0,0,0,.335-.348l.213-1.178,1.139-.178a.435.435,0,0,0,.239-.122l1.561-1.561A.435.435,0,0,0,17.34,165.281Z" transform="translate(-7.085 -162.525)"/></g><g transform="translate(13.575 0)"><path d="M138.49,4.12h0L135.13.764a2.174,2.174,0,0,0-3.308,0l-5.03,5.03a.935.935,0,0,0,0,1.3l5.347,5.347a.935.935,0,0,0,1.3,0l5.047-5.017A2.151,2.151,0,0,0,138.49,4.12Zm-1.875,2.149-.007.007,0,.017a.435.435,0,0,1-.613,0l-3.021-3.021a.435.435,0,1,1,.613-.613l3.017,3A.435.435,0,0,1,136.615,6.269Z" transform="translate(-126.527 0)"/></g></g></svg>
