<svg xmlns="http://www.w3.org/2000/svg" width="20" height="20" viewBox="0 0 20 20"><g transform="translate(55.022 -3)"><g transform="translate(3.978)"><g transform="translate(-59 3)"><path d="M17.112,0a6.821,6.821,0,0,0-6.866,6.76,6.625,6.625,0,0,0,.445,2.4L4.125,15.622a.489.489,0,0,0-.147.348v3.537a.5.5,0,0,0,.5.493H7.439a.5.5,0,0,0,.354-.144l1-.981a.489.489,0,0,0,.147-.349V17.321h1.224a.5.5,0,0,0,.5-.493v-.483h.49a.5.5,0,0,0,.5-.493v-1.06h1.077a.5.5,0,0,0,.354-.144l1.592-1.567a6.916,6.916,0,0,0,2.437.438,6.821,6.821,0,0,0,6.866-6.76A6.821,6.821,0,0,0,17.112,0Zm0,12.534a5.9,5.9,0,0,1-2.355-.484.506.506,0,0,0-.55.1l0,0-1.681,1.654h-1.37a.5.5,0,0,0-.5.493v1.06h-.49a.5.5,0,0,0-.5.493v.483H8.437a.5.5,0,0,0-.5.493v1.494l-.7.692H4.979v-.7L11.1,12.3a.438.438,0,0,0,0-.627.455.455,0,0,0-.637,0L4.979,17.065v-.89l6.654-6.551,0,0a.487.487,0,0,0,.1-.542,5.658,5.658,0,0,1-.491-2.318,5.866,5.866,0,0,1,11.731,0A5.827,5.827,0,0,1,17.112,12.534Z" transform="translate(-3.978)"/></g></g><g transform="translate(-42.371 6.095)"><path d="M342.528,73.144a2.127,2.127,0,1,0,2.127,2.127A2.129,2.129,0,0,0,342.528,73.144Zm0,3.118a.991.991,0,1,1,.991-.991A.992.992,0,0,1,342.528,76.262Z" transform="translate(-340.401 -73.144)"/></g></g></svg>