<svg xmlns="http://www.w3.org/2000/svg" width="20" height="20" viewBox="0 0 20 20"><g transform="translate(0 15)"><path d="M9.375,23H1.458A1.641,1.641,0,0,1,0,21.333V19.458A1.46,1.46,0,0,1,1.458,18H9.375a1.46,1.46,0,0,1,1.458,1.458v2.083A1.46,1.46,0,0,1,9.375,23Z" transform="translate(0 -18)" fill="rgba(0,0,0,0.87)"/></g><g transform="translate(10.833 6.666)"><path d="M18.588,8.243a.832.832,0,0,0-1.178,0l-2.472,2.472-.866-.866a.625.625,0,0,0-1.067.441L13,13.206a.626.626,0,0,0,.625.627h0l2.917-.006a.625.625,0,0,0,.44-1.067l-.866-.866,2.472-2.472A.834.834,0,0,0,18.588,8.243Z" transform="translate(-12.999 -7.999)" fill="rgba(0,0,0,0.87)"/></g><path d="M17.5,0H2.5A2.507,2.507,0,0,0,0,2.5V13.7a3.077,3.077,0,0,1,1.458-.367h.208V4.167H18.333V15.833a.836.836,0,0,1-.833.833h-5v1.667h5a2.507,2.507,0,0,0,2.5-2.5V2.5A2.507,2.507,0,0,0,17.5,0Z" fill="rgba(0,0,0,0.87)"/></svg>