<svg xmlns="http://www.w3.org/2000/svg" width="57.339" height="43" viewBox="0 0 57.339 43">
  <g id="Group_37716" data-name="Group 37716" transform="translate(-590.941 563.357)">
    <path id="Path_51145" data-name="Path 51145" d="M649.237-526.2v27.843c0,.835-.3,1.133-1.137,1.133H595.8c-.836,0-1.115-.276-1.115-1.1V-526.2Zm-39.391,12.615a5.3,5.3,0,0,0-5.306-5.277,5.292,5.292,0,0,0-5.264,5.352,5.3,5.3,0,0,0,5.285,5.224A5.3,5.3,0,0,0,609.846-513.589Zm23.57.012a5.3,5.3,0,0,0,5.257,5.287,5.322,5.322,0,0,0,5.337-5.29,5.32,5.32,0,0,0-5.3-5.286A5.3,5.3,0,0,0,633.416-513.577ZM619.18-504.9l.059.027,6.547-10.3h-4.509l4.433-7.325c-1.448,0-2.789.009-4.131-.007a.45.45,0,0,0-.518.354c-.9,2.553-1.826,5.1-2.741,7.647-.063.175-.112.354-.182.578h3.628Z" transform="translate(-2.329 -23.13)" fill="#fff"/>
    <path id="Path_51146" data-name="Path 51146" d="M619.652-536.9H591.87c-.7,0-.927-.223-.928-.939q0-1.634,0-3.268c0-.822.2-1.019,1.039-1.019h55.382c.7,0,.916.223.916.911q0,1.707,0,3.414c0,.694-.213.9-.918.9Z" transform="translate(0 -13.215)" fill="#fff"/>
    <path id="Path_51147" data-name="Path 51147" d="M612.57-558.292h-4.694c-.006-.122-.016-.239-.016-.355q0-1.941,0-3.881c0-.6.226-.827.836-.827q1.542,0,3.083,0c.573,0,.79.216.792.788C612.571-561.153,612.57-559.741,612.57-558.292Zm-.883-.758c0-.924,0-1.825,0-2.726,0-.434-.2-.692-.514-.694s-.535.248-.538.676c-.006.772,0,1.544,0,2.316,0,.141.012.281.018.428Z" transform="translate(-10.531 -0.001)" fill="#fff"/>
    <path id="Path_51148" data-name="Path 51148" d="M718.179-558.3h-4.686c-.008-.1-.023-.2-.023-.306q0-1.976,0-3.953c0-.561.231-.795.79-.8q1.577,0,3.155,0c.543,0,.779.234.781.768,0,1.342,0,2.684,0,4.025C718.2-558.479,718.186-558.4,718.179-558.3Zm-.944-.75c0-.575,0-1.106,0-1.636,0-.41.009-.821-.006-1.231a.512.512,0,0,0-.514-.547.48.48,0,0,0-.543.47c-.023.973-.008,1.948-.008,2.944Z" transform="translate(-76.281)" fill="#fff"/>
    <path id="Path_51149" data-name="Path 51149" d="M610.99-546.524h-9.6a7.836,7.836,0,0,1,.016-1.061c.018-.131.2-.256.337-.348.066-.046.188-.012.285-.012h8.353c.518,0,.608.092.61.613C610.99-547.069,610.99-546.805,610.99-546.524Z" transform="translate(-6.498 -9.588)" fill="#fff"/>
    <path id="Path_51150" data-name="Path 51150" d="M707.04-546.5c0-.334,0-.624,0-.914.006-.414.1-.507.522-.508q2.16,0,4.321,0,2.088,0,4.176,0c.471,0,.556.084.561.544,0,.254,0,.508-.005.762a.526.526,0,0,1-.036.117Z" transform="translate(-72.277 -9.606)" fill="#fff"/>
    <path id="Path_51151" data-name="Path 51151" d="M618.748-493.189h-6.382v-1.437h6.382Z" transform="translate(-13.338 -42.789)" fill="#fff"/>
    <path id="Path_51152" data-name="Path 51152" d="M702.888-497.232V-498.7h2.386v-2.451h1.483v2.423h2.5v1.48H706.87v2.452h-1.48v-2.432Z" transform="translate(-69.693 -38.725)" fill="#fff"/>
  </g>
</svg>
