<svg xmlns="http://www.w3.org/2000/svg" width="20" height="16" viewBox="0 0 20 16"><path d="M4.47,6.891,4.082,8.34a2.947,2.947,0,0,0-.075,1.075l-1.1.906a.283.283,0,0,1-.457-.274l.482-2.4a.283.283,0,0,0-.25-.337L.249,7.077A.283.283,0,0,1,.12,6.56L2.156,5.207a.283.283,0,0,0,.062-.415L.664,2.9a.283.283,0,0,1,.274-.457l2.4.482a.283.283,0,0,0,.337-.25L3.908.247A.283.283,0,0,1,4.426.117L5.779,2.153a.283.283,0,0,0,.415.062L8.081.661a.283.283,0,0,1,.457.274L8.184,2.69c-.085.1-.17.19-.247.294l-1,1.343L6.6,4.774A3.014,3.014,0,0,0,4.47,6.891Zm15.455,4.141-.388,1.449a1.958,1.958,0,0,1-.548.917,2.09,2.09,0,0,1-.274.219l-.437,1.632a1,1,0,0,1-1.225.707l-.966-.259a1,1,0,0,1-.707-1.225l.259-.966L7.911,11.436l-.259.966a1,1,0,0,1-1.225.707l-.966-.259a1,1,0,0,1-.707-1.225l.437-1.632a2.082,2.082,0,0,1-.128-.327A1.958,1.958,0,0,1,5.048,8.6L5.436,7.15A1.985,1.985,0,0,1,6.589,5.831a2.01,2.01,0,0,1,.578-.147l.567-.757,1-1.343A3.52,3.52,0,0,1,9.924,2.572a3.431,3.431,0,0,1,.47-.2A3.469,3.469,0,0,1,11.4,2.181a3.528,3.528,0,0,1,1.045.119L16.28,3.327a3.522,3.522,0,0,1,.964.42,3.482,3.482,0,0,1,1.605,2.547l.2,1.665.112.939a2.015,2.015,0,0,1,.711.935,1.973,1.973,0,0,1,.055,1.2ZM7.98,7.314a.943.943,0,0,0-1.224.7A.943.943,0,0,0,7.464,9.24c.58.155,1.423.485,1.578-.093A1.923,1.923,0,0,0,7.98,7.314Zm9.081.88-.2-1.665a1.5,1.5,0,0,0-1.1-1.271L11.928,4.231a1.5,1.5,0,0,0-1.589.55l-1,1.343,5.375,1.44ZM17.64,9.9A1.924,1.924,0,0,0,15.8,10.958c-.155.578.74.714,1.32.87A1,1,0,1,0,17.64,9.9Z" transform="translate(0.006 0.009)" fill="rgba(0,0,0,0.87)" opacity="0.55"/></svg>