<svg id="booking" xmlns="http://www.w3.org/2000/svg" width="24" height="28" viewBox="0 0 24 28">
  <path id="Path_342" data-name="Path 342" d="M222.46,282.911q-1.22,1.254-2.476,2.474a1.3,1.3,0,0,1-1.975-.017c-.39-.37-.767-.753-1.138-1.14a1.33,1.33,0,0,1-.107-1.927,1.362,1.362,0,0,1,1.938.077c.087.076.17.156.344.315.547-.565,1.053-1.112,1.586-1.636a1.274,1.274,0,0,1,1.919-.079A1.326,1.326,0,0,1,222.46,282.911Z" transform="translate(-212.123 -271.446)" fill="#a7a7a7"/>
  <path id="Path_343" data-name="Path 343" d="M222.46,314.911q-1.22,1.254-2.476,2.474a1.3,1.3,0,0,1-1.975-.017c-.39-.37-.767-.753-1.138-1.14a1.33,1.33,0,0,1-.107-1.927,1.362,1.362,0,0,1,1.938.077c.087.076.17.156.344.315.547-.565,1.053-1.112,1.586-1.636a1.274,1.274,0,0,1,1.919-.079A1.326,1.326,0,0,1,222.46,314.911Z" transform="translate(-212.123 -296.201)" fill="#a7a7a7"/>
  <path id="Path_344" data-name="Path 344" d="M222.028,245.666a7.54,7.54,0,0,0-.024-.808,2.484,2.484,0,0,0-1.661-2.114,2.7,2.7,0,0,0-.857-.153c-.065,0-.13,0-.2,0s-.125,0-.187,0c-.831-.009-1.664,0-2.5,0-.156,0-.312-.021-.5-.037a2.051,2.051,0,0,0-1.412-2.316h-9.26l-.036.014a2.05,2.05,0,0,0-1.373,2.3c-.206.014-.377.039-.547.039-.811,0-1.625-.007-2.437,0l-.187,0c-.089,0-.178,0-.266,0A2.681,2.681,0,0,0,199.2,243l-.065.042a2.132,2.132,0,0,0-.811.92l-.036.072c-.01.026-.022.053-.034.081a2.537,2.537,0,0,0-.194.746l-.007.091c-.022.237-.019.476-.019.718q0,7.578,0,15.161v4.23a5.165,5.165,0,0,0,.163,1.491c.247.79.807,1.21,1.966,1.682H219.91c1.1-.451,1.664-.857,1.923-1.584a4.765,4.765,0,0,0,.2-1.589v-4.825Q222.03,252.947,222.028,245.666Zm-15.518-3.071h7.075v2.267h-7.075Zm13.151,22.711c0,.467-.158.6-.651.595-2.554-.014-5.109-.012-7.663-.012h-2.581c-2.569,0-5.135,0-7.7.012-.507,0-.655-.135-.653-.632v-.007q.011-4.035.012-8.072,0-5.85-.01-11.7a1.413,1.413,0,0,1,.017-.237v0a.393.393,0,0,1,.37-.374h.792a.061.061,0,0,1,.029,0c.612,0,1.229,0,1.861,0h.531c.007.056.012.111.014.163a4.681,4.681,0,0,0,.007.527,1.762,1.762,0,0,0,.905,1.415c.038.021.077.042.115.058a1.207,1.207,0,0,0,.115.049c.053.021.106.037.161.053a1.4,1.4,0,0,0,.17.037c.058.012.118.019.178.026s.12.007.182.007q4.192.014,8.388,0h.019a1.783,1.783,0,0,0,1.834-1.645c.019-.2,0-.409,0-.69h.492c.631,0,1.248.007,1.863,0a.071.071,0,0,1,.031,0h.78c.314.046.389.246.389.616q-.007,4.537-.01,9.071v2.585q0,.878,0,1.754c0,.959,0,1.916,0,2.873q0,1.749.007,3.5Z" transform="translate(-198.03 -240.23)" fill="#a7a7a7"/>
  <path id="Path_345" data-name="Path 345" d="M257.3,301.85a1.261,1.261,0,0,1-1.375,1.335c-.668.005-1.333.008-2,.008-1.461.005-2.922,0-4.38-.008a1.285,1.285,0,0,1-1.4-1.317,1.222,1.222,0,0,1,.99-1.2,1.9,1.9,0,0,1,.4-.047c1.076-.013,2.152-.005,3.226-.005,1.053,0,2.1-.008,3.155,0C256.779,300.628,257.277,301.081,257.3,301.85Z" transform="translate(-237.409 -286.743)" fill="#a7a7a7"/>
  <path id="Path_346" data-name="Path 346" d="M255.991,322.314a1.32,1.32,0,0,1-1.354,1.283q-.082.008-.165.008c-.817.008-1.636,0-2.451,0s-1.636.01-2.453,0a1.275,1.275,0,0,1-1.43-1.286,1.3,1.3,0,0,1,1.464-1.33q2.172-.016,4.346,0l.558,0A1.342,1.342,0,0,1,255.991,322.314Z" transform="translate(-236.576 -302.439)" fill="#a7a7a7"/>
  <path id="Path_347" data-name="Path 347" d="M253.352,281.649a1.24,1.24,0,0,1-1.233,1.333c-.175.013-.348.018-.524.018-.115,0-.23,0-.346-.005l-.076,0-.27,0c-.029,0-.06,0-.092,0h-.094l-.2,0c-.1,0-.2,0-.306.005-.189.005-.374.005-.563,0-.084,0-.17-.008-.257-.013a1.286,1.286,0,0,1-1.249-1.333,1.268,1.268,0,0,1,1.246-1.265c.909-.042,1.822-.039,2.731,0A1.251,1.251,0,0,1,253.352,281.649Z" transform="translate(-236.38 -271.142)" fill="#a7a7a7"/>
</svg>
