<svg xmlns="http://www.w3.org/2000/svg" width="20" height="17.5" viewBox="0 0 20 17.5">
  <path id="object-group-solid" d="M18.75,35.75V34.5h.781A.469.469,0,0,0,20,34.031V32.469A.469.469,0,0,0,19.531,32H17.969a.469.469,0,0,0-.469.469v.781H2.5v-.781A.469.469,0,0,0,2.031,32H.469A.469.469,0,0,0,0,32.469v1.563a.469.469,0,0,0,.469.469H1.25V47H.469A.469.469,0,0,0,0,47.469v1.563a.469.469,0,0,0,.469.469H2.031a.469.469,0,0,0,.469-.469V48.25h15v.781a.469.469,0,0,0,.469.469h1.563A.469.469,0,0,0,20,49.031V47.469A.469.469,0,0,0,19.531,47H18.75Zm-15,5.781V36.219a.469.469,0,0,1,.469-.469h6.563a.469.469,0,0,1,.469.469v5.313a.469.469,0,0,1-.469.469H4.219A.469.469,0,0,1,3.75,41.531Zm12.5,3.75a.469.469,0,0,1-.469.469H9.219a.469.469,0,0,1-.469-.469V43.25h2.813a.937.937,0,0,0,.938-.937V39.5h3.281a.469.469,0,0,1,.469.469Z" transform="translate(0 -32)"/>
</svg>
