<svg xmlns="http://www.w3.org/2000/svg" width="20" height="17" viewBox="0 0 20 17"><path d="M19,35l-.248-.57h.781A.462.462,0,0,0,20,33.973V32.455A.462.462,0,0,0,19.531,32H17.969a.462.462,0,0,0-.469.455v.759H2.5v-.759A.462.462,0,0,0,2.031,32H.469A.462.462,0,0,0,0,32.455v1.518a.462.462,0,0,0,.469.455H1.25V46.571H.469A.462.462,0,0,0,0,47.027v1.518A.462.462,0,0,0,.469,49H2.031a.462.462,0,0,0,.469-.455v-.759h15v.759a.462.462,0,0,0,.469.455h1.563A.462.462,0,0,0,20,48.545V47.027a.462.462,0,0,0-.469-.455H18.75ZM3.75,41.259V36.1a.462.462,0,0,1,.469-.455h6.563a.462.462,0,0,1,.469.455v5.161a.462.462,0,0,1-.469.455H4.219A.462.462,0,0,1,3.75,41.259ZM16.25,44.9a.462.462,0,0,1-.469.455H9.219A.462.462,0,0,1,8.75,44.9V42.929h2.813a.924.924,0,0,0,.938-.911V39.286h3.281a.462.462,0,0,1,.469.455Z" transform="translate(0 -32)"/></svg>