<svg xmlns="http://www.w3.org/2000/svg" width="24" height="24" viewBox="0 0 24 24">
  <g id="calendar" transform="translate(-154 13)">
    <path id="calendar-2" data-name="calendar" d="M20678.814,18808a2.816,2.816,0,0,1-2.812-2.812v-16.5a2.816,2.816,0,0,1,2.813-2.812h1.125V18784h1.875v1.875h12.375V18784h1.875v1.875h1.125a2.816,2.816,0,0,1,2.813,2.813v16.5a2.816,2.816,0,0,1-2.812,2.813Zm-.937-2.812a.938.938,0,0,0,.938.938h18.375a.938.938,0,0,0,.938-.937v-12.375h-20.25Zm0-16.5v2.25h20.25v-2.25a.938.938,0,0,0-.937-.937h-1.125v1.875h-1.875v-1.875h-12.375v1.875h-1.875v-1.875h-1.125A.938.938,0,0,0,20677.877,18788.689Zm12.938,15.469v-1.875h1.875v1.875Zm-3.75,0v-1.875h1.875v1.875Zm-3.75,0v-1.875h1.875v1.875Zm-3.75,0v-1.875h1.875v1.875Zm15-3.75v-1.875h1.875v1.875Zm-3.75,0v-1.875h1.875v1.875Zm-3.75,0v-1.875h1.875v1.875Zm-3.75,0v-1.875h1.875v1.875Zm-3.75,0v-1.875h1.875v1.875Zm15-3.75v-1.875h1.875v1.875Zm-3.75,0v-1.875h1.875v1.875Zm-3.75,0v-1.875h1.875v1.875Zm-3.75,0v-1.875h1.875v1.875Zm-3.75,0v-1.875h1.875v1.875Z" transform="translate(-20522.002 -18797.002)" fill="#a7a7a7"/>
  </g>
</svg>
