<?xml version="1.0"?>
<svg xmlns="http://www.w3.org/2000/svg" xmlns:xlink="http://www.w3.org/1999/xlink" xmlns:svgjs="http://svgjs.com/svgjs" version="1.1" width="512" height="512" x="0" y="0" viewBox="0 0 512 512" style="enable-background:new 0 0 512 512" xml:space="preserve" class=""><g>
<g xmlns="http://www.w3.org/2000/svg">
	<g>
		<path d="M437.333,117.333h-64c-4.608,0-8.661-2.923-10.112-7.296l-6.741-20.245c-7.296-21.803-27.627-36.459-50.603-36.459    h-99.755c-22.997,0-43.328,14.656-50.581,36.459l-6.741,20.245c-1.472,4.373-5.547,7.296-10.133,7.296h-64    C33.493,117.333,0,150.827,0,192v192c0,41.173,33.493,74.667,74.667,74.667h362.667C478.507,458.667,512,425.173,512,384V192    C512,150.827,478.507,117.333,437.333,117.333z M256,416c-70.592,0-128-57.408-128-128s57.408-128,128-128s128,57.408,128,128    S326.592,416,256,416z" fill="#0000005e" data-original="#000000" style="" class=""/>
	</g>
</g>
<g xmlns="http://www.w3.org/2000/svg">
	<g>
		<path d="M256,202.667c-47.061,0-85.333,38.272-85.333,85.333c0,5.888,4.779,10.667,10.667,10.667S192,293.888,192,288    c0-35.285,28.715-64,64-64c5.888,0,10.667-4.779,10.667-10.667S261.888,202.667,256,202.667z" fill="#0000005e" data-original="#000000" style="" class=""/>
	</g>
</g>
<g xmlns="http://www.w3.org/2000/svg">
</g>
<g xmlns="http://www.w3.org/2000/svg">
</g>
<g xmlns="http://www.w3.org/2000/svg">
</g>
<g xmlns="http://www.w3.org/2000/svg">
</g>
<g xmlns="http://www.w3.org/2000/svg">
</g>
<g xmlns="http://www.w3.org/2000/svg">
</g>
<g xmlns="http://www.w3.org/2000/svg">
</g>
<g xmlns="http://www.w3.org/2000/svg">
</g>
<g xmlns="http://www.w3.org/2000/svg">
</g>
<g xmlns="http://www.w3.org/2000/svg">
</g>
<g xmlns="http://www.w3.org/2000/svg">
</g>
<g xmlns="http://www.w3.org/2000/svg">
</g>
<g xmlns="http://www.w3.org/2000/svg">
</g>
<g xmlns="http://www.w3.org/2000/svg">
</g>
<g xmlns="http://www.w3.org/2000/svg">
</g>
</g></svg>
