<svg xmlns="http://www.w3.org/2000/svg" width="20" height="20" viewBox="0 0 20 20"><defs></defs><path d="M19.534,68.375H17.2l-.65-1.625A4.353,4.353,0,0,0,12.484,64H7.523a4.354,4.354,0,0,0-4.062,2.75l-.65,1.625H.473a.469.469,0,0,0-.455.582l.234.938a.468.468,0,0,0,.455.355h.784a2.483,2.483,0,0,0-.863,1.875V74a2.48,2.48,0,0,0,.625,1.638V77.75A1.25,1.25,0,0,0,2.5,79h1.25A1.25,1.25,0,0,0,5,77.75V76.5H15v1.25A1.25,1.25,0,0,0,16.254,79H17.5a1.25,1.25,0,0,0,1.25-1.25V75.638A2.478,2.478,0,0,0,19.379,74V72.125a2.484,2.484,0,0,0-.862-1.875H19.3a.468.468,0,0,0,.455-.355l.234-.937A.469.469,0,0,0,19.534,68.375Zm-13.752-.7A1.875,1.875,0,0,1,7.523,66.5h4.961a1.875,1.875,0,0,1,1.741,1.179L15,69.625H5ZM3.754,73.992a1.246,1.246,0,1,1,0-2.492,2.4,2.4,0,0,1,1.875,1.869C5.629,74.117,4.5,73.992,3.754,73.992Zm12.5,0c-.75,0-1.875.125-1.875-.623A2.4,2.4,0,0,1,16.254,71.5a1.246,1.246,0,1,1,0,2.492Z" transform="translate(-0.004 -64)"/></svg>
