<svg xmlns="http://www.w3.org/2000/svg" width="20" height="20" viewBox="0 0 20 20">
  <path id="Path_74097" data-name="Path 74097" d="M20,11.653V8.347l-2.711-.534a7.53,7.53,0,0,0-.59-1.42l1.513-2.269L15.875,1.788,13.606,3.3a7.529,7.529,0,0,0-1.42-.59L11.653,0H8.347L7.814,2.711a7.53,7.53,0,0,0-1.42.59L4.125,1.788,1.788,4.125,3.3,6.394a7.529,7.529,0,0,0-.59,1.42L0,8.347v3.305l2.711.534a7.53,7.53,0,0,0,.59,1.42L1.788,15.875l2.336,2.336L6.394,16.7a7.529,7.529,0,0,0,1.42.59L8.347,20h3.305l.534-2.711a7.53,7.53,0,0,0,1.42-.59l2.269,1.513,2.336-2.336L16.7,13.606a7.529,7.529,0,0,0,.59-1.42ZM10,14.1A4.1,4.1,0,1,1,14.1,10,4.107,4.107,0,0,1,10,14.1Z" fill="#ffffff"/>
</svg>
