<svg xmlns="http://www.w3.org/2000/svg" width="19.146" height="20" viewBox="0 0 19.146 20">
  <path id="cog-solid" d="M37.545,20.5l-1.718-.992a7.767,7.767,0,0,0,0-2.831l1.718-.992a.487.487,0,0,0,.222-.565,10.043,10.043,0,0,0-2.206-3.815.485.485,0,0,0-.6-.093l-1.718.992A7.61,7.61,0,0,0,30.8,10.793V8.813a.483.483,0,0,0-.379-.472,10.137,10.137,0,0,0-4.4,0,.483.483,0,0,0-.379.472V10.8a7.85,7.85,0,0,0-2.452,1.415l-1.714-.992a.479.479,0,0,0-.6.093,9.982,9.982,0,0,0-2.206,3.815.482.482,0,0,0,.222.565l1.718.992a7.767,7.767,0,0,0,0,2.831l-1.718.992a.487.487,0,0,0-.222.565,10.043,10.043,0,0,0,2.206,3.815.485.485,0,0,0,.6.093l1.718-.992A7.61,7.61,0,0,0,25.638,25.4v1.984a.483.483,0,0,0,.379.472,10.137,10.137,0,0,0,4.4,0,.483.483,0,0,0,.379-.472V25.4a7.85,7.85,0,0,0,2.452-1.415l1.718.992a.479.479,0,0,0,.6-.093,9.982,9.982,0,0,0,2.206-3.815A.5.5,0,0,0,37.545,20.5Zm-9.331.819A3.226,3.226,0,1,1,31.44,18.1,3.23,3.23,0,0,1,28.215,21.321Z" transform="translate(-18.644 -8.099)"/>
</svg>
