<svg id="_929506" data-name="929506" xmlns="http://www.w3.org/2000/svg" width="24" height="24" viewBox="0 0 24 24">
  <g id="Group_40282" data-name="Group 40282" transform="translate(8.484 8.484)">
    <g id="Group_40281" data-name="Group 40281">
      <path id="Path_73928" data-name="Path 73928" d="M184.516,181a3.516,3.516,0,1,0,3.516,3.516A3.52,3.52,0,0,0,184.516,181Z" transform="translate(-181 -181)"/>
    </g>
  </g>
  <g id="Group_40284" data-name="Group 40284">
    <g id="Group_40283" data-name="Group 40283">
      <path id="Path_73929" data-name="Path 73929" d="M24,13.983V10.017l-3.253-.641a9.036,9.036,0,0,0-.708-1.7L21.854,4.95l-2.8-2.8L16.327,3.961a9.034,9.034,0,0,0-1.7-.708L13.983,0H10.017L9.376,3.253a9.036,9.036,0,0,0-1.7.708L4.95,2.146l-2.8,2.8L3.961,7.673a9.034,9.034,0,0,0-.708,1.7L0,10.017v3.966l3.253.641a9.036,9.036,0,0,0,.708,1.7L2.146,19.05l2.8,2.8,2.723-1.815a9.034,9.034,0,0,0,1.7.708L10.017,24h3.966l.641-3.253a9.036,9.036,0,0,0,1.7-.708l2.723,1.815,2.8-2.8-1.815-2.723a9.034,9.034,0,0,0,.708-1.7ZM12,16.922A4.922,4.922,0,1,1,16.922,12,4.928,4.928,0,0,1,12,16.922Z"/>
    </g>
  </g>
</svg>
