<svg xmlns="http://www.w3.org/2000/svg" width="24" height="24" viewBox="0 0 24 24"><defs></defs><g><path d="M24,13.984V10.016l-3.254-.641a9.078,9.078,0,0,0-.707-1.7L21.854,4.95l-2.8-2.8L16.327,3.961a9.074,9.074,0,0,0-1.7-.707L13.984,0H10.016L9.375,3.254a9.078,9.078,0,0,0-1.7.707L4.95,2.146l-2.8,2.8L3.961,7.673a9.078,9.078,0,0,0-.707,1.7L0,10.016v3.969l3.254.641a9.079,9.079,0,0,0,.707,1.7L2.146,19.05l2.8,2.8,2.723-1.815a9.076,9.076,0,0,0,1.7.707L10.016,24h3.969l.641-3.254a9.076,9.076,0,0,0,1.7-.707l2.723,1.815,2.8-2.8-1.815-2.723a9.078,9.078,0,0,0,.707-1.7Zm-3.955,4.887-1.174,1.174-2.5-1.665a8.19,8.19,0,0,1-2.957,1.228l-.588,2.986H11.172l-.588-2.986A8.191,8.191,0,0,1,7.626,18.38l-2.5,1.665L3.955,18.871l1.665-2.5a8.19,8.19,0,0,1-1.228-2.957l-2.986-.588V11.172l2.986-.588A8.2,8.2,0,0,1,5.62,7.626l-1.665-2.5L5.129,3.955l2.5,1.665a8.19,8.19,0,0,1,2.957-1.228l.588-2.986h1.656l.588,2.986A8.19,8.19,0,0,1,16.374,5.62l2.5-1.665,1.174,1.174-1.665,2.5a8.194,8.194,0,0,1,1.228,2.957l2.986.588v1.656l-2.986.588a8.188,8.188,0,0,1-1.228,2.957Z"/><g transform="translate(7.078 7.078)"><path d="M155.922,151a4.922,4.922,0,1,0,4.922,4.922A4.927,4.927,0,0,0,155.922,151Zm0,8.438a3.516,3.516,0,1,1,3.516-3.516A3.52,3.52,0,0,1,155.922,159.438Z" transform="translate(-151 -151)"/></g></g></svg>
