<svg xmlns="http://www.w3.org/2000/svg" width="26.196" height="18.566" viewBox="0 0 26.196 18.566"><g transform="translate(0 -10.592)"><path d="M40.569,451.992a.569.569,0,0,0-.569.57h0a.57.57,0,1,0,.569-.57Zm0,0" transform="translate(-37.722 -426.251)"/><path d="M119.986,193.973a3.984,3.984,0,0,0,3.269-1.708h2.1a.569.569,0,0,0,.4-.167l.972-.972h.667l.972.972a.569.569,0,0,0,.4.167h.892a.569.569,0,0,0,.4-.167l1.708-1.708a.569.569,0,0,0,.167-.4v-1.709a.57.57,0,0,0-.57-.569h-8.121a3.986,3.986,0,1,0-3.269,6.264Zm10.821-5.126v.9l-1.375,1.375h-.42l-.972-.972a.569.569,0,0,0-.4-.167H126.5a.569.569,0,0,0-.4.167l-.972.972h-1.317a3.976,3.976,0,0,0,0-2.278Zm-10.821-1.708a2.848,2.848,0,1,1-2.848,2.848A2.851,2.851,0,0,1,119.986,187.139Zm0,0" transform="translate(-109.393 -175.408)"/><path d="M156.569,247.135a.57.57,0,1,0-.569-.57h0A.569.569,0,0,0,156.569,247.135Zm0,0" transform="translate(-147.116 -231.987)"/><path d="M23.748,333.033l-.01,0-5.212,1.421a1.719,1.719,0,0,0-1.874-1.29c-.3.038-1.125.158-1.993.283-.827.12-1.682.244-1.977.281a5.113,5.113,0,0,1-2.3-.572c-1.329-.535-2.936-1.182-4.683-.407v-.18a.569.569,0,0,0-.57-.569H.57a.569.569,0,0,0-.57.569v9.112a.569.569,0,0,0,.57.569H5.126a.569.569,0,0,0,.57-.569v-.594l.76,0h0a.57.57,0,0,0,0-1.139l-.767,0v-5.909c1.491-.939,2.837-.4,4.258.174a5.943,5.943,0,0,0,2.871.646c.3-.038,1.127-.158,2-.284.825-.12,1.678-.244,1.972-.281a.564.564,0,0,1,.419.117.581.581,0,0,1,.221.389c.012.1.046.369-.668.7a28.617,28.617,0,0,1-4.417,1.646.57.57,0,1,0,.293,1.1,29.819,29.819,0,0,0,4.6-1.713,2.516,2.516,0,0,0,1.078-.844l5.709-1.557c.6-.151.909.088,1,.362a.635.635,0,0,1-.447.788c-.447.17-1.514.64-2.864,1.234-1.789.787-4.015,1.767-5.79,2.487a9.915,9.915,0,0,1-4.912.977h0a.57.57,0,0,0,0,1.139h.138a10.929,10.929,0,0,0,5.206-1.061c1.791-.726,4.025-1.71,5.821-2.5,1.285-.566,2.4-1.054,2.813-1.213l.006,0a1.762,1.762,0,0,0,1.118-2.2,1.85,1.85,0,0,0-2.366-1.117ZM1.139,341.116v-7.973H4.556v7.372h0v.6Zm0,0" transform="translate(0 -313.096)"/><path d="M143.976,471.895h0a.57.57,0,1,0,.57.57A.569.569,0,0,0,143.975,471.895Zm0,0" transform="translate(-135.239 -445.021)"/></g></svg>