<svg xmlns="http://www.w3.org/2000/svg" width="24" height="24" viewBox="0 0 24 24">
  <g id="Group_41522" data-name="Group 41522" transform="translate(582.991 345.435)">
    <path id="Path_73592" data-name="Path 73592" d="M-572.541-111.383c0,1.369,0,2.737,0,4.106a2.211,2.211,0,0,1-1.765,2.21,2.727,2.727,0,0,1-.6.065q-2.749.007-5.5,0a2.269,2.269,0,0,1-2.368-2.371q0-4.05,0-8.1a2.235,2.235,0,0,1,2.314-2.319h5.632a2.228,2.228,0,0,1,2.284,2.256c0,.022,0,.045,0,.067Q-572.541-113.424-572.541-111.383Zm-1.926,0q0-2.03,0-4.061c0-.318-.1-.417-.41-.417h-5.542c-.323,0-.425.1-.425.431q0,4.027,0,8.054c0,.334.112.45.439.45q2.748,0,5.5,0c.332,0,.441-.111.441-.443Q-574.467-109.377-574.468-111.385Z" transform="translate(-0.208 -216.443)"/>
    <path id="Path_73593" data-name="Path 73593" d="M-298.525-338.978c0-1.354.026-2.708-.008-4.06a2.263,2.263,0,0,1,2.263-2.31q2.849-.018,5.7,0a2.236,2.236,0,0,1,2.273,2.281q.021,4.128,0,8.256a2.226,2.226,0,0,1-2.277,2.242q-2.849,0-5.7,0a2.2,2.2,0,0,1-2.248-2.236c-.008-1.391,0-2.782,0-4.173Zm1.927.016q0,2.03,0,4.06c0,.323.086.406.414.406h5.54c.313,0,.423-.1.423-.409q0-4.049,0-8.1c0-.317-.116-.429-.437-.43q-2.759,0-5.518,0c-.322,0-.422.106-.422.433Q-296.6-340.981-296.6-338.962Z" transform="translate(-270.705 -0.073)"/>
    <path id="Path_73594" data-name="Path 73594" d="M-577.882-337.758c-.987,0-1.975.03-2.96-.008a2.189,2.189,0,0,1-2.131-2.174q-.037-1.67,0-3.342a2.225,2.225,0,0,1,2.248-2.137q2.871-.03,5.743,0a2.221,2.221,0,0,1,2.232,2.289c.006,1.009-.025,2.02.008,3.028a2.279,2.279,0,0,1-2.358,2.357c-.927-.006-1.854,0-2.782,0Zm.009-1.921q1.39,0,2.78,0c.317,0,.417-.1.417-.412q0-1.491,0-2.982c0-.326-.1-.431-.426-.432q-2.758,0-5.516,0c-.323,0-.435.111-.435.429q0,1.48,0,2.96c0,.335.1.437.444.437Q-579.241-339.678-577.873-339.679Z" transform="translate(0)"/>
    <path id="Path_73595" data-name="Path 73595" d="M-293.283-3.983h2.8a2.241,2.241,0,0,1,2.319,2.273q.023,1.57,0,3.14a2.254,2.254,0,0,1-2.279,2.256q-2.838.021-5.675,0a2.233,2.233,0,0,1-2.272-2.3q-.007-1.615,0-3.23a2.22,2.22,0,0,1,2.14-2.142C-295.257-3.988-294.27-3.982-293.283-3.983Zm.009,1.919h-2.736c-.386,0-.451.068-.451.461q0,1.469,0,2.938c0,.318.109.427.431.428q2.747,0,5.494,0c.331,0,.451-.117.451-.441q0-1.48,0-2.96c0-.324-.1-.424-.432-.425Q-291.895-2.065-293.274-2.064Z" transform="translate(-270.843 -325.132)"/>
  </g>
</svg>
