<svg xmlns="http://www.w3.org/2000/svg" width="9.878" height="16.463" viewBox="0 0 9.878 16.463">
  <path id="bx-dollar" d="M9.878,11.112c0-1.114-.482-3.7-4.939-3.7-3.293,0-3.293-1.495-3.293-2.058,0-.509,0-2.058,3.293-2.058,2.3,0,2.461,1.381,2.469,1.658l.823-.012h.823A3.4,3.4,0,0,0,5.762,1.7V0H4.116V1.68C.423,1.98,0,4.31,0,5.35c0,1.384.641,3.7,4.939,3.7,3.293,0,3.293,1.549,3.293,2.058,0,.563,0,2.058-3.293,2.058-3.123,0-3.284-1.494-3.293-1.646H0c0,.031.052,2.912,4.116,3.257v1.682H5.762V14.784C9.317,14.5,9.878,12.4,9.878,11.112Z" fill="#5ddf91"/>
</svg>
