<svg xmlns="http://www.w3.org/2000/svg" width="30.525" height="30.525" viewBox="0 0 30.525 30.525"><defs><style>.a{fill:#a2a2a2;}</style></defs><path class="a" d="M12.878,0h4.769a1.427,1.427,0,0,1,1.431,1.431V11.447h5.229a1.19,1.19,0,0,1,.841,2.033l-9.068,9.074a1.155,1.155,0,0,1-1.628,0L5.372,13.48a1.19,1.19,0,0,1,.841-2.033h5.235V1.431A1.427,1.427,0,0,1,12.878,0ZM30.525,22.417v6.677a1.427,1.427,0,0,1-1.431,1.431H1.431A1.427,1.427,0,0,1,0,29.094V22.417a1.427,1.427,0,0,1,1.431-1.431h8.746L13.1,23.907a3.055,3.055,0,0,0,4.328,0l2.921-2.921h8.746A1.427,1.427,0,0,1,30.525,22.417Zm-7.393,5.246a1.192,1.192,0,1,0-1.192,1.192A1.2,1.2,0,0,0,23.132,27.663Zm3.816,0a1.192,1.192,0,1,0-1.192,1.192A1.2,1.2,0,0,0,26.948,27.663Z"/></svg>