<svg xmlns="http://www.w3.org/2000/svg" width="72.821" height="30.454" viewBox="0 0 72.821 30.454">
  <g id="Group_37721" data-name="Group 37721" transform="translate(0.512 0.513)">
    <path id="Path_51163" data-name="Path 51163" d="M90.309-560.885h-20.3a3.412,3.412,0,0,1-3.409-3.409v-9.015l-9.373-5.373a5.236,5.236,0,0,1-2.466-3.193,5.232,5.232,0,0,1,.515-4l.286-.5a5.464,5.464,0,0,1,2.707-2.408,5.3,5.3,0,0,1,4.709.42l9.2,5.691h3.533l-.022-.8a.822.822,0,0,1-.82-.82v-2.5a1.925,1.925,0,0,1,1.922-1.922H81.7a1.925,1.925,0,0,1,1.922,1.922v2.5a.822.822,0,0,1-.82.82h-.022v.8h1.35a3,3,0,0,1,2.857,2.024,2.131,2.131,0,0,0,2.694,1.312l29.674-10.791a3.433,3.433,0,0,1,2.59.1l3.7,1.684a1.242,1.242,0,0,1,.737,1.172,1.24,1.24,0,0,1-.782,1.137l-19.077,7.782-1.684,6.234A15.078,15.078,0,0,1,90.309-560.885Zm-30.1-27.336a4.342,4.342,0,0,0-1.6.305,4.552,4.552,0,0,0-2.243,2l-.283.5a4.308,4.308,0,0,0-.426,3.3,4.33,4.33,0,0,0,2.03,2.634l9.841,5.64v9.548a2.488,2.488,0,0,0,2.485,2.485h20.3a14.149,14.149,0,0,0,13.638-10.441l1.8-6.676,19.5-7.953a.318.318,0,0,0,.207-.3.323.323,0,0,0-.194-.311l-3.7-1.684a2.523,2.523,0,0,0-1.894-.076L89.992-578.46a3.065,3.065,0,0,1-3.883-1.891,2.076,2.076,0,0,0-1.98-1.395H81.854v-2.644H82.7v-2.4a1,1,0,0,0-1-1H76.786a1,1,0,0,0-1,1v2.4h.842v2.644H71.909l-9.418-5.828A4.34,4.34,0,0,0,60.206-588.221Zm7.035,11.655-.445-.172-8.042-4.61a2.2,2.2,0,0,1-.813-3l.359-.626a2.259,2.259,0,0,1,3.06-.775l7.486,4.636-.391.413a3.337,3.337,0,0,0-.931,2.316l-.057,1.4Zm-7.035-8.582a1.278,1.278,0,0,0-1.106.639l-.359.626a1.274,1.274,0,0,0,.473,1.735l7.384,4.232v-.464a4.264,4.264,0,0,1,.823-2.523l-6.549-4.054A1.279,1.279,0,0,0,60.206-585.149Z" transform="translate(-54.575 590.327)" fill="#008755" stroke="#008755" stroke-width="1"/>
  </g>
</svg>