<svg xmlns="http://www.w3.org/2000/svg" width="24" height="20.607" viewBox="0 0 24 20.607">
  <g id="Group_41201" data-name="Group 41201" transform="translate(-144.825 -5.643)">
    <path id="Path_4606" data-name="Path 4606" d="M3115,1469.981c-.216-.308-5.346-7.559-11.879-7.559a9.472,9.472,0,0,0-2.631.387l-.944-1.828a1.2,1.2,0,0,0-1.556-.685,1.74,1.74,0,0,0-.634,2.321l.636,1.233-.008,0a16.466,16.466,0,0,0-2,1.3l-.66.52a23.3,23.3,0,0,0-4.018,4.307.944.944,0,0,0,0,1.032,23.183,23.183,0,0,0,3.56,3.918c.378.331.782.66,1.208.978a13.794,13.794,0,0,0,4.59,2.329c.219.059.438.113.662.156a9.146,9.146,0,0,0,1.562.171c.083,0,.167.01.249.01.053,0,.107-.006.159-.007a9.322,9.322,0,0,0,1.95-.247c.057-.013.113-.03.17-.045l.013,0,.926,1.8a1.245,1.245,0,0,0,1.084.733,1.169,1.169,0,0,0,.883-.433,1.9,1.9,0,0,0,.173-2.037l-.533-1.034a22.071,22.071,0,0,0,7.034-6.281A.945.945,0,0,0,3115,1469.981Zm-22.313.519c.276-.355.7-.865,1.233-1.446l2.936,5.547A22.508,22.508,0,0,1,3092.683,1470.5Zm6.706,5.612c-.038-.018-.075-.039-.114-.057l-4.277-8.1c.1-.1.2-.191.306-.287.258-.236.534-.472.819-.7l5.184,9.8A10.055,10.055,0,0,1,3099.389,1476.111Zm4.173.844c-.12.007-.239.019-.36.021l-.094,0-.036,0-5.758-10.9c.049-.034.1-.07.148-.1.131-.087.262-.173.4-.256.27-.169.546-.33.831-.482l5.923,11.488A4.465,4.465,0,0,1,3103.563,1476.955Zm4.23-3.4a6.568,6.568,0,0,1-.962,1.574l-1.2-2.318a3.952,3.952,0,0,0,.274-.522,4.212,4.212,0,0,0,.2-.581.765.765,0,0,0-.561-.987.7.7,0,0,0-.693.546l-.007.024-1.556-3.019a1.562,1.562,0,0,1,.7.25,1.8,1.8,0,0,1,.219.167.558.558,0,0,0,.791-.016.92.92,0,0,0-.033-1.282,3.247,3.247,0,0,0-.371-.283,2.6,2.6,0,0,0-2.094-.358l-.187-.36.009,0-1.009-1.956a4.53,4.53,0,0,1,5.34,1.234,6.15,6.15,0,0,1,1.155,1.821A7.8,7.8,0,0,1,3107.792,1473.558Zm.655,1.7a8.676,8.676,0,0,0,.49-.943,9.671,9.671,0,0,0,.5-6.149,8.9,8.9,0,0,0-.983-2.415,21.779,21.779,0,0,1,5.162,4.752A21.712,21.712,0,0,1,3108.448,1475.255Z" transform="translate(-2946.328 -1454.556)" fill="#fff"/>
  </g>
</svg>
