<svg xmlns="http://www.w3.org/2000/svg" width="24" height="24" viewBox="0 0 24 24">
  <g id="Group_40269" data-name="Group 40269" transform="translate(-1189.02 -86.822)">
    <path id="Path_73585" data-name="Path 73585" d="M1198.747,106.493c-.33.03-.661.008-.991.014a1.243,1.243,0,0,1-.808-.245.1.1,0,0,0-.069-.028.116.116,0,0,0-.023-.048,1.229,1.229,0,0,1-.382-.871V104.11c0-.109.038-.216-.072-.31a2.063,2.063,0,0,1-.712-1.328c-.037-.25-.008-.5-.023-.754,0-.223,0-.445.006-.668a2.008,2.008,0,0,1,.187-.8,2.232,2.232,0,0,1,.776-.915l.219-.132c.05-.038.128-.018.158-.095.131-.331.264-.663.37-1,.156-.391.3-.787.433-1.184l.246-.521a5.78,5.78,0,0,1,.5-.685,5.33,5.33,0,0,1,.7-.594c.038-.021.077-.04.115-.063a3.715,3.715,0,0,1,1.219-.469,6.578,6.578,0,0,1,1.056-.08h3.618l.252.005a4.137,4.137,0,0,1,1.386.234,5.02,5.02,0,0,1,.752.376,4.817,4.817,0,0,1,.7.592,5.551,5.551,0,0,1,.5.685l.248.521c.135.4.276.793.432,1.184.107.344.239.676.378,1.007.025.062.09.077.151.091l.219.132a2.184,2.184,0,0,1,.865,1.138,1.805,1.805,0,0,1,.1.548c.006.4,0,.8,0,1.195a2.82,2.82,0,0,1-.1.658c-.02.047-.042.094-.061.14a1.907,1.907,0,0,1-.521.747.326.326,0,0,0-.118.353c-.02.271-.005.54-.007.811,0,.13.005.262.007.393a1.316,1.316,0,0,1-.412.9,1.336,1.336,0,0,1-.923.3c-.308-.01-.618.013-.928-.014a1.681,1.681,0,0,1-.539-.257,1.253,1.253,0,0,1-.4-.656c-.019-.087-.027-.178-.039-.267,0-.377,0-.752.006-1.128,0-.064-.023-.08-.083-.08-.229.005-.459,0-.689.005h-5.986c-.23,0-.46,0-.691-.005-.059,0-.082.015-.082.08,0,.376,0,.751.005,1.128a1.276,1.276,0,0,1-.439.926A1.829,1.829,0,0,1,1198.747,106.493Zm1.043-8.392q-.193.569-.387,1.137c-.017.051-.007.072.051.071q.508,0,1.018,0h7.075a.457.457,0,0,0-.013-.057l-.394-1.147a1.744,1.744,0,0,0-.679-.927c-.03-.019-.059-.04-.09-.059a1.863,1.863,0,0,0-1.1-.2h-3.6c-.173,0-.349-.01-.522,0a1.342,1.342,0,0,0-.685.253A1.561,1.561,0,0,0,1199.79,98.1Zm-.5,3.09a1.094,1.094,0,0,0-.211-.171.948.948,0,0,0-1.019-.1.818.818,0,0,0-.436.8.805.805,0,0,0,.434.774.463.463,0,0,0,.211.082,4.781,4.781,0,0,0,1,.015.97.97,0,0,0,.288-.046.386.386,0,0,0,.3-.45.773.773,0,0,0-.149-.4A1.737,1.737,0,0,0,1199.289,101.191Zm8.375,1.4a6.017,6.017,0,0,0,.88,0,.579.579,0,0,0,.328-.1.807.807,0,0,0,.435-.774.818.818,0,0,0-.436-.8.874.874,0,0,0-.322-.1,1.156,1.156,0,0,0-.909.372,1.8,1.8,0,0,0-.436.529.827.827,0,0,0-.118.277.414.414,0,0,0,.3.551A.94.94,0,0,0,1207.664,102.59Z" transform="translate(1.758 4.312)"/>
    <path id="Path_73586" data-name="Path 73586" d="M1199.816,87.439a9.332,9.332,0,0,1,1.206.463l.394.221c.08.062.163.121.239.187a1.374,1.374,0,0,1,.556.863l.018.134V91.72l.005,6.041-.005.073a4.582,4.582,0,0,0-1.206.378,4.378,4.378,0,0,0-1.144.73l-1.046,1.317c0-.006-.519-.1-.522-.108l1.508-2.412,0-6.019V90.513a.537.537,0,0,0-.55-.595c-.211,0-.422,0-.634,0h-1.206c-.375,0-.752,0-1.128-.006-.065,0-.081.023-.078.083,0,.171,0,.343,0,.515V91.72l-.018,3.862v1.206c0,.38,0,.759,0,1.139,0,.053.016.07.068.07l1.138-.005h2.68l-1.256,2.161c0,.043-.03.072-.048.108a2.087,2.087,0,0,0-.19.376,4.212,4.212,0,0,0-.284.724c-.151.391-.295.786-.429,1.183a.47.47,0,0,1-.243.3,1.563,1.563,0,0,0-.23.182,2.816,2.816,0,0,0-.619.722,3.308,3.308,0,0,0-.483,1.206l-.082,0h-1.2c-.4-.005-.8-.011-1.207,0-.014,0-.018.005-.014.018,0,.388,0,.778-.005,1.168a1.182,1.182,0,0,1-.872,1.16c-.03.009-.065.01-.086.039a.95.95,0,0,0-.207.009c-.281,0-.561-.013-.841,0a1.206,1.206,0,0,1-1.259-1.179.279.279,0,0,0-.005-.033c0-.3,0-.61,0-.915,0-.288,0-.288-.288-.268l-.285-.018-.021,0-.044-.005a3.11,3.11,0,0,1-.309-.128,1.146,1.146,0,0,1-.528-.7,1.865,1.865,0,0,1-.022-.316c0-3.169,0-11.172-.009-14.34a1.378,1.378,0,0,1,.554-1.121c.072-.061.148-.119.223-.177l.416-.239a9.549,9.549,0,0,1,1.206-.464c.4-.108.8-.2,1.206-.28.362-.051.722-.106,1.085-.147a18.91,18.91,0,0,1,2.636-.085,18.267,18.267,0,0,1,1.82.162c.155.021.311.048.465.072C1199.03,87.246,1199.424,87.336,1199.816,87.439Zm-7.191,2.483c-.222,0-.445-.008-.667,0a.538.538,0,0,0-.531.595v1.2c-.009.4-.027,3.469-.018,3.865v1.2c0,.225-.011.452,0,.677a.54.54,0,0,0,.524.527c.225.006.45,0,.676,0h1.2c.375,0,.75,0,1.125.005.068,0,.077-.029.076-.086,0-.192,0-.386,0-.578a4.956,4.956,0,0,0-.01-.545q.023-.6,0-1.2a1.59,1.59,0,0,0,.01-.336c0-.283.031-3.245.008-3.528q.023-.6,0-1.2c.023-.177,0-.355.011-.533,0-.058-.029-.065-.076-.065l-1.124.005Zm0,11.968a.874.874,0,0,0-1.205,0,.834.834,0,0,0-.29.653.809.809,0,0,0,.286.665.88.88,0,0,0,1.213,0,.821.821,0,0,0,.294-.644A.832.832,0,0,0,1192.627,101.891Z" transform="translate(0 -0.097)"/>
  </g>
</svg>
