<svg xmlns="http://www.w3.org/2000/svg" width="23" height="21" viewBox="0 0 23 21"><path d="M23,6.74,21.573,1.768l0-.014A2.641,2.641,0,0,0,19.152,0H9.239A2.641,2.641,0,0,0,6.821,1.754L6.542,2.7A2.641,2.641,0,0,0,4.126,4.452L3.847,5.4A2.641,2.641,0,0,0,1.431,7.15L0,12.136V21H4.043V18.3h9.523V21h4.043V18.3h2.7V15.6H23ZM4.3,15.6l.674,1.349H1.347V15.6Zm1.507,0h6l-.674,1.349H6.481Zm7.5,0h2.953v1.349H12.635ZM1.347,14.255V12.906H16.261v1.349Zm16.262-1.349h1.348v1.349H17.609Zm-.166-1.349-.387-1.349h1.9v1.349ZM20.3,10.207h1.348v1.349H20.3Zm-.166-1.349-.387-1.349h1.9V8.858Zm-10.9-7.51h9.913a1.322,1.322,0,0,1,1.128.8L21.431,6.16H19.364l-.486-1.694,0-.014A2.641,2.641,0,0,0,16.456,2.7H7.948l.162-.547a1.321,1.321,0,0,1,1.129-.8Zm-2.7,2.7h9.913a1.322,1.322,0,0,1,1.128.8l1.151,4.012H16.669l-.486-1.694,0-.014A2.641,2.641,0,0,0,13.761,5.4H5.252l.162-.548a1.322,1.322,0,0,1,1.129-.8ZM2.72,7.544a1.322,1.322,0,0,1,1.128-.8h9.913a1.322,1.322,0,0,1,1.128.8l1.151,4.012H1.568ZM2.7,19.651H1.347V18.3H2.7Zm13.566,0H14.914V18.3h1.348Zm2.7-2.7H17.609V15.6h1.348Zm1.348-2.7V12.906h1.348v1.349Zm0,0" transform="translate(0 0)"/></svg>