<svg id="Capa_1" enable-background="new 0 0 512 512" height="512" viewBox="0 0 512 512" width="512" xmlns="http://www.w3.org/2000/svg"><g><path d="m512 301h-35.188l-30-90h-115.812v-120h-34.151l-30-91h-201.698l-30 91h-35.151v150h31v60h90v-60h114.188l-20 60h-34.188v150h30v61h90v-61h90v61h90v-61h31zm-425.151-271h158.302l20.11 61h-198.522zm4.151 241h-30v-30h30zm-61-60v-90h271v90c-5.865 0-263.196 0-271 0zm236.812 30h158.377l20 60h-198.377zm4.188 241h-30v-31h30zm180 0h-30v-31h30zm31-61h-271v-90h271z"/><path d="m241 361h30v30h-30z"/><path d="m421 361h30v30h-30z"/><path d="m301 361h90v30h-90z"/><path d="m61 151h30v30h-30z"/><path d="m241 151h30v30h-30z"/><path d="m121 151h90v30h-90z"/></g></svg>