<svg xmlns="http://www.w3.org/2000/svg" width="33" height="29" viewBox="0 0 33 29">
  <g id="folder_1_" data-name="folder (1)" transform="translate(0 0)">
    <path id="Path_75672" data-name="Path 75672" d="M14.816,4.859,13.072,1.507A2.779,2.779,0,0,0,10.592,0h-7.8A2.8,2.8,0,0,0,0,2.794V5.816H15.51a4.129,4.129,0,0,1-.694-.957Zm0,0" transform="translate(0 0)" fill="#0da06e"/>
    <path id="Path_75673" data-name="Path 75673" d="M30.25,82.152H18.058a3.548,3.548,0,0,1-.6-.05.631.631,0,0,1-.217.042H0v19.245a2.759,2.759,0,0,0,2.75,2.762h27.5A2.759,2.759,0,0,0,33,101.388V84.914a2.759,2.759,0,0,0-2.75-2.762Zm-7.1,7.492-7.975,7.651a.581.581,0,0,1-.4.159.613.613,0,0,1-.417-.167L9.834,92.741a.588.588,0,0,1,0-.829.581.581,0,0,1,.825,0l4.125,4.144L22.35,88.8a.579.579,0,0,1,.825.017.594.594,0,0,1-.025.829Zm0,0" transform="translate(0 -75.151)" fill="#0da06e"/>
  </g>
</svg>
