<svg xmlns="http://www.w3.org/2000/svg" width="22.5" height="24" viewBox="0 0 22.5 24">
  <g id="_115101" data-name="115101" transform="translate(-16)">
    <path id="Path_74283" data-name="Path 74283" d="M121,80.75a.75.75,0,0,0-.75-.75h-7.5a.75.75,0,0,0-.75.75v6a.75.75,0,0,0,.75.75h7.5a.75.75,0,0,0,.75-.75ZM119.5,86h-6V81.5h6Z" transform="translate(-91.5 -76.25)"/>
    <path id="Path_74284" data-name="Path 74284" d="M38.1,5.318l-2.991-1.5a.749.749,0,1,0-.664,1.342l1.139.569a.757.757,0,0,0-.07.26A2.412,2.412,0,0,0,37,8.1v9.138a.75.75,0,0,1-1.5,0v-6a3.983,3.983,0,0,0-3-3.674V2.989A2.964,2.964,0,0,0,29.536,0h-9A3.025,3.025,0,0,0,17.5,2.989V19.775l-1.085.543a.75.75,0,0,0-.415.671v2.25a.791.791,0,0,0,.786.761h16.5A.73.73,0,0,0,34,23.239v-2.25a.75.75,0,0,0-.415-.671L32.5,19.775V9.127A2.428,2.428,0,0,1,34,11.239v6a2.25,2.25,0,0,0,4.5,0V5.989A.734.734,0,0,0,38.1,5.318ZM32.5,22.5h-15V21.453l1.085-.543A.75.75,0,0,0,19,20.239V2.989A1.523,1.523,0,0,1,20.536,1.5h9A1.462,1.462,0,0,1,31,2.989v17.25a.75.75,0,0,0,.415.671l1.085.543Z"/>
  </g>
</svg>
