<?xml version="1.0" encoding="utf-8"?>
<!-- Generator: Adobe Illustrator 24.0.1, SVG Export Plug-In . SVG Version: 6.00 Build 0)  -->
<svg version="1.1" id="Layer_1" focusable="false" xmlns="http://www.w3.org/2000/svg" xmlns:xlink="http://www.w3.org/1999/xlink"
	 x="0px" y="0px" viewBox="0 0 500 500" style="enable-background:new 0 0 500 500;" xml:space="preserve">
<style type="text/css">
	.st0{display:none;}
	.st1{display:inline;}
	.st2{fill:#E6E6EB;}
	.st3{fill:#666666;}
	
		.st4{display:inline;fill:none;stroke:#0000FF;stroke-width:14.6484;stroke-linecap:round;stroke-linejoin:round;stroke-miterlimit:4.8828;}
	.st5{fill:#0000FF;}
	.st6{fill:none;stroke:#FFFFFF;stroke-width:35;stroke-linecap:round;stroke-linejoin:round;stroke-miterlimit:4.8828;}
	.st7{fill:#FFFFFF;stroke:#FFFFFF;stroke-width:17;stroke-miterlimit:10;}
</style>
<g id="Icon_Guidlines" class="st0">
	<g class="st1">
		<g>
			<g>
				<polygon class="st2" points="155.3,562.9 -64.4,562.9 12.5,486.1 13.2,486.7 -62,561.9 155.3,561.9 				"/>
			</g>
			<g>
				<g>
					<polygon class="st2" points="16.8,482.5 9,485.8 12.6,486.7 13.5,490.2 					"/>
				</g>
			</g>
		</g>
	</g>
	<g class="st1">
		<g>
			<rect x="249" y="-0.7" class="st3" width="2" height="500"/>
		</g>
		<g>
			<rect x="343.8" y="-0.7" class="st3" width="2" height="500"/>
		</g>
		<g>
			<rect x="466.8" y="-0.7" class="st3" width="2" height="500"/>
		</g>
		<g>
			<rect x="499" y="-116.9" class="st3" width="2" height="617.2"/>
		</g>
		<g>
			<rect x="-1" y="-116.9" class="st3" width="2" height="617.2"/>
		</g>
		<g>
			<rect x="154.3" y="-0.7" class="st3" width="2" height="500"/>
		</g>
		<g>
			<rect x="31.3" y="-0.7" class="st3" width="2" height="500"/>
		</g>
		<g>
			<rect x="-116.2" y="343" class="st3" width="616.2" height="2"/>
		</g>
		<g>
			<rect y="466.1" class="st3" width="616.2" height="2"/>
		</g>
		<g>
			<rect x="-116.2" y="153.6" class="st3" width="616.2" height="2"/>
		</g>
		<g>
			<rect x="-116.2" y="30.5" class="st3" width="732.4" height="2"/>
		</g>
		<g>
			<rect y="-1.7" class="st3" width="500" height="2"/>
		</g>
		<g>
			<rect x="-1" y="498.3" class="st3" width="502" height="2"/>
		</g>
		<g>
			<rect y="248.3" class="st3" width="500" height="2"/>
		</g>
		<g>
			<path class="st3" d="M250,384.2c-36,0-69.9-14-95.4-39.5c-25.5-25.5-39.5-59.4-39.5-95.4s14-69.9,39.5-95.4
				c25.5-25.5,59.4-39.5,95.4-39.5s69.9,14,95.4,39.5c25.5,25.5,39.5,59.4,39.5,95.4s-14,69.9-39.5,95.4
				C319.9,370.2,286,384.2,250,384.2z M250,116.3c-35.5,0-68.9,13.8-94,39s-39,58.5-39,94s13.8,68.9,39,94s58.5,39,94,39
				s68.9-13.8,94-39s39-58.5,39-94s-13.8-68.9-39-94C318.9,130.1,285.5,116.3,250,116.3z"/>
		</g>
		<g>
			<path class="st3" d="M250,468c-29.5,0-58.2-5.8-85.1-17.2c-26-11-49.4-26.8-69.5-46.9c-20.1-20.1-35.9-43.5-46.9-69.5
				c-11.4-27-17.2-55.6-17.2-85.1s5.8-58.2,17.2-85.1c11-26,26.8-49.4,46.9-69.5s43.5-35.9,69.5-46.9c27-11.4,55.6-17.2,85.1-17.2
				s58.2,5.8,85.1,17.2c26,11,49.4,26.8,69.5,46.9c20.1,20.1,35.9,43.5,46.9,69.5c11.4,27,17.2,55.6,17.2,85.1s-5.8,58.2-17.2,85.1
				c-11,26-26.8,49.4-46.9,69.5c-20.1,20.1-43.5,35.9-69.5,46.9C308.2,462.2,279.5,468,250,468z M250,32.5c-29.3,0-57.7,5.7-84.4,17
				c-25.8,10.9-49,26.6-68.9,46.5c-19.9,19.9-35.5,43.1-46.5,68.9c-11.3,26.7-17,55.1-17,84.4s5.7,57.7,17,84.4
				c10.9,25.8,26.6,49,46.5,68.9c19.9,19.9,43.1,35.5,68.9,46.5c26.7,11.3,55.1,17,84.4,17s57.7-5.7,84.4-17
				c25.8-10.9,49-26.6,68.9-46.5c19.9-19.9,35.5-43.1,46.5-68.9c11.3-26.7,17-55.1,17-84.4s-5.7-57.7-17-84.4
				c-10.9-25.8-26.6-49-46.5-68.9c-19.9-19.9-43.1-35.5-68.9-46.5C307.7,38.2,279.3,32.5,250,32.5z"/>
		</g>
		<g>
			
				<rect x="249" y="-104.3" transform="matrix(0.7071 -0.7071 0.7071 0.7071 -103.0355 249.7816)" class="st3" width="2" height="707.1"/>
		</g>
		<g>
			
				<rect x="-64.7" y="232.2" transform="matrix(0.7071 -0.7071 0.7071 0.7071 -86.9231 256.4577)" class="st3" width="661.5" height="2"/>
		</g>
	</g>
</g>
<g id="Icons" class="st0">
	<path class="st4" d="M408.2,114.3h-67.9l3.4,28.5c0,0-37.2,26.7-37.4,32.5c-0.2,5.8,6,28.6-1.5,37.8c-7.5,9.2-39.7,33.8-31.7,40.1
		c8,6.3,46.4,3.1,46.4,3.1s14.5-25.8,15.4-22.2c0.9,3.6,17,21.6,23.2,21.7c6.2,0.1,40.3-2.5,43.2,0c2.8,2.5-117.4,50.1-117.4,50.1
		l-26.4,58.5l85.4,29.2l-1.2,42.9"/>
	<polyline class="st4" points="94.8,392.8 141.6,345 110.4,255.8 84.5,236.8 92.2,176.6 186.4,154.5 203.7,80.2 233.3,80.2 
		231.3,109.4 256.9,100.2 257.5,40.2 	"/>
	<g class="st1">
		<path class="st5" d="M249.6,47.1c27.4,0,53.9,5.4,78.8,15.9c24.1,10.2,45.8,24.8,64.4,43.4c18.6,18.6,33.2,40.3,43.4,64.4
			c10.6,25,15.9,51.5,15.9,78.8s-5.4,53.9-15.9,78.8c-10.2,24.1-24.8,45.8-43.4,64.4c-18.6,18.6-40.3,33.2-64.4,43.4
			c-25,10.6-51.5,15.9-78.8,15.9s-53.9-5.4-78.8-15.9c-24.1-10.2-45.8-24.8-64.4-43.4c-18.6-18.6-33.2-40.3-43.4-64.4
			c-10.6-25-15.9-51.5-15.9-78.8s5.4-53.9,15.9-78.8c10.2-24.1,24.8-45.8,43.4-64.4s40.3-33.2,64.4-43.4
			C195.7,52.5,222.2,47.1,249.6,47.1 M249.6,32.5c-120,0-217.2,97.3-217.2,217.2s97.3,217.2,217.2,217.2s217.2-97.3,217.2-217.2
			S369.6,32.5,249.6,32.5L249.6,32.5z"/>
	</g>
</g>
<g id="Layer_3">
	<path class="st6" d="M408.2,114.3h-67.9l3.4,28.5c0,0-37.2,26.7-37.4,32.5c-0.2,5.8,6,28.6-1.5,37.8c-7.5,9.2-39.7,33.8-31.7,40.1
		c8,6.3,46.4,3.1,46.4,3.1s14.5-25.8,15.4-22.2c0.9,3.6,17,21.6,23.2,21.7c6.2,0.1,40.3-2.5,43.2,0c2.8,2.5-117.4,50.1-117.4,50.1
		l-26.4,58.5l85.4,29.2l-1.2,42.9"/>
	<polyline class="st6" points="94.8,392.8 141.6,345 110.4,255.8 84.5,236.8 92.2,176.6 186.4,154.5 203.7,80.2 233.3,80.2 
		231.3,109.4 256.9,100.2 257.5,40.2 	"/>
	<g>
		<path class="st7" d="M249.6,47.1c27.4,0,53.9,5.4,78.8,15.9c24.1,10.2,45.8,24.8,64.4,43.4c18.6,18.6,33.2,40.3,43.4,64.4
			c10.6,25,15.9,51.5,15.9,78.8s-5.4,53.9-15.9,78.8c-10.2,24.1-24.8,45.8-43.4,64.4c-18.6,18.6-40.3,33.2-64.4,43.4
			c-25,10.6-51.5,15.9-78.8,15.9s-53.9-5.4-78.8-15.9c-24.1-10.2-45.8-24.8-64.4-43.4c-18.6-18.6-33.2-40.3-43.4-64.4
			c-10.6-25-15.9-51.5-15.9-78.8s5.4-53.9,15.9-78.8c10.2-24.1,24.8-45.8,43.4-64.4s40.3-33.2,64.4-43.4
			C195.7,52.5,222.2,47.1,249.6,47.1 M249.6,32.5c-120,0-217.2,97.3-217.2,217.2s97.3,217.2,217.2,217.2s217.2-97.3,217.2-217.2
			S369.6,32.5,249.6,32.5L249.6,32.5z"/>
	</g>
</g>
</svg>
