<svg xmlns="http://www.w3.org/2000/svg" width="37.057" height="24.097" viewBox="0 0 37.057 24.097">
  <g id="four-squares-button-of-view-options" transform="translate(0 -0.72)">
    <g id="Group_40804" data-name="Group 40804" transform="translate(0 0.72)">
      <g id="Group_40800" data-name="Group 40800" transform="translate(0 0)">
        <path id="Path_74232" data-name="Path 74232" d="M2.8,12.277H9.252a2.307,2.307,0,0,0,2.3-2.3V3.525a2.307,2.307,0,0,0-2.3-2.3H2.8a2.307,2.307,0,0,0-2.3,2.3V9.972A2.307,2.307,0,0,0,2.8,12.277ZM2.2,3.525A.606.606,0,0,1,2.8,2.918H9.252a.606.606,0,0,1,.606.606V9.972a.606.606,0,0,1-.606.606H2.8A.606.606,0,0,1,2.2,9.972Z" transform="translate(-0.48 -1.2)" fill="#fff"/>
        <path id="Path_74233" data-name="Path 74233" d="M8.772,11.817H2.325A2.327,2.327,0,0,1,0,9.492V3.045A2.327,2.327,0,0,1,2.325.72H8.772A2.327,2.327,0,0,1,11.1,3.045V9.492A2.327,2.327,0,0,1,8.772,11.817ZM2.325.76A2.287,2.287,0,0,0,.04,3.045V9.492a2.287,2.287,0,0,0,2.285,2.285H8.772a2.287,2.287,0,0,0,2.285-2.285V3.045A2.287,2.287,0,0,0,8.772.76H2.325Zm6.448,9.359H2.325A.627.627,0,0,1,1.7,9.492V3.045a.627.627,0,0,1,.626-.626H8.772a.627.627,0,0,1,.626.626V9.492A.627.627,0,0,1,8.772,10.118ZM2.325,2.458a.587.587,0,0,0-.587.587V9.492a.587.587,0,0,0,.587.587H8.772a.587.587,0,0,0,.587-.587V3.045a.587.587,0,0,0-.587-.587Z" transform="translate(0 -0.72)" fill="#fff"/>
      </g>
      <g id="Group_40801" data-name="Group 40801" transform="translate(12.96 0)">
        <path id="Path_74234" data-name="Path 74234" d="M336.2,1.22h-6.448a2.307,2.307,0,0,0-2.3,2.3V9.972a2.307,2.307,0,0,0,2.3,2.3H336.2a2.307,2.307,0,0,0,2.3-2.3V3.525A2.307,2.307,0,0,0,336.2,1.22Zm.606,8.752a.606.606,0,0,1-.606.606h-6.448a.607.607,0,0,1-.607-.606V3.525a.607.607,0,0,1,.607-.606H336.2a.606.606,0,0,1,.606.606Z" transform="translate(-327.423 -1.2)" fill="#fff"/>
        <path id="Path_74235" data-name="Path 74235" d="M335.715,11.817h-6.448a2.327,2.327,0,0,1-2.325-2.325V3.045A2.327,2.327,0,0,1,329.268.72h6.448a2.327,2.327,0,0,1,2.324,2.325V9.492A2.327,2.327,0,0,1,335.715,11.817ZM329.268.76a2.287,2.287,0,0,0-2.285,2.285V9.492a2.287,2.287,0,0,0,2.285,2.285h6.448A2.287,2.287,0,0,0,338,9.492V3.045A2.287,2.287,0,0,0,335.715.76Zm6.448,9.359h-6.448a.627.627,0,0,1-.626-.626V3.045a.627.627,0,0,1,.626-.626h6.448a.627.627,0,0,1,.626.626V9.492A.627.627,0,0,1,335.715,10.118Zm-6.448-7.661a.587.587,0,0,0-.587.587V9.492a.587.587,0,0,0,.587.587h6.448a.587.587,0,0,0,.587-.587V3.045a.587.587,0,0,0-.587-.587Z" transform="translate(-326.943 -0.72)" fill="#fff"/>
      </g>
      <g id="Group_40805" data-name="Group 40805" transform="translate(25.96 0)">
        <path id="Path_74234-2" data-name="Path 74234" d="M336.2,1.22h-6.448a2.307,2.307,0,0,0-2.3,2.3V9.972a2.307,2.307,0,0,0,2.3,2.3H336.2a2.307,2.307,0,0,0,2.3-2.3V3.525A2.307,2.307,0,0,0,336.2,1.22Zm.606,8.752a.606.606,0,0,1-.606.606h-6.448a.607.607,0,0,1-.607-.606V3.525a.607.607,0,0,1,.607-.606H336.2a.606.606,0,0,1,.606.606Z" transform="translate(-327.423 -1.2)" fill="#fff"/>
        <path id="Path_74235-2" data-name="Path 74235" d="M335.715,11.817h-6.448a2.327,2.327,0,0,1-2.325-2.325V3.045A2.327,2.327,0,0,1,329.268.72h6.448a2.327,2.327,0,0,1,2.324,2.325V9.492A2.327,2.327,0,0,1,335.715,11.817ZM329.268.76a2.287,2.287,0,0,0-2.285,2.285V9.492a2.287,2.287,0,0,0,2.285,2.285h6.448A2.287,2.287,0,0,0,338,9.492V3.045A2.287,2.287,0,0,0,335.715.76Zm6.448,9.359h-6.448a.627.627,0,0,1-.626-.626V3.045a.627.627,0,0,1,.626-.626h6.448a.627.627,0,0,1,.626.626V9.492A.627.627,0,0,1,335.715,10.118Zm-6.448-7.661a.587.587,0,0,0-.587.587V9.492a.587.587,0,0,0,.587.587h6.448a.587.587,0,0,0,.587-.587V3.045a.587.587,0,0,0-.587-.587Z" transform="translate(-326.943 -0.72)" fill="#fff"/>
      </g>
      <g id="Group_40806" data-name="Group 40806" transform="translate(25.96 13)">
        <path id="Path_74234-3" data-name="Path 74234" d="M336.2,1.22h-6.448a2.307,2.307,0,0,0-2.3,2.3V9.972a2.307,2.307,0,0,0,2.3,2.3H336.2a2.307,2.307,0,0,0,2.3-2.3V3.525A2.307,2.307,0,0,0,336.2,1.22Zm.606,8.752a.606.606,0,0,1-.606.606h-6.448a.607.607,0,0,1-.607-.606V3.525a.607.607,0,0,1,.607-.606H336.2a.606.606,0,0,1,.606.606Z" transform="translate(-327.423 -1.2)" fill="#fff"/>
        <path id="Path_74235-3" data-name="Path 74235" d="M335.715,11.817h-6.448a2.327,2.327,0,0,1-2.325-2.325V3.045A2.327,2.327,0,0,1,329.268.72h6.448a2.327,2.327,0,0,1,2.324,2.325V9.492A2.327,2.327,0,0,1,335.715,11.817ZM329.268.76a2.287,2.287,0,0,0-2.285,2.285V9.492a2.287,2.287,0,0,0,2.285,2.285h6.448A2.287,2.287,0,0,0,338,9.492V3.045A2.287,2.287,0,0,0,335.715.76Zm6.448,9.359h-6.448a.627.627,0,0,1-.626-.626V3.045a.627.627,0,0,1,.626-.626h6.448a.627.627,0,0,1,.626.626V9.492A.627.627,0,0,1,335.715,10.118Zm-6.448-7.661a.587.587,0,0,0-.587.587V9.492a.587.587,0,0,0,.587.587h6.448a.587.587,0,0,0,.587-.587V3.045a.587.587,0,0,0-.587-.587Z" transform="translate(-326.943 -0.72)" fill="#fff"/>
      </g>
      <g id="Group_40802" data-name="Group 40802" transform="translate(0 12.903)">
        <path id="Path_74236" data-name="Path 74236" d="M2.8,337.78H9.252a2.307,2.307,0,0,0,2.3-2.3v-6.448a2.307,2.307,0,0,0-2.3-2.3H2.8a2.307,2.307,0,0,0-2.3,2.3v6.448A2.307,2.307,0,0,0,2.8,337.78ZM2.2,329.028a.607.607,0,0,1,.606-.607H9.252a.607.607,0,0,1,.606.607v6.448a.606.606,0,0,1-.606.606H2.8a.606.606,0,0,1-.606-.606Z" transform="translate(-0.48 -326.703)" fill="#fff"/>
        <path id="Path_74237" data-name="Path 74237" d="M8.772,337.32H2.325A2.327,2.327,0,0,1,0,335v-6.448a2.327,2.327,0,0,1,2.325-2.325H8.772a2.327,2.327,0,0,1,2.325,2.325V335A2.327,2.327,0,0,1,8.772,337.32ZM2.325,326.263A2.287,2.287,0,0,0,.04,328.548V335a2.287,2.287,0,0,0,2.285,2.285H8.772A2.287,2.287,0,0,0,11.057,335v-6.448a2.287,2.287,0,0,0-2.285-2.285H2.325Zm6.448,9.359H2.325A.627.627,0,0,1,1.7,335v-6.448a.627.627,0,0,1,.626-.626H8.772a.627.627,0,0,1,.626.626V335A.627.627,0,0,1,8.772,335.622Zm-6.448-7.661a.587.587,0,0,0-.587.587V335a.587.587,0,0,0,.587.587H8.772A.587.587,0,0,0,9.359,335v-6.448a.587.587,0,0,0-.587-.587Z" transform="translate(0 -326.223)" fill="#fff"/>
      </g>
      <g id="Group_40803" data-name="Group 40803" transform="translate(12.96 12.903)">
        <path id="Path_74238" data-name="Path 74238" d="M336.2,326.724h-6.448a2.307,2.307,0,0,0-2.3,2.3v6.448a2.307,2.307,0,0,0,2.3,2.3H336.2a2.307,2.307,0,0,0,2.3-2.3v-6.448A2.307,2.307,0,0,0,336.2,326.724Zm.606,8.752a.606.606,0,0,1-.606.606h-6.448a.607.607,0,0,1-.607-.606v-6.448a.607.607,0,0,1,.607-.607H336.2a.607.607,0,0,1,.606.607Z" transform="translate(-327.423 -326.704)" fill="#fff"/>
        <path id="Path_74239" data-name="Path 74239" d="M335.715,337.32h-6.448A2.327,2.327,0,0,1,326.943,335v-6.448a2.327,2.327,0,0,1,2.325-2.325h6.448a2.327,2.327,0,0,1,2.324,2.325V335A2.327,2.327,0,0,1,335.715,337.32Zm-6.448-11.057a2.287,2.287,0,0,0-2.285,2.285V335a2.287,2.287,0,0,0,2.285,2.285h6.448A2.287,2.287,0,0,0,338,335v-6.448a2.287,2.287,0,0,0-2.285-2.285h-6.448Zm6.448,9.359h-6.448a.627.627,0,0,1-.626-.626v-6.448a.627.627,0,0,1,.626-.626h6.448a.627.627,0,0,1,.626.626V335A.627.627,0,0,1,335.715,335.622Zm-6.448-7.661a.587.587,0,0,0-.587.587V335a.587.587,0,0,0,.587.587h6.448A.587.587,0,0,0,336.3,335v-6.448a.587.587,0,0,0-.587-.587Z" transform="translate(-326.943 -326.223)" fill="#fff"/>
      </g>
    </g>
  </g>
</svg>
