<svg xmlns="http://www.w3.org/2000/svg" width="25.686" height="25.68" viewBox="0 0 25.686 25.68"><g transform="translate(0 -0.053)"><g transform="translate(0 0.053)"><g transform="translate(0)"><path d="M25.343,9.046l-4.811-.962c0-.11.017-.219.017-.33A7.706,7.706,0,0,0,5.3,6.161L5.27,6.14,4.009,8.231.335,9.047A.428.428,0,0,0,0,9.465v5.565a.428.428,0,0,0,.367.424L3,15.831c0,.019,0,.037,0,.056a2.569,2.569,0,0,0,5.1.428h5.173l2.2,8.126a1.712,1.712,0,1,0,3.317-.849l-1.966-7.278h.347a2.566,2.566,0,0,0,5.06-.856h3.035a.428.428,0,0,0,.428-.428V9.465A.428.428,0,0,0,25.343,9.046ZM.856,10.75H2.14v.428H.856Zm2.306,4.238L.856,14.659v-.485h2.8A2.572,2.572,0,0,0,3.162,14.988Zm2.4,2.611a1.712,1.712,0,1,1,1.712-1.712A1.712,1.712,0,0,1,5.565,17.6Zm7.278-2.14H8.1A2.549,2.549,0,0,0,5.17,13.351l-.033.006v-.039H.856V12.034H2.569A.428.428,0,0,0,3,11.606V10.322a.428.428,0,0,0-.428-.428H.856V9.808l3.518-.781a.428.428,0,0,0,.274-.2L5.15,8a7.71,7.71,0,0,0,7.693,7.461c.065,0,.128-.008.191-.01l0,.01Zm0-.856a6.849,6.849,0,1,1,6.849-6.849A6.85,6.85,0,0,1,12.843,14.6Zm1.059.775a7.659,7.659,0,0,0,1.659-.423l.991,3.668-1.627.542Zm4.052,8.433a.856.856,0,0,1-1.661.415l-1.143-4.232,1.627-.542ZM19.692,17.6A1.712,1.712,0,1,1,21.4,15.887,1.712,1.712,0,0,1,19.692,17.6Zm5.137-3H21.913a2.583,2.583,0,0,0-.312-.428h3.228Zm0-2.569h-.856V10.75h.856Zm0-2.14H23.545a.428.428,0,0,0-.428.428v2.14a.428.428,0,0,0,.428.428h1.284v.428H20.12v.039a2.549,2.549,0,0,0-2.953,2.069l-.006.033h-.578l-.231-.856a7.716,7.716,0,0,0,4.094-5.665l4.382.878Z" transform="translate(0 -0.053)"/></g></g><g transform="translate(6.421 1.332)"><path d="M126.421,23.947a6.421,6.421,0,1,0,6.421,6.421A6.421,6.421,0,0,0,126.421,23.947Zm0,11.987a5.565,5.565,0,1,1,5.565-5.565A5.565,5.565,0,0,1,126.421,35.934Z" transform="translate(-120 -23.947)"/></g><g transform="translate(13.958 3.077)"><path d="M264.407,60.544a5.391,5.391,0,0,0-3.221-3.981l-.337.787a4.528,4.528,0,0,1,2.714,3.334,3.968,3.968,0,0,1-1.385,3.661l.575.634A4.8,4.8,0,0,0,264.407,60.544Z" transform="translate(-260.848 -56.563)"/></g><g transform="translate(4.709 15.031)"><circle cx="0.856" cy="0.856" r="0.856"/></g><g transform="translate(18.836 15.031)"><circle cx="0.856" cy="0.856" r="0.856"/></g></g></svg>