<svg xmlns="http://www.w3.org/2000/svg" width="20" height="20" viewBox="0 0 20 20"><defs><style>.a{opacity:0.349;}.b{fill:rgba(0,0,0,0.87);}</style></defs><g class="a" transform="translate(0 0)"><path class="b" d="M242.414,337.867a5.824,5.824,0,0,1-1.954,0,5.691,5.691,0,0,0,.977,5.992A5.691,5.691,0,0,0,242.414,337.867Zm0,0" transform="translate(-231.436 -325.807)"/><path class="b" d="M298.543,240.177a5.641,5.641,0,0,0-4.414,1.4,6.452,6.452,0,0,1,.876,1.24A5.727,5.727,0,0,0,298.543,240.177Zm0,0" transform="translate(-283.624 -231.57)"/><path class="b" d="M262.289,295.585a5.409,5.409,0,0,0,1.266,0,5.721,5.721,0,0,0-.633-.874A5.742,5.742,0,0,0,262.289,295.585Zm0,0" transform="translate(-252.922 -284.191)"/><path class="b" d="M121.431,8.026a6.4,6.4,0,0,1,4.286,1.651,6.288,6.288,0,0,1,5.263-1.568,5.714,5.714,0,1,0-10.525,0A6.388,6.388,0,0,1,121.431,8.026Zm0,0" transform="translate(-115.716 -0.169)"/><path class="b" d="M5.715,256.346A5.683,5.683,0,0,0,9.5,254.9a6.379,6.379,0,0,1-1.179-6.646,6.451,6.451,0,0,1-3.982-3.165,5.71,5.71,0,0,0,1.379,11.253Zm0,0" transform="translate(0 -236.346)"/><path class="b" d="M295.315,248.258a6.379,6.379,0,0,1-1.179,6.646,5.708,5.708,0,1,0,5.161-9.811A6.452,6.452,0,0,1,295.315,248.258Zm0,0" transform="translate(-283.632 -236.346)"/><path class="b" d="M142.293,240.177a5.727,5.727,0,0,0,3.538,2.644,6.446,6.446,0,0,1,.876-1.24A5.642,5.642,0,0,0,142.293,240.177Zm0,0" transform="translate(-137.211 -231.57)"/></g></svg>