<svg xmlns="http://www.w3.org/2000/svg" width="24.553" height="23.871" viewBox="0 0 24.553 23.871">
  <g id="setting" transform="translate(-0.592 -2)">
    <path id="Path_75444" data-name="Path 75444" d="M17.5,40.861h0A11.472,11.472,0,0,1,6.528,26.424a.341.341,0,1,1,.659.176A10.79,10.79,0,0,0,17.5,40.179a.341.341,0,1,1,0,.682Z" transform="translate(-3.655 -15.923)" fill="rgba(0,0,0,0.78)"/>
    <path id="Path_75445" data-name="Path 75445" d="M11.607,7.816a.335.335,0,0,1-.295-.178.345.345,0,0,1,.012-.348,11.488,11.488,0,0,1,1.533-1.932,11.178,11.178,0,0,1,15.977,0,.345.345,0,0,1,0,.482.332.332,0,0,1-.475,0,10.514,10.514,0,0,0-15.027,0,10.831,10.831,0,0,0-1.442,1.818.335.335,0,0,1-.283.157Z" transform="translate(-7.038)" fill="rgba(0,0,0,0.78)"/>
    <path id="Path_75446" data-name="Path 75446" d="M68.833,24.212a.341.341,0,0,1-.341-.332,10.763,10.763,0,0,0-1.444-5.12.341.341,0,1,1,.589-.343,11.447,11.447,0,0,1,1.536,5.445.341.341,0,0,1-.332.35Z" transform="translate(-44.029 -10.703)" fill="rgba(0,0,0,0.78)"/>
    <path id="Path_75447" data-name="Path 75447" d="M66.041,52.111a.341.341,0,0,1-.28-.535c.179-.258.35-.534.507-.82a.341.341,0,1,1,.6.33,10.178,10.178,0,0,1-.543.878A.341.341,0,0,1,66.041,52.111Z" transform="translate(-43.174 -32.014)" fill="rgba(0,0,0,0.78)"/>
    <path id="Path_75448" data-name="Path 75448" d="M47.563,61.834a.341.341,0,0,1-.068-.676,10.767,10.767,0,0,0,4.517-2.506.341.341,0,1,1,.465.5,11.445,11.445,0,0,1-4.826,2.671A.333.333,0,0,1,47.563,61.834Z" transform="translate(-30.995 -37.272)" fill="rgba(0,0,0,0.78)"/>
    <path id="Path_75449" data-name="Path 75449" d="M70.329,42.885a.345.345,0,0,1-.1-.015A.341.341,0,0,1,70,42.443a9.845,9.845,0,0,0,.245-.97.341.341,0,0,1,.668.136,10.626,10.626,0,0,1-.261,1.036A.341.341,0,0,1,70.329,42.885Z" transform="translate(-45.998 -25.832)" fill="rgba(0,0,0,0.78)"/>
    <path id="Path_75450" data-name="Path 75450" d="M57.122,7.171H54.5a.341.341,0,0,1,0-.682h2.282V4.207a.341.341,0,0,1,.682,0V6.83A.341.341,0,0,1,57.122,7.171Z" transform="translate(-35.568 -1.23)" fill="rgba(0,0,0,0.78)"/>
    <path id="Path_75451" data-name="Path 75451" d="M4.516,29.141a.341.341,0,0,1-.3-.171L3.08,26.994,1.1,28.136a.341.341,0,1,1-.341-.591l2.271-1.312a.341.341,0,0,1,.466.125L4.811,28.63a.341.341,0,0,1-.295.512Z" transform="translate(0 -15.939)" fill="rgba(0,0,0,0.78)"/>
    <path id="Path_75452" data-name="Path 75452" d="M49.832,63.758a.341.341,0,0,1-.17-.046L47.39,62.4a.341.341,0,0,1-.125-.466l1.312-2.271a.341.341,0,1,1,.591.341L48.026,61.98,50,63.121a.341.341,0,0,1-.171.636Z" transform="translate(-30.922 -37.887)" fill="rgba(0,0,0,0.78)"/>
    <path id="Path_75453" data-name="Path 75453" d="M25.423,28.346h-1.5a.558.558,0,0,1-.537-.409l-.273-1.007a6.389,6.389,0,0,1-1.757-.726l-.905.518a.557.557,0,0,1-.67-.09l-1.065-1.063a.558.558,0,0,1-.09-.67l.518-.905a6.389,6.389,0,0,1-.726-1.757l-1.007-.273a.558.558,0,0,1-.411-.54v-1.5a.558.558,0,0,1,.409-.537l1.007-.273a6.389,6.389,0,0,1,.726-1.757l-.518-.905a.557.557,0,0,1,.09-.67l1.062-1.063a.556.556,0,0,1,.67-.09l.905.518a6.389,6.389,0,0,1,1.757-.726l.273-1.007A.558.558,0,0,1,23.923,13h1.5a.558.558,0,0,1,.537.409l.273,1.007a6.389,6.389,0,0,1,1.757.726l.905-.518a.557.557,0,0,1,.67.09l1.063,1.062a.558.558,0,0,1,.09.67l-.518.905a6.389,6.389,0,0,1,.726,1.757l1.007.273a.558.558,0,0,1,.413.541v1.5a.558.558,0,0,1-.409.537l-1.007.273a6.39,6.39,0,0,1-.726,1.757l.518.905a.557.557,0,0,1-.09.67L29.568,26.63a.557.557,0,0,1-.67.09l-.905-.518a6.389,6.389,0,0,1-1.757.726l-.273,1.007a.558.558,0,0,1-.54.411Zm-1.407-.682h1.312l.3-1.111a.341.341,0,0,1,.258-.244,5.7,5.7,0,0,0,1.91-.79.341.341,0,0,1,.354-.009l1,.571.927-.927-.571-1a.341.341,0,0,1,.009-.354,5.7,5.7,0,0,0,.79-1.91.341.341,0,0,1,.244-.258l1.114-.3V20.017l-1.111-.3a.341.341,0,0,1-.244-.258,5.7,5.7,0,0,0-.79-1.91.341.341,0,0,1-.009-.354l.571-1-.927-.927-1,.571a.341.341,0,0,1-.354-.009,5.7,5.7,0,0,0-1.91-.79.341.341,0,0,1-.258-.244l-.3-1.113H24.017l-.3,1.111a.341.341,0,0,1-.258.244,5.7,5.7,0,0,0-1.91.79.341.341,0,0,1-.354.009l-1-.571-.927.927.571,1a.341.341,0,0,1-.009.354,5.7,5.7,0,0,0-.79,1.91.341.341,0,0,1-.244.258l-1.113.3v1.312l1.111.3a.341.341,0,0,1,.244.258,5.7,5.7,0,0,0,.79,1.91.341.341,0,0,1,.009.354l-.571,1,.927.927,1-.571a.341.341,0,0,1,.354.009,5.7,5.7,0,0,0,1.91.79.341.341,0,0,1,.258.244Z" transform="translate(-10.971 -7.249)" fill="rgba(0,0,0,0.78)"/>
    <path id="Path_75454" data-name="Path 75454" d="M30.663,31.236a4.573,4.573,0,1,1,4.573-4.573,4.573,4.573,0,0,1-4.573,4.573Zm0-8.464a3.891,3.891,0,1,0,3.891,3.891A3.891,3.891,0,0,0,30.663,22.772Z" transform="translate(-16.952 -13.239)" fill="rgba(0,0,0,0.78)"/>
  </g>
</svg>
