<svg xmlns="http://www.w3.org/2000/svg" width="24" height="24" viewBox="0 0 24 24"><path d="M-1121.426,1222.6l2.54,1.109c.137.06.277.115.415.172l1.543.673a2.075,2.075,0,0,0,.354.148,2.375,2.375,0,0,0,.258.121,1.281,1.281,0,0,1,.869.888,1.849,1.849,0,0,1,.014.468l-.022.076a1.226,1.226,0,0,1-.778.845c-.236.092-.464.2-.7.307a3.472,3.472,0,0,0-.518.225q-.5.2-.99.429-.765.31-1.514.657l-.842.354.747.324,1.579.679c.044.022.088.047.133.067.677.295,1.349.6,2.033.878a1.343,1.343,0,0,1,.849.862q.017.15.034.3c-.012.09-.025.18-.036.27a1.183,1.183,0,0,1-.684.8q-.457.2-.913.4l-1.385.609q-.746.3-1.476.641a5.4,5.4,0,0,0-.552.236l-.331.137.881.37q.717.332,1.448.629c.036.019.071.04.109.056.677.294,1.349.6,2.033.878a1.358,1.358,0,0,1,.873.874c.005.036.011.071.016.107a1.4,1.4,0,0,1-.008.414,1.237,1.237,0,0,1-.842.911c-.1.035-.19.086-.285.13a2.2,2.2,0,0,0-.358.157c-.508.205-1.01.426-1.508.655-.235.1-.471.194-.7.3-.289.13-.577.264-.869.387-.473.2-.944.4-1.411.612-.509.2-1.011.423-1.508.654a4.051,4.051,0,0,0-.574.251c-.318.12-.628.258-.935.4-.5.2-.989.415-1.475.641-.184.077-.374.143-.551.233a2.193,2.193,0,0,1-1.392.2c-.147-.057-.3-.112-.442-.172-.21-.086-.418-.175-.627-.263l-1.477-.643c-.307-.143-.615-.281-.931-.4a4.636,4.636,0,0,0-.575-.25q-.745-.346-1.507-.654c-.406-.18-.812-.361-1.22-.54q-.837-.366-1.675-.727c-.029-.013-.059-.022-.089-.033-.1-.047-.2-.1-.308-.14l-1.2-.511a1.949,1.949,0,0,0-.359-.156c-.036-.019-.07-.039-.107-.057-.156-.072-.316-.137-.468-.217a1.207,1.207,0,0,1-.545-.718,4.113,4.113,0,0,1-.034-.465.192.192,0,0,0,.04-.132,1.342,1.342,0,0,1,.877-.853c.2-.074.4-.175.6-.264a4.406,4.406,0,0,0,.541-.238c.326-.124.642-.27.96-.413.5-.209.994-.417,1.48-.648.289-.105.567-.237.871-.371l-.829-.36-1.52-.653c-.045-.022-.089-.047-.134-.067q-1.054-.458-2.109-.913a1.239,1.239,0,0,1-.564-.439,2.52,2.52,0,0,1-.18-.382l-.03-.273q.019-.162.038-.324a1.33,1.33,0,0,1,.89-.855c.111-.039.218-.092.326-.139l1.761-.771,2.327-1-.008-.036-.84-.354c-.488-.223-.979-.439-1.477-.641-.544-.271-1.12-.468-1.667-.731-.229-.11-.469-.2-.7-.3a1.356,1.356,0,0,1-.619-.714l-.011-.135a1.612,1.612,0,0,1,.018-.516,1.29,1.29,0,0,1,.836-.83c.1-.034.189-.086.283-.129a2.535,2.535,0,0,0,.385-.167c.5-.2.986-.417,1.473-.639l2.989-1.3,1.5-.652a4.847,4.847,0,0,0,.548-.243c.325-.126.643-.266.959-.414.5-.206.993-.418,1.481-.646.23-.1.462-.19.69-.292a1.927,1.927,0,0,1,1.117-.157.7.7,0,0,0,.082,0c.164.062.334.109.494.183.205.095.417.176.625.264q.716.331,1.447.628c.312.138.622.279.935.415Q-1122.481,1222.149-1121.426,1222.6Zm3.784,9.608c.02-.008.051-.012.058-.026.015-.032-.024-.031-.039-.038-.27-.116-.541-.229-.812-.344-.485-.228-.978-.439-1.474-.643-.057-.027-.114-.057-.172-.082-.831-.362-1.664-.72-2.493-1.088a.316.316,0,0,0-.353.028c-.1.039-.2.074-.291.116-.387.171-.773.344-1.16.516l-.057.023c-.5.2-.989.417-1.477.64-.251.107-.5.216-.754.319a1.985,1.985,0,0,1-.752.167,2.518,2.518,0,0,1-.931-.242c-.188-.091-.384-.165-.577-.246-.494-.225-.991-.444-1.494-.647-.491-.229-.987-.446-1.49-.647a.308.308,0,0,0-.353-.028c-.25.121-.509.224-.763.335l-1.926.845q-.733.3-1.45.631l-.865.362c.023.046.057.049.086.061.305.133.61.266.915.4l1.344.575c.036.019.072.04.109.056q.751.328,1.5.654c.455.2.912.39,1.369.585l1.539.674.107.039c.451.214.908.411,1.371.6l1.26.555a.575.575,0,0,0,.245.073.7.7,0,0,0,.146-.03q.7-.3,1.4-.614c.366-.157.733-.312,1.1-.472a.789.789,0,0,0,.275-.139.065.065,0,0,0,.069-.016l1.5-.651,1.543-.673.3-.14c.4-.136.787-.325,1.176-.5l1.478-.638C-1118.169,1232.448-1117.9,1232.342-1117.642,1232.21Zm-5.287,4c-.343.134-.682.277-1.012.441a3.335,3.335,0,0,0-.5.213q-.747.3-1.476.641a.219.219,0,0,0-.052.009,3.894,3.894,0,0,1-1.452.475,2.512,2.512,0,0,1-.969-.257c-.176-.084-.36-.153-.54-.229-.486-.222-.975-.438-1.471-.638a2.646,2.646,0,0,0-.438-.188c-.351-.173-.711-.324-1.074-.468-.078-.045-.155-.11-.251-.068-.384.168-.765.339-1.147.509l-.113.046-1.5.65-2.373,1.025.893.375c.488.227.983.44,1.481.645a7.533,7.533,0,0,0,.712.306c.258.133.526.242.8.35.489.22.978.438,1.476.638l1.182.516.353.151q.733.339,1.481.644c.29.129.579.262.872.385a2.9,2.9,0,0,0,.594.234.233.233,0,0,0,.2-.026c.464-.2.926-.4,1.388-.608.487-.2.968-.41,1.446-.627a1.4,1.4,0,0,0,.325-.146c.4-.151.785-.332,1.176-.5l1.508-.657c.269-.108.536-.219.8-.348.255-.1.5-.207.748-.325.488-.2.968-.409,1.447-.627l.891-.377-2.375-1.024-1.5-.651-.109-.046c-.35-.155-.7-.3-1.047-.467A.308.308,0,0,0-1122.929,1236.213Zm-10.491-11.905c-.281.109-.559.225-.828.362-.233.082-.456.187-.68.29l-1.476.644-.892.375c.291.127.552.243.815.356q.778.335,1.556.666.727.337,1.47.64l.084.036q.7.328,1.425.619c.5.23,1,.45,1.512.655a4.324,4.324,0,0,0,.574.249c.3.152.616.283.933.407.458.2.915.4,1.373.6a.216.216,0,0,0,.132.025.216.216,0,0,0,.132-.025q.688-.3,1.374-.6.475-.184.934-.406l.546-.233,1.5-.655c.109-.045.219-.089.328-.136l1.1-.487.081-.032c.5-.206.993-.418,1.481-.645.034-.012.07-.021.1-.036l1.691-.737.605-.26-.895-.374c-.486-.227-.979-.439-1.474-.642a7.91,7.91,0,0,0-.744-.32,7.329,7.329,0,0,0-.764-.335c-.5-.23-1-.451-1.509-.654q-.591-.28-1.2-.522a1.455,1.455,0,0,0-.309-.133c-.485-.229-.979-.437-1.474-.643-.46-.2-.919-.405-1.379-.605a.489.489,0,0,0-.133-.018.313.313,0,0,0-.146.023q-.68.3-1.361.6-.864.373-1.727.747c-.42.183-.839.369-1.259.554C-1132.421,1223.858-1132.922,1224.079-1133.42,1224.308Z" transform="translate(1139.42 -1220.174)" fill="rgba(0,0,0,0.87)"/></svg>