<svg xmlns="http://www.w3.org/2000/svg" width="37.057" height="23.98" viewBox="0 0 37.057 23.98">
  <g id="four-squares-button-of-view-options" transform="translate(-0.02 -0.74)">
    <g id="Group_40804" data-name="Group 40804" transform="translate(0 0.72)">
      <g id="Group_40800" data-name="Group 40800" transform="translate(0 0)">
        <path id="Path_74232" data-name="Path 74232" d="M2.8,16.277H35.252a2.307,2.307,0,0,0,2.3-2.3V3.525a2.307,2.307,0,0,0-2.3-2.3H2.8a2.307,2.307,0,0,0-2.3,2.3V13.972A2.307,2.307,0,0,0,2.8,16.277ZM2.2,3.525A.606.606,0,0,1,2.8,2.918H35.252a.606.606,0,0,1,.606.606V13.972a.606.606,0,0,1-.606.606H2.8a.606.606,0,0,1-.606-.606Z" transform="translate(-0.48 -1.2)" fill="#0da06e"/>
      </g>
      <g id="Group_40814" data-name="Group 40814" transform="translate(30.046 17.043)">
        <path id="Path_74236" data-name="Path 74236" d="M1.945,333.655H5.987a1.447,1.447,0,0,0,1.445-1.445v-4.042a1.447,1.447,0,0,0-1.445-1.445H1.945A1.447,1.447,0,0,0,.5,328.168v4.042A1.447,1.447,0,0,0,1.945,333.655Z" transform="translate(-0.488 -326.711)" fill="#0da06e"/>
        <path id="Path_74237" data-name="Path 74237" d="M5.5,333.18H1.457A1.459,1.459,0,0,1,0,331.723V327.68a1.459,1.459,0,0,1,1.457-1.457H5.5a1.459,1.459,0,0,1,1.457,1.457v4.042A1.459,1.459,0,0,1,5.5,333.18Zm-4.042-6.932A1.434,1.434,0,0,0,.025,327.68v4.042a1.434,1.434,0,0,0,1.433,1.433H5.5a1.434,1.434,0,0,0,1.433-1.433V327.68A1.434,1.434,0,0,0,5.5,326.248H1.457ZM5.5,332.115H1.457a.393.393,0,0,1-.393-.393V327.68a.393.393,0,0,1,.393-.393H5.5a.393.393,0,0,1,.393.393v4.042A.393.393,0,0,1,5.5,332.115Zm-4.042-4.8a.368.368,0,0,0-.368.368v4.042a.368.368,0,0,0,.368.368H5.5a.368.368,0,0,0,.368-.368V327.68a.368.368,0,0,0-.368-.368Z" transform="translate(0 -326.223)" fill="#0da06e"/>
      </g>
      <g id="Group_40815" data-name="Group 40815" transform="translate(0.051 17.043)">
        <path id="Path_74236-2" data-name="Path 74236" d="M1.945,333.655H5.987a1.447,1.447,0,0,0,1.445-1.445v-4.042a1.447,1.447,0,0,0-1.445-1.445H1.945A1.447,1.447,0,0,0,.5,328.168v4.042A1.447,1.447,0,0,0,1.945,333.655Z" transform="translate(-0.488 -326.711)" fill="#0da06e"/>
        <path id="Path_74237-2" data-name="Path 74237" d="M5.5,333.18H1.457A1.459,1.459,0,0,1,0,331.723V327.68a1.459,1.459,0,0,1,1.457-1.457H5.5a1.459,1.459,0,0,1,1.457,1.457v4.042A1.459,1.459,0,0,1,5.5,333.18Zm-4.042-6.932A1.434,1.434,0,0,0,.025,327.68v4.042a1.434,1.434,0,0,0,1.433,1.433H5.5a1.434,1.434,0,0,0,1.433-1.433V327.68A1.434,1.434,0,0,0,5.5,326.248H1.457ZM5.5,332.115H1.457a.393.393,0,0,1-.393-.393V327.68a.393.393,0,0,1,.393-.393H5.5a.393.393,0,0,1,.393.393v4.042A.393.393,0,0,1,5.5,332.115Zm-4.042-4.8a.368.368,0,0,0-.368.368v4.042a.368.368,0,0,0,.368.368H5.5a.368.368,0,0,0,.368-.368V327.68a.368.368,0,0,0-.368-.368Z" transform="translate(0 -326.223)" fill="#0da06e"/>
      </g>
      <g id="Group_40816" data-name="Group 40816" transform="translate(10.36 17.043)">
        <path id="Path_74236-3" data-name="Path 74236" d="M1.945,333.655H5.987a1.447,1.447,0,0,0,1.445-1.445v-4.042a1.447,1.447,0,0,0-1.445-1.445H1.945A1.447,1.447,0,0,0,.5,328.168v4.042A1.447,1.447,0,0,0,1.945,333.655Z" transform="translate(-0.488 -326.711)" fill="#0da06e"/>
        <path id="Path_74237-3" data-name="Path 74237" d="M5.5,333.18H1.457A1.459,1.459,0,0,1,0,331.723V327.68a1.459,1.459,0,0,1,1.457-1.457H5.5a1.459,1.459,0,0,1,1.457,1.457v4.042A1.459,1.459,0,0,1,5.5,333.18Zm-4.042-6.932A1.434,1.434,0,0,0,.025,327.68v4.042a1.434,1.434,0,0,0,1.433,1.433H5.5a1.434,1.434,0,0,0,1.433-1.433V327.68A1.434,1.434,0,0,0,5.5,326.248H1.457ZM5.5,332.115H1.457a.393.393,0,0,1-.393-.393V327.68a.393.393,0,0,1,.393-.393H5.5a.393.393,0,0,1,.393.393v4.042A.393.393,0,0,1,5.5,332.115Zm-4.042-4.8a.368.368,0,0,0-.368.368v4.042a.368.368,0,0,0,.368.368H5.5a.368.368,0,0,0,.368-.368V327.68a.368.368,0,0,0-.368-.368Z" transform="translate(0 -326.223)" fill="#0da06e"/>
      </g>
      <g id="Group_40817" data-name="Group 40817" transform="translate(19.738 17.043)">
        <path id="Path_74236-4" data-name="Path 74236" d="M1.945,333.655H5.987a1.447,1.447,0,0,0,1.445-1.445v-4.042a1.447,1.447,0,0,0-1.445-1.445H1.945A1.447,1.447,0,0,0,.5,328.168v4.042A1.447,1.447,0,0,0,1.945,333.655Z" transform="translate(-0.488 -326.711)" fill="#0da06e"/>
        <path id="Path_74237-4" data-name="Path 74237" d="M5.5,333.18H1.457A1.459,1.459,0,0,1,0,331.723V327.68a1.459,1.459,0,0,1,1.457-1.457H5.5a1.459,1.459,0,0,1,1.457,1.457v4.042A1.459,1.459,0,0,1,5.5,333.18Zm-4.042-6.932A1.434,1.434,0,0,0,.025,327.68v4.042a1.434,1.434,0,0,0,1.433,1.433H5.5a1.434,1.434,0,0,0,1.433-1.433V327.68A1.434,1.434,0,0,0,5.5,326.248H1.457ZM5.5,332.115H1.457a.393.393,0,0,1-.393-.393V327.68a.393.393,0,0,1,.393-.393H5.5a.393.393,0,0,1,.393.393v4.042A.393.393,0,0,1,5.5,332.115Zm-4.042-4.8a.368.368,0,0,0-.368.368v4.042a.368.368,0,0,0,.368.368H5.5a.368.368,0,0,0,.368-.368V327.68a.368.368,0,0,0-.368-.368Z" transform="translate(0 -326.223)" fill="#0da06e"/>
      </g>
    </g>
  </g>
</svg>
