<svg xmlns="http://www.w3.org/2000/svg" width="22" height="18" viewBox="0 0 22 18"><path d="M.092,20.431c-.034-.225-.762-5.628,2.5-9.346,2.005-2.285,5.1-3.536,9.1-3.659l.021-3.756a.669.669,0,0,1,.393-.6.706.706,0,0,1,.729.086l8.914,7.122a.658.658,0,0,1,0,1.036L12.833,18.5a.7.7,0,0,1-.729.088.667.667,0,0,1-.394-.6l-.021-3.841c-9.631-.007-10.315,6-10.339,6.249a.619.619,0,0,1-.6.611H.73A.639.639,0,0,1,.092,20.431Zm12.79-7.444a.661.661,0,0,1,.2.474v3.1l7.142-5.77L13.084,5.077V8.084a.678.678,0,0,1-.687.669c-3.912,0-6.9,1.1-8.755,3.2a9.732,9.732,0,0,0-2.256,5.1c1.5-2,4.13-4.258,11.01-4.262h0A.7.7,0,0,1,12.882,12.986Z" transform="translate(0.001 -3)" fill="#121313"/></svg>