<svg xmlns="http://www.w3.org/2000/svg" width="60" height="60" viewBox="0 0 60 60">
  <g id="no-camera" transform="translate(0 0)" opacity="0.219">
    <g id="Group_42435" data-name="Group 42435" transform="translate(0 0)">
      <g id="Group_42434" data-name="Group 42434" transform="translate(0)">
        <path id="Path_76295" data-name="Path 76295" d="M157.158,55.68a1.264,1.264,0,0,0,1.291.31,12.693,12.693,0,0,1,16,15.994,1.27,1.27,0,0,0,.31,1.29l12.851,12.851a1.265,1.265,0,0,0,.9.372,1.191,1.191,0,0,0,.161-.01,1.274,1.274,0,0,0,.934-.615,5.07,5.07,0,0,0,.709-2.56V55.367a5.087,5.087,0,0,0-5.081-5.081h-6.043a2.553,2.553,0,0,1-1.8-.744L172,44.154a5.117,5.117,0,0,0-3.592-1.489H156.321a5.118,5.118,0,0,0-3.592,1.489l-2.65,2.65a1.27,1.27,0,0,0,0,1.8Zm25.529-.313a2.54,2.54,0,1,1-2.54,2.54A2.543,2.543,0,0,1,182.687,55.367Z" transform="translate(-132.849 -37.584)"/>
        <path id="Path_76296" data-name="Path 76296" d="M59.633,56.1,3.9.366a1.25,1.25,0,0,0-1.768,0L.366,2.133a1.25,1.25,0,0,0,0,1.768l8.6,8.6H7.5a5,5,0,0,0-5,5V45a5,5,0,0,0,5,5H46.464L56.1,59.633a1.25,1.25,0,0,0,1.768,0l1.767-1.767A1.25,1.25,0,0,0,59.633,56.1ZM30,42.5A12.477,12.477,0,0,1,19.584,23.119l1.849,1.849A9.8,9.8,0,0,0,20,30,10.011,10.011,0,0,0,30,40a9.8,9.8,0,0,0,5.031-1.433l1.849,1.849A12.442,12.442,0,0,1,30,42.5Z" transform="translate(0 0)"/>
        <path id="Path_76297" data-name="Path 76297" d="M247.452,170.748a1.4,1.4,0,0,0-1.186.777,1.273,1.273,0,0,0,.273,1.392l8.782,8.782a1.27,1.27,0,0,0,2.168-.913A10.091,10.091,0,0,0,247.452,170.748Z" transform="translate(-217.426 -150.812)"/>
      </g>
    </g>
  </g>
</svg>
