<svg xmlns="http://www.w3.org/2000/svg" width="27.254" height="27.254" viewBox="0 0 27.254 27.254">
  <g id="user_1_" data-name="user (1)" transform="translate(0)">
    <g id="Group_41932" data-name="Group 41932" transform="translate(0)">
      <path id="Path_75412" data-name="Path 75412" d="M23.263,17.618a13.575,13.575,0,0,0-5.178-3.248,7.878,7.878,0,1,0-8.915,0A13.649,13.649,0,0,0,0,27.254H2.129a11.5,11.5,0,0,1,23,0h2.129A13.538,13.538,0,0,0,23.263,17.618Zm-9.636-3.991a5.749,5.749,0,1,1,5.749-5.749A5.755,5.755,0,0,1,13.627,13.627Z" transform="translate(0)"/>
    </g>
  </g>
</svg>
