<svg id="XMLID_1021_" xmlns="http://www.w3.org/2000/svg" width="25" height="25" viewBox="0 0 25 25">
  <path id="XMLID_1068_" d="M24,51.947a.487.487,0,0,0-.2-.658,7.658,7.658,0,0,0-8.434.841l-.788-.787,1.287-1.285a.487.487,0,0,0-.69-.689l-1.287,1.285-3.14-3.135a6.8,6.8,0,0,0,.554-7.263.487.487,0,0,0-.861.457,5.791,5.791,0,0,1-.39,6.109L7.985,44.757a1.2,1.2,0,0,0-1.97.434L.075,61.371a1.182,1.182,0,0,0,.277,1.256,1.187,1.187,0,0,0,.841.352A1.212,1.212,0,0,0,1.61,62.9l16.206-5.931a1.194,1.194,0,0,0,.434-1.967l-2.188-2.184a6.68,6.68,0,0,1,7.282-.674.488.488,0,0,0,.659-.2ZM7.767,59.614l-4.4-4.39,1.218-3.318,6.5,6.492Zm-2.383.872L2.5,57.6,3,56.232l3.757,3.751Zm-4.11,1.5a.221.221,0,0,1-.284-.284l1.136-3.1,2.248,2.244ZM17.621,55.9a.215.215,0,0,1-.14.16l-3,1.1-2.774-2.769a.487.487,0,0,0-.69.688l2.454,2.45-1.374.5L4.959,50.9l.5-1.371,2.454,2.45a.487.487,0,1,0,.69-.689L5.832,48.519l1.1-2.993a.216.216,0,0,1,.16-.14.236.236,0,0,1,.05-.006.212.212,0,0,1,.154.065L17.561,55.695a.215.215,0,0,1,.06.2Z" transform="translate(0 -37.979)"/>
  <path id="XMLID_1441_" d="M292.1,12.981a.5.5,0,0,0,.5-.5.768.768,0,0,1,.767-.767,1.778,1.778,0,0,0,1.776-1.776.5.5,0,0,0-1.01,0,.768.768,0,0,1-.767.767,1.778,1.778,0,0,0-1.776,1.776A.5.5,0,0,0,292.1,12.981Z" transform="translate(-277.436 -8.952)"/>
  <path id="XMLID_1462_" d="M380.824,105.182a1.837,1.837,0,0,0,1.835-1.835.826.826,0,0,1,.825-.825.5.5,0,0,0,0-1.01,1.837,1.837,0,0,0-1.835,1.835.826.826,0,0,1-.825.825.5.5,0,0,0,0,1.01Z" transform="translate(-361.966 -96.584)"/>
  <path id="XMLID_1489_" d="M448,163.1a1.615,1.615,0,1,0,1.615-1.615A1.617,1.617,0,0,0,448,163.1Zm1.615-.606a.606.606,0,1,1-.606.606A.606.606,0,0,1,449.617,162.495Z" transform="translate(-426.233 -153.638)"/>
  <path id="XMLID_1502_" d="M284.725,109.085a1.615,1.615,0,1,0-1.615-1.615A1.617,1.617,0,0,0,284.725,109.085Zm0-2.221a.606.606,0,1,1-.606.606A.606.606,0,0,1,284.725,106.864Z" transform="translate(-269.353 -100.71)"/>
  <path id="XMLID_1619_" d="M97.617,3.231A1.615,1.615,0,1,0,96,1.615,1.617,1.617,0,0,0,97.617,3.231Zm0-2.221a.606.606,0,1,1-.606.606A.606.606,0,0,1,97.617,1.01Z" transform="translate(-91.337)"/>
  <path id="XMLID_1620_" d="M436.3,348.277a.5.5,0,1,0-.714.714l.476.476a.5.5,0,0,0,.714-.714Z" transform="translate(-414.298 -331.166)"/>
  <path id="XMLID_1659_" d="M483.435,395.417a.5.5,0,1,0-.714.714l.476.476a.5.5,0,0,0,.714-.714Z" transform="translate(-459.059 -376.009)"/>
  <path id="XMLID_1690_" d="M483.2,348.277l-.476.476a.5.5,0,1,0,.714.714l.476-.476a.5.5,0,0,0-.714-.714Z" transform="translate(-459.059 -331.166)"/>
  <path id="XMLID_1712_" d="M436.057,395.417l-.476.476a.5.5,0,1,0,.714.714l.476-.476a.5.5,0,1,0-.714-.714Z" transform="translate(-414.298 -376.009)"/>
  <path id="XMLID_1715_" d="M483.078,1.486a.5.5,0,0,0,.357-.148l.476-.476A.5.5,0,1,0,483.2.148l-.476.476a.5.5,0,0,0,.357.862Z" transform="translate(-459.059 0)"/>
  <path id="XMLID_1747_" d="M435.937,48.625a.5.5,0,0,0,.357-.148L436.77,48a.5.5,0,0,0-.714-.714l-.476.476a.5.5,0,0,0,.357.862Z" transform="translate(-414.298 -44.76)"/>
  <path id="XMLID_1750_" d="M483.435,47.288a.5.5,0,1,0-.714.714l.476.476a.5.5,0,0,0,.714-.714Z" transform="translate(-459.059 -44.761)"/>
  <path id="XMLID_1751_" d="M436.056,1.338a.5.5,0,0,0,.714-.714l-.476-.476a.5.5,0,0,0-.714.714Z" transform="translate(-414.298 0)"/>
  <path id="XMLID_1755_" d="M191.726,300.78a.505.505,0,1,0,.357.148A.509.509,0,0,0,191.726,300.78Z" transform="translate(-181.897 -286.114)"/>
  <path id="XMLID_1756_" d="M337.453,193.835l-.366.366a.5.5,0,1,0,.714.714l.366-.366a.5.5,0,0,0-.714-.714Z" transform="translate(-320.518 -184.248)"/>
</svg>
