<svg xmlns="http://www.w3.org/2000/svg" width="20" height="36" viewBox="0 0 20 36">
  <g id="dollar" transform="translate(-117.333)">
    <g id="Group_41970" data-name="Group 41970" transform="translate(126.564)">
      <g id="Group_41969" data-name="Group 41969">
        <path id="Path_75460" data-name="Path 75460" d="M246.1,0a.76.76,0,0,0-.769.75v34.5a.769.769,0,0,0,1.538,0V.75A.76.76,0,0,0,246.1,0Z" transform="translate(-245.333)"/>
      </g>
    </g>
    <g id="Group_41972" data-name="Group 41972" transform="translate(117.333 3.077)">
      <g id="Group_41971" data-name="Group 41971" transform="translate(0)">
        <path id="Path_75461" data-name="Path 75461" d="M127.333,42.667c-5.514,0-10,3.451-10,7.692,0,2.928,2.1,5.562,5.494,6.874a.769.769,0,0,0,.557-1.434c-2.783-1.078-4.512-3.163-4.512-5.44,0-3.394,3.8-6.154,8.462-6.154s8.461,2.76,8.461,6.154a.769.769,0,0,0,1.539,0C137.333,46.118,132.847,42.667,127.333,42.667Z" transform="translate(-117.333 -42.667)"/>
      </g>
    </g>
    <g id="Group_41974" data-name="Group 41974" transform="translate(117.333 18.305)">
      <g id="Group_41973" data-name="Group 41973" transform="translate(0)">
        <path id="Path_75462" data-name="Path 75462" d="M131.838,266.687a.768.768,0,1,0-.555,1.432c2.783,1.078,4.512,3.163,4.512,5.44,0,3.394-3.8,6.154-8.462,6.154s-8.462-2.76-8.462-6.154a.769.769,0,0,0-1.538,0c0,4.242,4.486,7.692,10,7.692s10-3.451,10-7.692C137.333,270.631,135.228,268,131.838,266.687Z" transform="translate(-117.333 -266.634)"/>
      </g>
    </g>
    <g id="Group_41976" data-name="Group 41976" transform="translate(122.335 15.695)">
      <g id="Group_41975" data-name="Group 41975">
        <path id="Path_75463" data-name="Path 75463" d="M196.209,227.164c-2.251-.908-3.318-1.26-4.446-1.632-1-.331-2.037-.674-4.017-1.443a.769.769,0,0,0-.558,1.432c2.018.785,3.074,1.132,4.094,1.469,1.1.365,2.148.709,4.354,1.6a.783.783,0,0,0,.288.055.768.768,0,0,0,.286-1.48Z" transform="translate(-186.697 -224.034)"/>
      </g>
    </g>
  </g>
</svg>
