<svg xmlns="http://www.w3.org/2000/svg" width="89" height="114" viewBox="0 0 89 114">
  <g id="reward" transform="translate(-55.516 0.001)">
    <path id="Path_75508" data-name="Path 75508" d="M134,236.17H106.4L81.758,283.285a2.331,2.331,0,0,0,1.677,3.383l9.911,1.631a4.626,4.626,0,0,1,2.595,1.371l6.955,7.282a2.311,2.311,0,0,0,3.723-.529L120.2,270.457l13.581,25.965a2.311,2.311,0,0,0,3.723.529l6.955-7.282a4.628,4.628,0,0,1,2.595-1.371l9.911-1.631a2.331,2.331,0,0,0,1.677-3.383Z" transform="translate(-20.183 -183.669)" fill="#ad7fdd"/>
    <path id="Path_75509" data-name="Path 75509" d="M178.945,268.461,162.078,236.17H134.521l-16.868,32.292a7.688,7.688,0,0,0,6.811,1.3,7.752,7.752,0,0,0,7.532,5.9,7.66,7.66,0,0,0,3.966-1.1,7.729,7.729,0,0,0,8.174,3.87l4.164-7.972,4.164,7.972a7.729,7.729,0,0,0,8.174-3.87,7.659,7.659,0,0,0,3.967,1.1,7.752,7.752,0,0,0,7.531-5.9,7.688,7.688,0,0,0,6.811-1.3Z" transform="translate(-48.283 -183.628)" fill="#9d66d6"/>
    <g id="Group_41984" data-name="Group 41984" transform="translate(55.516 -0.001)">
      <path id="Path_75510" data-name="Path 75510" d="M101.68,3.516l2.248-2.73a2.154,2.154,0,0,1,3.625.479l1.466,3.221a2.154,2.154,0,0,0,3.213.863l2.876-2.054a2.156,2.156,0,0,1,3.378,1.4l.585,3.491a2.157,2.157,0,0,0,2.881,1.668l3.308-1.238a2.158,2.158,0,0,1,2.9,2.232l-.336,3.524a2.16,2.16,0,0,0,2.352,2.359l3.515-.337a2.162,2.162,0,0,1,2.226,2.909l-1.234,3.317a2.163,2.163,0,0,0,1.663,2.889l3.482.587a2.164,2.164,0,0,1,1.4,3.388l-2.048,2.884a2.166,2.166,0,0,0,.861,3.222l3.212,1.471a2.166,2.166,0,0,1,.477,3.635l-2.723,2.254a2.167,2.167,0,0,0,0,3.336l2.723,2.254a2.166,2.166,0,0,1-.477,3.635l-3.212,1.471a2.166,2.166,0,0,0-.861,3.222l2.048,2.884a2.164,2.164,0,0,1-1.4,3.388l-3.482.587a2.163,2.163,0,0,0-1.663,2.889l1.234,3.317a2.162,2.162,0,0,1-2.226,2.909l-3.515-.337a2.16,2.16,0,0,0-2.352,2.359l.336,3.524a2.158,2.158,0,0,1-2.9,2.232l-3.308-1.237a2.157,2.157,0,0,0-2.881,1.668l-.585,3.492a2.155,2.155,0,0,1-3.378,1.4L112.233,83.9a2.154,2.154,0,0,0-3.213.863l-1.466,3.221a2.154,2.154,0,0,1-3.625.479l-2.248-2.73a2.153,2.153,0,0,0-3.327,0L96.1,88.458a2.154,2.154,0,0,1-3.625-.479l-1.467-3.221A2.154,2.154,0,0,0,87.8,83.9l-2.876,2.054a2.156,2.156,0,0,1-3.378-1.4l-.585-3.492a2.157,2.157,0,0,0-2.881-1.668l-3.308,1.237a2.158,2.158,0,0,1-2.9-2.232l.336-3.524a2.16,2.16,0,0,0-2.352-2.359l-3.515.337a2.162,2.162,0,0,1-2.226-2.909l1.234-3.317a2.163,2.163,0,0,0-1.663-2.889L60.2,63.143a2.164,2.164,0,0,1-1.4-3.388l2.048-2.884a2.166,2.166,0,0,0-.861-3.222l-3.212-1.471a2.166,2.166,0,0,1-.477-3.635l2.723-2.254a2.167,2.167,0,0,0,0-3.336L56.3,40.7a2.166,2.166,0,0,1,.477-3.635l3.212-1.471a2.166,2.166,0,0,0,.861-3.222L58.8,29.488A2.164,2.164,0,0,1,60.2,26.1l3.482-.587a2.163,2.163,0,0,0,1.663-2.889l-1.234-3.317A2.162,2.162,0,0,1,66.339,16.4l3.515.337a2.16,2.16,0,0,0,2.352-2.359l-.336-3.524a2.158,2.158,0,0,1,2.9-2.232l3.308,1.238A2.157,2.157,0,0,0,80.96,8.189L81.546,4.7a2.155,2.155,0,0,1,3.378-1.4L87.8,5.348a2.154,2.154,0,0,0,3.213-.863L92.48,1.264A2.154,2.154,0,0,1,96.105.785l2.248,2.731a2.153,2.153,0,0,0,3.327,0Z" transform="translate(-55.516 0.001)" fill="#f7e365"/>
      <path id="Path_75511" data-name="Path 75511" d="M173.343,78.159l-2.722-2.254a2.167,2.167,0,0,1,0-3.335l2.722-2.254a2.166,2.166,0,0,0-.477-3.635l-3.21-1.47a2.166,2.166,0,0,1-.861-3.222l2.047-2.883a2.164,2.164,0,0,0-1.4-3.387l-3.48-.587a2.163,2.163,0,0,1-1.663-2.888l1.234-3.317a2.161,2.161,0,0,0-2.225-2.909l-3.513.337A2.159,2.159,0,0,1,157.445,44l.336-3.524a2.157,2.157,0,0,0-2.9-2.232l-1.882.7A42.424,42.424,0,0,1,94.463,97.66l-.7,1.887a2.161,2.161,0,0,0,2.225,2.908l3.513-.337a2.159,2.159,0,0,1,2.351,2.358L101.515,108a2.157,2.157,0,0,0,2.9,2.232L107.721,109a2.156,2.156,0,0,1,2.88,1.668l.585,3.491a2.154,2.154,0,0,0,3.377,1.4l2.875-2.054a2.153,2.153,0,0,1,3.212.863l1.466,3.22a2.153,2.153,0,0,0,3.624.478l2.247-2.73a2.152,2.152,0,0,1,3.325,0l2.247,2.73a2.153,2.153,0,0,0,3.624-.478l1.466-3.22a2.153,2.153,0,0,1,3.212-.863l2.875,2.054a2.154,2.154,0,0,0,3.377-1.4l.585-3.491a2.156,2.156,0,0,1,2.88-1.668l3.307,1.237a2.157,2.157,0,0,0,2.9-2.232l-.336-3.524a2.159,2.159,0,0,1,2.351-2.358l3.513.337a2.161,2.161,0,0,0,2.225-2.908L164.3,96.231a2.163,2.163,0,0,1,1.663-2.888l3.48-.587a2.164,2.164,0,0,0,1.4-3.387L168.8,86.486a2.166,2.166,0,0,1,.861-3.222l3.21-1.47A2.165,2.165,0,0,0,173.343,78.159Z" transform="translate(-85.127 -29.608)" fill="#f3d332"/>
      <ellipse id="Ellipse_76" data-name="Ellipse 76" cx="32.737" cy="32.859" rx="32.737" ry="32.859" transform="translate(11.763 11.763)" fill="#e69642"/>
      <path id="Path_75512" data-name="Path 75512" d="M240.079,141.98A42.581,42.581,0,0,1,197.5,184.562q-.413,0-.823-.008a32.948,32.948,0,0,0,43.4-43.4Q240.079,141.567,240.079,141.98Z" transform="translate(-165.6 -109.839)" fill="#e38523"/>
      <ellipse id="Ellipse_77" data-name="Ellipse 77" cx="25.209" cy="25.331" rx="25.209" ry="25.331" transform="translate(19.291 19.291)" fill="#f7e365"/>
      <path id="Path_75513" data-name="Path 75513" d="M195.658,104.981A25.41,25.41,0,0,1,160.5,140.139a25.409,25.409,0,1,0,35.158-35.158Z" transform="translate(-137.311 -81.659)" fill="#f3d332"/>
      <path id="Path_75514" data-name="Path 75514" d="M196.94,154.18l-5.761,2.484a3.183,3.183,0,0,1-4.429-3.218l.582-6.247a3.182,3.182,0,0,0-.779-2.4l-4.143-4.711a3.183,3.183,0,0,1,1.692-5.207l6.121-1.377a3.183,3.183,0,0,0,2.039-1.482l3.2-5.4a3.183,3.183,0,0,1,5.475,0l3.2,5.4a3.183,3.183,0,0,0,2.039,1.482l6.121,1.377a3.183,3.183,0,0,1,1.692,5.207l-4.143,4.711a3.183,3.183,0,0,0-.779,2.4l.582,6.247a3.183,3.183,0,0,1-4.429,3.218l-5.761-2.484A3.183,3.183,0,0,0,196.94,154.18Z" transform="translate(-153.7 -97.261)" fill="#e69642"/>
      <path id="Path_75515" data-name="Path 75515" d="M230.148,166.9l-2.786-.626a25.423,25.423,0,0,1-22.774,19.53,3.182,3.182,0,0,0,4.441,2.876l5.761-2.484a3.182,3.182,0,0,1,2.521,0l5.761,2.484a3.183,3.183,0,0,0,4.429-3.218l-.582-6.247a3.182,3.182,0,0,1,.779-2.4l4.143-4.711A3.183,3.183,0,0,0,230.148,166.9Z" transform="translate(-171.566 -129.287)" fill="#e38523"/>
    </g>
  </g>
</svg>
