<svg xmlns="http://www.w3.org/2000/svg" width="24" height="24" viewBox="0 0 24 24"><path d="M24,24H22c0-3.1.119-3.55-1.761-3.986-2.877-.664-5.594-1.291-6.584-3.458a4.168,4.168,0,0,1,.31-3.814c2.042-3.857,2.554-7.165,1.4-9.076C14.027,1.437,9.955,1.425,8.6,3.7c-1.154,1.937-.635,5.227,1.424,9.025a4.143,4.143,0,0,1,.338,3.815c-.982,2.178-3.675,2.8-6.525,3.456C1.875,20.45,2,20.866,2,24h-2l0-1.241c0-2.52.2-3.975,3.178-4.663,3.365-.777,6.688-1.473,5.09-4.418C3.535,4.949,6.918,0,12,0c4.983,0,8.451,4.766,3.732,13.678-1.551,2.928,1.65,3.624,5.09,4.418C23.8,18.784,24,20.239,24,22.759L24,24Zm-6-3H13v2h5Z"/></svg>