<svg xmlns="http://www.w3.org/2000/svg" width="25.59" height="23.848" viewBox="0 0 25.59 23.848"><g transform="translate(-9 -25.634)"><path d="M33.031,35.909h-1.29a1.271,1.271,0,0,0-1.213-.932H29.151V31.609a.355.355,0,0,0-.173-.314l-9.717-5.612a.359.359,0,0,0-.361,0L9.18,31.295a.362.362,0,0,0-.18.314V42.833a.363.363,0,0,0,.181.314L18.9,48.76a.363.363,0,0,0,.181.049.381.381,0,0,0,.186-.049l5.115-2.95v2.133a1.535,1.535,0,0,0,1.548,1.539h7.1a1.544,1.544,0,0,0,1.558-1.539V37.473a1.564,1.564,0,0,0-1.558-1.563Zm-2.49-.207a.526.526,0,0,1,.526.526v.035a.526.526,0,0,1-.526.526H28.434a.526.526,0,0,1-.526-.526v-.035a.526.526,0,0,1,.526-.526ZM19.083,26.415l4.039,2.332L14.128,33.94l-4.039-2.332Zm-.345,21.4L9.725,42.624V32.236l9.013,5.194ZM19.083,36.8l-4.231-2.442,8.995-5.193,4.231,2.442Zm5.3.671v7.5l-4.921,2.846V37.43l8.962-5.194v2.741h.011a1.271,1.271,0,0,0-1.213.932h-1.29A1.556,1.556,0,0,0,24.385,37.473Zm9.48,10.469a.818.818,0,0,1-.833.814h-7.1a.81.81,0,0,1-.823-.814V37.473a.83.83,0,0,1,.823-.838h1.3a1.24,1.24,0,0,0,1.2.881h2.091a1.24,1.24,0,0,0,1.2-.881h1.3a.838.838,0,0,1,.833.838Z" transform="translate(0 0)"/><path d="M337.36,280.435h.38a.363.363,0,1,0,0-.725h-.014v-.984h1a.349.349,0,0,0,.345.245.364.364,0,0,0,.365-.362v-.244a.367.367,0,0,0-.367-.364H337.36a.362.362,0,0,0-.36.364v1.708a.36.36,0,0,0,.36.362Z" transform="translate(-311.009 -239.293)"/><path d="M337.363,344.435h1.709a.363.363,0,0,0,.363-.363v-1.709a.363.363,0,0,0-.363-.363h-1.709a.363.363,0,0,0-.363.363v1.709A.363.363,0,0,0,337.363,344.435Zm.363-1.709h.984v.984h-.984Z" transform="translate(-311.009 -299.978)"/><path d="M337.739,407.709h-.014v-.984h.981a.364.364,0,1,0,.729,0v-.349a.378.378,0,0,0-.367-.377h-1.708a.373.373,0,0,0-.36.377v1.708a.35.35,0,0,0,.36.35h.38a.363.363,0,1,0,0-.725Z" transform="translate(-311.009 -360.663)"/><path d="M356.359,284.645l-1.062,1.062-.323-.323a.363.363,0,0,0-.513.513l.579.579a.363.363,0,0,0,.513,0l1.318-1.318a.363.363,0,0,0-.513-.513Z" transform="translate(-327.465 -245.493)"/><path d="M356.359,413.894l-1.062,1.062-.323-.323a.363.363,0,0,0-.513.513l.579.579a.363.363,0,0,0,.513,0l1.318-1.318a.363.363,0,0,0-.513-.513Z" transform="translate(-327.465 -368.047)"/><path d="M416.531,295h-2.278a.363.363,0,1,0,0,.725h2.278a.363.363,0,0,0,0-.725Z" transform="translate(-383.917 -255.413)"/><path d="M416.531,359h-2.278a.363.363,0,1,0,0,.725h2.278a.363.363,0,0,0,0-.725Z" transform="translate(-383.917 -316.097)"/><path d="M416.531,423h-2.278a.363.363,0,1,0,0,.725h2.278a.363.363,0,0,0,0-.725Z" transform="translate(-383.917 -376.782)"/></g></svg>