<svg xmlns="http://www.w3.org/2000/svg" width="20" height="19.111" viewBox="0 0 20 19.111"><defs><style>.a{opacity:0.451;}.b{fill:rgba(0,0,0,0.87);}</style></defs><g class="a" transform="translate(0)"><path class="b" d="M360.71,243.414l5.855,5.525v-9.385Z" transform="translate(-346.564 -230.603)"/><path class="b" d="M0,239.553v9.385l5.855-5.525Z" transform="translate(0 -230.603)"/><path class="b" d="M32.182,356.828a.588.588,0,0,1-.648,0l-2.813-1.855-5.971,5.635H40.966l-5.971-5.635Z" transform="translate(-21.858 -341.497)"/><path class="b" d="M13.861,174.343l-1.631,1.464,1.631,1.075Z" transform="translate(-11.75 -167.951)"/><path class="b" d="M204.962,11.427a.392.392,0,0,0-.5,0l-1.8,1.487h4.105Z" transform="translate(-194.712 -11.337)"/><path class="b" d="M456.17,174.343v2.54l1.631-1.075Z" transform="translate(-438.281 -167.951)"/><path class="b" d="M97.255,88.508V81.945a.392.392,0,0,0-.392-.392H84.222a.392.392,0,0,0-.392.392v6.563l6.713,4.427Zm-7.978-2.763a.588.588,0,0,1-.588-.588,1.854,1.854,0,0,1,3.707-.045,1.887,1.887,0,0,1-.754,1.544,1.55,1.55,0,0,0-.511,1.16.588.588,0,0,1-1.176,0c0-1.712,1.281-2.029,1.265-2.676a.683.683,0,0,0-.66-.66.677.677,0,0,0-.694.677A.588.588,0,0,1,89.277,85.745Zm.678,4.125c0-.006,0-.012,0-.018v-.388a.588.588,0,0,1,1.176,0v.388c0,.006,0,.012,0,.018a.588.588,0,0,1-1.176,0Z" transform="translate(-80.542 -78.799)"/></g></svg>