<svg xmlns="http://www.w3.org/2000/svg" width="20" height="15.238" viewBox="0 0 20 15.238"><defs></defs><g transform="translate(0 -38.84)"><g transform="translate(15.566 47.999)"><g transform="translate(0 0)"><path d="M400.041,273.32h-1.547a2.476,2.476,0,0,1,.244,1.066v4.505a1.059,1.059,0,0,1-.1.445H401.2A1.575,1.575,0,0,0,402.928,278v-2.456C402.928,274.318,401.633,273.32,400.041,273.32Z" transform="translate(-398.494 -273.32)"/></g></g><g transform="translate(0 47.999)"><g transform="translate(0 0)"><path d="M4.19,274.4a2.523,2.523,0,0,1,.244-1.077H2.887C1.3,273.321,0,274.33,0,275.569v2.482A1.579,1.579,0,0,0,1.732,279.4H4.289a1.08,1.08,0,0,1-.1-.45Z" transform="translate(0 -273.321)"/></g></g><g transform="translate(5.345 46.495)"><g transform="translate(0 0)"><path d="M143.252,234.815h-3.536a2.664,2.664,0,0,0-2.887,2.35v4.759a.532.532,0,0,0,.577.47h8.155a.532.532,0,0,0,.577-.47v-4.759A2.664,2.664,0,0,0,143.252,234.815Z" transform="translate(-136.829 -234.815)"/></g></g><g transform="translate(6.528 38.84)"><g transform="translate(0 0)"><path d="M170.586,38.84a3.472,3.472,0,1,0,3.472,3.472A3.476,3.476,0,0,0,170.586,38.84Z" transform="translate(-167.114 -38.84)"/></g></g><g transform="translate(1.306 42.076)"><g transform="translate(0 0)"><path d="M36.04,121.689a2.6,2.6,0,1,0,2.6,2.6A2.6,2.6,0,0,0,36.04,121.689Z" transform="translate(-33.443 -121.689)"/></g></g><g transform="translate(13.5 42.076)"><g transform="translate(0 0)"><path d="M348.2,121.689a2.6,2.6,0,1,0,2.6,2.6A2.6,2.6,0,0,0,348.2,121.689Z" transform="translate(-345.607 -121.689)"/></g></g></g></svg>
