<svg xmlns="http://www.w3.org/2000/svg" width="34.291" height="17.146" viewBox="0 0 34.291 17.146"><path d="M25.714,23.146H24.288c0-2.217.086-2.536-1.257-2.848-2.055-.474-4-.922-4.705-2.47a2.978,2.978,0,0,1,.221-2.725c1.459-2.756,1.825-5.119,1-6.484a3.027,3.027,0,0,0-4.836.024c-.823,1.383-.451,3.733,1.019,6.447a2.958,2.958,0,0,1,.24,2.726c-.7,1.556-2.623,2-4.661,2.469-1.4.324-1.314.622-1.314,2.86H8.576l0-.89c0-1.8.143-2.836,2.269-3.328,2.4-.556,4.778-1.052,3.636-3.156C11.1,9.535,13.512,6,17.143,6c3.561,0,6.04,3.4,2.668,9.772-1.107,2.092,1.177,2.589,3.636,3.156,2.129.492,2.27,1.532,2.27,3.333Zm6.872-3.163c-1.842-.426-3.556-.8-2.726-2.368,2.529-4.775.672-7.328-2-7.328a3.065,3.065,0,0,0-3.212,3.322,9.565,9.565,0,0,0,1.292,4.179h1.5c-.243-1.072-2.095-3.661-1.094-5.338a1.918,1.918,0,0,1,3.02-.017c.543.9.259,2.589-.763,4.516a2.569,2.569,0,0,0-.173,2.355,3.572,3.572,0,0,0,2.482,1.726c2.153.63,1.955.06,1.955,2.115h1.425l0-.662c0-1.35-.106-2.132-1.7-2.5ZM0,23.146H1.427c0-2.055-.2-1.485,1.955-2.115A3.566,3.566,0,0,0,5.864,19.3a2.569,2.569,0,0,0-.173-2.355c-1.022-1.927-1.306-3.615-.763-4.516a1.916,1.916,0,0,1,3.02.017c1,1.679-.852,4.266-1.094,5.338h1.5A9.565,9.565,0,0,0,9.643,13.61a3.064,3.064,0,0,0-3.21-3.323c-2.672,0-4.529,2.553-2,7.328.83,1.57-.884,1.942-2.726,2.368C.106,20.351,0,21.132,0,22.484l0,.662Z" transform="translate(0 -6)"/></svg>