<svg xmlns="http://www.w3.org/2000/svg" width="20" height="20" viewBox="0 0 20 20">
  <g id="steering-wheel">
    <circle id="Ellipse_393" data-name="Ellipse 393" cx="0.586" cy="0.586" r="0.586" transform="translate(9.414 10)"/>
    <path id="Path_74778" data-name="Path 74778" d="M10,0A10,10,0,1,0,20,10,10.022,10.022,0,0,0,10,0Zm0,2.383a7.629,7.629,0,0,1,7.527,6.445H15.5A4.606,4.606,0,0,1,12.137,7.41a2.932,2.932,0,0,0-4.273,0A4.606,4.606,0,0,1,4.5,8.828H2.473A7.629,7.629,0,0,1,10,2.383Zm0,9.961a1.758,1.758,0,1,1,1.758-1.758A1.76,1.76,0,0,1,10,12.344Zm-7.093.433a4.626,4.626,0,0,1,1.82-.433A3.519,3.519,0,0,1,8.2,16.386h0a3.5,3.5,0,0,1-.278.943A7.652,7.652,0,0,1,2.907,12.777Zm9.17,4.552a3.5,3.5,0,0,1-.278-.943h0a3.52,3.52,0,0,1,4.311-3.943,8.56,8.56,0,0,1,.985.334A7.652,7.652,0,0,1,12.077,17.329Z"/>
  </g>
</svg>
