<svg xmlns="http://www.w3.org/2000/svg" width="24.496" height="24.494" viewBox="0 0 24.496 24.494"><defs></defs><path d="M22.8,13.6v8.448a2,2,0,0,1-2,2H3.2a2,2,0,0,1-2-2V13.6a.4.4,0,0,1,.8,0v8.448a1.2,1.2,0,0,0,1.2,1.2H7.549V16.5a2,2,0,0,1,2-2h4.9a2,2,0,0,1,2,2v5.149a.4.4,0,1,1-.8,0V16.5a1.2,1.2,0,0,0-1.2-1.2h-4.9a1.2,1.2,0,0,0-1.2,1.2v6.748H11.6v-6.3a.4.4,0,1,1,.8,0v6.3h8.4a1.2,1.2,0,0,0,1.2-1.2V13.6a.4.4,0,1,1,.8,0ZM2.6,6.455a.4.4,0,0,0,.4.4c21.758,0,20.68.039,20.839-.083a.4.4,0,0,0,.152-.262c.022-.161.166.234-2.628-6.213A.4.4,0,0,0,21,.056H3A.4.4,0,0,0,2.633.3l-2.6,6A13.581,13.581,0,0,0,0,8.936a3.3,3.3,0,0,0,6.2,1.571,3.3,3.3,0,0,0,5.8,0,3.3,3.3,0,0,0,5.8,0A3.3,3.3,0,0,0,24,8.935a.4.4,0,1,0-.8,0,2.5,2.5,0,0,1-5,0,.4.4,0,1,0-.8,0,2.5,2.5,0,0,1-5,0,.4.4,0,1,0-.8,0,2.5,2.5,0,1,1-5-.02.4.4,0,0,0-.8,0,2.5,2.5,0,1,1-5,.02v-2.4L3.263.856H20.734l2.253,5.2H3a.4.4,0,0,0-.4.4Z" transform="translate(0.25 0.194)"/></svg>
