<svg height="488pt" viewBox="0 -4 488.82506 488" width="488pt" xmlns="http://www.w3.org/2000/svg"><path d="m410.058594 310.285156c14.191406-10.964844 22.429687-27.941406 22.261718-45.871094 1.027344-29.796874-22.210937-54.820312-52-56-11.917968.035157-23.421874 4.378907-32.390624 12.230469-12.820313 11.417969-19.984376 27.886719-19.601563 45.046875.382813 17.164063 8.277344 33.292969 21.59375 44.128906.109375.089844.238281.144532.351563.230469-22.019532 9.171875-40.355469 25.414063-52.121094 46.160157-7.246094-5.855469-15.335938-10.582032-24-14.015626 4.121094-3.113281 7.777344-6.800781 10.847656-10.949218 7.425781-10.089844 11.394531-22.308594 11.320312-34.832032-.035156-29.390624-22.695312-53.792968-52-56-26.164062.671876-47.90625 20.363282-51.160156 46.335938-.566406 3.1875-.847656 6.421875-.839844 9.664062-.167968 17.882813 8.03125 34.820313 22.160157 45.78125-8.660157 3.4375-16.753907 8.160157-24 14.015626-11.324219-19.878907-28.640625-35.675782-49.480469-45.125 14.832031-10.898438 23.511719-28.269532 23.320312-46.671876 1.027344-29.796874-22.210937-54.820312-52-56-29.789062 1.179688-53.027343 26.203126-52 56-.144531 17.394532 7.609376 33.914063 21.082032 44.917969-44.113282 15.746094-76.679688 68.464844-76.679688 131.082031 0 4.417969 3.582032 8 8 8h130.078125c-1.140625 7.949219-1.742187 15.96875-1.800781 24 0 4.417969 3.582031 8 8 8h190.640625c4.417969 0 8-3.582031 8-8-.054687-8.03125-.65625-16.050781-1.800781-24h130.082031c4.417969 0 8-3.582031 8-8 0-61.289062-31.167969-113.195312-73.863281-130.128906zm-65.738282-45.871094c-.1875-12.101562 4.949219-23.671874 14.046876-31.648437 6.074218-5.339844 13.867187-8.308594 21.953124-8.351563 20.949219 1.183594 37.023438 19.039063 36 40 1.023438 20.957032-15.050781 38.816407-36 40-7.46875 0-14.714843-2.539062-20.550781-7.203124-9.921875-7.972657-15.621093-20.070313-15.449219-32.796876zm-136 32c-.003906-2.351562.203126-4.699218.625-7.007812 2.011719-18.234375 17.046876-32.257812 35.375-32.992188 18.390626.761719 33.453126 14.871094 35.410157 33.175782.402343 2.25.601562 4.535156.589843 6.824218.066407 9.105469-2.808593 17.992188-8.199218 25.335938-6.375 9.066406-16.714844 14.523438-27.800782 14.664062-20.949218-1.183593-37.019531-19.042968-36-40zm-96-72c20.949219 1.183594 37.023438 19.039063 36 40 1.023438 20.957032-15.050781 38.816407-36 40-20.949218-1.183593-37.019531-19.042968-36-40-1.019531-20.960937 15.050782-38.816406 36-40zm33.304688 208h-124.710938c3.03125-62.449218 41.246094-112 87.808594-112 27.375 0 53.160156 17.519532 69.847656 47.109376-16.355468 18.453124-27.699218 40.796874-32.945312 64.890624zm11.566406 32c.355469-7.558593 1.253906-15.078124 2.679688-22.503906 4.296875-25.378906 16.167968-48.859375 34.050781-67.371094.210937-.203124.40625-.417968.589844-.648437 13.160156-13.390625 31.039062-21.101563 49.808593-21.476563 18.769532.371094 36.648438 8.074219 49.808594 21.460938.1875.234375.390625.457031.609375.664062 17.882813 18.519532 29.746094 42.011719 34.039063 67.394532 1.421875 7.417968 2.316406 14.933594 2.671875 22.480468zm185.824219-32c-5.238281-24.09375-16.582031-46.433593-32.941406-64.882812 16.6875-29.597656 42.472656-47.117188 69.847656-47.117188 46.558594 0 84.800781 49.550782 87.808594 112zm0 0"/><path d="m151.335938 131.132812 21.863281 2.734376-13.535157 17.402343c-3.875 5.011719-3.429687 12.117188 1.039063 16.605469l20.152344 20.152344c4.496093 4.46875 11.605469 4.910156 16.617187 1.03125l17.382813-13.527344 2.738281 21.882812c.808594 6.277344 6.148438 10.984376 12.480469 11h28.496093c6.332032-.015624 11.675782-4.726562 12.480469-11.007812l2.734375-21.875 17.390625 13.539062c5.011719 3.878907 12.125 3.433594 16.609375-1.042968l20.160156-20.160156c4.464844-4.492188 4.902344-11.597657 1.023438-16.605469l-13.527344-17.394531 21.863282-2.734376c6.289062-.789062 11.007812-6.132812 11.015624-12.472656v-28.496094c-.011718-6.335937-4.726562-11.679687-11.015624-12.472656l-21.863282-2.734375 13.535156-17.402343c3.875-5.007813 3.429688-12.117188-1.039062-16.605469l-20.152344-20.152344c-4.492187-4.476563-11.605468-4.917969-16.617187-1.03125l-17.382813 13.527344-2.734375-21.878907c-.808593-6.28125-6.148437-10.988281-12.480469-11h-28.496093c-6.335938.011719-11.675781 4.722657-12.480469 11.007813l-2.738281 21.871094-17.390625-13.535157c-5.011719-3.878906-12.121094-3.433593-16.609375 1.039063l-20.160157 20.160156c-4.460937 4.492188-4.902343 11.601563-1.023437 16.609375l13.527344 17.390625-21.863281 2.734375c-6.289063.789063-11.007813 6.136719-11.015626 12.472656v28.496094c.007813 6.339844 4.726563 11.683594 11.015626 12.472656zm4.984374-37.921874 24.160157-3.015626c3.035156-.378906 5.589843-2.457031 6.578125-5.351562.820312-2.398438 1.796875-4.742188 2.925781-7.015625 1.355469-2.75 1.019531-6.03125-.863281-8.449219l-14.96875-19.199218 15.878906-15.925782 19.203125 14.949219c2.414063 1.882813 5.691406 2.222656 8.4375.875 2.28125-1.128906 4.628906-2.105469 7.03125-2.929687 2.894531-.988282 4.972656-3.542969 5.355469-6.574219l3.0625-24.160157h22.398437l3.015625 24.160157c.382813 3.03125 2.460938 5.585937 5.355469 6.574219 2.402344.824218 4.75 1.800781 7.03125 2.929687 2.753906 1.359375 6.042969 1.023437 8.464844-.867187l19.199219-14.949219 15.878906 15.871093-14.96875 19.199219c-1.882813 2.417969-2.214844 5.699219-.863282 8.449219 1.128907 2.269531 2.105469 4.613281 2.929688 7.015625.988281 2.894531 3.539062 4.972656 6.574219 5.351563l24.183593 3.0625v22.402343l-24.160156 3.015625c-3.035156.378906-5.585937 2.457032-6.574218 5.351563-.824219 2.398437-1.800782 4.742187-2.929688 7.015625-1.351562 2.75-1.015625 6.03125.863281 8.449218l14.96875 19.199219-15.878906 15.929688-19.199219-14.953125c-2.414062-1.882813-5.691406-2.21875-8.441406-.871094-2.277344 1.125-4.628906 2.101562-7.03125 2.925781-2.894531.988281-4.972656 3.542969-5.351562 6.578125l-3.066407 24.160156h-22.398437l-3.015625-24.160156c-.378907-3.035156-2.457031-5.589844-5.351563-6.578125-2.40625-.824219-4.753906-1.800781-7.03125-2.925781-2.75-1.347656-6.027344-1.011719-8.441406.871094l-19.199219 14.953125-15.882812-15.875 14.96875-19.199219c1.882812-2.417969 2.21875-5.699219.863281-8.449219-1.125-2.269531-2.105469-4.613281-2.925781-7.015625-.988281-2.894531-3.542969-4.96875-6.578125-5.351562l-24.207032-3.070313zm0 0"/><path d="m244.320312 152.414062c26.511719 0 48-21.492187 48-48 0-26.511718-21.488281-48-48-48-26.507812 0-48 21.488282-48 48 .027344 26.496094 21.503907 47.972657 48 48zm0-80c17.675782 0 32 14.324219 32 32 0 17.671876-14.324218 32-32 32-17.671874 0-32-14.328124-32-32 0-17.675781 14.328126-32 32-32zm0 0"/><path d="m53.042969 223.347656c1.199219 0 2.386719-.273437 3.46875-.800781 2-.957031 3.523437-2.691406 4.21875-4.796875 1.140625-3.59375-.144531-5.914062-2.707031-10.546875-5.742188-10.398437-23.199219-42-12.605469-67.78125 6.046875-14.679687 46.582031-26.53125 68.359375-32.898437 4.992187-1.453126 9.488281-2.765626 13.167968-3.949219 3.3125-1.070313 5.554688-4.160157 5.542969-7.640625l-.167969-62.519532c-.15625-2.425781-1.371093-4.65625-3.320312-6.105468-2.003906-1.507813-4.554688-2.089844-7.015625-1.601563-45.496094 9.195313-99.671875 24-114.816406 56.800781-26.230469 56.800782 27.105469 126.792969 38.6875 138.214844 1.832031 2.101563 4.410156 3.402344 7.1875 3.625zm-22.402344-90.070312c-3.273437 8.125-4.820313 16.84375-4.542969 25.597656-9.433594-22.109375-14.777344-48.140625-4.367187-70.65625 12.109375-26.277344 66.398437-40 94.636719-46.023438l.136718 46.777344c-2.238281.671875-4.648437 1.375-7.199218 2.113282-36.742188 10.765624-70.390626 22.070312-78.6875 42.191406zm0 0"/><path d="m361.863281 102.523438c3.683594 1.183593 8.1875 2.496093 13.179688 3.953124 21.773437 6.398438 62.308593 18.214844 68.359375 32.894532 10.621094 25.777344-6.867188 57.386718-12.601563 67.769531-2.566406 4.648437-3.855469 6.976563-2.703125 10.566406.6875 2.101563 2.195313 3.835938 4.183594 4.800781 1.078125.527344 2.257812.800782 3.457031.800782 2.773438-.179688 5.367188-1.457032 7.199219-3.550782 11.597656-11.417968 64.976562-81.402343 38.703125-138.234374-15.144531-32.832032-69.320313-47.605469-114.816406-56.800782l-.742188-.148437c-2.351562-.480469-4.792969.117187-6.652343 1.632812-1.859376 1.515625-2.941407 3.78125-2.949219 6.179688l-.160157 62.496093c-.011718 3.484376 2.230469 6.574219 5.542969 7.640626zm10.609375-60.304688c27.558594 5.859375 82.449219 19.59375 94.648438 46.042969 10.398437 22.503906 5.046875 48.527343-4.375 70.648437.273437-8.757812-1.277344-17.476562-4.554688-25.601562-8.292968-20.121094-41.941406-31.425782-78.671875-42.160156-2.542969-.734376-4.949219-1.441407-7.199219-2.113282zm0 0"/></svg>