<svg xmlns="http://www.w3.org/2000/svg" width="22" height="22" viewBox="0 0 22 22"><path d="M19.643,0H2.357A2.357,2.357,0,0,0,0,2.357V19.643A2.357,2.357,0,0,0,2.357,22H19.643A2.357,2.357,0,0,0,22,19.643V2.357A2.357,2.357,0,0,0,19.643,0Zm.786,19.643a.786.786,0,0,1-.786.786H2.357a.786.786,0,0,1-.786-.786V2.357a.786.786,0,0,1,.786-.786H19.643a.786.786,0,0,1,.786.786V19.643Z"/><g transform="translate(3.892 4.699)"><path d="M88.611,102.4H86.152a.819.819,0,0,0,0,1.639h2.458a.819.819,0,0,0,0-1.639Z" transform="translate(-85.333 -102.4)"/></g><g transform="translate(9.166 4.699)"><path d="M212.995,102.4h-7.375a.819.819,0,0,0,0,1.639h7.375a.819.819,0,0,0,0-1.639Z" transform="translate(-204.8 -102.4)"/></g><g transform="translate(3.892 10.181)"><path d="M88.611,221.867H86.152a.819.819,0,1,0,0,1.639h2.458a.819.819,0,1,0,0-1.639Z" transform="translate(-85.333 -221.867)"/></g><g transform="translate(9.166 10.181)"><path d="M212.995,221.867h-7.375a.819.819,0,1,0,0,1.639h7.375a.819.819,0,1,0,0-1.639Z" transform="translate(-204.8 -221.867)"/></g><g transform="translate(3.892 15.662)"><path d="M88.611,341.333H86.152a.819.819,0,0,0,0,1.639h2.458a.819.819,0,1,0,0-1.639Z" transform="translate(-85.333 -341.333)"/></g><g transform="translate(9.166 15.662)"><path d="M212.995,341.333h-7.375a.819.819,0,0,0,0,1.639h7.375a.819.819,0,0,0,0-1.639Z" transform="translate(-204.8 -341.333)"/></g></svg>