<svg xmlns="http://www.w3.org/2000/svg" width="15" height="22" viewBox="0 0 15 22"><g transform="translate(-72.5)"><g transform="translate(72.5)"><path d="M78.305,176.4H72.951a.449.449,0,0,0-.451.451v5.354a.449.449,0,0,0,.451.451h5.354a.449.449,0,0,0,.451-.451v-5.354A.449.449,0,0,0,78.305,176.4Zm-.451,5.354H73.4V177.3h4.453Z" transform="translate(-72.5 -168.528)" fill="#2c2f33"/><path d="M72.93,40.493h5.11a.435.435,0,0,0,.43-.444V37.855h8.6a.435.435,0,0,0,.43-.444V21.493a.435.435,0,0,0-.43-.444h-5.44l.886-.915a.451.451,0,0,0,0-.628.418.418,0,0,0-.608,0l-1.621,1.673a.451.451,0,0,0,0,.628l1.621,1.673a.421.421,0,0,0,.608,0,.451.451,0,0,0,0-.628l-.886-.915h5.01v15.03H78.47V34.774a.435.435,0,0,0-.43-.444H72.93a.435.435,0,0,0-.43.444v5.275A.441.441,0,0,0,72.93,40.493Zm.43-5.275h4.25V39.6H73.36Z" transform="translate(-72.5 -18.493)" fill="#2c2f33"/><path d="M78.756.451A.449.449,0,0,0,78.305,0H72.951A.449.449,0,0,0,72.5.451V5.805a.449.449,0,0,0,.451.451h5.354a.449.449,0,0,0,.451-.451V.451Zm-.9,4.9H73.4V.9h4.453Z" transform="translate(-72.5)" fill="#3c92ca"/></g></g></svg>