<svg xmlns="http://www.w3.org/2000/svg" width="20" height="20" viewBox="0 0 20 20">
  <g id="Solid" transform="translate(-32 -53.677)">
    <path id="Path_74320" data-name="Path 74320" d="M156.512,161.05h.047A4.526,4.526,0,1,0,152,156.525c0,.016,0,.031,0,.047A5.945,5.945,0,0,1,156.512,161.05Z" transform="translate(-114.033 -93.49)"/>
    <path id="Path_74318" data-name="Path 74318" d="M36.879,281.758A4.879,4.879,0,1,0,32,276.879a4.879,4.879,0,0,0,4.879,4.879Zm-.375-8.2h.751v3.17l2.011,2.332-.531.531-2.121-2.442a.375.375,0,0,1-.11-.265Z" transform="translate(0 -208.081)"/>
    <path id="Path_74319" data-name="Path 74319" d="M55.754,61.993a7.632,7.632,0,0,0-.092,1.176c0,.106,0,.213.008.319a5.6,5.6,0,0,1,1.869-.319A5.629,5.629,0,1,1,63.168,68.8a5.6,5.6,0,0,1-.319,1.869,7.579,7.579,0,0,0,1.675-.115.375.375,0,0,1,.4.188l1.024,1.855,2.135-.915-.637-2.022a.375.375,0,0,1,.137-.416,7.537,7.537,0,0,0,1.768-1.811.375.375,0,0,1,.413-.147l2.037.588.863-2.157-1.88-.979a.375.375,0,0,1-.2-.391,7.578,7.578,0,0,0-.031-2.532.375.375,0,0,1,.188-.4l1.855-1.024-.915-2.135-2.022.637a.375.375,0,0,1-.416-.137,7.536,7.536,0,0,0-1.811-1.768.375.375,0,0,1-.147-.413l.587-2.037-2.157-.863-.979,1.88a.375.375,0,0,1-.391.2,7.607,7.607,0,0,0-2.532.031.375.375,0,0,1-.4-.188l-1.024-1.855-2.136.915.637,2.022a.375.375,0,0,1-.137.416,7.537,7.537,0,0,0-1.768,1.811.375.375,0,0,1-.413.147l-2.037-.587-.863,2.157,1.88.979A.375.375,0,0,1,55.754,61.993Z" transform="translate(-20.66)"/>
  </g>
</svg>
