<svg xmlns="http://www.w3.org/2000/svg" width="23" height="23" viewBox="0 0 23 23"><g transform="translate(-16 -35.564)"><path d="M21.994,256a5.994,5.994,0,1,0,5.994,5.994A5.994,5.994,0,0,0,21.994,256Zm0,11.189a5.2,5.2,0,1,1,5.2-5.2,5.2,5.2,0,0,1-5.2,5.2Z" transform="translate(0 -209.425)"/><path d="M128,288h.8v.8H128Z" transform="translate(-106.405 -239.827)"/><path d="M0,0H.8V.8H0Z" transform="matrix(0.866, -0.5, 0.5, 0.866, 19.45, 48.962)"/><path d="M0,0H.8V.8H0Z" transform="matrix(0.5, -0.866, 0.866, 0.5, 17.987, 50.717)"/><path d="M48,368h.8v.8H48Z" transform="translate(-30.402 -315.83)"/><path d="M0,0H.8V.8H0Z" transform="matrix(0.866, -0.5, 0.5, 0.866, 17.988, 54.42)"/><path d="M0,0H.8V.8H0Z" transform="matrix(0.5, -0.866, 0.866, 0.5, 19.45, 56.176)"/><path d="M128,448h.8v.8H128Z" transform="translate(-106.405 -391.834)"/><path d="M0,0H.8V.8H0Z" transform="matrix(0.866, -0.5, 0.5, 0.866, 23.446, 55.883)"/><path d="M0,0H.8V.8H0Z" transform="matrix(0.5, -0.866, 0.866, 0.5, 24.909, 54.714)"/><path d="M208,368h.8v.8H208Z" transform="translate(-182.409 -315.83)"/><path d="M0,0H.8V.8H0Z" transform="matrix(0.866, -0.5, 0.5, 0.866, 24.909, 50.424)"/><path d="M0,0H.8V.8H0Z" transform="matrix(0.5, -0.866, 0.866, 0.5, 23.446, 49.254)"/><path d="M128.8,330.232V328H128v2.4a.4.4,0,0,0,.117.283l1.6,1.6.565-.565Z" transform="translate(-106.405 -277.829)"/><path d="M177.665,172.393a3.606,3.606,0,0,1-2.877,3.525l.159.783a4.4,4.4,0,1,0-5.187-5.187l.783.159a3.6,3.6,0,0,1,7.121.72Z" transform="translate(-146.08 -125.818)"/><path d="M137.215,141.153l.791.113a5.2,5.2,0,1,1,5.885,5.885l.113.791a5.994,5.994,0,1,0-6.789-6.789Z" transform="translate(-115.16 -95.434)"/><path d="M0,0H.8V.8H0Z" transform="matrix(0.919, -0.394, 0.394, 0.919, 24.157, 38.65)"/><path d="M0,0H.8V.8H0Z" transform="translate(19.671 43.679) rotate(-68.209)"/><path d="M0,0H.8V.8H0Z" transform="matrix(0.919, -0.394, 0.394, 0.919, 30.769, 54.074)"/><path d="M0,0H.8V.8H0Z" transform="translate(35.246 49.918) rotate(-68.209)"/><path d="M0,0H.8V.8H0Z" transform="matrix(0.919, -0.394, 0.394, 0.919, 35.175, 43.056)"/><path d="M57.371,48.743,55.3,47.665a8.86,8.86,0,0,0-.029-2.392l2.045-1.129a.4.4,0,0,0,.174-.507L56.23,40.7a.4.4,0,0,0-.487-.224l-2.229.7a8.805,8.805,0,0,0-1.711-1.67l.648-2.245a.4.4,0,0,0-.236-.482l-2.968-1.188a.4.4,0,0,0-.5.186L47.664,37.85a8.889,8.889,0,0,0-2.392.029l-1.129-2.045a.4.4,0,0,0-.507-.174L40.7,36.92a.4.4,0,0,0-.224.487l.7,2.229a8.8,8.8,0,0,0-1.67,1.711L37.261,40.7a.4.4,0,0,0-.482.236L35.592,43.9a.4.4,0,0,0,.186.5l2.072,1.079c-.028.223-.047.448-.057.671l.8.038a8.082,8.082,0,0,1,.089-.871.4.4,0,0,0-.21-.417l-2-1.042.919-2.3,2.169.626a.4.4,0,0,0,.44-.157,8.015,8.015,0,0,1,1.882-1.928.4.4,0,0,0,.146-.443l-.678-2.153,2.274-.974,1.091,1.975a.4.4,0,0,0,.422.2,8.1,8.1,0,0,1,2.7-.033.4.4,0,0,0,.417-.21l1.042-2,2.3.919-.626,2.169a.4.4,0,0,0,.157.44,8.014,8.014,0,0,1,1.928,1.882.4.4,0,0,0,.443.146l2.153-.678.974,2.274L54.637,44.71a.4.4,0,0,0-.2.422,8.063,8.063,0,0,1,.033,2.7.4.4,0,0,0,.21.416l2,1.042-.919,2.3-2.169-.626a.4.4,0,0,0-.44.157,8.016,8.016,0,0,1-1.882,1.928.4.4,0,0,0-.146.443l.678,2.153-2.274.974L48.44,54.637a.4.4,0,0,0-.422-.2,8.068,8.068,0,0,1-1.063.121l.038.8a8.867,8.867,0,0,0,.884-.086l1.129,2.045a.4.4,0,0,0,.507.174l2.938-1.259a.4.4,0,0,0,.224-.487l-.7-2.229a8.8,8.8,0,0,0,1.67-1.711l2.245.648a.4.4,0,0,0,.482-.236l1.187-2.968A.4.4,0,0,0,57.371,48.743Z" transform="translate(-18.586)"/><path d="M0,0H.8V.8H0Z" transform="translate(30.578 39.012) rotate(-68.209)"/></g></svg>