<svg xmlns="http://www.w3.org/2000/svg" width="22.002" height="22.003" viewBox="0 0 22.002 22.003">
  <g id="repair" transform="translate(-0.01 0)">
    <g id="Group_41942" data-name="Group 41942" transform="translate(0.01 0)">
      <g id="Group_41941" data-name="Group 41941" transform="translate(0 0)">
        <path id="Path_75419" data-name="Path 75419" d="M21.07,16.5l-4.617-4.617a3.256,3.256,0,0,0-1.794-.9l2.035-2.035A4.511,4.511,0,0,0,21.56,2.565a.645.645,0,0,0-1.037-.178L19.045,3.866h-.911V2.955l1.478-1.478A.645.645,0,0,0,19.434.44,4.511,4.511,0,0,0,13.051,5.3l-2.5,2.5L7.032,4.289l.456-.456a.645.645,0,0,0-.124-1.008L2.808.092a.644.644,0,0,0-.787.1L.2,2.011A.644.644,0,0,0,.1,2.8L2.835,7.353a.644.644,0,0,0,1.008.124L4.3,7.022l3.518,3.518-2.5,2.5A4.511,4.511,0,0,0,.45,19.424a.645.645,0,0,0,1.037.178l1.478-1.478h.911v.911L2.4,20.513a.645.645,0,0,0,.178,1.037,4.511,4.511,0,0,0,6.383-4.865l2.035-2.035a3.257,3.257,0,0,0,.9,1.795l4.616,4.616A3.221,3.221,0,1,0,21.07,16.5ZM3.515,5.983,1.465,2.566,2.576,1.456l3.416,2.05Zm1.694.128L6.121,5.2,9.638,8.717l-.911.911ZM7.8,16.023a.644.644,0,0,0-.167.622,3.222,3.222,0,0,1-3.568,4.024l.911-.911a.644.644,0,0,0,.189-.455V17.48a.644.644,0,0,0-.644-.644H2.7a.644.644,0,0,0-.456.189l-.911.911a3.222,3.222,0,0,1,4.024-3.568.644.644,0,0,0,.622-.167l8.235-8.235a.644.644,0,0,0,.167-.622,3.222,3.222,0,0,1,3.568-4.024l-.911.911a.644.644,0,0,0-.189.455V4.51a.644.644,0,0,0,.644.644h1.822a.644.644,0,0,0,.456-.189l.911-.911a3.222,3.222,0,0,1-4.024,3.568.644.644,0,0,0-.622.167Zm12.361,4.126a1.936,1.936,0,0,1-2.734,0L12.81,15.534A1.933,1.933,0,0,1,15.543,12.8l4.616,4.616A1.936,1.936,0,0,1,20.159,20.149Z" transform="translate(-0.01 0)" fill="rgba(0,0,0,0.68)"/>
      </g>
    </g>
    <g id="Group_41944" data-name="Group 41944" transform="translate(13.582 13.572)">
      <g id="Group_41943" data-name="Group 41943">
        <path id="Path_75420" data-name="Path 75420" d="M321.47,320.549,316.917,316a.644.644,0,1,0-.911.911l4.552,4.552a.644.644,0,0,0,.911-.911Z" transform="translate(-315.817 -315.807)" fill="rgba(0,0,0,0.68)"/>
      </g>
    </g>
  </g>
</svg>
