<svg xmlns="http://www.w3.org/2000/svg" width="24" height="24" viewBox="0 0 24 24"><path d="M763.092-20.611h18l1.011.006c.36,0,.493.178.493.658q0,.382,0,.765c0,.386-.144.578-.438.581-.355,0-.71,0-1.065.006H760.106a7.447,7.447,0,0,1-.96-.039,1.071,1.071,0,0,1-.513-.631,3.384,3.384,0,0,1-.031-.562c0-.261,0-.523,0-.784q0-.986,0-1.972V-24.59q0-1,0-2.008t0-2.009q0-.986,0-1.972,0-1,0-2.009t0-2.008q0-1,0-2.009,0-.986,0-1.972v-2.009q0-.712,0-1.423c0-.361.138-.564.4-.575.233-.01.466-.01.7,0,.265.011.4.214.4.575q0,.712,0,1.423v2.01q0,1,0,2.007,0,.987,0,1.974,0,1,0,2.008t0,2.01q0,1,0,2.007,0,.987,0,1.974,0,1,0,2.008,0,.987,0,1.974c0,.632,0,1.264-.006,1.9,0,.1.034.118.1.118.47,0,.939-.006,1.409-.008Z" transform="translate(-758.597 42.594)" fill="rgba(0,0,0,0.87)"/><path d="M853.382-14.214a2.536,2.536,0,0,1,.346-.582,1.524,1.524,0,0,1,.7-.4,6.4,6.4,0,0,1,.722-.033h5.366c.372.022.745-.021,1.116.03a1.022,1.022,0,0,1,.682.676q0,.548.009,1.1,0,.9,0,1.8t0,1.766q0,.9,0,1.8,0,.351-.008.7a5.066,5.066,0,0,1-.22.484,1.515,1.515,0,0,1-.858.581,1.1,1.1,0,0,0-.114,0,1.364,1.364,0,0,1-1.2-.451c-.384-.393-.779-.774-1.17-1.16l-.16-.16c-.31-.313-.624-.622-.927-.941-.1-.106-.158-.113-.267,0q-1.975,1.984-3.959,3.959c-.034.034-.063.073-.1.11a3.6,3.6,0,0,0-.436.436c-.175.169-.358.33-.522.509a1,1,0,0,1-.8.351,1.053,1.053,0,0,1-.617-.33c-.17-.181-.355-.348-.533-.522a8.578,8.578,0,0,0-.651-.651q-.541-.573-1.115-1.114-.326-.358-.685-.684-.542-.573-1.115-1.114c-.166-.171-.335-.339-.5-.513-.065-.069-.107-.04-.159.012q-.9.9-1.8,1.794a4.583,4.583,0,0,0-.512.5c-.454.42-.888.861-1.319,1.3a3.87,3.87,0,0,1-.523.456,1.039,1.039,0,0,1-.317-.011,7.167,7.167,0,0,1-.822-.789c-.019-.019-.039-.036-.059-.054a.737.737,0,0,1,0-.412l.478-.5c.452-.422.887-.861,1.318-1.3a6.2,6.2,0,0,0,.494-.491l1.267-1.251a3.163,3.163,0,0,0,.529-.548c.183-.178.364-.359.55-.534a1.3,1.3,0,0,1,.692-.4,1.052,1.052,0,0,1,.817.325q2.271,2.283,4.553,4.555c.083.083.134.1.217.006s.2-.212.3-.318c.435-.42.867-.844,1.282-1.284a6.719,6.719,0,0,0,.518-.514l1.311-1.309.489-.489c.174-.17.347-.342.523-.511.047-.045.063-.075.007-.129-.353-.345-.7-.692-1.053-1.039l-.16-.159c-.063-.067-.128-.133-.19-.2a8.245,8.245,0,0,1-1.4-1.571l-.006-.007A3.756,3.756,0,0,1,853.382-14.214Zm5.36,3.735.613.613,1.157,1.17V-9.87q0-.9,0-1.8c0-.55,0-1.1.007-1.65,0-.094-.031-.121-.122-.12-.551.005-1.1.005-1.652.007h-2.922l1.119,1.153.614.612Q858.134-11.057,858.742-10.479Z" transform="translate(-838.319 20.22)" fill="rgba(0,0,0,0.87)"/></svg>