<svg xmlns="http://www.w3.org/2000/svg" width="30.385" height="25.459" viewBox="0 0 30.385 25.459"><g transform="translate(0 -41.5)"><g transform="translate(0 41.5)"><path d="M102.9,84.141h4.879a.445.445,0,1,0,0-.89h-4.741l1.068-3.221c.011-.032.02-.057.028-.075H113.5c.008.018.017.043.027.074l1.07,3.222h-4.709a.445.445,0,1,0,0,.89h4.848a.857.857,0,0,0,.675-.347.68.68,0,0,0,.1-.618l-1.137-3.425c-.185-.568-.524-.687-.776-.687h-9.562c-.364,0-.625.23-.777.684l-1.136,3.426a.68.68,0,0,0,.1.618.857.857,0,0,0,.675.347Z" transform="translate(-96.031 -76.836)"/><path d="M291.935,192.234v1.029a1,1,0,0,0,1,1h2.717a1,1,0,0,0,1-1v-1.029a1,1,0,0,0-1-1h-2.717A1,1,0,0,0,291.935,192.234Zm3.824,0v1.029a.109.109,0,0,1-.108.107h-2.717a.109.109,0,0,1-.108-.107v-1.029a.109.109,0,0,1,.108-.107h2.717A.109.109,0,0,1,295.759,192.234Z" transform="translate(-274.61 -182.351)"/><path d="M166.2,207.826h-5.684a.445.445,0,0,0,0,.89H166.2a.445.445,0,0,0,0-.89Z" transform="translate(-150.572 -197.955)"/><path d="M181.149,237.635h-3.671a.445.445,0,0,0,0,.89h3.671a.445.445,0,1,0,0-.89Z" transform="translate(-166.526 -225.995)"/><path d="M59.564,192.234v1.029a1,1,0,0,0,1,1h2.717a1,1,0,0,0,1-1v-1.029a1,1,0,0,0-1-1H60.562A1,1,0,0,0,59.564,192.234Zm.89,0a.109.109,0,0,1,.108-.107h2.717a.109.109,0,0,1,.108.107v1.029a.109.109,0,0,1-.108.107H60.562a.109.109,0,0,1-.108-.107Z" transform="translate(-56.029 -182.351)"/><path d="M29.426,58.26H29.17a5.922,5.922,0,0,0-.383-.921l.181-.181a.957.957,0,0,0,0-1.353L27.755,54.6a.96.96,0,0,0-1.352,0l-.183.182a5.958,5.958,0,0,0-.926-.383v-.254a.959.959,0,0,0-.782-.94s0-.836,0-.948a3.46,3.46,0,0,0-.671-2.523,1.982,1.982,0,0,0-.267-3.946H21.3l-1.01-2.929A2.3,2.3,0,0,0,18.125,41.5H7.447A2.3,2.3,0,0,0,5.28,42.857L4.27,45.784H1.995a1.982,1.982,0,0,0-.265,3.946,3.468,3.468,0,0,0-.672,2.527c0,.111,0,.227,0,.347l0,2.857A1.51,1.51,0,0,0,0,56.9v.445a1.509,1.509,0,0,0,1.065,1.439v1.767a1.281,1.281,0,0,0,1.28,1.278H4.58a1.281,1.281,0,0,0,1.28-1.278v-1.7h4a.445.445,0,0,0,0-.89H1.51a.618.618,0,0,1-.62-.615V56.9a.619.619,0,0,1,.621-.617h0l16.22-.013a.963.963,0,0,0-.024.21.944.944,0,0,0,.281.676l.181.182a5.933,5.933,0,0,0-.278.623H11.97a.445.445,0,1,0,0,.89h4.674a.95.95,0,0,0-.073.365v1.709a.959.959,0,0,0,.959.957h.256a5.93,5.93,0,0,0,.383.922l-.179.179a.954.954,0,0,0,0,1.354L19.2,65.545a.949.949,0,0,0,.678.281h0a.948.948,0,0,0,.677-.28l.182-.181a5.964,5.964,0,0,0,.927.383V66a.959.959,0,0,0,.959.957h1.714A.959.959,0,0,0,25.293,66v-.254a5.956,5.956,0,0,0,.926-.383l.181.18a.958.958,0,0,0,1.354,0l1.212-1.209a.957.957,0,0,0,0-1.353l-.18-.18a5.929,5.929,0,0,0,.383-.922h.256a.959.959,0,0,0,.959-.957V59.218a.959.959,0,0,0-.959-.957ZM4.97,58.852v1.7a.394.394,0,0,1-.39.388H2.346a.394.394,0,0,1-.39-.388v-1.7ZM23.577,46.675a1.092,1.092,0,1,1,0,2.184h-.588l-.961-.975-.417-1.209ZM6.122,43.147a1.442,1.442,0,0,1,1.326-.757H18.125a1.448,1.448,0,0,1,1.328.757L21.22,48.27a.445.445,0,0,0,.1.167l1.163,1.18,0,0,.669.679a2.628,2.628,0,0,1,.466,1.944c0,.116,0,.942,0,.942h-1a.959.959,0,0,0-.959.957V54.4a5.959,5.959,0,0,0-.927.383l-.182-.181a.96.96,0,0,0-1.353,0l-.787.784-16.46.013,0-2.791c0-.123,0-.242,0-.356A2.636,2.636,0,0,1,2.416,50.3l.669-.679,0,0,1.163-1.18a.445.445,0,0,0,.1-.167ZM.9,47.766a1.1,1.1,0,0,1,1.1-1.091H3.963l-.417,1.209-.961.975h-.59A1.1,1.1,0,0,1,.9,47.766Zm28.6,13.16a.07.07,0,0,1-.069.067h-.591a.445.445,0,0,0-.431.335,5.041,5.041,0,0,1-.551,1.328.445.445,0,0,0,.068.543l.419.417a.067.067,0,0,1,0,.092l-1.214,1.21a.065.065,0,0,1-.047.019.067.067,0,0,1-.049-.021l-.42-.417a.445.445,0,0,0-.54-.067,5.067,5.067,0,0,1-1.331.55.445.445,0,0,0-.335.431V66a.069.069,0,0,1-.068.067H22.621A.069.069,0,0,1,22.553,66v-.59a.445.445,0,0,0-.335-.431,5.073,5.073,0,0,1-1.332-.55.445.445,0,0,0-.541.068l-.42.419a.065.065,0,0,1-.047.019.066.066,0,0,1-.048-.02l-1.214-1.21a.062.062,0,0,1-.018-.045.063.063,0,0,1,.02-.046l.419-.417a.445.445,0,0,0,.068-.543,5.039,5.039,0,0,1-.551-1.328.445.445,0,0,0-.431-.335H17.53a.069.069,0,0,1-.069-.067V59.218a.069.069,0,0,1,.069-.067h.591a.445.445,0,0,0,.431-.335A5.034,5.034,0,0,1,19.1,57.49a.445.445,0,0,0-.068-.542l-.421-.421a.062.062,0,0,1-.018-.045.063.063,0,0,1,.02-.046l.3-.3h0l.916-.913a.071.071,0,0,1,.1,0l.419.417a.445.445,0,0,0,.541.068,5.076,5.076,0,0,1,1.332-.55.445.445,0,0,0,.335-.431v-.59a.07.07,0,0,1,.069-.067h1.714a.07.07,0,0,1,.068.067v.59a.445.445,0,0,0,.335.431,5.069,5.069,0,0,1,1.331.55.445.445,0,0,0,.54-.067l.421-.418a.071.071,0,0,1,.1,0l1.212,1.209a.067.067,0,0,1,0,.093l-.419.419a.445.445,0,0,0-.068.542,5.035,5.035,0,0,1,.551,1.326.445.445,0,0,0,.431.335h.591a.07.07,0,0,1,.069.067Z" transform="translate(0 -41.5)"/><path d="M336.682,291.963a3.7,3.7,0,0,0-2.124.666.445.445,0,0,0,.509.73,2.807,2.807,0,1,1-1.054,1.381.445.445,0,1,0-.839-.3,3.678,3.678,0,0,0-.209,1.227,3.718,3.718,0,1,0,3.717-3.709Z" transform="translate(-313.205 -277.099)"/></g></g></svg>