<svg xmlns="http://www.w3.org/2000/svg" width="20" height="20" viewBox="0 0 20 20">
  <g id="gear-2" transform="translate(0 0)">
    <g id="Group_40378" data-name="Group 40378" transform="translate(7.07 7.07)">
      <g id="Group_40377" data-name="Group 40377">
        <path id="Path_73957" data-name="Path 73957" d="M183.93,181a2.93,2.93,0,1,0,2.93,2.93A2.933,2.933,0,0,0,183.93,181Z" transform="translate(-181 -181)"/>
      </g>
    </g>
    <g id="Group_40380" data-name="Group 40380" transform="translate(0 0)">
      <g id="Group_40379" data-name="Group 40379">
        <path id="Path_73958" data-name="Path 73958" d="M20,11.652V8.347l-2.711-.534a7.53,7.53,0,0,0-.59-1.42l1.513-2.269L15.875,1.788,13.606,3.3a7.528,7.528,0,0,0-1.42-.59L11.652,0H8.347L7.814,2.711a7.53,7.53,0,0,0-1.42.59L4.125,1.788,1.788,4.125,3.3,6.394a7.528,7.528,0,0,0-.59,1.42L0,8.347v3.305l2.711.534a7.53,7.53,0,0,0,.59,1.42L1.788,15.875l2.336,2.336L6.394,16.7a7.528,7.528,0,0,0,1.42.59L8.347,20h3.305l.534-2.711a7.53,7.53,0,0,0,1.42-.59l2.269,1.513,2.336-2.336L16.7,13.606a7.528,7.528,0,0,0,.59-1.42ZM10,14.1A4.1,4.1,0,1,1,14.1,10,4.106,4.106,0,0,1,10,14.1Z"/>
      </g>
    </g>
  </g>
</svg>
