<svg xmlns="http://www.w3.org/2000/svg" width="16.463" height="9.055" viewBox="0 0 16.463 9.055">
  <path id="bx-stats" d="M14.817,4.116a1.647,1.647,0,0,0-.579.109L12.264,2.609a2.063,2.063,0,0,0,.083-.552,2.058,2.058,0,1,0-3.9.9L6.053,5.791a1.7,1.7,0,0,0-.291-.029,1.614,1.614,0,0,0-.421.061l-2.11-2.11a1.569,1.569,0,0,0,.062-.421A1.646,1.646,0,1,0,1.646,4.939a1.614,1.614,0,0,0,.421-.061l2.11,2.11a1.569,1.569,0,0,0-.062.421,1.646,1.646,0,1,0,3.191-.552L9.7,4.023a2.081,2.081,0,0,0,.584.093,2.041,2.041,0,0,0,.933-.231L13.2,5.5a1.709,1.709,0,0,0-.026.262,1.646,1.646,0,1,0,1.646-1.646Z" fill="#f8b539"/>
</svg>
