<svg id="Group_37719" data-name="Group 37719" xmlns="http://www.w3.org/2000/svg" width="58.124" height="49" viewBox="0 0 58.124 49">
  <path id="Path_51159" data-name="Path 51159" d="M-858.67-234.674c.045-.449.094-.9.134-1.347a28.465,28.465,0,0,1,3.518-11.43,28.717,28.717,0,0,1,6.612-8.043,28.666,28.666,0,0,1,13.871-6.487,28.267,28.267,0,0,1,13.156.757,28.9,28.9,0,0,1,15.449,11.059,28.274,28.274,0,0,1,4.945,11.709,27.7,27.7,0,0,1-.018,9.939,31.739,31.739,0,0,1-3,8.68,3.882,3.882,0,0,1-3.081,2.334,4.719,4.719,0,0,1-3.16-.8c-1.119-.724-2.3-1.348-3.457-2.018a1.229,1.229,0,0,1-.515-1.861c.222-.409.436-.822.673-1.223a1.154,1.154,0,0,1,1.69-.455c.6.33,1.2.653,1.852,1a24.063,24.063,0,0,0,2.719-8.838,21.468,21.468,0,0,0-2.046-11.169c-.521.321-1.043.637-1.56.961a1.29,1.29,0,0,1-2.054-.51c-.214-.371-.432-.74-.644-1.113a1.207,1.207,0,0,1,.525-1.837c.526-.289,1.04-.6,1.559-.9a1.106,1.106,0,0,0,.118-.1,22.306,22.306,0,0,0-7.018-6.353,22.023,22.023,0,0,0-9.168-2.9v2.2c0,.27,0,.539,0,.809a1.226,1.226,0,0,1-1.241,1.23c-.5,0-1,.007-1.507,0a1.214,1.214,0,0,1-1.3-1.305c0-.845,0-1.691,0-2.536,0-.12-.01-.239-.018-.4a22.264,22.264,0,0,0-8.421,2.444,22.193,22.193,0,0,0-7.836,6.826c.514.306.988.624,1.494.878a1.293,1.293,0,0,1,.5,1.928c-.278.4-.479.855-.747,1.264a1.122,1.122,0,0,1-1.653.313c-.192-.13-.4-.245-.6-.36-.319-.181-.642-.355-1.006-.556a22.33,22.33,0,0,0-2.084,8.724,21.139,21.139,0,0,0,2.742,11.277c.536-.306,1.079-.605,1.612-.921a1.268,1.268,0,0,1,1.976.505c.219.383.44.764.661,1.145a1.161,1.161,0,0,1-.532,1.789c-1.462.8-2.889,1.66-4.366,2.425-2,1.035-4.3.589-5.261-1.723-.386-.925-.891-1.8-1.283-2.722a27.494,27.494,0,0,1-2.083-8.34c-.044-.486-.1-.971-.15-1.456Z" transform="translate(858.67 262.423)" fill="#fff"/>
  <path id="Path_51160" data-name="Path 51160" d="M-763.867-162.813a4.583,4.583,0,0,1,2.636-4.464,4.376,4.376,0,0,1,4.811.832.753.753,0,0,0,.409.194c1.607.175,3.214.338,4.822.5,1.814.185,3.627.372,5.442.551,1.644.162,3.289.323,4.935.466a1.83,1.83,0,0,1,1.593,1.63,1.357,1.357,0,0,1-1.063,1.512,12.42,12.42,0,0,1-2.271.376c-4.124.354-8.25.682-12.375,1.019-.1.008-.2.015-.294.017a2.683,2.683,0,0,0-1.676.545,4.06,4.06,0,0,1-4.5.389A4.15,4.15,0,0,1-763.867-162.813Z" transform="translate(788.405 192.183)" fill="#fff"/>
  <path id="Path_51161" data-name="Path 51161" d="M-772.288-98.833c2.217,0,4.434-.007,6.651,0a2.183,2.183,0,0,1,2.309,2.34c0,.686.008,1.372,0,2.058a2.172,2.172,0,0,1-2.231,2.235q-6.671.011-13.341,0a2.17,2.17,0,0,1-2.208-2.214c-.008-.759.014-1.519,0-2.279a2.23,2.23,0,0,1,2.173-2.166C-776.723-98.787-774.5-98.833-772.288-98.833Z" transform="translate(801.186 141.191)" fill="#fff"/>
</svg>