<svg xmlns="http://www.w3.org/2000/svg" width="32" height="19" viewBox="0 0 32 19">
  <path id="spped" d="M32,117.926a15.605,15.605,0,0,0-4.686-11.176,16.14,16.14,0,0,0-22.628,0A15.605,15.605,0,0,0,0,117.926v.926H12.813a3.3,3.3,0,0,0,1.479,1.809,3.387,3.387,0,0,0,4.6-1.171,3.33,3.33,0,0,0,.295-.639H32Zm-14.722.623a1.5,1.5,0,0,1-2.033.517,1.458,1.458,0,0,1-.683-.9,1.441,1.441,0,0,1,.159-1.111,1.473,1.473,0,0,1,.908-.674,1.511,1.511,0,0,1,.373-.047,1.489,1.489,0,0,1,.752.2,1.458,1.458,0,0,1,.683.9,1.441,1.441,0,0,1-.159,1.111ZM19.259,117l-.006-.024a3.288,3.288,0,0,0-.805-1.446l2.694-4.508-1.615-.942-2.694,4.508a3.382,3.382,0,0,0-1.671,0A3.337,3.337,0,0,0,12.739,117H1.906a13.717,13.717,0,0,1,1.422-5.232l2.082,1.187.938-1.6-2.08-1.186a14.155,14.155,0,0,1,3.876-3.829l1.2,2.054,1.624-.926-1.2-2.057a14.155,14.155,0,0,1,5.3-1.4v2.376h1.875V104a14.155,14.155,0,0,1,5.3,1.4l-1.2,2.057,1.624.926,1.2-2.054a14.156,14.156,0,0,1,3.876,3.829l-2.08,1.186.938,1.6,2.082-1.187A13.717,13.717,0,0,1,30.094,117Z" transform="translate(0 -102.121)" fill="#a7a7a7"/>
</svg>
