<svg xmlns="http://www.w3.org/2000/svg" width="20" height="20" viewBox="0 0 20 20"><defs><style>.a{opacity:0.45;}.b{fill:rgba(0,0,0,0.87);}</style></defs><g class="a"><g transform="translate(7.473 7.469)"><path class="b" d="M154.081,150.541a2.523,2.523,0,0,0-1.324-.381h0a2.527,2.527,0,0,0-1.456,4.592l.08.056.107.068a2.661,2.661,0,0,0,.251.127h.028a2.612,2.612,0,0,0,.3.1l.123.032a1.838,1.838,0,0,1,.243.044h.175a2.324,2.324,0,0,0,.294,0h.072a2.722,2.722,0,0,0,1.918-1.166A2.523,2.523,0,0,0,154.081,150.541Zm-1.324,3.411c-.947,0-1.691-.557-1.691-1.265s.744-1.265,1.691-1.265,1.691.557,1.691,1.265S153.7,153.952,152.757,153.952Z" transform="translate(-150.23 -150.16)"/></g><g transform="translate(9.105 9.526)"><path class="b" d="M183.935,191.52c-.505,0-.9.251-.9.47s.4.47.9.47.9-.251.9-.47S184.441,191.52,183.935,191.52Z" transform="translate(-183.04 -191.52)"/></g><path class="b" d="M20,10A10,10,0,1,0,10,20,10.008,10.008,0,0,0,20,10Zm-2.439.231v.1a.4.4,0,0,1-.509.366L13.3,9.6a3.357,3.357,0,0,1,.024.4,3.3,3.3,0,0,1-.271,1.313l3.713,1.074a.4.4,0,0,1,.247.557,7.8,7.8,0,0,1-14,.024L3,12.977a.4.4,0,0,1,.231-.561l3.713-1.082A3.3,3.3,0,0,1,6.677,10,3.346,3.346,0,0,1,6.7,9.6L2.969,10.684a.4.4,0,0,1-.509-.366V10a7.847,7.847,0,0,1,6.184-7.64.4.4,0,0,1,.481.4V6.813a3.247,3.247,0,0,1,1.791,0V2.782a.4.4,0,0,1,.481-.4,7.847,7.847,0,0,1,6.164,7.652v.191Z"/></g></svg>