<svg xmlns="http://www.w3.org/2000/svg" width="20" height="20" viewBox="0 0 20 20"><g opacity="0.61"><path d="M17.071,2.929A10,10,0,0,0,4.341,1.755a.391.391,0,0,0,.443.644A9.218,9.218,0,1,1,2.4,4.784a.391.391,0,1,0-.644-.443,10,10,0,0,0,15.316,12.73,10,10,0,0,0,0-14.142Z" transform="translate(0 0)"/><path d="M57.943,65.885a7.943,7.943,0,0,0,7.505-10.542l0-.006a7.943,7.943,0,1,0-7.5,10.548Zm7.171-7.943q0,.277-.021.548a6.219,6.219,0,0,0-1.18.176,6.1,6.1,0,0,0-.451-3.113q.667.114,1.328.255A7.147,7.147,0,0,1,65.114,57.943Zm-2.58-2.533a5.3,5.3,0,0,1,.558,3.524,6.275,6.275,0,0,0-3.664,4.039,5.286,5.286,0,0,1-2.971,0,6.275,6.275,0,0,0-3.664-4.039,5.3,5.3,0,0,1,.558-3.524,32.656,32.656,0,0,1,9.183,0ZM51.972,58.667a6.221,6.221,0,0,0-1.18-.176q-.021-.272-.021-.548a7.147,7.147,0,0,1,.324-2.133q.661-.141,1.328-.255A6.1,6.1,0,0,0,51.972,58.667Zm-1.077.6a5.482,5.482,0,0,1,5.043,5.458c0,.033,0,.066,0,.1A7.2,7.2,0,0,1,50.895,59.271ZM56.7,65.006c0-.093.006-.186.006-.278a6.269,6.269,0,0,0-.067-.913,6.067,6.067,0,0,0,2.6,0,6.269,6.269,0,0,0-.067.913c0,.092,0,.185.006.278a7.2,7.2,0,0,1-2.481,0Zm3.246-.178c0-.033,0-.067,0-.1a5.482,5.482,0,0,1,5.043-5.458,7.2,7.2,0,0,1-5.042,5.558ZM57.943,50.771a7.181,7.181,0,0,1,6.519,4.183,33.479,33.479,0,0,0-13.037,0,7.181,7.181,0,0,1,6.519-4.184Z" transform="translate(-47.943 -47.943)"/><path d="M206,208.057A2.057,2.057,0,1,0,208.057,206,2.06,2.06,0,0,0,206,208.057Zm2.057-1.234a1.234,1.234,0,1,1-1.234,1.234A1.236,1.236,0,0,1,208.057,206.823Z" transform="translate(-198.057 -198.057)"/><path d="M72.46,72.874a.412.412,0,1,0-.291-.7h0a.411.411,0,0,0,.291.7Z" transform="translate(-69.084 -69.086)"/></g></svg>