<svg xmlns="http://www.w3.org/2000/svg" width="56.585" height="22.637" viewBox="0 0 56.585 22.637"><defs><style>.a{fill:#008755;}</style></defs><path class="a" d="M240,86.891h3.772v1.886H240Zm0,0" transform="translate(-216.423 -78.403)"/><path class="a" d="M55.776,6.16,49.37,5.245a32.323,32.323,0,0,0-3.63-1.924A31.759,31.759,0,0,0,32.6.492H31.488A32.057,32.057,0,0,0,16.181,4.4L12.948,6.159A22.284,22.284,0,0,0,2.164,9.083,4.305,4.305,0,0,0,0,12.811v5.6a.943.943,0,0,0,.943.943H4.11a5.638,5.638,0,0,0,10.641,0h25.2a5.638,5.638,0,0,0,10.641,0h.338a.947.947,0,0,0,.351-.067l3.055-1.226a3.566,3.566,0,0,0,2.253-3.328V7.094A.944.944,0,0,0,55.776,6.16ZM13.127,18.222a3.773,3.773,0,1,1,.076-.754A3.772,3.772,0,0,1,13.127,18.222Zm17.052-.754H15.089a5.658,5.658,0,1,0-11.317,0H1.886V12.811A2.412,2.412,0,0,1,3.1,10.72,20.39,20.39,0,0,1,13.2,8.037H30.179Zm0-11.317H16.9l.182-.1A30.155,30.155,0,0,1,30.179,2.42Zm1.886-3.773H32.6A29.848,29.848,0,0,1,43.7,4.5L42.049,6.151H32.065Zm16.9,15.844a3.773,3.773,0,1,1,.076-.754A3.772,3.772,0,0,1,48.964,18.222ZM54.7,8.98H51.87v1.887H54.7v3.867a1.688,1.688,0,0,1-1.068,1.576l-2.705,1.086c0-.087-.011-.173-.017-.259s-.008-.188-.017-.283-.028-.189-.043-.283-.026-.189-.045-.274-.046-.181-.071-.271-.043-.18-.072-.268-.062-.172-.094-.257-.061-.174-.094-.259-.078-.162-.117-.242-.078-.168-.122-.249-.094-.15-.137-.225-.094-.162-.148-.239-.1-.139-.156-.208-.111-.152-.171-.224-.117-.129-.175-.189-.124-.139-.188-.205-.129-.118-.194-.177-.135-.127-.207-.189-.144-.108-.216-.162-.144-.111-.219-.162-.16-.094-.241-.147-.147-.094-.224-.135-.172-.083-.258-.125-.155-.078-.235-.112-.189-.07-.283-.1-.156-.061-.236-.086c-.107-.033-.218-.057-.327-.084-.072-.017-.14-.04-.213-.054-.116-.024-.235-.037-.353-.054-.07-.009-.137-.025-.206-.031a5.748,5.748,0,0,0-.575-.029,5.664,5.664,0,0,0-5.659,5.659H32.065V8.036H42.439a.942.942,0,0,0,.667-.276l2.446-2.446a30.242,30.242,0,0,1,2.99,1.636.946.946,0,0,0,.366.134l5.793.827Zm0,0" transform="translate(0 -0.492)"/></svg>