<svg xmlns="http://www.w3.org/2000/svg" width="20" height="17.578" viewBox="0 0 20 17.578">
  <g id="work" transform="translate(0 0)">
    <path id="Path_73986" data-name="Path 73986" d="M211,240h3.516v1.172H211Zm0,0" transform="translate(-202.758 -230.625)"/>
    <path id="Path_73987" data-name="Path 73987" d="M16.226,84.933h-3.3v.586a.586.586,0,0,1-.586.586H7.656a.586.586,0,0,1-.586-.586v-.586h-3.3a1.756,1.756,0,0,1-1.667-1.2L0,77.41v12.8a1.76,1.76,0,0,0,1.758,1.758H18.242A1.76,1.76,0,0,0,20,90.207v-12.8l-2.107,6.321A1.755,1.755,0,0,1,16.226,84.933Zm0,0" transform="translate(0 -74.386)"/>
    <path id="Path_73988" data-name="Path 73988" d="M37.144,0H32.457A1.76,1.76,0,0,0,30.7,1.758v.586h-4.89l2.21,6.631a.586.586,0,0,0,.556.4h3.3V8.789a.586.586,0,0,1,.586-.586h4.687a.586.586,0,0,1,.586.586v.586h3.3a.586.586,0,0,0,.556-.4l2.21-6.631H38.9V1.758A1.76,1.76,0,0,0,37.144,0ZM31.871,2.344V1.758a.586.586,0,0,1,.586-.586h4.687a.586.586,0,0,1,.586.586v.586Zm0,0" transform="translate(-24.8 0)"/>
  </g>
</svg>
