<svg xmlns="http://www.w3.org/2000/svg" width="23.686" height="20.456" viewBox="0 0 23.686 20.456"><g transform="translate(0 -34.909)"><g transform="translate(0.538 46.213)"><path d="M33.708,279.273a.509.509,0,0,0-.538.538v7a.509.509,0,0,1-.538.538H13.252a.509.509,0,0,1-.538-.538v-7a.538.538,0,1,0-1.077,0v7a1.586,1.586,0,0,0,1.615,1.615H32.631a1.586,1.586,0,0,0,1.615-1.615v-7A.509.509,0,0,0,33.708,279.273Z" transform="translate(-11.637 -279.273)"/></g><g transform="translate(0 38.677)"><path d="M22.071,116.364H1.615A1.586,1.586,0,0,0,0,117.979v3.445a1.616,1.616,0,0,0,1.238,1.561l8.451,1.884v1.723a.509.509,0,0,0,.538.538h3.23a.509.509,0,0,0,.538-.538v-1.723l8.451-1.884a1.616,1.616,0,0,0,1.238-1.561v-3.445A1.586,1.586,0,0,0,22.071,116.364Zm-9.151,9.69H10.766V123.9h2.153Zm9.69-4.629a.524.524,0,0,1-.431.538L14,123.793v-.431a.509.509,0,0,0-.538-.538h-3.23a.509.509,0,0,0-.538.538v.431l-8.182-1.83a.524.524,0,0,1-.431-.538v-3.445a.509.509,0,0,1,.538-.538H22.071a.509.509,0,0,1,.538.538Z" transform="translate(0 -116.364)"/></g><g transform="translate(7.536 34.909)"><path d="M169.907,34.909h-5.383a1.586,1.586,0,0,0-1.615,1.615v.538a.538.538,0,0,0,1.077,0v-.538a.509.509,0,0,1,.538-.538h5.383a.509.509,0,0,1,.538.538v.538a.538.538,0,0,0,1.077,0v-.538A1.586,1.586,0,0,0,169.907,34.909Z" transform="translate(-162.909 -34.909)"/></g></g></svg>