<svg xmlns="http://www.w3.org/2000/svg" width="20" height="23" viewBox="0 0 20 23">
  <g id="file" transform="translate(-0.5 0)">
    <path id="Path_75455" data-name="Path 75455" d="M20.3,4.808,15.541.193A.686.686,0,0,0,15.063,0H3.043A2.532,2.532,0,0,0,.5,2.514V20.486A2.532,2.532,0,0,0,3.043,23H17.956A2.532,2.532,0,0,0,20.5,20.486V5.289a.67.67,0,0,0-.2-.481ZM15.745,2.28l2.405,2.335H15.962a.216.216,0,0,1-.217-.214Zm2.21,19.372H3.043a1.175,1.175,0,0,1-1.18-1.167V2.514a1.175,1.175,0,0,1,1.18-1.167H14.382V4.4a1.573,1.573,0,0,0,1.58,1.562h3.174V20.486a1.175,1.175,0,0,1-1.18,1.167Zm0,0" fill="rgba(0,0,0,0.68)"/>
    <path id="Path_75456" data-name="Path 75456" d="M108.228,238H98.857a.7.7,0,0,0,0,1.4h9.372a.7.7,0,0,0,0-1.4Zm0,0" transform="translate(-93.118 -227.337)" fill="rgba(0,0,0,0.68)"/>
    <path id="Path_75457" data-name="Path 75457" d="M98.893,299.4h8.074a.7.7,0,0,0,0-1.4H98.893a.7.7,0,0,0,0,1.4Zm0,0" transform="translate(-93.366 -284.649)" fill="rgba(0,0,0,0.68)"/>
    <path id="Path_75458" data-name="Path 75458" d="M107.942,358H98.893a.7.7,0,0,0,0,1.4h9.048a.7.7,0,0,0,0-1.4Zm0,0" transform="translate(-93.39 -341.96)" fill="rgba(0,0,0,0.68)"/>
  </g>
</svg>
