<svg xmlns="http://www.w3.org/2000/svg" width="54.368" height="54.368" viewBox="0 0 54.368 54.368">
  <g id="Group_37736" data-name="Group 37736" transform="translate(-284.739 855.075)">
    <g id="Group_37736-2" data-name="Group 37736" transform="translate(291.765 -848.049)">
      <path id="Path_51168" data-name="Path 51168" d="M308.821-851.151a20.18,20.18,0,0,0-20.158,20.158,20.18,20.18,0,0,0,20.158,20.158,20.181,20.181,0,0,0,20.158-20.158A20.181,20.181,0,0,0,308.821-851.151Zm0,39.231a19.1,19.1,0,0,1-19.073-19.073,19.1,19.1,0,0,1,19.073-19.073,19.1,19.1,0,0,1,19.073,19.073A19.1,19.1,0,0,1,308.821-811.92Z" transform="translate(-288.663 851.151)" fill="#008755" stroke="#008755" stroke-width="1"/>
    </g>
    <g id="Group_37737" data-name="Group 37737" transform="translate(314.003 -846.051)">
      <path id="Path_51169" data-name="Path 51169" d="M301-837.333a6.011,6.011,0,0,1,1.531,1.117,1.212,1.212,0,0,0,.854.36,1.186,1.186,0,0,0,.356-.055l11.141-3.62-.275-.549a18.3,18.3,0,0,0-13.668-9.934l-.6-.09v11.7A1.2,1.2,0,0,0,301-837.333Zm.389-11.537a17.243,17.243,0,0,1,11.991,8.718l-9.965,3.238-.137-.046a7.139,7.139,0,0,0-1.8-1.313.151.151,0,0,1-.09-.126Z" transform="translate(-300.33 850.103)" fill="#008755" stroke="#008755" stroke-width="1"/>
    </g>
    <g id="Group_37738" data-name="Group 37738" transform="translate(302.934 -821.937)">
      <path id="Path_51170" data-name="Path 51170" d="M304.671-837.451l-.187.015a6.281,6.281,0,0,1-1.944,0l-.189-.015a1.184,1.184,0,0,0-.951.488l-6.877,9.465.541.284a18.282,18.282,0,0,0,8.447,2.078,18.282,18.282,0,0,0,8.447-2.078l.541-.284-6.877-9.465A1.185,1.185,0,0,0,304.671-837.451Zm-1.159,11.261a17.241,17.241,0,0,1-7.411-1.683l6.153-8.47a.127.127,0,0,1,.1-.053h.017a12.489,12.489,0,0,0,2.4.053l6.153,8.47A16.974,16.974,0,0,1,303.512-826.19Z" transform="translate(-294.523 837.451)" fill="#008755" stroke="#008755" stroke-width="1"/>
    </g>
    <g id="Group_37739" data-name="Group 37739" transform="translate(307.73 -832.086)">
      <path id="Path_51171" data-name="Path 51171" d="M297.039-838.581a4.2,4.2,0,0,0,4.193,4.193,4.2,4.2,0,0,0,4.193-4.193,4.2,4.2,0,0,0-4.193-4.2A4.2,4.2,0,0,0,297.039-838.581Zm4.193-3.139a3.142,3.142,0,0,1,3.139,3.139,3.143,3.143,0,0,1-3.139,3.139,3.143,3.143,0,0,1-3.139-3.139A3.142,3.142,0,0,1,301.232-841.72Z" transform="translate(-297.039 842.776)" fill="#008755" stroke="#008755" stroke-width="1"/>
    </g>
    <g id="Group_37740" data-name="Group 37740" transform="translate(293.654 -831.524)">
      <path id="Path_51172" data-name="Path 51172" d="M302.541-836.1a5.971,5.971,0,0,1-.591-1.8,1.2,1.2,0,0,0-.808-.962l-11.131-3.616-.1.6a18.358,18.358,0,0,0-.255,3.031,18.124,18.124,0,0,0,5.482,13.031l.437.429,6.885-9.475A1.177,1.177,0,0,0,302.541-836.1Zm-.938.618-6.158,8.474a17.064,17.064,0,0,1-4.736-11.842,16.926,16.926,0,0,1,.151-2.249l9.957,3.235a.149.149,0,0,1,.092.126,7.072,7.072,0,0,0,.7,2.121A.128.128,0,0,1,301.6-835.48Z" transform="translate(-289.654 842.481)" fill="#008755" stroke="#008755" stroke-width="1"/>
    </g>
    <g id="Group_37741" data-name="Group 37741" transform="translate(295.297 -846.051)">
      <path id="Path_51173" data-name="Path 51173" d="M302.013-835.856a1.214,1.214,0,0,0,.854-.36,6.043,6.043,0,0,1,1.532-1.119,1.2,1.2,0,0,0,.663-1.063v-11.7l-.6.09a18.293,18.293,0,0,0-13.668,9.934l-.275.549,11.141,3.62A1.177,1.177,0,0,0,302.013-835.856Zm2-13.014V-838.4a.154.154,0,0,1-.09.126,7.141,7.141,0,0,0-1.8,1.313l-.139.046-9.963-3.238A17.243,17.243,0,0,1,304.009-848.87Z" transform="translate(-290.516 850.103)" fill="#008755" stroke="#008755" stroke-width="1"/>
    </g>
    <g id="Group_37742" data-name="Group 37742" transform="translate(317.169 -831.524)">
      <path id="Path_51174" data-name="Path 51174" d="M314.759-841.879l-.1-.6-11.131,3.616a1.2,1.2,0,0,0-.808.962,6,6,0,0,1-.589,1.8,1.172,1.172,0,0,0,.082,1.239l6.883,9.473.436-.429a18.126,18.126,0,0,0,5.484-13.031A18.429,18.429,0,0,0,314.759-841.879Zm-5.537,14.872-6.156-8.474a.128.128,0,0,1,0-.135,7.035,7.035,0,0,0,.694-2.121.152.152,0,0,1,.093-.126l9.957-3.235a16.994,16.994,0,0,1,.151,2.249A17.057,17.057,0,0,1,309.222-827.006Z" transform="translate(-301.991 842.481)" fill="#008755" stroke="#008755" stroke-width="1"/>
    </g>
    <g id="Group_37743" data-name="Group 37743" transform="translate(285.239 -854.575)">
      <path id="Path_51175" data-name="Path 51175" d="M311.923-854.575a26.713,26.713,0,0,0-26.684,26.684,26.713,26.713,0,0,0,26.684,26.684,26.715,26.715,0,0,0,26.684-26.684A26.715,26.715,0,0,0,311.923-854.575Zm0,52.314a25.658,25.658,0,0,1-25.63-25.63,25.658,25.658,0,0,1,25.63-25.63,25.66,25.66,0,0,1,25.63,25.63A25.66,25.66,0,0,1,311.923-802.261Z" transform="translate(-285.239 854.575)" fill="#008755" stroke="#008755" stroke-width="1"/>
    </g>
  </g>
</svg>
