<?xml version="1.0" encoding="iso-8859-1"?>
<!-- Generator: Adobe Illustrator 19.0.0, SVG Export Plug-In . SVG Version: 6.00 Build 0)  -->
<svg version="1.1" id="Capa_1" xmlns="http://www.w3.org/2000/svg" xmlns:xlink="http://www.w3.org/1999/xlink" x="0px" y="0px"
	 viewBox="0 0 512 512" style="enable-background:new 0 0 512 512;" xml:space="preserve">
<g>
	<g>
		<g>
			<path d="M503.467,442.668H486.4c-4.713,0-8.533,3.82-8.533,8.533s3.82,8.533,8.533,8.533h17.067c4.713,0,8.533-3.82,8.533-8.533
				S508.18,442.668,503.467,442.668z"/>
			<path d="M68.267,297.601h119.467c9.422-0.009,17.057-7.645,17.067-17.067v-128c-0.009-9.422-7.645-17.057-17.067-17.067H68.267
				c-9.422,0.009-17.057,7.645-17.067,17.067v128C51.209,289.956,58.845,297.592,68.267,297.601z M145.067,280.535h-34.133v-17.067
				c0.006-4.71,3.823-8.527,8.533-8.533h17.067c4.71,0.006,8.527,3.823,8.533,8.533V280.535z M68.267,152.535h119.467l0.012,128
				h-25.612v-17.067c-0.015-14.132-11.468-25.585-25.6-25.6h-17.067c-14.132,0.015-25.585,11.468-25.6,25.6v17.067h-25.6V152.535z"
				/>
			<path d="M179.2,314.668H76.8c-9.422,0.009-17.057,7.645-17.067,17.067v76.8c0.009,9.422,7.645,17.057,17.067,17.067h102.4
				c9.422-0.009,17.057-7.645,17.067-17.067v-76.8C196.257,322.313,188.622,314.677,179.2,314.668z M76.8,408.535v-76.8h102.4
				l0.012,76.8H76.8z"/>
			<path d="M153.6,348.801h-51.2c-4.713,0-8.533,3.821-8.533,8.533c0,4.713,3.82,8.533,8.533,8.533h51.2
				c4.713,0,8.533-3.821,8.533-8.533C162.133,352.622,158.313,348.801,153.6,348.801z"/>
			<path d="M153.6,374.401h-51.2c-4.713,0-8.533,3.82-8.533,8.533s3.82,8.533,8.533,8.533h51.2c4.713,0,8.533-3.82,8.533-8.533
				S158.313,374.401,153.6,374.401z"/>
			<path d="M512,86.318c0.006-11.116-5.417-21.535-14.525-27.907s-20.755-7.894-31.195-4.076v0
				c-0.109,0.042-0.228,0.053-0.334,0.099c-4.581,1.675-8.744,4.322-12.204,7.759l-41.639,41.639l-0.005,0.005l-51.195,51.195
				l-0.005,0.005l-51.195,51.195l-0.005,0.005l-70.212,70.212c-0.183,0.102-0.371,0.195-0.552,0.3V116.829
				c10.199-3.593,17.033-13.215,17.066-24.028v-25.6c0-4.713-3.82-8.533-8.533-8.533H8.533C3.82,58.668,0,62.489,0,67.201v25.6
				c0.033,10.813,6.868,20.435,17.067,24.027v325.84H8.533c-4.713,0-8.533,3.82-8.533,8.533s3.82,8.533,8.533,8.533h443.733
				c4.713,0,8.533-3.82,8.533-8.533s-3.821-8.533-8.533-8.533H290.133V322.297l31.631-31.631l0.005-0.005l51.195-51.195l0.005-0.005
				l51.195-51.195l0.005-0.005l51.195-51.195l0.005-0.005l26.622-26.622C508.374,104.03,511.97,95.362,512,86.318z M221.867,442.668
				H34.133V118.401h187.733V442.668z M230.4,101.335H25.6c-4.71-0.006-8.527-3.823-8.533-8.533V75.735h221.867v17.067
				C238.927,97.512,235.11,101.329,230.4,101.335z M273.067,442.668h-34.133V306.135c0-9.426,7.641-17.067,17.067-17.067
				s17.067,7.641,17.067,17.067V442.668z M307.2,281.097l-17.858,17.858c-2.624-11.912-11.408-21.516-23.039-25.191l40.896-40.896
				V281.097z M358.4,229.897l-34.133,34.133v-48.229l34.133-34.133V229.897z M409.6,178.697l-34.133,34.133v-48.229l34.133-34.133
				V178.697z M460.8,127.497l-34.133,34.133v-48.229L460.8,79.268V127.497z M489.925,98.372l-12.058,12.058V69.272
				c4.523-0.008,8.862,1.787,12.058,4.988c3.206,3.193,5.008,7.531,5.008,12.056S493.131,95.179,489.925,98.372z"/>
			<path d="M263.85,311.422c-0.188-0.543-0.448-1.058-0.771-1.533c-0.337-0.429-0.679-0.854-1.021-1.279
				c-2.453-2.425-6.125-3.133-9.304-1.796c-1.044,0.413-1.999,1.023-2.813,1.796c-0.341,0.425-0.683,0.85-1.025,1.279
				c-0.323,0.475-0.582,0.991-0.771,1.533c-0.246,0.484-0.417,1.002-0.508,1.537c-0.1,0.564-0.157,1.136-0.17,1.709
				c0.012,1.115,0.243,2.216,0.679,3.242c0.414,1.045,1.023,2.001,1.795,2.817c0.83,0.752,1.781,1.358,2.813,1.792
				c1.027,0.438,2.13,0.67,3.246,0.683c0.571-0.016,1.141-0.073,1.704-0.171c0.535-0.095,1.053-0.268,1.537-0.513
				c0.544-0.188,1.062-0.447,1.538-0.771c0.425-0.338,0.85-0.679,1.279-1.021c0.77-0.817,1.378-1.773,1.792-2.817
				c0.437-1.026,0.669-2.127,0.683-3.242c-0.015-0.573-0.072-1.144-0.171-1.708C264.268,312.425,264.095,311.907,263.85,311.422z"/>
		</g>
	</g>
</g>
<g>
</g>
<g>
</g>
<g>
</g>
<g>
</g>
<g>
</g>
<g>
</g>
<g>
</g>
<g>
</g>
<g>
</g>
<g>
</g>
<g>
</g>
<g>
</g>
<g>
</g>
<g>
</g>
<g>
</g>
</svg>
