<svg xmlns="http://www.w3.org/2000/svg" width="23.999" height="24" viewBox="0 0 23.999 24">
  <g id="Group_40899" data-name="Group 40899" transform="translate(-0.003 -408)">
    <g id="Group_40878" data-name="Group 40878" transform="translate(0 408)">
      <path id="Subtraction_1" data-name="Subtraction 1" d="M20,24H4a4,4,0,0,1-4-4V4A4,4,0,0,1,4,0H20a4,4,0,0,1,4,4V20A4,4,0,0,1,20,24ZM5.2,1.2a4,4,0,0,0-4,4V18.8a4,4,0,0,0,4,4H18.8a4,4,0,0,0,4-4V5.2a4.005,4.005,0,0,0-4-4Z" transform="translate(0)"/>
    </g>
    <g id="Group_40879" data-name="Group 40879" transform="translate(2.458 420.216)">
      <path id="Path_73590" data-name="Path 73590" d="M296.469,279.364h-8.481v-4.58h-2.122v4.575h-8.5a2.155,2.155,0,0,1,.215-.358c1.935-2.1,3.868-4.211,5.821-6.3a1.084,1.084,0,0,1,.7-.306c1.864-.025,3.727-.022,5.591,0a1.006,1.006,0,0,1,.664.25c2.01,2.15,4,4.319,5.994,6.485A1.225,1.225,0,0,1,296.469,279.364Z" transform="translate(-277.366 -272.379)"/>
    </g>
  </g>
</svg>
