<svg xmlns="http://www.w3.org/2000/svg" width="18" height="24" viewBox="0 0 18 24"><path d="M213.018,64.219A2.111,2.111,0,1,0,211,62.109,2.068,2.068,0,0,0,213.018,64.219Zm0-2.812a.7.7,0,1,1-.673.7A.689.689,0,0,1,213.018,61.406Z" transform="translate(-204.018 -57.188)"/><path d="M213.018,184.219A2.111,2.111,0,1,0,211,182.109,2.068,2.068,0,0,0,213.018,184.219Zm0-2.812a.7.7,0,1,1-.673.7A.689.689,0,0,1,213.018,181.406Z" transform="translate(-204.018 -171.563)"/><path d="M213.018,304.219A2.111,2.111,0,1,0,211,302.109,2.068,2.068,0,0,0,213.018,304.219Zm0-2.812a.7.7,0,1,1-.673.7A.689.689,0,0,1,213.018,301.406Z" transform="translate(-204.018 -285.938)"/><path d="M73.333,3.871V2.813H69.478V1.406h1.479V0H57.709V1.406h1.479V2.813H55.333V3.871l3.855,3.7v.863H55.333V9.5l3.855,3.7v.863H55.333v1.059l3.855,3.7v2.269h3.127V24h4.037V21.094h3.127V18.824l3.855-3.7V14.063H69.478V13.2l3.855-3.7V8.438H69.478V7.574Zm-3.855.347h1.5l-1.5,1.446Zm-10.29,12.7-1.5-1.446h1.5Zm0-5.625-1.5-1.446h1.5Zm0-5.625-1.5-1.446h1.5Zm5.818,16.929H63.66v-1.5h1.346Zm3.127-2.906h-7.6V1.406h7.6Zm2.85-4.219-1.5,1.446V15.469Zm0-5.625-1.5,1.446V9.844Z" transform="translate(-55.333)"/></svg>