<?xml version="1.0"?>
<svg xmlns="http://www.w3.org/2000/svg" width="512" height="512" viewBox="0 0 512 512"><g><path d="M256,184a56,56,0,1,0,56,56A56.063,56.063,0,0,0,256,184Zm0,96a40,40,0,1,1,40-40A40.045,40.045,0,0,1,256,280Z"/><path d="M256,56a56,56,0,1,0,56,56A56.063,56.063,0,0,0,256,56Zm0,96a40,40,0,1,1,40-40A40.045,40.045,0,0,1,256,152Z"/><path d="M256,312a56,56,0,1,0,56,56A56.063,56.063,0,0,0,256,312Zm0,96a40,40,0,1,1,40-40A40.045,40.045,0,0,1,256,408Z"/><path d="M368,304a8,8,0,0,0,7.89-6.68l16-96A8.007,8.007,0,0,0,384,192H352V168h16a8,8,0,0,0,7.89-6.68l16-96A8.007,8.007,0,0,0,384,56H352V40a8,8,0,0,0-8-8H319.71A28.043,28.043,0,0,0,292,8H220a28.043,28.043,0,0,0-27.71,24H168a8,8,0,0,0-8,8V56H128a8.007,8.007,0,0,0-7.89,9.32l16,96A8,8,0,0,0,144,168h16v24H128a8.007,8.007,0,0,0-7.89,9.32l16,96A8,8,0,0,0,144,304h16v16H128a8.007,8.007,0,0,0-7.89,9.32l16,96A8,8,0,0,0,144,432h16v8a8,8,0,0,0,8,8h48v48a8,8,0,0,0,8,8h64a8,8,0,0,0,8-8V448h48a8,8,0,0,0,8-8v-8h16a8,8,0,0,0,7.89-6.68l16-96A8.007,8.007,0,0,0,384,320H352V304ZM352,72h22.56l-13.34,80H352Zm0,136h22.56l-13.34,80H352ZM160,416h-9.22l-13.34-80H160Zm0-128h-9.22l-13.34-80H160Zm0-136h-9.22L137.44,72H160ZM220,24h72a12.014,12.014,0,0,1,11.31,8H208.69A12.014,12.014,0,0,1,220,24Zm60,464H232V448h48Zm56-56H176V48H336Zm38.56-96-13.34,80H352V336Z"/></g></svg>
