<svg xmlns="http://www.w3.org/2000/svg" width="18.813" height="24" viewBox="0 0 18.813 24">
  <g id="_3441944" data-name="3441944" transform="translate(-55.333)">
    <path id="Path_74279" data-name="Path 74279" d="M213.109,64.219A2.109,2.109,0,1,0,211,62.109,2.112,2.112,0,0,0,213.109,64.219Zm0-2.812a.7.7,0,1,1-.7.7A.7.7,0,0,1,213.109,61.406Z" transform="translate(-148.37 -57.188)"/>
    <path id="Path_74280" data-name="Path 74280" d="M213.109,184.219A2.109,2.109,0,1,0,211,182.109,2.112,2.112,0,0,0,213.109,184.219Zm0-2.812a.7.7,0,1,1-.7.7A.7.7,0,0,1,213.109,181.406Z" transform="translate(-148.37 -171.563)"/>
    <path id="Path_74281" data-name="Path 74281" d="M213.109,304.219A2.109,2.109,0,1,0,211,302.109,2.112,2.112,0,0,0,213.109,304.219Zm0-2.812a.7.7,0,1,1-.7.7A.7.7,0,0,1,213.109,301.406Z" transform="translate(-148.37 -285.938)"/>
    <path id="Path_74282" data-name="Path 74282" d="M74.146,3.871V2.813H70.117V1.406h1.546V0H57.816V1.406h1.546V2.813H55.333V3.871l4.029,3.7v.863H55.333V9.5l4.029,3.7v.863H55.333v1.059l4.029,3.7v2.269H62.63V24h4.219V21.094h3.268V18.824l4.029-3.7V14.063H70.117V13.2l4.029-3.7V8.438H70.117V7.574Zm-4.029.347h1.573L70.117,5.664Zm-10.755,12.7-1.573-1.446h1.573Zm0-5.625L57.789,9.844h1.573Zm0-5.625L57.789,4.219h1.573Zm6.08,16.929H64.036v-1.5h1.406Zm3.268-2.906H60.768V1.406H68.71Zm2.979-4.219-1.573,1.446V15.469Zm0-5.625-1.573,1.446V9.844Z"/>
  </g>
</svg>
