<svg height="512" viewBox="0 0 512 512" width="512" xmlns="http://www.w3.org/2000/svg"><g id="BULINE"><circle cx="256" cy="256" fill="#f55b4b" r="256"/></g><g id="Icons"><path d="m512 256a257.75 257.75 0 0 1 -3 39.64 254.82 254.82 0 0 1 -44 108.32c-1.69 2.37-3.4 4.71-5.16 7q-7.5 9.84-15.9 18.92a256.28 256.28 0 0 1 -135.29 76.7q-10.2 2.13-20.69 3.44a259.26 259.26 0 0 1 -63.8 0q-10.48-1.3-20.69-3.44a254.84 254.84 0 0 1 -111-53.67q-4.82-4-9.41-8.21-9.08-8.32-17.33-17.49a255.8 255.8 0 0 1 -7.2-334.08c2.17-2.64 4.41-5.23 6.68-7.78q8.22-9.18 17.28-17.54a255.52 255.52 0 0 1 121-62.41q10.12-2.12 20.61-3.4a259.26 259.26 0 0 1 63.8 0q10.49 1.3 20.69 3.44a254.39 254.39 0 0 1 94.58 41.11q4.89 3.42 9.61 7.1 9.78 7.56 18.77 16.05a258.19 258.19 0 0 1 21.37 22.75 254.86 254.86 0 0 1 56 123.94 257.75 257.75 0 0 1 3.08 39.61z" fill="#3e436d"/><path d="m287.9 509.07q1.73.27 3.45.51-1.73.24-3.45.45a259.26 259.26 0 0 1 -63.8 0q-10.48-1.3-20.69-3.44a254.84 254.84 0 0 1 -111-53.67q-4.82-4-9.41-8.21-9.08-8.32-17.33-17.49a255.8 255.8 0 0 1 -7.2-334.08c2.17-2.64 4.41-5.23 6.68-7.78q8.22-9.18 17.28-17.54a255.52 255.52 0 0 1 121-62.41q10.18-2.13 20.67-3.41a259.26 259.26 0 0 1 63.8 0q1.73.21 3.45.45-1.73.24-3.45.51-7 1-13.8 2.48a253.34 253.34 0 0 0 -50 16q-10.6 4.56-20.69 10.15a254 254 0 0 0 -24.68 15.47 256.72 256.72 0 0 0 -25.6 20.76q-6.31 5.82-12.25 12.08-2.55 2.68-5 5.46c-2.27 2.55-4.51 5.14-6.68 7.78q-4.86 5.88-9.36 12-7.41 10.14-13.82 21-2.68 4.58-5.2 9.26a254.81 254.81 0 0 0 -27.05 80.91 259.12 259.12 0 0 0 0 79.28 254.91 254.91 0 0 0 32.67 90.85q5.09 8.56 10.8 16.68c1 1.43 2 2.86 3.07 4.27q3.7 5.07 7.68 9.94 4.08 5 8.41 9.84 8.25 9.15 17.33 17.49 4.61 4.21 9.41 8.21a255.16 255.16 0 0 0 40.3 27.49q10.07 5.55 20.69 10.2a253.34 253.34 0 0 0 50 16q6.81 1.44 13.77 2.51z" fill="#343a5b"/><path d="m452.92 92.42-96.26 96.26-27.66 27.68-20.39 20.39-5.43 5.43-15.28 15.26-38.2 38.2-25.6 25.6-2.1 2.08-18.61 18.61-111 111q-4.82-4-9.41-8.21-9.08-8.32-17.33-17.49a255.37 255.37 0 0 1 -19.16-24.05l79.85-79.85 77-77 4.11-4.1 16.58-16.59 9.23-9.23 22-22 5.67-5.68 26.89-26.89 20.69-20.69 94.58-94.58q4.89 3.42 9.61 7.1 9.78 7.56 18.77 16.05a258.19 258.19 0 0 1 21.45 22.7z" fill="#fff"/><path d="m464.94 404c-1.69 2.37-3.4 4.71-5.16 7q-7.5 9.84-15.9 18.92a257.51 257.51 0 0 1 -25 23.63l-110.29-110.3-19.93-19.93-.76-.76-26.9-26.92-5.66-5.64-31.24-31.24-16.58-16.58-4.11-4.11-21.71-21.71-27.7-27.68-95.52-95.54c2.17-2.64 4.41-5.23 6.68-7.78q8.22-9.18 17.28-17.54a256.72 256.72 0 0 1 25.56-20.76z" fill="#fff"/><g fill="#db1b1b"><path d="m198.31 329.41-115.31 115.3q-9.08-8.32-17.33-17.49l97.81-97.81z"/><path d="m431.55 69.67-119 119-4 3.95-2.14 2.14h-34.78l6.09-6.09 10.18-10.17 124.88-124.88q9.78 7.56 18.77 16.05z"/><path d="m459.78 411q-7.5 9.84-15.9 18.92l-100.48-100.51h34.82z"/><path d="m209.39 194.77h-34.82l-6.09-6.09-103.32-103.32q8.22-9.18 17.28-17.54l120.86 120.86.11.11z"/></g><path d="m509 216.36a253.73 253.73 0 0 0 -5.9-27.68h-194.51v-183.27q-10.2-2.13-20.69-3.41a259.26 259.26 0 0 0 -63.8 0q-10.48 1.3-20.69 3.44v183.24h-194.41a253.73 253.73 0 0 0 -5.9 27.68 259.12 259.12 0 0 0 0 79.28 253.73 253.73 0 0 0 5.9 27.68h194.41v183.27q10.2 2.13 20.69 3.44a259.26 259.26 0 0 0 63.8 0q10.49-1.3 20.69-3.44v-183.27h194.46a253.73 253.73 0 0 0 5.9-27.68 259.12 259.12 0 0 0 0-79.28z" fill="#fff"/><path d="m120.28 407.44q3.7 5.07 7.68 9.94l-35.54 35.54q-4.82-4-9.41-8.21-9.08-8.32-17.33-17.49a255.37 255.37 0 0 1 -19.16-24.05l45.27-45.27a253.76 253.76 0 0 0 14.62 28.59q5.09 8.56 10.8 16.68c1.01 1.43 2.03 2.83 3.07 4.27z" fill="#e0e0e0"/><path d="m140.88 79.9q-2.55 2.68-5 5.46c-2.27 2.55-4.51 5.14-6.68 7.78q-4.86 5.88-9.36 12-7.41 10.14-13.82 21-2.68 4.58-5.2 9.26l-42.34-42.26c2.17-2.64 4.41-5.23 6.68-7.78q8.22-9.18 17.28-17.54a256.72 256.72 0 0 1 25.56-20.76z" fill="#e0e0e0"/><path d="m73.74 216.36a259.12 259.12 0 0 0 0 79.28 253.73 253.73 0 0 0 5.9 27.68h-70.64a253.73 253.73 0 0 1 -5.9-27.68 259.12 259.12 0 0 1 0-79.28 253.73 253.73 0 0 1 5.9-27.68h70.64a253.73 253.73 0 0 0 -5.9 27.68z" fill="#e0e0e0"/><path d="m224.1 21.39q-10.6 4.61-20.69 10.2v-26.18q10.2-2.13 20.69-3.41a259.26 259.26 0 0 1 63.8 0q1.73.21 3.45.45-1.73.24-3.45.51-7 1-13.8 2.48a253.34 253.34 0 0 0 -50 15.95z" fill="#e0e0e0"/><path d="m512 256a257.75 257.75 0 0 0 -3-39.64h-221v-214.36a259.26 259.26 0 0 0 -63.8 0v214.36h-221.15a259.12 259.12 0 0 0 0 79.28h221.05v214.36a259.26 259.26 0 0 0 63.8 0v-214.36h221.1a257.75 257.75 0 0 0 3-39.64z" fill="#db1b1b"/><path d="m120.28 407.44-37.28 37.27q-9.08-8.32-17.33-17.49l40.73-40.73q5.09 8.56 10.8 16.68c1.02 1.43 2.04 2.83 3.08 4.27z" fill="#c11717"/><path d="m119.81 105.19q-7.41 10.14-13.82 21l-40.83-40.83q8.22-9.18 17.28-17.54z" fill="#c11717"/><path d="m73.74 216.36a259.12 259.12 0 0 0 0 79.28h-70.69a259.12 259.12 0 0 1 0-79.28z" fill="#c11717"/><path d="m287.9 2v1q-7 1-13.8 2.48a253.34 253.34 0 0 0 -50 16v-19.48a259.26 259.26 0 0 1 63.8 0z" fill="#c11717"/><circle cx="474.36" cy="255.91" fill="#e23737" r="16.28"/><circle cx="440.45" cy="255.91" fill="#e23737" r="11.53"/></g></svg>