<svg xmlns="http://www.w3.org/2000/svg" width="16.914" height="22.205" viewBox="0 0 16.914 22.205"><g transform="translate(-61 0)"><path d="M76.805,15.767a5,5,0,0,0-2.834-1.741l-2.129-.456V12.335a4.562,4.562,0,0,0,2.122-3.227h.264a1.952,1.952,0,0,0,0-3.9h-.217V2.385A2.388,2.388,0,0,0,71.625,0h-5.2A3.25,3.25,0,0,0,63.94,5.353a1.951,1.951,0,0,0,.746,3.755h.264a4.562,4.562,0,0,0,2.122,3.227v1.235l-2.129.456A4.987,4.987,0,0,0,61,18.9v2.652a.651.651,0,0,0,.651.651H77.263a.651.651,0,0,0,.651-.651V18.9A5,5,0,0,0,76.805,15.767ZM74.011,6.505h.217a.651.651,0,0,1,0,1.3h-.217ZM64.9,7.806h-.217a.651.651,0,0,1,0-1.3H64.9Zm.867-3.686v.973A1.952,1.952,0,0,1,66.421,1.3h5.2A1.085,1.085,0,0,1,72.71,2.385V3.47H66.421A.651.651,0,0,0,65.771,4.12ZM66.2,8.457V6.5c.072,0,.144.008.217.008a.651.651,0,0,0,.651-.651V4.771H72.71V8.457a3.253,3.253,0,0,1-6.505,0ZM67.178,20.9H62.3v-2a3.705,3.705,0,0,1,2.914-3.6l2.074-.444.631,1.893Zm1.322,0,.635-3.556h.645l.635,3.556Zm.242-5.808a4.537,4.537,0,0,0,1.431,0l-.317.951h-.8Zm1.8-1.43a3.252,3.252,0,0,1-2.168,0V12.88a4.561,4.561,0,0,0,2.168,0ZM76.613,20.9H71.736l-.743-4.158.631-1.893L73.7,15.3a3.705,3.705,0,0,1,2.914,3.6Z"/></g></svg>