<svg xmlns="http://www.w3.org/2000/svg" width="20" height="17.578" viewBox="0 0 20 17.578">
  <g id="password" transform="translate(0 -31)">
    <g id="Key_2_" transform="translate(0 31)">
      <g id="Group_40690" data-name="Group 40690">
        <circle id="Ellipse_288" data-name="Ellipse 288" cx="0.586" cy="0.586" r="0.586" transform="translate(3.516 3.516)"/>
        <path id="Path_74153" data-name="Path 74153" d="M5.273,46.234a.586.586,0,0,1,0-1.172H7.031V43.3a.586.586,0,0,0-.586-.586H5.859V38.792a4.1,4.1,0,1,0-3.516,0v9.2a.586.586,0,0,0,.586.586H6.445a.586.586,0,0,0,.586-.586V46.234ZM2.344,35.1A1.758,1.758,0,1,1,4.1,36.859,1.76,1.76,0,0,1,2.344,35.1Z" transform="translate(0 -31)"/>
      </g>
      <g id="Group_40691" data-name="Group 40691" transform="translate(8.281 9.375)">
        <path id="Path_74154" data-name="Path 74154" d="M319.93,361h-2.344a.586.586,0,0,0,0,1.172h2.344a.586.586,0,0,0,0-1.172Z" transform="translate(-312.898 -357.484)"/>
        <path id="Path_74155" data-name="Path 74155" d="M223.133,271H212.586a.586.586,0,0,0-.586.586v7.031a.586.586,0,0,0,.586.586h10.547a.586.586,0,0,0,.586-.586v-7.031A.586.586,0,0,0,223.133,271Zm-4.1,5.859h-2.344a1.758,1.758,0,0,1,0-3.516h2.344a1.758,1.758,0,0,1,0,3.516Z" transform="translate(-212 -271)"/>
      </g>
    </g>
    <path id="Path_74156" data-name="Path 74156" d="M242.586,38.031h2.344a.586.586,0,0,0,.586-.586V35.688a1.172,1.172,0,0,1,2.344,0V39.2h3.516V35.688a4.688,4.688,0,0,0-9.375,0v1.758A.586.586,0,0,0,242.586,38.031Z" transform="translate(-232.547)"/>
  </g>
</svg>
