<svg xmlns="http://www.w3.org/2000/svg" width="24" height="21.576" viewBox="0 0 24 21.576"><defs></defs><g><g transform="translate(0 0)"><path d="M23.446,29.1l-1.3-.122a6.75,6.75,0,0,0-.634-1.5l.822-.993a.608.608,0,0,0-.037-.816L20.68,24.03a.609.609,0,0,0-.822-.043l-.993.822a7,7,0,0,0-1.492-.634l-.122-1.291a.609.609,0,0,0-.609-.548H14.619V20.509a.609.609,0,0,0-1.218,0v3.046H11.1A3.171,3.171,0,0,0,8.589,24.8l-2.51,3.308L1.858,29.256A2.524,2.524,0,0,0,0,31.687V33.3a2.526,2.526,0,0,0,2.528,2.51h.329a3.184,3.184,0,0,0,6.146,0h4.4v5.056a.609.609,0,0,0,1.218,0V39.4h2.022a.61.61,0,0,0,.609-.554l.122-1.3a7.029,7.029,0,0,0,1.5-.627l.993.822a.608.608,0,0,0,.816-.037l1.639-1.639a.615.615,0,0,0,.037-.822l-.822-.993a7.135,7.135,0,0,0,.634-1.492l1.279-.122A.614.614,0,0,0,24,32.034V29.7A.613.613,0,0,0,23.446,29.1ZM5.927,36.95a1.968,1.968,0,1,1,1.968-1.968A1.971,1.971,0,0,1,5.927,36.95ZM13.4,34.586H9.088a3.185,3.185,0,0,0-6.323,0H2.522a1.3,1.3,0,0,1-1.31-1.291V31.687a1.316,1.316,0,0,1,.962-1.255L6.6,29.226a.594.594,0,0,0,.323-.219l2.644-3.466a1.936,1.936,0,0,1,1.541-.761h2.3Zm1.218-6.3a2.724,2.724,0,1,1,0,5.172Zm8.162,3.192h0l-1.157.11a.609.609,0,0,0-.536.475,5.774,5.774,0,0,1-.81,1.913.6.6,0,0,0,.043.719l.743.9-.853.853-.9-.737a.6.6,0,0,0-.725-.037,5.556,5.556,0,0,1-1.907.8.6.6,0,0,0-.475.536l-.11,1.17H14.619V34.714a3.944,3.944,0,0,0,1.712-7.7,3.865,3.865,0,0,0-1.712,0V23.561h1.468l.116,1.163a.609.609,0,0,0,.475.536,5.89,5.89,0,0,1,1.913.8.6.6,0,0,0,.719-.043l.9-.743.841.847-.749.908a.6.6,0,0,0-.037.725,5.556,5.556,0,0,1,.8,1.907.609.609,0,0,0,.542.475l1.176.116Z" transform="translate(0 -19.9)"/></g></g></svg>
