<svg xmlns="http://www.w3.org/2000/svg" width="23" height="21" viewBox="0 0 23 21"><path d="M22.469,28.853l-1.243-.119a6.626,6.626,0,0,0-.607-1.458l.788-.966a.6.6,0,0,0-.035-.794L19.819,23.92a.577.577,0,0,0-.788-.042l-.952.8a6.654,6.654,0,0,0-1.43-.617l-.117-1.257a.587.587,0,0,0-.584-.534H14.01V20.493a.584.584,0,1,0-1.168,0v2.964H10.636a3.023,3.023,0,0,0-2.405,1.209L5.826,27.886,1.78,29.007A2.451,2.451,0,0,0,0,31.372v1.571a2.439,2.439,0,0,0,2.423,2.443h.315A3.044,3.044,0,0,0,6.48,37.568a3.082,3.082,0,0,0,2.148-2.182h4.215v4.921a.584.584,0,1,0,1.168,0V38.884h1.938a.588.588,0,0,0,.584-.54l.117-1.263a6.68,6.68,0,0,0,1.436-.611l.952.8a.576.576,0,0,0,.782-.036l1.57-1.595a.606.606,0,0,0,.035-.8l-.788-.966a7,7,0,0,0,.607-1.453l1.226-.119A.6.6,0,0,0,23,31.71V29.44A.593.593,0,0,0,22.469,28.853ZM5.68,36.495A1.915,1.915,0,1,1,7.565,34.58,1.9,1.9,0,0,1,5.68,36.495Zm7.163-2.3H8.71a3.047,3.047,0,0,0-6.059,0H2.417a1.255,1.255,0,0,1-1.255-1.257V31.372a1.278,1.278,0,0,1,.922-1.221l4.238-1.174a.569.569,0,0,0,.309-.213L9.165,25.39a1.845,1.845,0,0,1,1.477-.741h2.2Zm1.168-6.136a2.6,2.6,0,0,1,3.3,1.684,2.655,2.655,0,0,1-1.658,3.35,2.588,2.588,0,0,1-1.64,0Zm7.822,3.107h0l-1.109.107a.587.587,0,0,0-.514.462,5.667,5.667,0,0,1-.776,1.862.6.6,0,0,0,.041.7l.712.877-.817.83-.864-.717a.571.571,0,0,0-.695-.036,5.281,5.281,0,0,1-1.827.783.583.583,0,0,0-.455.522l-.105,1.138H14.01V34.319a3.771,3.771,0,0,0,4.507-2.911,3.84,3.84,0,0,0-2.866-4.583,3.649,3.649,0,0,0-1.64,0V23.463h1.407l.111,1.132a.59.59,0,0,0,.455.522,5.6,5.6,0,0,1,1.833.783.572.572,0,0,0,.689-.042l.858-.723.806.824-.718.883a.6.6,0,0,0-.035.706,5.454,5.454,0,0,1,.771,1.856.586.586,0,0,0,.52.462l1.127.113Z" transform="translate(0 -19.9)"/></svg>