<svg xmlns="http://www.w3.org/2000/svg" xmlns:xlink="http://www.w3.org/1999/xlink" width="1030" height="358" viewBox="0 0 1030 358">
  <defs>
    <filter id="BG" x="0" y="0" width="1030" height="358" filterUnits="userSpaceOnUse">
      <feOffset input="SourceAlpha"/>
      <feGaussianBlur stdDeviation="1" result="blur"/>
      <feFlood flood-opacity="0.314"/>
      <feComposite operator="in" in2="blur"/>
      <feComposite in="SourceGraphic"/>
    </filter>
  </defs>
  <g id="Group_39732" data-name="Group 39732" transform="translate(-336.13 -265)">
    <g id="Group_39712" data-name="Group 39712" transform="translate(339.13 268)">
      <g transform="matrix(1, 0, 0, 1, -3, -3)" filter="url(#BG)">
        <rect id="BG-2" data-name="BG" width="1024" height="352" rx="4" transform="translate(3 3)" fill="#fff"/>
      </g>
    </g>
  </g>
  <path id="Path_74221" data-name="Path 74221" d="M8.03,0l.089.006a.761.761,0,0,1,.386.221c.376.374.757.744,1.136,1.115l.229.226q.68.7,1.387,1.378a1.4,1.4,0,0,0,.234.232q.661.683,1.35,1.338l.281.277q.654.672,1.332,1.321a1.832,1.832,0,0,0,.262.26l1.1,1.1a.788.788,0,0,1,.228.332l.017.177-.023.175a1.481,1.481,0,0,1-.269.342c-.256.254-.513.508-.762.768a.847.847,0,0,1-.551.3.7.7,0,0,1-.477-.24q-.552-.54-1.1-1.083a1.818,1.818,0,0,0-.267-.261q-.674-.7-1.377-1.362l-.255-.253q-.633-.632-1.267-1.263a.207.207,0,0,0-.064-.029A1.3,1.3,0,0,0,9.38,4.79L8.057,3.473c-.006-.006-.018,0-.027-.006s-.03.006-.039.016L6.681,4.79a1.763,1.763,0,0,0-.265.262c-.455.428-.9.87-1.331,1.317L4.8,6.653Q4.111,7.3,3.452,7.984a1.379,1.379,0,0,0-.235.231c-.356.349-.713.7-1.066,1.048a.95.95,0,0,1-.489.3.738.738,0,0,1-.556-.243c-.294-.3-.594-.6-.894-.9a.715.715,0,0,1-.2-.318A.206.206,0,0,0,0,7.985l.027-.232a1.324,1.324,0,0,1,.246-.3q.538-.535,1.073-1.073l.262-.261,1.329-1.32.282-.276q.69-.656,1.352-1.34a1.908,1.908,0,0,0,.263-.261L6.191,1.569l.23-.228C6.8.973,7.173.607,7.546.237A.788.788,0,0,1,7.942,0Z" transform="translate(960.732 35.078) rotate(-90)" fill="rgba(0,0,0,0.37)"/>
  <path id="Path_74222" data-name="Path 74222" d="M8.03,9.569l.089-.006a.761.761,0,0,0,.386-.221c.376-.374.757-.744,1.136-1.115L9.87,8q.68-.7,1.387-1.378a1.4,1.4,0,0,1,.234-.232q.661-.683,1.35-1.338l.281-.277q.654-.672,1.332-1.321a1.832,1.832,0,0,1,.262-.26l1.1-1.1a.788.788,0,0,0,.228-.332l.017-.177-.023-.175a1.481,1.481,0,0,0-.269-.342C15.513.812,15.256.559,15.007.3a.847.847,0,0,0-.551-.3.7.7,0,0,0-.477.24q-.552.54-1.1,1.083a1.818,1.818,0,0,1-.267.261q-.674.7-1.377,1.362l-.255.253q-.633.632-1.267,1.263a.207.207,0,0,1-.064.029,1.3,1.3,0,0,1-.267.287L8.057,6.1c-.006.006-.018,0-.027.006S8,6.1,7.991,6.086L6.681,4.78a1.763,1.763,0,0,1-.265-.262c-.455-.428-.9-.87-1.331-1.317L4.8,2.917q-.688-.651-1.346-1.332a1.379,1.379,0,0,1-.235-.231C2.862,1,2.5.658,2.152.306A.95.95,0,0,0,1.663,0a.738.738,0,0,0-.556.243c-.294.3-.594.6-.894.9a.715.715,0,0,0-.2.318A.206.206,0,0,1,0,1.584l.027.232a1.324,1.324,0,0,0,.246.3q.538.535,1.073,1.073l.262.261,1.329,1.32.282.276q.69.656,1.352,1.34a1.908,1.908,0,0,1,.263.261L6.191,8l.23.228c.375.368.752.734,1.124,1.1a.788.788,0,0,0,.4.233Z" transform="translate(1002.36 35.078) rotate(-90)" fill="rgba(0,0,0,0.37)"/>
  <text id="September_" data-name="September " transform="translate(29 32)" fill="rgba(0,0,0,0.87)" font-size="18" font-family="SegoeUI, Segoe UI"><tspan x="0" y="0">September </tspan></text>
  <text id="S" transform="translate(702 100)" fill="#475f7b" font-size="20" font-family="SegoeUI, Segoe UI"><tspan x="0" y="0">S</tspan></text>
  <text id="_3" data-name="3" transform="translate(702 153)" fill="rgba(0,0,0,0.87)" font-size="15" font-family="SegoeUI-Bold, Segoe UI" font-weight="700"><tspan x="0" y="0">3</tspan></text>
  <text id="_00:00" data-name="00:00" transform="translate(6 67)" fill="rgba(0,0,0,0.87)" font-size="9" font-family="SegoeUI-Bold, Segoe UI" font-weight="700"><tspan x="0" y="0">00:00</tspan></text>
  <text id="am" transform="translate(5 51)" fill="rgba(0,0,0,0.87)" font-size="8" font-family="SegoeUI, Segoe UI" opacity="0.558"><tspan x="0" y="0">am</tspan></text>
  <text id="pm" transform="translate(372 51)" fill="rgba(0,0,0,0.87)" font-size="8" font-family="SegoeUI, Segoe UI" opacity="0.558"><tspan x="0" y="0">pm</tspan></text>
  <text id="_02:00" data-name="02:00" transform="translate(63 67)" fill="rgba(0,0,0,0.87)" font-size="9" font-family="SegoeUI-Bold, Segoe UI" font-weight="700"><tspan x="0" y="0">02:00</tspan></text>
  <text id="_06:00" data-name="06:00" transform="translate(176 67)" fill="rgba(0,0,0,0.87)" font-size="9" font-family="SegoeUI-Bold, Segoe UI" font-weight="700"><tspan x="0" y="0">06:00</tspan></text>
  <text id="_12:00" data-name="12:00" transform="translate(344 67)" fill="rgba(0,0,0,0.87)" font-size="9" font-family="SegoeUI-Bold, Segoe UI" font-weight="700"><tspan x="0" y="0">12:00</tspan></text>
  <text id="_19:00" data-name="19:00" transform="translate(541 67)" fill="rgba(0,0,0,0.87)" font-size="9" font-family="SegoeUI-Bold, Segoe UI" font-weight="700"><tspan x="0" y="0">19:00</tspan></text>
  <text id="_01:00" data-name="01:00" transform="translate(35 76)" fill="rgba(0,0,0,0.87)" font-size="9" font-family="SegoeUI-Bold, Segoe UI" font-weight="700"><tspan x="0" y="0">01:00</tspan></text>
  <text id="_05:00" data-name="05:00" transform="translate(147 76)" fill="rgba(0,0,0,0.87)" font-size="9" font-family="SegoeUI-Bold, Segoe UI" font-weight="700"><tspan x="0" y="0">05:00</tspan></text>
  <text id="_11:00" data-name="11:00" transform="translate(315 76)" fill="rgba(0,0,0,0.87)" font-size="9" font-family="SegoeUI-Bold, Segoe UI" font-weight="700"><tspan x="0" y="0">11:00</tspan></text>
  <text id="_18:00" data-name="18:00" transform="translate(512 76)" fill="rgba(0,0,0,0.87)" font-size="9" font-family="SegoeUI-Bold, Segoe UI" font-weight="700"><tspan x="0" y="0">18:00</tspan></text>
  <text id="_03:00" data-name="03:00" transform="translate(91 76)" fill="rgba(0,0,0,0.87)" font-size="9" font-family="SegoeUI-Bold, Segoe UI" font-weight="700"><tspan x="0" y="0">03:00</tspan></text>
  <text id="_07:00" data-name="07:00" transform="translate(204 76)" fill="rgba(0,0,0,0.87)" font-size="9" font-family="SegoeUI-Bold, Segoe UI" font-weight="700"><tspan x="0" y="0">07:00</tspan></text>
  <text id="_13:00" data-name="13:00" transform="translate(372 76)" fill="rgba(0,0,0,0.87)" font-size="9" font-family="SegoeUI-Bold, Segoe UI" font-weight="700"><tspan x="0" y="0">13:00</tspan></text>
  <text id="_20:00" data-name="20:00" transform="translate(569 76)" fill="rgba(0,0,0,0.87)" font-size="9" font-family="SegoeUI-Bold, Segoe UI" font-weight="700"><tspan x="0" y="0">20:00</tspan></text>
  <text id="_09:00" data-name="09:00" transform="translate(260 76)" fill="rgba(0,0,0,0.87)" font-size="9" font-family="SegoeUI-Bold, Segoe UI" font-weight="700"><tspan x="0" y="0">09:00</tspan></text>
  <text id="_15:00" data-name="15:00" transform="translate(428 76)" fill="rgba(0,0,0,0.87)" font-size="9" font-family="SegoeUI-Bold, Segoe UI" font-weight="700"><tspan x="0" y="0">15:00</tspan></text>
  <text id="_22:00" data-name="22:00" transform="translate(625 76)" fill="rgba(0,0,0,0.87)" font-size="9" font-family="SegoeUI-Bold, Segoe UI" font-weight="700"><tspan x="0" y="0">22:00</tspan></text>
  <text id="_04:00" data-name="04:00" transform="translate(119 67)" fill="rgba(0,0,0,0.87)" font-size="9" font-family="SegoeUI-Bold, Segoe UI" font-weight="700"><tspan x="0" y="0">04:00</tspan></text>
  <text id="_08:00" data-name="08:00" transform="translate(232 67)" fill="rgba(0,0,0,0.87)" font-size="9" font-family="SegoeUI-Bold, Segoe UI" font-weight="700"><tspan x="0" y="0">08:00</tspan></text>
  <text id="_14:00" data-name="14:00" transform="translate(400 67)" fill="rgba(0,0,0,0.87)" font-size="9" font-family="SegoeUI-Bold, Segoe UI" font-weight="700"><tspan x="0" y="0">14:00</tspan></text>
  <text id="_21:00" data-name="21:00" transform="translate(597 67)" fill="rgba(0,0,0,0.87)" font-size="9" font-family="SegoeUI-Bold, Segoe UI" font-weight="700"><tspan x="0" y="0">21:00</tspan></text>
  <text id="_10:00" data-name="10:00" transform="translate(288 67)" fill="#0da06e" font-size="9" font-family="SegoeUI-Bold, Segoe UI" font-weight="700"><tspan x="0" y="0">10:00</tspan></text>
  <text id="_17:00" data-name="17:00" transform="translate(485 67)" fill="rgba(0,0,0,0.87)" font-size="9" font-family="SegoeUI-Bold, Segoe UI" font-weight="700"><tspan x="0" y="0">17:00</tspan></text>
  <text id="_16:00" data-name="16:00" transform="translate(456 67)" fill="rgba(0,0,0,0.87)" font-size="9" font-family="SegoeUI-Bold, Segoe UI" font-weight="700"><tspan x="0" y="0">16:00</tspan></text>
  <text id="_23:00" data-name="23:00" transform="translate(653 67)" fill="rgba(0,0,0,0.87)" font-size="9" font-family="SegoeUI-Bold, Segoe UI" font-weight="700"><tspan x="0" y="0">23:00</tspan></text>
  <text id="_10" data-name="10" transform="translate(702 195)" fill="rgba(0,0,0,0.87)" font-size="15" font-family="SegoeUI-Bold, Segoe UI" font-weight="700"><tspan x="0" y="0">10</tspan></text>
  <text id="_17" data-name="17" transform="translate(702 239)" fill="rgba(0,0,0,0.87)" font-size="15" font-family="SegoeUI-Bold, Segoe UI" font-weight="700"><tspan x="0" y="0">17</tspan></text>
  <text id="_24" data-name="24" transform="translate(702 285)" fill="rgba(0,0,0,0.87)" font-size="15" font-family="SegoeUI-Bold, Segoe UI" font-weight="700"><tspan x="0" y="0">24</tspan></text>
  <text id="_31" data-name="31" transform="translate(702 328)" fill="rgba(0,0,0,0.87)" font-size="15" font-family="SegoeUI-Bold, Segoe UI" font-weight="700"><tspan x="0" y="0">31</tspan></text>
  <text id="M" transform="translate(748 100)" fill="#475f7b" font-size="20" font-family="SegoeUI, Segoe UI"><tspan x="0" y="0">M</tspan></text>
  <text id="_4" data-name="4" transform="translate(748 153)" fill="rgba(0,0,0,0.87)" font-size="15" font-family="SegoeUI-Bold, Segoe UI" font-weight="700"><tspan x="0" y="0">4</tspan></text>
  <text id="_11" data-name="11" transform="translate(748 195)" fill="rgba(0,0,0,0.87)" font-size="15" font-family="SegoeUI-Bold, Segoe UI" font-weight="700"><tspan x="0" y="0">11</tspan></text>
  <text id="_18" data-name="18" transform="translate(748 239)" fill="rgba(0,0,0,0.87)" font-size="15" font-family="SegoeUI-Bold, Segoe UI" font-weight="700"><tspan x="0" y="0">18</tspan></text>
  <text id="_25" data-name="25" transform="translate(748 285)" fill="rgba(0,0,0,0.87)" font-size="15" font-family="SegoeUI-Bold, Segoe UI" font-weight="700"><tspan x="0" y="0">25</tspan></text>
  <text id="_1" data-name="1" transform="translate(748 328)" fill="rgba(0,0,0,0.87)" font-size="15" font-family="SegoeUI-Bold, Segoe UI" font-weight="700" opacity="0.449"><tspan x="0" y="0">1</tspan></text>
  <ellipse id="Ellipse_299" data-name="Ellipse 299" cx="17" cy="17.5" rx="17" ry="17.5" transform="translate(788 130)" fill="#0da06e"/>
  <text id="T" transform="translate(801 99)" fill="#0da06e" font-size="19" font-family="SegoeUI, Segoe UI"><tspan x="0" y="0">T</tspan></text>
  <text id="_5" data-name="5" transform="translate(801 153)" fill="#fff" font-size="15" font-family="SegoeUI-Bold, Segoe UI" font-weight="700"><tspan x="0" y="0">5</tspan></text>
  <text id="W" transform="translate(846 100)" fill="#475f7b" font-size="20" font-family="SegoeUI, Segoe UI"><tspan x="0" y="0">W</tspan></text>
  <text id="_6" data-name="6" transform="translate(846 153)" fill="rgba(0,0,0,0.87)" font-size="15" font-family="SegoeUI-Bold, Segoe UI" font-weight="700"><tspan x="0" y="0">6</tspan></text>
  <text id="_12" data-name="12" transform="translate(801 195)" fill="rgba(0,0,0,0.87)" font-size="15" font-family="SegoeUI-Bold, Segoe UI" font-weight="700"><tspan x="0" y="0">12</tspan></text>
  <text id="_19" data-name="19" transform="translate(801 239)" fill="rgba(0,0,0,0.87)" font-size="15" font-family="SegoeUI-Bold, Segoe UI" font-weight="700"><tspan x="0" y="0">19</tspan></text>
  <text id="_26" data-name="26" transform="translate(801 285)" fill="rgba(0,0,0,0.87)" font-size="15" font-family="SegoeUI-Bold, Segoe UI" font-weight="700"><tspan x="0" y="0">26</tspan></text>
  <text id="_2" data-name="2" transform="translate(801 328)" fill="rgba(0,0,0,0.87)" font-size="15" font-family="SegoeUI-Bold, Segoe UI" font-weight="700" opacity="0.449"><tspan x="0" y="0">2</tspan></text>
  <text id="_13" data-name="13" transform="translate(846 195)" fill="rgba(0,0,0,0.87)" font-size="15" font-family="SegoeUI-Bold, Segoe UI" font-weight="700"><tspan x="0" y="0">13</tspan></text>
  <text id="_20" data-name="20" transform="translate(846 239)" fill="rgba(0,0,0,0.87)" font-size="15" font-family="SegoeUI-Bold, Segoe UI" font-weight="700"><tspan x="0" y="0">20</tspan></text>
  <text id="_27" data-name="27" transform="translate(846 285)" fill="rgba(0,0,0,0.87)" font-size="15" font-family="SegoeUI-Bold, Segoe UI" font-weight="700"><tspan x="0" y="0">27</tspan></text>
  <text id="_3-2" data-name="3" transform="translate(846 328)" fill="rgba(0,0,0,0.87)" font-size="15" font-family="SegoeUI-Bold, Segoe UI" font-weight="700" opacity="0.449"><tspan x="0" y="0">3</tspan></text>
  <text id="T-2" data-name="T" transform="translate(898 99)" fill="#475f7b" font-size="19" font-family="SegoeUI, Segoe UI"><tspan x="0" y="0">T</tspan></text>
  <text id="_7" data-name="7" transform="translate(898 153)" fill="rgba(0,0,0,0.87)" font-size="15" font-family="SegoeUI-Bold, Segoe UI" font-weight="700"><tspan x="0" y="0">7</tspan></text>
  <text id="_14" data-name="14" transform="translate(898 195)" fill="rgba(0,0,0,0.87)" font-size="15" font-family="SegoeUI-Bold, Segoe UI" font-weight="700"><tspan x="0" y="0">14</tspan></text>
  <text id="_21" data-name="21" transform="translate(898 239)" fill="rgba(0,0,0,0.87)" font-size="15" font-family="SegoeUI-Bold, Segoe UI" font-weight="700"><tspan x="0" y="0">21</tspan></text>
  <text id="_28" data-name="28" transform="translate(898 285)" fill="rgba(0,0,0,0.87)" font-size="15" font-family="SegoeUI-Bold, Segoe UI" font-weight="700"><tspan x="0" y="0">28</tspan></text>
  <text id="_4-2" data-name="4" transform="translate(898 328)" fill="rgba(0,0,0,0.87)" font-size="15" font-family="SegoeUI-Bold, Segoe UI" font-weight="700" opacity="0.449"><tspan x="0" y="0">4</tspan></text>
  <text id="F" transform="translate(943 99)" fill="#475f7b" font-size="19" font-family="SegoeUI, Segoe UI"><tspan x="0" y="0">F</tspan></text>
  <text id="_8" data-name="8" transform="translate(943 153)" fill="rgba(0,0,0,0.87)" font-size="15" font-family="SegoeUI-Bold, Segoe UI" font-weight="700"><tspan x="0" y="0">8</tspan></text>
  <text id="_15" data-name="15" transform="translate(943 195)" fill="rgba(0,0,0,0.87)" font-size="15" font-family="SegoeUI-Bold, Segoe UI" font-weight="700"><tspan x="0" y="0">15</tspan></text>
  <text id="_22" data-name="22" transform="translate(943 239)" fill="rgba(0,0,0,0.87)" font-size="15" font-family="SegoeUI-Bold, Segoe UI" font-weight="700"><tspan x="0" y="0">22</tspan></text>
  <text id="_29" data-name="29" transform="translate(943 285)" fill="rgba(0,0,0,0.87)" font-size="15" font-family="SegoeUI-Bold, Segoe UI" font-weight="700"><tspan x="0" y="0">29</tspan></text>
  <text id="_5-2" data-name="5" transform="translate(943 328)" fill="rgba(0,0,0,0.87)" font-size="15" font-family="SegoeUI-Bold, Segoe UI" font-weight="700" opacity="0.449"><tspan x="0" y="0">5</tspan></text>
  <text id="S-2" data-name="S" transform="translate(989 100)" fill="#475f7b" font-size="20" font-family="SegoeUI, Segoe UI"><tspan x="0" y="0">S</tspan></text>
  <text id="_9" data-name="9" transform="translate(989 153)" fill="rgba(0,0,0,0.87)" font-size="15" font-family="SegoeUI-Bold, Segoe UI" font-weight="700"><tspan x="0" y="0">9</tspan></text>
  <text id="_16" data-name="16" transform="translate(989 195)" fill="rgba(0,0,0,0.87)" font-size="15" font-family="SegoeUI-Bold, Segoe UI" font-weight="700"><tspan x="0" y="0">16</tspan></text>
  <text id="_23" data-name="23" transform="translate(989 239)" fill="rgba(0,0,0,0.87)" font-size="15" font-family="SegoeUI-Bold, Segoe UI" font-weight="700"><tspan x="0" y="0">23</tspan></text>
  <text id="_30" data-name="30" transform="translate(989 285)" fill="rgba(0,0,0,0.87)" font-size="15" font-family="SegoeUI-Bold, Segoe UI" font-weight="700"><tspan x="0" y="0">30</tspan></text>
  <text id="_6-2" data-name="6" transform="translate(989 328)" fill="rgba(0,0,0,0.87)" font-size="15" font-family="SegoeUI-Bold, Segoe UI" font-weight="700" opacity="0.449"><tspan x="0" y="0">6</tspan></text>
  <line id="Line_121" data-name="Line 121" y2="301" transform="translate(680.5 54.5)" fill="none" stroke="#707070" stroke-width="1" opacity="0.229"/>
  <line id="Line_122" data-name="Line 122" x1="1024" transform="translate(3.5 54.5)" fill="none" stroke="#707070" stroke-width="1" opacity="0.229"/>
  <g id="Group_40789" data-name="Group 40789" transform="translate(-800 -265)">
    <line id="Line_124" data-name="Line 124" y2="301" transform="translate(831.5 319.5)" fill="none" stroke="#707070" stroke-width="1" opacity="0.107"/>
    <line id="Line_131" data-name="Line 131" y2="301" transform="translate(944.5 319.5)" fill="none" stroke="#707070" stroke-width="1" opacity="0.107"/>
    <line id="Line_135" data-name="Line 135" y2="301" transform="translate(1056.5 319.5)" fill="none" stroke="#707070" stroke-width="1" opacity="0.107"/>
    <line id="Line_139" data-name="Line 139" y2="301" transform="translate(1169.5 319.5)" fill="none" stroke="#707070" stroke-width="1" opacity="0.107"/>
    <line id="Line_143" data-name="Line 143" y2="301" transform="translate(1310.5 319.5)" fill="none" stroke="#707070" stroke-width="1" opacity="0.107"/>
    <line id="Line_147" data-name="Line 147" y2="301" transform="translate(1282.5 319.5)" fill="none" stroke="#707070" stroke-width="1" opacity="0.107"/>
    <line id="Line_125" data-name="Line 125" y2="301" transform="translate(859.5 319.5)" fill="none" stroke="#707070" stroke-width="1" opacity="0.107"/>
    <line id="Line_128" data-name="Line 128" y2="301" transform="translate(972.5 319.5)" fill="none" stroke="#707070" stroke-width="1" opacity="0.107"/>
    <line id="Line_132" data-name="Line 132" y2="301" transform="translate(1085.5 319.5)" fill="none" stroke="#707070" stroke-width="1" opacity="0.107"/>
    <line id="Line_136" data-name="Line 136" y2="301" transform="translate(1197.5 319.5)" fill="none" stroke="#707070" stroke-width="1" opacity="0.107"/>
    <line id="Line_140" data-name="Line 140" y2="301" transform="translate(1338.5 319.5)" fill="none" stroke="#707070" stroke-width="1" opacity="0.107"/>
    <line id="Line_126" data-name="Line 126" y2="301" transform="translate(887.5 319.5)" fill="none" stroke="#707070" stroke-width="1" opacity="0.107"/>
    <line id="Line_129" data-name="Line 129" y2="301" transform="translate(1000.5 319.5)" fill="none" stroke="#707070" stroke-width="1" opacity="0.107"/>
    <line id="Line_133" data-name="Line 133" y2="301" transform="translate(1113.5 319.5)" fill="none" stroke="#707070" stroke-width="1" opacity="0.107"/>
    <line id="Line_137" data-name="Line 137" y2="301" transform="translate(1226.5 319.5)" fill="none" stroke="#707070" stroke-width="1" opacity="0.107"/>
    <line id="Line_141" data-name="Line 141" y2="301" transform="translate(1395.5 319.5)" fill="none" stroke="#707070" stroke-width="1" opacity="0.107"/>
    <line id="Line_146" data-name="Line 146" y2="301" transform="translate(1366.5 319.5)" fill="none" stroke="#707070" stroke-width="1" opacity="0.107"/>
    <line id="Line_127" data-name="Line 127" y2="301" transform="translate(916.5 319.5)" fill="none" stroke="#707070" stroke-width="1" opacity="0.107"/>
    <line id="Line_130" data-name="Line 130" y2="301" transform="translate(1028.5 319.5)" fill="none" stroke="#707070" stroke-width="1" opacity="0.107"/>
    <line id="Line_134" data-name="Line 134" y2="301" transform="translate(1141.5 319.5)" fill="none" stroke="#707070" stroke-width="1" opacity="0.107"/>
    <line id="Line_138" data-name="Line 138" y2="301" transform="translate(1254.5 319.5)" fill="none" stroke="#707070" stroke-width="1" opacity="0.107"/>
    <line id="Line_142" data-name="Line 142" y2="301" transform="translate(1451.5 319.5)" fill="none" stroke="#707070" stroke-width="1" opacity="0.107"/>
    <line id="Line_145" data-name="Line 145" y2="301" transform="translate(1423.5 319.5)" fill="none" stroke="#707070" stroke-width="1" opacity="0.107"/>
    <line id="Line_123" data-name="Line 123" x1="677" transform="translate(803.5 348.5)" fill="none" stroke="#707070" stroke-width="1" opacity="0.229"/>
  </g>
  <g id="Rectangle_9312" data-name="Rectangle 9312" transform="translate(32 112)" fill="#fffaed" stroke="#fcb614" stroke-width="1">
    <rect width="194" height="29" rx="5" stroke="none"/>
    <rect x="0.5" y="0.5" width="193" height="28" rx="4.5" fill="none"/>
  </g>
  <g id="Rectangle_9314" data-name="Rectangle 9314" transform="translate(60 147)" fill="#fffaed" stroke="#fcb614" stroke-width="1">
    <rect width="59" height="29" rx="5" stroke="none"/>
    <rect x="0.5" y="0.5" width="58" height="28" rx="4.5" fill="none"/>
  </g>
  <g id="Rectangle_9318" data-name="Rectangle 9318" transform="translate(141 176)" fill="#f8fffd" stroke="#0da06e" stroke-width="1">
    <rect width="344" height="29" rx="5" stroke="none"/>
    <rect x="0.5" y="0.5" width="343" height="28" rx="4.5" fill="none"/>
  </g>
  <g id="Rectangle_9320" data-name="Rectangle 9320" transform="translate(332 209)" fill="#f8fffd" stroke="#0da06e" stroke-width="1">
    <path d="M5,0H349a0,0,0,0,1,0,0V29a0,0,0,0,1,0,0H5a5,5,0,0,1-5-5V5A5,5,0,0,1,5,0Z" stroke="none"/>
    <path d="M5,.5H348a.5.5,0,0,1,.5.5V28a.5.5,0,0,1-.5.5H5A4.5,4.5,0,0,1,.5,24V5A4.5,4.5,0,0,1,5,.5Z" fill="none"/>
  </g>
  <g id="Rectangle_9322" data-name="Rectangle 9322" transform="translate(3 209)" fill="#f8fffd" stroke="#0da06e" stroke-width="1">
    <path d="M0,0H67a5,5,0,0,1,5,5V24a5,5,0,0,1-5,5H0a0,0,0,0,1,0,0V0A0,0,0,0,1,0,0Z" stroke="none"/>
    <path d="M1,.5H67A4.5,4.5,0,0,1,71.5,5V24A4.5,4.5,0,0,1,67,28.5H1A.5.5,0,0,1,.5,28V1A.5.5,0,0,1,1,.5Z" fill="none"/>
  </g>
  <g id="Path_74223" data-name="Path 74223" transform="translate(283 240)" fill="#eff9ff">
    <path d="M 118 28.5 L 5 28.5 C 2.518692255020142 28.5 0.5 26.48130798339844 0.5 24 L 0.5 5 C 0.5 2.518692255020142 2.518692255020142 0.5 5 0.5 L 118 0.5 C 120.4813079833984 0.5 122.5 2.518692255020142 122.5 5 L 122.5 24 C 122.5 26.48130798339844 120.4813079833984 28.5 118 28.5 Z" stroke="none"/>
    <path d="M 5 1 C 2.794403076171875 1 1 2.794399261474609 1 5 L 1 24 C 1 26.20560073852539 2.794403076171875 28 5 28 L 118 28 C 120.2055969238281 28 122 26.20560073852539 122 24 L 122 5 C 122 2.794399261474609 120.2055969238281 1 118 1 L 5 1 M 5 0 L 118 0 C 120.7614364624023 0 123 2.238582611083984 123 5 L 123 24 C 123 26.76141738891602 120.7614364624023 29 118 29 L 5 29 C 2.23858642578125 29 0 26.76141738891602 0 24 L 0 5 C 0 2.238582611083984 2.23858642578125 0 5 0 Z" stroke="none" fill="#009eff"/>
  </g>
  <g id="Path_74224" data-name="Path 74224" transform="translate(132 269)" fill="#ffecea">
    <path d="M 91.13821411132813 28.5 L 3.861787557601929 28.5 C 2.008087396621704 28.5 0.5 26.4813117980957 0.5 24 L 0.5 5 C 0.5 2.51868748664856 2.008087396621704 0.5 3.861787557601929 0.5 L 91.13821411132813 0.5 C 92.99191284179688 0.5 94.5 2.51868748664856 94.5 5 L 94.5 24 C 94.5 26.4813117980957 92.99191284179688 28.5 91.13821411132813 28.5 Z" stroke="none"/>
    <path d="M 3.861785888671875 1 C 3.147010803222656 1 2.458297729492188 1.382038116455078 1.922515869140625 2.075725555419922 C 1.327621459960938 2.845962524414063 1 3.884487152099609 1 5 L 1 24 C 1 25.11551284790039 1.327621459960938 26.15403747558594 1.922515869140625 26.92427444458008 C 2.458297729492188 27.61796188354492 3.147010803222656 28 3.861785888671875 28 L 91.13819885253906 28 C 91.85297393798828 28 92.54170227050781 27.61796188354492 93.07747650146484 26.92427444458008 C 93.67237854003906 26.15403747558594 94 25.11551284790039 94 24 L 94 5 C 94 3.884487152099609 93.67237854003906 2.845962524414063 93.07747650146484 2.075725555419922 C 92.54170227050781 1.382038116455078 91.85297393798828 1 91.13819885253906 1 L 3.861785888671875 1 M 3.861785888671875 0 L 91.13819885253906 0 C 93.27101135253906 0 95 2.238574981689453 95 5 L 95 24 C 95 26.76142501831055 93.27101135253906 29 91.13819885253906 29 L 3.861785888671875 29 C 1.728973388671875 29 0 26.76142501831055 0 24 L 0 5 C 0 2.238574981689453 1.728973388671875 0 3.861785888671875 0 Z" stroke="none" fill="#f75a4a"/>
  </g>
  <rect id="Rectangle_9313" data-name="Rectangle 9313" width="3" height="21" rx="1.5" transform="translate(36 116)" fill="#fcb614"/>
  <rect id="Rectangle_9315" data-name="Rectangle 9315" width="3" height="21" rx="1.5" transform="translate(64 151)" fill="#fcb614"/>
  <rect id="Rectangle_9319" data-name="Rectangle 9319" width="3" height="21" rx="1.5" transform="translate(145 180)" fill="#0da06e"/>
  <rect id="Rectangle_9321" data-name="Rectangle 9321" width="3" height="21" rx="1.5" transform="translate(336 213)" fill="#0da06e"/>
  <rect id="Rectangle_9317" data-name="Rectangle 9317" width="3" height="21" rx="1.5" transform="translate(287 244)" fill="#009eff"/>
  <rect id="Rectangle_9323" data-name="Rectangle 9323" width="3" height="21" rx="1.5" transform="translate(136 273)" fill="#f75a4a"/>
  <g id="Group_40790" data-name="Group 40790" transform="translate(42 110)">
    <text id="Invoice_Number" data-name="Invoice Number" transform="translate(0 21)" fill="rgba(0,0,0,0.87)" font-size="13" font-family="SegoeUI, Segoe UI"><tspan x="0" y="0">No 04 - User No 123556</tspan></text>
  </g>
  <g id="Group_40795" data-name="Group 40795" transform="translate(294 238)">
    <text id="Invoice_Number-2" data-name="Invoice Number" transform="translate(0 21)" fill="rgba(0,0,0,0.87)" font-size="13" font-family="SegoeUI, Segoe UI"><tspan x="0" y="0">No 04 - User N..</tspan></text>
  </g>
  <g id="Group_40796" data-name="Group 40796" transform="translate(143 267)">
    <text id="Invoice_Number-3" data-name="Invoice Number" transform="translate(0 21)" fill="rgba(0,0,0,0.87)" font-size="13" font-family="SegoeUI, Segoe UI"><tspan x="0" y="0">No 04 - Us..</tspan></text>
  </g>
  <g id="Group_40793" data-name="Group 40793" transform="translate(154 174)">
    <text id="Invoice_Number-4" data-name="Invoice Number" transform="translate(0 21)" fill="rgba(0,0,0,0.87)" font-size="13" font-family="SegoeUI, Segoe UI"><tspan x="0" y="0">No 04 - User No 123556</tspan></text>
  </g>
  <g id="Group_40794" data-name="Group 40794" transform="translate(345 217)">
    <text id="Invoice_Number-5" data-name="Invoice Number" transform="translate(0 11)" fill="rgba(0,0,0,0.87)" font-size="13" font-family="SegoeUI, Segoe UI"><tspan x="0" y="0">No 04 - User No 123556</tspan></text>
  </g>
  <g id="Group_40791" data-name="Group 40791" transform="translate(70 145)">
    <text id="Invoice_Number-6" data-name="Invoice Number" transform="translate(0 21)" fill="rgba(0,0,0,0.87)" font-size="13" font-family="SegoeUI, Segoe UI"><tspan x="0" y="0">No 04</tspan></text>
  </g>
</svg>
