<svg xmlns="http://www.w3.org/2000/svg" width="220.734" height="456.532" viewBox="0 0 220.734 456.532">
  <g id="Group_37765" data-name="Group 37765" transform="translate(-1544.608 -1151.604)">
    <g id="Group_37703" data-name="Group 37703" transform="translate(1544.608 1163.962)">
      <g id="Group_37703-2" data-name="Group 37703" transform="translate(40.31 130.787)">
        <path id="Path_51136" data-name="Path 51136" d="M132.037,16.457C115.68,5.844,93.669,0,70.056,0S24.437,5.844,8.077,16.457A17.869,17.869,0,0,0,.067,33.032C1,43.964,1.482,55.22,1.507,66.483v.1a7.668,7.668,0,0,0,7.651,7.646,7.905,7.905,0,0,0,1.171-.089,408.41,408.41,0,0,1,119.456,0,7.9,7.9,0,0,0,1.171.089,7.678,7.678,0,0,0,7.651-7.667v-.084c.025-11.265.511-22.519,1.442-33.451A17.87,17.87,0,0,0,132.037,16.457Zm7.324,16.517c-.932,10.951-1.418,22.225-1.443,33.508v.085a6.984,6.984,0,0,1-6.96,6.976,7.168,7.168,0,0,1-1.069-.081,409.124,409.124,0,0,0-119.662,0,7.123,7.123,0,0,1-1.068.081A6.976,6.976,0,0,1,2.2,66.585v-.1C2.173,55.2,1.688,43.926.755,32.973a17.178,17.178,0,0,1,7.7-15.938C24.7,6.5,46.58.691,70.056.691s45.359,5.8,61.6,16.346A17.181,17.181,0,0,1,139.36,32.973Z" transform="translate(0 0)" fill="#58585b"/>
      </g>
      <g id="Group_37704" data-name="Group 37704" transform="translate(33.395 125.091)">
        <path id="Path_51137" data-name="Path 51137" d="M153.828,29.817a13.142,13.142,0,0,0-6.458-13.2C128.613,5.914,103.612.011,76.971,0,50.331.011,25.33,5.914,6.571,16.621a13.144,13.144,0,0,0-6.456,13.2l.453,3.46C2.25,46.114,4.159,60.665,4.184,72.186v.14A11.887,11.887,0,0,0,17.869,84.12a403.272,403.272,0,0,1,118.2,0,12,12,0,0,0,1.8.137h0A11.937,11.937,0,0,0,149.76,72.324v-.137c.025-11.522,1.932-26.069,3.615-38.9Zm-1.028-.134-.453,3.465c-1.686,12.867-3.6,27.45-3.624,39.039v.137A10.85,10.85,0,0,1,136.23,83.1a404.386,404.386,0,0,0-118.516,0,11.014,11.014,0,0,1-1.648.125,10.9,10.9,0,0,1-10.847-10.9v-.139C5.195,60.6,3.282,46.011,1.594,33.144l-.451-3.461A12.106,12.106,0,0,1,7.085,17.521C25.69,6.9,50.509,1.047,76.971,1.036c26.463.011,51.283,5.866,69.887,16.485A12.108,12.108,0,0,1,152.8,29.683Z" transform="translate(0)" fill="#58585b"/>
      </g>
      <g id="Group_37705" data-name="Group 37705" transform="translate(0 0)">
        <path id="Path_51138" data-name="Path 51138" d="M220.071,154.505a24.116,24.116,0,0,0-14.463-10.559,8.714,8.714,0,0,0-2.113-.261,8.079,8.079,0,0,0-3.958,1.03l.032-8.772c.055-1.425,3.477-15.841,5.782-25.314.862-19.351.073-35.668-2.446-50.009-.147-.381-3.589-9.379-4.919-12.385L191.911,34.5a26.365,26.365,0,0,0-11.034-12.268L149.135,3.97A29.805,29.805,0,0,0,134.284,0H86.367A29.833,29.833,0,0,0,71.514,3.968L39.774,22.231A26.367,26.367,0,0,0,28.739,34.5L22.663,48.234c-1.329,3.006-4.773,12-4.954,12.513-2.485,14.213-3.273,30.53-2.392,50.014,2.286,9.341,5.708,23.756,5.765,25.156l.031,8.749a8.078,8.078,0,0,0-3.875-.982,8.72,8.72,0,0,0-2.111.261A24.122,24.122,0,0,0,.663,154.505a2.276,2.276,0,0,0-.479,2.5A2.691,2.691,0,0,0,2.7,158.632a3,3,0,0,0,.451-.034l16.972-2.516a4.665,4.665,0,0,0,1.029-.286l.475,128.651-4.2,63.606a72.544,72.544,0,0,0,1.8,18.481l5.019,21.9a6.935,6.935,0,0,0,2.559,3.966l14.157,10.765a83.38,83.38,0,0,0,38.9,16.181,221.634,221.634,0,0,0,30.493,2.108l.054,0v0a221.361,221.361,0,0,0,30.38-2.108,83.387,83.387,0,0,0,38.9-16.181L193.844,392.4a6.932,6.932,0,0,0,2.558-3.965l5.02-21.9a72.558,72.558,0,0,0,1.8-18.5l-4.2-63.534.474-128.734a4.645,4.645,0,0,0,1.116.321l16.972,2.516a2.978,2.978,0,0,0,.451.034,2.691,2.691,0,0,0,2.516-1.627A2.276,2.276,0,0,0,220.071,154.505Zm-14.716-9.554a23.47,23.47,0,0,1,13.848,10.12l.084.113a1.258,1.258,0,0,1,.321,1.376,65.6,65.6,0,0,0-11.633-2.465,68.107,68.107,0,0,0-9.565-.469,3.067,3.067,0,0,1-.519-1.287l-.475-3.117a2.555,2.555,0,0,1,.6-1.808,6.663,6.663,0,0,1,5.481-2.693A7.6,7.6,0,0,1,205.355,144.952Zm12.378,12.621-16.971-2.516a3.63,3.63,0,0,1-1.283-.453l-.025-.223-.279-.214a67.442,67.442,0,0,1,8.732.478,65.088,65.088,0,0,1,11.409,2.4A1.745,1.745,0,0,1,217.733,157.573Zm-20.565-10.758a3.535,3.535,0,0,0-.777,2.563l.475,3.117a4.088,4.088,0,0,0,.447,1.333,4.176,4.176,0,0,1,.888-8.158A7.073,7.073,0,0,0,197.168,146.815Zm-8.531,83.032a39.328,39.328,0,0,0,9.221-4.4l-.215,58.933A305.168,305.168,0,0,1,188.638,229.846Zm9.224-5.21a40.279,40.279,0,0,1-9.28,4.508c-.73-9.343-1.133-18.934-1.188-28.64q.017-2.293.024-4.6h-.026a380.366,380.366,0,0,1,3.667-51.529l.041-.057c2.435-1.022,3.809-1.631,7.069-3.237l-.011,3.17a5.59,5.59,0,0,0-.042,11.147ZM188.7,277.612q1.019,5.638,1.835,11.672a10.355,10.355,0,0,0-9.557-6.36,10.536,10.536,0,0,0-1.574.118A464.938,464.938,0,0,1,110.367,288a464.919,464.919,0,0,1-69.036-4.961,10.555,10.555,0,0,0-1.576-.118,10.354,10.354,0,0,0-9.556,6.358q.822-6.036,1.835-11.67c3.22-17.779,2.893-38.8,2.546-61.062-.083-5.277-.164-10.7-.2-16.188.005-1.025.019-2.048.018-3.076a383.078,383.078,0,0,0-3.656-52.779c19.855-14.93,48.865-23.494,79.627-23.494s59.772,8.563,79.629,23.492a382.7,382.7,0,0,0-3.654,52.78c0,1.029.011,2.052.016,3.079-.038,5.487-.121,10.9-.2,16.18C185.807,238.8,185.479,259.83,188.7,277.612Zm3.975,36.883.473,7.183A31.4,31.4,0,0,1,178.8,350.052c-20.777,13.439-42.537,19.7-68.474,19.7-25.883,0-47.615-6.259-68.4-19.7a31.4,31.4,0,0,1-14.346-28.374l.475-7.183c.536-8.119,1.23-15.485,2.125-22.522a9.632,9.632,0,0,1,9.568-8.359,10.084,10.084,0,0,1,1.472.11,465.4,465.4,0,0,0,69.14,4.969,465.372,465.372,0,0,0,69.14-4.969,10.114,10.114,0,0,1,1.472-.11,9.629,9.629,0,0,1,9.568,8.359C191.443,299.011,192.137,306.377,192.675,314.495ZM33.342,200.5c-.057,9.707-.459,19.3-1.189,28.64a40.6,40.6,0,0,1-9.366-4.559L22.533,155.4a5.59,5.59,0,0,0-.04-11.147l-.013-3.211c3.318,1.635,4.7,2.247,7.147,3.275v.038l.054.057a380.8,380.8,0,0,1,3.661,51.494h-.026Q33.323,198.215,33.342,200.5ZM22.791,225.4a39.585,39.585,0,0,0,9.306,4.452,304.656,304.656,0,0,1-9.107,54.918l.018-.276Zm63.318-224c.086,0,.173-.01.258-.01H86.8c-.27.613-.537,1.225-.8,1.844l-.742,1.726.692.08a212.358,212.358,0,0,0,24.415,1.358,212.41,212.41,0,0,0,24.418-1.358l.692-.08-.772-1.8q-.383-.892-.772-1.775h.351c.117,0,.234.011.351.013l.312.125c20.536,20.279,35.96,47.393,43.437,76.366,6.229,24.131,10.141,46.108,11.631,65.339-20.013-14.782-48.977-23.247-79.648-23.247S50.734,128.44,30.72,143.226c1.491-19.234,5.4-41.212,11.631-65.341C49.829,48.912,65.253,21.8,85.79,1.519Zm47.643,2.172.224.517a212.152,212.152,0,0,1-23.609,1.273A212.124,212.124,0,0,1,86.761,4.081l.193-.45c.322-.753.645-1.507.973-2.25h44.879C133.127,2.1,133.439,2.831,133.752,3.563Zm65.89,84.194c-.583-13.026-1.594-26.17-2.99-39.129l.072.163c1.312,2.969,4.843,12.194,4.857,12.193,2.466,14.114,3.248,30.331,2.411,49.447-.347,1.413-2.279,9.327-3.821,15.994C200.389,113.623,200.219,100.644,199.642,87.758Zm-19.453-64.33a25.012,25.012,0,0,1,10.46,11.629l5.078,11.482c1.52,13.644,2.61,27.513,3.225,41.25.629,13.993.773,28.1.461,41.964-.7,3.116-1.2,5.534-1.225,6.16l-.017,4.4c-3.355,1.657-4.751,2.283-7.1,3.27-.016-.222-.043-.453-.059-.675,2.3-36.412,1.217-67.7-11.185-101.346,2.243-5.416.983-12.051-3.349-15.633A178.729,178.729,0,0,0,147.508,7.02l-.161-.069h-.123a.626.626,0,0,0-.57.376l-.112.435.229.248a170.494,170.494,0,0,1,27.524,40.177l.344.7.509-.584c1.036-1.188,2.631-3.227,3.262-4.125a13.327,13.327,0,0,0,1.005-1.711c11.609,31.857,13.085,61.646,11.188,95.778-1.742-18.1-5.492-38.442-11.217-60.614-7.441-28.835-22.72-55.831-43.051-76.165a28.425,28.425,0,0,1,12.112,3.705Zm-2.625,20.149c-.522.744-1.719,2.285-2.69,3.449A171.766,171.766,0,0,0,149.076,9a179.585,179.585,0,0,1,26.745,17.727C180.483,30.58,181.281,38.3,177.563,43.577ZM30,35.056A25,25,0,0,1,40.463,23.428L72.2,5.167A28.418,28.418,0,0,1,84.41,1.453C64.073,21.786,48.792,48.788,41.348,77.627c-5.723,22.171-9.474,42.511-11.216,60.611-1.9-34.133-.421-63.923,11.188-95.776a13.483,13.483,0,0,0,1,1.711c.633.9,2.229,2.938,3.262,4.124l.509.586.345-.7A170.48,170.48,0,0,1,73.964,8.01l.253-.373-.135-.311a.623.623,0,0,0-.57-.376l-.174.013-.109.056a178.769,178.769,0,0,0-28.975,18.91C39.92,29.511,38.661,36.146,40.9,41.561,28.5,75.21,27.414,106.5,29.719,142.913c-.018.22-.043.45-.059.67-2.365-.994-3.763-1.622-7.181-3.311l-.017-4.382c-.023-.594-.482-2.824-1.132-5.733-.325-13.975-.18-28.218.453-42.369.619-13.82,1.718-27.776,3.254-41.5Zm14.911-8.329A179.651,179.651,0,0,1,71.66,9a171.756,171.756,0,0,0-25.8,38.024c-.969-1.163-2.168-2.7-2.69-3.447C39.454,38.3,40.252,30.58,44.913,26.728ZM16.677,110.567C15.82,91.318,16.6,75.1,19.035,61.113c.035-.094,3.576-9.347,4.892-12.321l.182-.414C22.7,61.42,21.679,74.651,21.092,87.758c-.584,13.033-.752,26.146-.525,39.056C19.014,120.088,17.018,111.926,16.677,110.567Zm9.618,39.262a4.2,4.2,0,0,1-2.852,3.962,4.128,4.128,0,0,0,.426-1.3l.472-3.117a3.53,3.53,0,0,0-.776-2.563,7,7,0,0,0-1.04-1.151A4.2,4.2,0,0,1,26.295,149.829Zm-5.146,4.835a3.576,3.576,0,0,1-1.177.392L3,157.573a1.739,1.739,0,0,1-1.582-.531,65.33,65.33,0,0,1,11.408-2.4,67.431,67.431,0,0,1,8.656-.478l-.334.261Zm-19.7.52.086-.113a23.456,23.456,0,0,1,13.846-10.12,7.616,7.616,0,0,1,1.859-.231,6.666,6.666,0,0,1,5.483,2.693,2.561,2.561,0,0,1,.6,1.809l-.474,3.116a3.086,3.086,0,0,1-.521,1.287,68.437,68.437,0,0,0-9.562.469,65.735,65.735,0,0,0-11.635,2.464A1.261,1.261,0,0,1,1.448,155.185ZM41.8,402.07,27.642,391.3a5.539,5.539,0,0,1-1.951-2.875,97.427,97.427,0,0,1,11.61,5.747,84.78,84.78,0,0,1,22.268,18.161A81.918,81.918,0,0,1,41.8,402.07ZM193.009,391.3,178.851,402.07a81.919,81.919,0,0,1-17.632,10.206,84.876,84.876,0,0,1,22.215-18.1,97.25,97.25,0,0,1,11.512-5.7A5.548,5.548,0,0,1,193.009,391.3Zm7.068-25.079-4.869,21.247a97.7,97.7,0,0,0-12.189,5.985c-9.579,5.56-17.844,12.454-23.393,19.47a81.847,81.847,0,0,1-19.026,5.056,220.325,220.325,0,0,1-30.188,2.1h-.171a219.917,219.917,0,0,1-30.187-2.094,81.88,81.88,0,0,1-18.9-5c-5.552-7.035-13.835-13.948-23.437-19.521a97.842,97.842,0,0,0-12.282-6.025l-4.86-21.207A71.1,71.1,0,0,1,18.81,348.12l3.856-58.435c5.694-19.145,9.458-42.246,10.973-66.837.28,19.872.275,38.578-2.624,54.581A328.426,328.426,0,0,0,26.683,314.4l-.474,7.183a32.783,32.783,0,0,0,14.973,29.625C62.2,364.8,84.167,371.132,110.408,371.132c26.161,0,48.132-6.329,69.145-19.921a32.779,32.779,0,0,0,14.972-29.625l-.474-7.183a328.294,328.294,0,0,0-4.332-36.974c-2.9-16-2.9-34.712-2.624-54.584,1.5,24.425,5.231,47.376,10.86,66.446l3.882,58.805A71.16,71.16,0,0,1,200.077,366.225Z" transform="translate(0 0)" fill="#58585b"/>
      </g>
      <g id="Group_37706" data-name="Group 37706" transform="translate(32.353 289.166)">
        <path id="Path_51139" data-name="Path 51139" d="M154.061,9.026A10.124,10.124,0,0,0,142.6.1,475.362,475.362,0,0,1,78.013,4.36,475.394,475.394,0,0,1,13.426.1,10.13,10.13,0,0,0,1.965,9.026C1.4,14.243.914,19.834.53,25.645L.057,32.829a26.563,26.563,0,0,0,12.147,24c19.96,12.911,40.859,18.923,65.77,18.923,24.965,0,45.887-6.012,65.849-18.923a26.563,26.563,0,0,0,12.147-24l-.475-7.183C155.113,19.827,154.63,14.236,154.061,9.026ZM143.449,56.247C123.6,69.082,102.8,75.059,77.974,75.059c-24.771,0-45.552-5.977-65.394-18.812A25.867,25.867,0,0,1,.746,32.874l.474-7.183c.382-5.8.865-11.384,1.433-16.59A9.416,9.416,0,0,1,12.026.692a9.551,9.551,0,0,1,1.307.091A476.305,476.305,0,0,0,78.013,5.051,476.325,476.325,0,0,0,142.695.783,9.416,9.416,0,0,1,153.376,9.1c.566,5.2,1.048,10.782,1.432,16.59l.475,7.183A25.879,25.879,0,0,1,143.449,56.247Z" transform="translate(0 0)" fill="#58585b"/>
      </g>
    </g>
    <g id="Group_37704-2" data-name="Group 37704" transform="translate(1655.429 1530.222)">
      <path id="Bg" d="M1131.956,412h0a38.921,38.921,0,0,1,38.957,38.956h0a38.921,38.921,0,0,1-38.957,38.957h0A38.921,38.921,0,0,1,1093,450.956h0A38.921,38.921,0,0,1,1131.956,412Z" transform="translate(-1093 -412)" fill="rgba(88,88,91,0.36)" opacity="0.102"/>
      <path id="Bg-2" data-name="Bg" d="M1138.971,432h0a25.947,25.947,0,0,1,25.971,25.971h0a25.947,25.947,0,0,1-25.971,25.971h0A25.947,25.947,0,0,1,1113,457.971h0A25.947,25.947,0,0,1,1138.971,432Z" transform="translate(-1100.015 -419.015)" fill="rgba(88,88,91,0.36)" opacity="0.2"/>
      <path id="Bg-3" data-name="Bg" d="M1145.985,452h0a12.974,12.974,0,0,1,12.985,12.986h0a12.974,12.974,0,0,1-12.985,12.985h0A12.974,12.974,0,0,1,1133,464.985h0A12.974,12.974,0,0,1,1145.985,452Z" transform="translate(-1107.029 -426.029)" fill="rgba(88,88,91,0.36)"/>
    </g>
    <g id="Group_37705-2" data-name="Group 37705" transform="translate(1561.381 1151.604)">
      <path id="Bg-4" data-name="Bg" d="M1131.956,412h0a38.921,38.921,0,0,1,38.957,38.956h0a38.921,38.921,0,0,1-38.957,38.957h0A38.921,38.921,0,0,1,1093,450.956h0A38.921,38.921,0,0,1,1131.956,412Z" transform="translate(-1093 -412)" fill="#b7b7b9" opacity="0.102"/>
      <path id="Bg-5" data-name="Bg" d="M1138.971,432h0a25.947,25.947,0,0,1,25.971,25.971h0a25.947,25.947,0,0,1-25.971,25.971h0A25.947,25.947,0,0,1,1113,457.971h0A25.947,25.947,0,0,1,1138.971,432Z" transform="translate(-1100.015 -419.015)" fill="#b7b7b9" opacity="0.2"/>
      <path id="Bg-6" data-name="Bg" d="M1145.985,452h0a12.974,12.974,0,0,1,12.985,12.986h0a12.974,12.974,0,0,1-12.985,12.985h0A12.974,12.974,0,0,1,1133,464.985h0A12.974,12.974,0,0,1,1145.985,452Z" transform="translate(-1107.029 -426.029)" fill="#b7b7b9"/>
    </g>
    <g id="Group_37754" data-name="Group 37754" transform="translate(1616.388 1229.261)">
      <path id="Bg-7" data-name="Bg" d="M1131.956,412h0a38.921,38.921,0,0,1,38.957,38.956h0a38.921,38.921,0,0,1-38.957,38.957h0A38.921,38.921,0,0,1,1093,450.956h0A38.921,38.921,0,0,1,1131.956,412Z" transform="translate(-1093 -412)" fill="rgba(88,88,91,0.36)" opacity="0.102"/>
      <path id="Bg-8" data-name="Bg" d="M1138.971,432h0a25.947,25.947,0,0,1,25.971,25.971h0a25.947,25.947,0,0,1-25.971,25.971h0A25.947,25.947,0,0,1,1113,457.971h0A25.947,25.947,0,0,1,1138.971,432Z" transform="translate(-1100.015 -419.015)" fill="rgba(88,88,91,0.36)" opacity="0.2"/>
      <path id="Bg-9" data-name="Bg" d="M1145.985,452h0a12.974,12.974,0,0,1,12.985,12.986h0a12.974,12.974,0,0,1-12.985,12.985h0A12.974,12.974,0,0,1,1133,464.985h0A12.974,12.974,0,0,1,1145.985,452Z" transform="translate(-1107.029 -426.029)" fill="rgba(88,88,91,0.36)"/>
    </g>
    <g id="Group_37755" data-name="Group 37755" transform="translate(1616.388 1368.397)">
      <path id="Bg-10" data-name="Bg" d="M1131.956,412h0a38.921,38.921,0,0,1,38.957,38.956h0a38.921,38.921,0,0,1-38.957,38.957h0A38.921,38.921,0,0,1,1093,450.956h0A38.921,38.921,0,0,1,1131.956,412Z" transform="translate(-1093 -412)" fill="#26d07c" opacity="0.102"/>
      <path id="Bg-11" data-name="Bg" d="M1138.971,432h0a25.947,25.947,0,0,1,25.971,25.971h0a25.947,25.947,0,0,1-25.971,25.971h0A25.947,25.947,0,0,1,1113,457.971h0A25.947,25.947,0,0,1,1138.971,432Z" transform="translate(-1100.015 -419.015)" fill="#26d07c" opacity="0.2"/>
      <path id="Bg-12" data-name="Bg" d="M1145.985,452h0a12.974,12.974,0,0,1,12.985,12.986h0a12.974,12.974,0,0,1-12.985,12.985h0A12.974,12.974,0,0,1,1133,464.985h0A12.974,12.974,0,0,1,1145.985,452Z" transform="translate(-1107.029 -426.029)" fill="#26d07c"/>
    </g>
  </g>
</svg>