<svg xmlns="http://www.w3.org/2000/svg" width="105.579" height="173.552" viewBox="0 0 105.579 173.552">
  <g id="Group_37764" data-name="Group 37764" transform="translate(675.331 221.398) rotate(-90)">
    <g id="Group_37756" data-name="Group 37756" transform="translate(183.637 -674.831)">
      <path id="Path_51181" data-name="Path 51181" d="M75.865-659.281v-11.071a4.486,4.486,0,0,1,4.479-4.479h28.293a4.491,4.491,0,0,1,4.489,4.479v11.071a4.5,4.5,0,0,1-4.489,4.489H80.344A4.491,4.491,0,0,1,75.865-659.281Zm35.466-11.071a2.694,2.694,0,0,0-2.694-2.689H80.344a2.69,2.69,0,0,0-2.689,2.689v11.071a2.691,2.691,0,0,0,2.689,2.694h28.293a2.7,2.7,0,0,0,2.694-2.694Z" transform="translate(-75.865 674.831)" fill="#005844" stroke="#005844" stroke-width="1"/>
    </g>
    <g id="Group_37757" data-name="Group 37757" transform="translate(183.637 -590.291)">
      <path id="Path_51182" data-name="Path 51182" d="M75.865-642.08v-11.071a4.487,4.487,0,0,1,4.479-4.484h28.293a4.492,4.492,0,0,1,4.489,4.484v11.071a4.492,4.492,0,0,1-4.489,4.483H80.344A4.487,4.487,0,0,1,75.865-642.08Zm35.466-11.071a2.7,2.7,0,0,0-2.694-2.694H80.344a2.694,2.694,0,0,0-2.689,2.694v11.071a2.694,2.694,0,0,0,2.689,2.694h28.293a2.7,2.7,0,0,0,2.694-2.694Z" transform="translate(-75.865 657.635)" fill="#005844" stroke="#005844" stroke-width="1"/>
    </g>
    <g id="Group_37758" data-name="Group 37758" transform="translate(182.551 -652.91)">
      <path id="Path_51183" data-name="Path 51183" d="M75.644-634.316v-10.968a3.241,3.241,0,0,1,2.394-3.127v-.953a3.351,3.351,0,0,1,3.343-3.348h9.793v-15.358a2.3,2.3,0,0,1,2.3-2.3h3.766a2.3,2.3,0,0,1,2.3,2.3v15.358h3.441a3.351,3.351,0,0,1,3.343,3.348v1.086a7.575,7.575,0,0,1,2.62,5.717v5.521a7.575,7.575,0,0,1-2.62,5.717v1.087a3.351,3.351,0,0,1-3.343,3.348H99.542v14.95a2.3,2.3,0,0,1-2.3,2.3H93.475a2.3,2.3,0,0,1-2.3-2.3v-14.95H81.381a3.351,3.351,0,0,1-3.343-3.348v-.964A3.225,3.225,0,0,1,75.644-634.316Zm22.109-33.755a.511.511,0,0,0-.511-.511H93.475a.511.511,0,0,0-.511.511v17.148H81.381a1.555,1.555,0,0,0-1.553,1.559v2.63h-.895a1.464,1.464,0,0,0-1.5,1.45v10.968a1.452,1.452,0,0,0,1.445,1.451h.895l.054,2.63a1.555,1.555,0,0,0,1.553,1.559H92.964v16.74a.514.514,0,0,0,.511.511h3.766a.514.514,0,0,0,.511-.511v-16.74h5.231a1.558,1.558,0,0,0,1.554-1.559v-1.942l.344-.27a5.82,5.82,0,0,0,2.276-4.592v-5.521a5.82,5.82,0,0,0-2.276-4.592l-.344-.27v-1.942a1.558,1.558,0,0,0-1.554-1.559H97.753Z" transform="translate(-75.644 670.372)" fill="#005844" stroke="#005844" stroke-width="1"/>
    </g>
    <g id="Group_37759" data-name="Group 37759" transform="translate(48.346 -674.831)">
      <path id="Path_51184" data-name="Path 51184" d="M48.346-659.281v-11.071a4.487,4.487,0,0,1,4.484-4.479H81.123a4.487,4.487,0,0,1,4.484,4.479v11.071a4.492,4.492,0,0,1-4.484,4.489H52.83A4.492,4.492,0,0,1,48.346-659.281Zm35.471-11.071a2.694,2.694,0,0,0-2.694-2.689H52.83a2.694,2.694,0,0,0-2.694,2.689v11.071a2.7,2.7,0,0,0,2.694,2.694H81.123a2.7,2.7,0,0,0,2.694-2.694Z" transform="translate(-48.346 674.831)" fill="#005844" stroke="#005844" stroke-width="1"/>
    </g>
    <g id="Group_37760" data-name="Group 37760" transform="translate(48.346 -590.291)">
      <path id="Path_51185" data-name="Path 51185" d="M48.346-642.08v-11.071a4.488,4.488,0,0,1,4.484-4.484H81.123a4.488,4.488,0,0,1,4.484,4.484v11.071a4.488,4.488,0,0,1-4.484,4.483H52.83A4.488,4.488,0,0,1,48.346-642.08Zm35.471-11.071a2.7,2.7,0,0,0-2.694-2.694H52.83a2.7,2.7,0,0,0-2.694,2.694v11.071a2.7,2.7,0,0,0,2.694,2.694H81.123a2.7,2.7,0,0,0,2.694-2.694Z" transform="translate(-48.346 657.635)" fill="#005844" stroke="#005844" stroke-width="1"/>
    </g>
    <g id="Group_37761" data-name="Group 37761" transform="translate(58.887 -652.708)">
      <path id="Path_51186" data-name="Path 51186" d="M50.49-634.191V-645.73a8.032,8.032,0,0,1,3.908-6.878v-15.835a1.891,1.891,0,0,1,1.888-1.888h4.587a1.891,1.891,0,0,1,1.888,1.888v15.835a8.032,8.032,0,0,1,3.908,6.878v11.539a8.031,8.031,0,0,1-3.908,6.877v15.835a1.891,1.891,0,0,1-1.888,1.888H56.286a1.891,1.891,0,0,1-1.888-1.888v-15.835A8.031,8.031,0,0,1,50.49-634.191Zm10.482-34.252-4.685-.094-.1,16.991-.482.251a6.282,6.282,0,0,0-3.427,5.565v11.539a6.282,6.282,0,0,0,3.427,5.565l.482.251v16.9l4.685.093.1-16.991.482-.251a6.282,6.282,0,0,0,3.427-5.565V-645.73a6.282,6.282,0,0,0-3.427-5.565l-.482-.251Z" transform="translate(-50.49 670.331)" fill="#005844" stroke="#005844" stroke-width="1"/>
    </g>
    <g id="Group_37762" data-name="Group 37762" transform="translate(152.571 -627.556)">
      <path id="Path_51187" data-name="Path 51187" d="M69.546-657.462v-5.069a2.688,2.688,0,0,1,2.684-2.685H93.936a2.688,2.688,0,0,1,2.684,2.685v5.069a2.688,2.688,0,0,1-2.684,2.684H72.23A2.688,2.688,0,0,1,69.546-657.462Zm25.284-5.069a.9.9,0,0,0-.895-.9H72.23a.9.9,0,0,0-.895.9v5.069a.9.9,0,0,0,.895.895H93.936a.9.9,0,0,0,.895-.895Z" transform="translate(-69.546 665.215)" fill="#005844" stroke="#005844" stroke-width="1"/>
    </g>
    <g id="Group_37763" data-name="Group 37763" transform="translate(75.661 -625.501)">
      <path id="Path_51188" data-name="Path 51188" d="M53.9-661.159v-.949a2.692,2.692,0,0,1,2.684-2.689h69.27a2.692,2.692,0,0,1,2.684,2.689v.949a2.692,2.692,0,0,1-2.684,2.69H56.586A2.692,2.692,0,0,1,53.9-661.159Zm72.849-.949a.892.892,0,0,0-.895-.895H56.586a.892.892,0,0,0-.895.895v.949a.892.892,0,0,0,.895.9h69.27a.892.892,0,0,0,.895-.9Z" transform="translate(-53.902 664.797)" fill="#005844" stroke="#005844" stroke-width="1"/>
    </g>
  </g>
</svg>