<svg id="Group_4153" data-name="Group 4153" xmlns="http://www.w3.org/2000/svg" width="102" height="37.362" viewBox="0 0 102 37.362">
  <path id="Path_41" data-name="Path 41" d="M105.387,1309.837H103.33v6.072h2.016a3.169,3.169,0,0,0,2.28-.876,3.064,3.064,0,0,0,.021-4.337,3.128,3.128,0,0,0-2.26-.859m1.339,4.35a1.781,1.781,0,0,1-1.315.523h-.779v-3.665h.779a1.857,1.857,0,0,1,1.315,3.142" transform="translate(-103.33 -1285.497)" fill="#fff"/>
  <path id="Path_42" data-name="Path 42" d="M114.084,1313.387a1.432,1.432,0,0,1-.32.972,1.06,1.06,0,0,1-.84.368,1.072,1.072,0,0,1-.843-.368,1.421,1.421,0,0,1-.324-.972v-3.55h-1.318v3.592a2.6,2.6,0,0,0,.669,1.865,2.589,2.589,0,0,0,3.563-.023,2.621,2.621,0,0,0,.69-1.884v-3.55h-1.277Z" transform="translate(-104.303 -1285.497)" fill="#fff"/>
  <path id="Path_43" data-name="Path 43" d="M121.279,1312.729a1.5,1.5,0,0,0,.741-1.323,1.438,1.438,0,0,0-.5-1.131,1.919,1.919,0,0,0-1.311-.437h-2.574v6.071h2.719a2,2,0,0,0,1.378-.484,1.573,1.573,0,0,0,.54-1.213,1.6,1.6,0,0,0-.281-.93,1.537,1.537,0,0,0-.711-.553m-.769-.644a.8.8,0,0,1-.571.2h-1v-1.366h1a.8.8,0,0,1,.571.2.647.647,0,0,1,.207.49.635.635,0,0,1-.207.482m-1.576,1.207h1.192a.869.869,0,0,1,.623.219.72.72,0,0,1,.229.546.753.753,0,0,1-.229.555.854.854,0,0,1-.623.227h-1.192Z" transform="translate(-105.288 -1285.497)" fill="#fff"/>
  <path id="Path_44" data-name="Path 44" d="M126.937,1309.837h-1.273l-2.326,6.07H124.7l.453-1.26h2.224l.454,1.26h1.428l-2.317-6.05Zm.071,3.706H125.52l.747-2.078Z" transform="translate(-106.069 -1285.497)" fill="#fff"/>
  <rect id="Rectangle_10" data-name="Rectangle 10" width="1.334" height="6.071" transform="translate(23.881 24.34)" fill="#fff"/>
  <path id="Path_45" data-name="Path 45" d="M138.973,1309.837h-2.487v6.07h1.3V1314h1.144a2.19,2.19,0,0,0,1.579-.591,2.015,2.015,0,0,0,.614-1.509,1.99,1.99,0,0,0-.593-1.5,2.163,2.163,0,0,0-1.56-.57m-1.184,1.173h1.062a.987.987,0,0,1,.712.262.959.959,0,0,1,0,1.333.985.985,0,0,1-.712.262h-1.062Z" transform="translate(-107.869 -1285.497)" fill="#fff"/>
  <path id="Path_46" data-name="Path 46" d="M145.667,1309.743a2.887,2.887,0,0,0-2.153.914,3.126,3.126,0,0,0-.874,2.233,3.068,3.068,0,0,0,.855,2.206,2.849,2.849,0,0,0,2.132.889,2.889,2.889,0,0,0,2.152-.909,3.278,3.278,0,0,0,.02-4.44,2.843,2.843,0,0,0-2.132-.894m1.2,4.445a1.676,1.676,0,0,1-2.446,0,2.037,2.037,0,0,1,0-2.639,1.678,1.678,0,0,1,2.446,0,2.026,2.026,0,0,1,0,2.639" transform="translate(-108.712 -1285.489)" fill="#fff"/>
  <path id="Path_47" data-name="Path 47" d="M163.5,1314.057a1.6,1.6,0,0,1-1.331.663,1.856,1.856,0,0,1,0-3.7,1.6,1.6,0,0,1,1.3.619l.021.025.95-.9-.022-.025a2.846,2.846,0,0,0-2.229-1,3.056,3.056,0,0,0-3.029,3.147,2.976,2.976,0,0,0,2.987,3.1,2.891,2.891,0,0,0,2.3-1.075l.022-.025-.946-.855Z" transform="translate(-110.973 -1285.489)" fill="#fff"/>
  <path id="Path_48" data-name="Path 48" d="M152.12,1309.837h-1.3v6.071h4.072v-1.233h-2.77Z" transform="translate(-109.831 -1285.497)" fill="#fff"/>
  <rect id="Rectangle_11" data-name="Rectangle 11" width="1.334" height="6.071" transform="translate(45.811 24.34)" fill="#fff"/>
  <path id="Path_49" data-name="Path 49" d="M167.537,1314.71v-1.357h2.527v-1.13h-2.527v-1.177h2.931v-1.208h-4.233v6.071h4.315v-1.2Z" transform="translate(-111.942 -1285.497)" fill="#fff"/>
  <path id="Path_50" data-name="Path 50" d="M139.735,1293.541a.9.9,0,1,0-.853-.9.88.88,0,0,0,.853.9" transform="translate(-108.197 -1283.941)" fill="#fff"/>
  <path id="Path_51" data-name="Path 51" d="M165.721,1292.054a.9.9,0,1,0-.853-.9.879.879,0,0,0,.853.9" transform="translate(-111.755 -1283.813)" fill="#fff"/>
  <path id="Path_52" data-name="Path 52" d="M164.348,1294.331a.9.9,0,1,0-.853-.9.879.879,0,0,0,.853.9" transform="translate(-111.567 -1284.009)" fill="#fff"/>
  <path id="Path_53" data-name="Path 53" d="M166.24,1293.428a.854.854,0,1,0,.853-.9.879.879,0,0,0-.853.9" transform="translate(-111.943 -1284.009)" fill="#fff"/>
  <path id="Path_54" data-name="Path 54" d="M167.566,1294.735l-1.434.922a8.56,8.56,0,0,1,.868,5.517h-2.008v-5.516h-1.678v5.516h-1.272v-5.516h-1.678v5.516h-2.373v-6.24h-1.678v7.007a2.535,2.535,0,0,1-2.456,2.6h-.426v1.776h.426a4.2,4.2,0,0,0,4.023-3.368H168.34l.158-.677a10.589,10.589,0,0,0-.932-7.539" transform="translate(-110.189 -1284.199)" fill="#fff"/>
  <path id="Path_55" data-name="Path 55" d="M127.333,1294.724l-.754,1.588a4.576,4.576,0,0,1,2.145,4.862h-3.738v1.777H130.1l.145-.7c1.037-4.991-1.97-7.024-2.916-7.528" transform="translate(-106.295 -1284.198)" fill="#fff"/>
  <path id="Path_56" data-name="Path 56" d="M151.676,1302.778l.445-1.583a5.018,5.018,0,0,0-.7-4.192,4.435,4.435,0,0,0-3.083-1.88,4.314,4.314,0,0,0-3.4,1.1l-1.478,1.336v-4.838h-1.677V1301h-1.886v-6.24h-1.734a4.329,4.329,0,0,0-4.195,4.443v3.574h1.677V1299.2a2.6,2.6,0,0,1,2.518-2.666h.055v6.24Zm-8.221-2.883,2.568-2.319a2.69,2.69,0,0,1,2.126-.688,2.775,2.775,0,0,1,1.925,1.173,3.146,3.146,0,0,1,.438,2.628l-.086.312h-6.969Z" transform="translate(-107.524 -1284.026)" fill="#fff"/>
  <path id="Path_57" data-name="Path 57" d="M121.64,1304.968a.906.906,0,1,0,.854.9.882.882,0,0,0-.854-.9" transform="translate(-105.72 -1285.078)" fill="#fff"/>
  <path id="Path_58" data-name="Path 58" d="M111.266,1304.968a.906.906,0,1,0,.854.9.881.881,0,0,0-.854-.9" transform="translate(-104.3 -1285.078)" fill="#fff"/>
  <path id="Path_59" data-name="Path 59" d="M108.778,1304.968a.906.906,0,1,0,.854.9.881.881,0,0,0-.854-.9" transform="translate(-103.959 -1285.078)" fill="#fff"/>
  <path id="Path_60" data-name="Path 60" d="M137.312,1293.542a.906.906,0,1,0-.854-.9.882.882,0,0,0,.854.9" transform="translate(-107.865 -1283.941)" fill="#fff"/>
  <path id="Path_61" data-name="Path 61" d="M119.339,1300.089a1.057,1.057,0,0,1-1.024,1.085h-.771v-6.24h-1.768a4.213,4.213,0,0,0-4.044,4.443v1.8h-6.725v-.24a12.145,12.145,0,0,1,1.251-5.37l-1.478-.837a14.042,14.042,0,0,0-1.45,6.207v2.017h10.08v-3.574a2.474,2.474,0,0,1,2.366-2.666h.09v6.24h2.449a2.789,2.789,0,0,0,2.7-2.862v-5.155h-1.678Z" transform="translate(-103.33 -1284.198)" fill="#fff"/>
  <path id="Path_62" data-name="Path 62" d="M215.213,1304.116a3.553,3.553,0,0,0-.873.058,5.292,5.292,0,0,0,.57-.8,4.468,4.468,0,0,0,.459-3.483,3.631,3.631,0,0,0-.842.251,5.45,5.45,0,0,0,.4-.907,4.471,4.471,0,0,0-.244-3.506,3.751,3.751,0,0,0-.773.433,5.319,5.319,0,0,0,.209-.975,4.407,4.407,0,0,0-.936-3.373,3.85,3.85,0,0,0-.668.6,5.623,5.623,0,0,0,.01-1,4.314,4.314,0,0,0-1.587-3.089,3.938,3.938,0,0,0-.534.732,5.528,5.528,0,0,0-.19-.98,4.179,4.179,0,0,0-2.164-2.665,4.079,4.079,0,0,0-.378.835,5.445,5.445,0,0,0-.38-.917,4.04,4.04,0,0,0-2.646-2.122,4.359,4.359,0,0,0-.207,1.872c-.131-.1-.271-.2-.425-.3a3.812,3.812,0,0,0-3.294-.437,4.247,4.247,0,0,0,1.9,2.884q.23.147.448.258a1.459,1.459,0,1,0,.958,2.5,4.055,4.055,0,0,0,2.07,1.914,4.2,4.2,0,0,0,1.642,2.332,4.318,4.318,0,0,0,1.143,2.645,14.524,14.524,0,0,1,.6,5.751,4.418,4.418,0,0,0-.566,2.845,4.322,4.322,0,0,0-1.12,2.657,4.2,4.2,0,0,0-1.625,2.345,4.063,4.063,0,0,0-2.053,1.932,3.925,3.925,0,0,0-2.393,1.43,3.893,3.893,0,0,0-3.063,1.27,4.283,4.283,0,0,0-1.035,1.7.942.942,0,0,1-1.831,0,4.266,4.266,0,0,0-1.036-1.7,3.89,3.89,0,0,0-3.064-1.27,3.922,3.922,0,0,0-2.391-1.43,4.068,4.068,0,0,0-2.054-1.932,4.2,4.2,0,0,0-1.624-2.345,4.323,4.323,0,0,0-1.121-2.657,14.531,14.531,0,0,1-.555-5.755,4.42,4.42,0,0,0,.589-2.842,4.322,4.322,0,0,0,1.142-2.645,4.2,4.2,0,0,0,1.642-2.332,4.061,4.061,0,0,0,2.07-1.914,1.459,1.459,0,1,0,.956-2.5,5.076,5.076,0,0,0,.45-.258,4.257,4.257,0,0,0,1.9-2.884,3.813,3.813,0,0,0-3.294.437c-.153.1-.293.2-.425.3a4.345,4.345,0,0,0-.208-1.872,4.041,4.041,0,0,0-2.645,2.122,5.365,5.365,0,0,0-.379.917,4.126,4.126,0,0,0-.379-.835,4.174,4.174,0,0,0-2.164,2.665,5.6,5.6,0,0,0-.19.98,3.938,3.938,0,0,0-.534-.732,4.317,4.317,0,0,0-1.587,3.089,5.706,5.706,0,0,0,.01,1,3.825,3.825,0,0,0-.669-.6,4.421,4.421,0,0,0-.936,3.373,5.538,5.538,0,0,0,.211.975,3.729,3.729,0,0,0-.773-.433,4.468,4.468,0,0,0-.244,3.506,5.383,5.383,0,0,0,.4.907,3.636,3.636,0,0,0-.842-.251,4.464,4.464,0,0,0,.458,3.483,5.173,5.173,0,0,0,.571.8,3.553,3.553,0,0,0-.873-.058,4.391,4.391,0,0,0,1.142,3.3,5.077,5.077,0,0,0,.715.654,3.674,3.674,0,0,0-.866.136,4.28,4.28,0,0,0,1.774,2.974,4.739,4.739,0,0,0,.829.479,3.716,3.716,0,0,0-.818.328,4.148,4.148,0,0,0,2.323,2.511,4.79,4.79,0,0,0,.906.281,3.8,3.8,0,0,0-.734.5,4,4,0,0,0,2.771,1.937,4.664,4.664,0,0,0,.943.074,3.945,3.945,0,0,0-.618.655,3.893,3.893,0,0,0,3.094,1.275,4.8,4.8,0,0,0,.936-.138,4.059,4.059,0,0,0-.475.779,3.819,3.819,0,0,0,3.278.555,4.231,4.231,0,0,0,1.381-.643,3.262,3.262,0,0,1,3.852,0,4.248,4.248,0,0,0,1.381.643,3.819,3.819,0,0,0,3.278-.555,4.059,4.059,0,0,0-.475-.779,4.8,4.8,0,0,0,.936.138,3.891,3.891,0,0,0,3.093-1.275,3.982,3.982,0,0,0-.618-.655,4.659,4.659,0,0,0,.942-.074,4,4,0,0,0,2.771-1.937,3.779,3.779,0,0,0-.735-.5,4.726,4.726,0,0,0,.905-.281,4.144,4.144,0,0,0,2.324-2.511,3.709,3.709,0,0,0-.817-.328,4.839,4.839,0,0,0,.829-.479,4.285,4.285,0,0,0,1.773-2.974,3.666,3.666,0,0,0-.866-.136,5.079,5.079,0,0,0,.716-.654,4.4,4.4,0,0,0,1.141-3.3m-25.405,9.178a3.425,3.425,0,0,1,1.655,1.433,3.093,3.093,0,0,1,.542,2.191,2.839,2.839,0,0,1-1.655-1.434,3.76,3.76,0,0,1-.541-2.19m-2.241-1.838a3.564,3.564,0,0,1,1.333,1.77,3.138,3.138,0,0,1,.093,2.263,2.935,2.935,0,0,1-1.333-1.771,3.8,3.8,0,0,1-.093-2.262m-1.825-2.3a3.676,3.676,0,0,1,.952,2.026,3.119,3.119,0,0,1-.361,2.234,3.036,3.036,0,0,1-.95-2.028,3.767,3.767,0,0,1,.359-2.232m-1.328-2.653a3.754,3.754,0,0,1,.526,2.193,3.069,3.069,0,0,1-.8,2.105,3.112,3.112,0,0,1-.527-2.2,3.718,3.718,0,0,1,.8-2.1m-2.491-4.318a3.48,3.48,0,0,1,1.541-1.568,3.763,3.763,0,0,1-.373,2.228,2.889,2.889,0,0,1-1.543,1.57,3.122,3.122,0,0,1,.375-2.231m-.666-1.251a3.065,3.065,0,0,1,.81-2.1,3.364,3.364,0,0,1,1.819-1.189,3.7,3.7,0,0,1-.809,2.1,2.778,2.778,0,0,1-1.819,1.191m1.19,4.557a3.607,3.607,0,0,1,1.2-1.877,3.784,3.784,0,0,1,.078,2.262,2.972,2.972,0,0,1-1.2,1.878,3.14,3.14,0,0,1-.079-2.264m1.234-8.782a2.716,2.716,0,0,1-2.016.758,2.985,2.985,0,0,1,1.207-1.87,3.272,3.272,0,0,1,2.014-.756,3.606,3.606,0,0,1-1.206,1.869m7.133-8.14a3.272,3.272,0,0,1-2.02.742,1.138,1.138,0,1,1-.024-1.4,3.257,3.257,0,0,1,2.044.661m-1.057-3.169a3.229,3.229,0,0,1,2.082-.512,3.537,3.537,0,0,1-1.4,1.712,2.678,2.678,0,0,1-2.084.512,2.93,2.93,0,0,1,1.4-1.712m-3.031.278a3.469,3.469,0,0,1,1.56-1.546,3.763,3.763,0,0,1-.4,2.223,2.871,2.871,0,0,1-1.562,1.548,3.121,3.121,0,0,1,.4-2.226m-.424,4.328a3.218,3.218,0,0,1,2.13.19,3.371,3.371,0,0,1-1.826,1.175,2.665,2.665,0,0,1-2.132-.188,2.8,2.8,0,0,1,1.828-1.177m-2.443-1.723a3.6,3.6,0,0,1,1.218-1.86,3.781,3.781,0,0,1,.051,2.263,2.969,2.969,0,0,1-1.22,1.862,3.137,3.137,0,0,1-.049-2.265m.447,4.324a3.231,3.231,0,0,1,2.12-.29,3.48,3.48,0,0,1-1.552,1.557,2.659,2.659,0,0,1-2.121.291,2.9,2.9,0,0,1,1.554-1.558m-2.731-1.14a3.7,3.7,0,0,1,.822-2.089,3.758,3.758,0,0,1,.5,2.2,3.049,3.049,0,0,1-.822,2.092,3.117,3.117,0,0,1-.5-2.2m-1.21,1.4a3.685,3.685,0,0,1,.925,2.04,3.116,3.116,0,0,1-.388,2.229,3.04,3.04,0,0,1-.925-2.043,3.753,3.753,0,0,1,.388-2.226m-1.295,3.861a3.558,3.558,0,0,1,1.31,1.789,3.125,3.125,0,0,1,.065,2.265,2.954,2.954,0,0,1-1.31-1.791,3.787,3.787,0,0,1-.065-2.263m-.5,4.065a3.441,3.441,0,0,1,1.637,1.455,3.11,3.11,0,0,1,.514,2.2,2.854,2.854,0,0,1-1.638-1.458,3.76,3.76,0,0,1-.513-2.2m1.262,6.117a3.676,3.676,0,0,1-.938-2.034,3.33,3.33,0,0,1,1.889,1.057,3.041,3.041,0,0,1,.94,2.036,2.756,2.756,0,0,1-1.891-1.059m1.511,3.665a3.563,3.563,0,0,1-1.321-1.78,3.257,3.257,0,0,1,2.058.612,2.962,2.962,0,0,1,1.323,1.779,2.689,2.689,0,0,1-2.059-.612m2.206,3.245a3.439,3.439,0,0,1-1.646-1.444,3.213,3.213,0,0,1,2.134.14,2.86,2.86,0,0,1,1.648,1.444,2.657,2.657,0,0,1-2.135-.14m2.8,2.68a3.335,3.335,0,0,1-1.9-1.044,3.215,3.215,0,0,1,2.113-.34,2.762,2.762,0,0,1,1.9,1.045,2.674,2.674,0,0,1-2.115.339m3.273,2a3.239,3.239,0,0,1-2.061-.6,3.28,3.28,0,0,1,2-.8,1.138,1.138,0,1,1,.064,1.4m3.6,1.22a3.215,3.215,0,0,1-2.134-.124,3.377,3.377,0,0,1,1.794-1.23,2.664,2.664,0,0,1,2.137.123,2.8,2.8,0,0,1-1.8,1.231m.106-3.106a3.683,3.683,0,0,1-.964-2.021,3.327,3.327,0,0,1,1.9,1.031,3.037,3.037,0,0,1,.966,2.023,2.756,2.756,0,0,1-1.9-1.033m21.509-15.817a3.752,3.752,0,0,1-.512,2.2,2.851,2.851,0,0,1-1.638,1.458,3.115,3.115,0,0,1,.514-2.2,3.447,3.447,0,0,1,1.636-1.455m-.5-4.065a3.78,3.78,0,0,1-.064,2.263,2.952,2.952,0,0,1-1.311,1.791,3.129,3.129,0,0,1,.065-2.265,3.578,3.578,0,0,1,1.31-1.789m-2.219-1.821a3.691,3.691,0,0,1,.925-2.04,3.766,3.766,0,0,1,.388,2.226,3.039,3.039,0,0,1-.925,2.043,3.116,3.116,0,0,1-.388-2.229m-1.8,7.941a3.776,3.776,0,0,1-.373-2.228,3.476,3.476,0,0,1,1.541,1.568,3.111,3.111,0,0,1,.374,2.231,2.887,2.887,0,0,1-1.542-1.57m.564,4.908a2.978,2.978,0,0,1-1.195-1.878,3.791,3.791,0,0,1,.078-2.262,3.6,3.6,0,0,1,1.195,1.877,3.122,3.122,0,0,1-.078,2.264m-.552-8.011a3.712,3.712,0,0,1-.807-2.1,3.363,3.363,0,0,1,1.819,1.189,3.073,3.073,0,0,1,.81,2.1,2.785,2.785,0,0,1-1.821-1.191m.68-10.365a3.7,3.7,0,0,1,.822,2.089,3.1,3.1,0,0,1-.5,2.2,3.057,3.057,0,0,1-.821-2.092,3.758,3.758,0,0,1,.5-2.2m-2.68-2.955a3.6,3.6,0,0,1,1.219,1.86,3.127,3.127,0,0,1-.05,2.265,2.976,2.976,0,0,1-1.219-1.862,3.8,3.8,0,0,1,.05-2.263m-3.208-2.291a3.488,3.488,0,0,1,1.561,1.546,3.129,3.129,0,0,1,.4,2.226,2.872,2.872,0,0,1-1.562-1.548,3.763,3.763,0,0,1-.4-2.223m-2.155,2.468a3.54,3.54,0,0,1-1.4-1.712,3.232,3.232,0,0,1,2.083.512,2.93,2.93,0,0,1,1.4,1.712,2.678,2.678,0,0,1-2.084-.512m1.647,2.711a1.137,1.137,0,1,1,.025-1.4,1.138,1.138,0,1,1-.025,1.4m.363.885a3.219,3.219,0,0,1,2.131-.19,2.8,2.8,0,0,1,1.827,1.177,2.665,2.665,0,0,1-2.132.188,3.368,3.368,0,0,1-1.826-1.175m2.006,2.122a3.231,3.231,0,0,1,2.12.29,2.9,2.9,0,0,1,1.554,1.558,2.659,2.659,0,0,1-2.121-.291,3.485,3.485,0,0,1-1.552-1.557m1.539,2.523a3.268,3.268,0,0,1,2.014.756,2.983,2.983,0,0,1,1.208,1.87,2.713,2.713,0,0,1-2.015-.758,3.6,3.6,0,0,1-1.207-1.869m.473,11.663a3.711,3.711,0,0,1,.8,2.1,3.1,3.1,0,0,1-.528,2.2,3.069,3.069,0,0,1-.794-2.105,3.761,3.761,0,0,1,.527-2.193m-2.279,4.679a3.662,3.662,0,0,1,.95-2.026,3.767,3.767,0,0,1,.359,2.232,3.025,3.025,0,0,1-.952,2.028,3.125,3.125,0,0,1-.357-2.234m-2.208,2.04a3.554,3.554,0,0,1,1.333-1.77,3.8,3.8,0,0,1-.094,2.262,2.936,2.936,0,0,1-1.334,1.771,3.139,3.139,0,0,1,.094-2.263m-2.565,1.5a3.44,3.44,0,0,1,1.656-1.433,3.766,3.766,0,0,1-.541,2.19,2.839,2.839,0,0,1-1.657,1.434,3.11,3.11,0,0,1,.542-2.191m-2.805.894a3.337,3.337,0,0,1,1.9-1.031,3.664,3.664,0,0,1-.963,2.021,2.756,2.756,0,0,1-1.9,1.033,3.042,3.042,0,0,1,.964-2.023m1.047,4.1a2.8,2.8,0,0,1-1.8-1.231,2.664,2.664,0,0,1,2.137-.123,3.368,3.368,0,0,1,1.793,1.23,3.209,3.209,0,0,1-2.133.124m3.595-1.22a1.138,1.138,0,1,1,.064-1.4,3.285,3.285,0,0,1,2,.8,3.243,3.243,0,0,1-2.062.6m3.273-2a2.675,2.675,0,0,1-2.115-.339,2.768,2.768,0,0,1,1.9-1.045,3.22,3.22,0,0,1,2.114.34,3.34,3.34,0,0,1-1.9,1.044m2.8-2.68a2.657,2.657,0,0,1-2.135.14,2.86,2.86,0,0,1,1.648-1.444,3.213,3.213,0,0,1,2.134-.14,3.439,3.439,0,0,1-1.646,1.444m3.527-5.024a3.563,3.563,0,0,1-1.321,1.78,2.69,2.69,0,0,1-2.059.612,2.962,2.962,0,0,1,1.323-1.779,3.254,3.254,0,0,1,2.058-.612m-1.7-.826a3.046,3.046,0,0,1,.94-2.036,3.33,3.33,0,0,1,1.89-1.057,3.683,3.683,0,0,1-.939,2.034,2.756,2.756,0,0,1-1.891,1.059" transform="translate(-113.536 -1283.208)" fill="#fff"/>
  <path id="Path_63" data-name="Path 63" d="M187.578,1303.648v.5a30.818,30.818,0,0,0,2.024,3.547h-1.676a1.454,1.454,0,0,0,1.367.729h17.484a1.457,1.457,0,0,0,1.367-.729H206.61a37.065,37.065,0,0,0,2.116-3.806h.841v-1.4H205a13.578,13.578,0,0,1-3.029-16.433c-7.976,1.683-13.964,9.026-14.4,17.591m.353.01a16.075,16.075,0,0,1,7.843-2.606v2.606Zm16.666-.566-.4.566h-7.348v-2.633a15.96,15.96,0,0,1,7.744,2.067m-1.5-1.534a16.637,16.637,0,0,0-14.73.992,18.139,18.139,0,0,1,12.364-15.416,14.38,14.38,0,0,0,2.366,14.424" transform="translate(-114.864 -1283.453)" fill="#fff"/>
  <path id="Path_64" data-name="Path 64" d="M198.577,1317.174h1.55a1.456,1.456,0,0,0,1.368-.73h-4.286a1.458,1.458,0,0,0,1.368.73" transform="translate(-116.183 -1286.065)" fill="#fff"/>
  <path id="Path_65" data-name="Path 65" d="M204.12,1314.764H193.593a1.458,1.458,0,0,0,1.368.73h7.792a1.457,1.457,0,0,0,1.367-.73" transform="translate(-115.687 -1285.92)" fill="#fff"/>
  <path id="Path_66" data-name="Path 66" d="M206.121,1313.085H190.84a1.456,1.456,0,0,0,1.368.729h12.546a1.457,1.457,0,0,0,1.367-.729" transform="translate(-115.311 -1285.776)" fill="#fff"/>
  <path id="Path_67" data-name="Path 67" d="M207.341,1311.406H189.163a1.454,1.454,0,0,0,1.366.729h15.444a1.457,1.457,0,0,0,1.367-.729" transform="translate(-115.081 -1285.632)" fill="#fff"/>
</svg>