<svg xmlns="http://www.w3.org/2000/svg" width="55.053" height="55.432" viewBox="0 0 55.053 55.432">
  <g id="Group_37735" data-name="Group 37735" transform="translate(-534.594 854.358)">
    <g id="Group_37728" data-name="Group 37728" transform="translate(552.579 -830.562)">
      <g id="Group_37727" data-name="Group 37727">
        <path id="Path_51164" data-name="Path 51164" d="M550.583-828.631a6.833,6.833,0,0,1-6.826-6.826,6.833,6.833,0,0,1,6.826-6.826,6.833,6.833,0,0,1,6.826,6.826A6.833,6.833,0,0,1,550.583-828.631Zm0-13.046a6.226,6.226,0,0,0-6.22,6.22,6.226,6.226,0,0,0,6.22,6.221,6.228,6.228,0,0,0,6.222-6.221A6.228,6.228,0,0,0,550.583-841.677Z" transform="translate(-543.757 842.283)" fill="#008755" stroke="#008755" stroke-width="1"/>
      </g>
    </g>
    <g id="Group_37730" data-name="Group 37730" transform="translate(545.161 -837.979)">
      <g id="Group_37729" data-name="Group 37729">
        <path id="Path_51165" data-name="Path 51165" d="M557.246-817.472l-.1-.222a1.485,1.485,0,0,0-1.362-.793h-3.04a1.506,1.506,0,0,0-1.356.771l-.105.218-.234-.054a14.4,14.4,0,0,1-4.517-1.9l-.206-.131.083-.228a1.489,1.489,0,0,0-.406-1.52l-2.15-2.149a1.508,1.508,0,0,0-1.5-.416l-.228.079-.127-.2a14.488,14.488,0,0,1-1.861-4.535l-.052-.238.222-.1a1.49,1.49,0,0,0,.793-1.364v-3.04a1.506,1.506,0,0,0-.771-1.356l-.218-.1.054-.234a14.426,14.426,0,0,1,1.9-4.519l.131-.2.23.083a1.5,1.5,0,0,0,1.518-.406l2.15-2.15a1.481,1.481,0,0,0,.416-1.5l-.079-.228.2-.127a14.489,14.489,0,0,1,4.535-1.861l.238-.052.1.222a1.484,1.484,0,0,0,1.362.793h3.04a1.5,1.5,0,0,0,1.356-.771l.1-.218.236.054a14.477,14.477,0,0,1,4.517,1.9l.206.131-.085.228a1.488,1.488,0,0,0,.406,1.52l2.149,2.149a1.514,1.514,0,0,0,1.5.416l.228-.079.127.2a14.447,14.447,0,0,1,1.861,4.535l.052.238-.222.1a1.485,1.485,0,0,0-.793,1.362v3.04a1.5,1.5,0,0,0,.771,1.356l.218.1-.054.234a14.47,14.47,0,0,1-1.9,4.519l-.131.2-.228-.083a1.507,1.507,0,0,0-1.52.406l-2.149,2.149a1.481,1.481,0,0,0-.416,1.5l.079.228-.2.127a14.461,14.461,0,0,1-4.535,1.861Zm-4.5-1.619h3.04a2.109,2.109,0,0,1,1.792.924,13.853,13.853,0,0,0,3.936-1.615,2.128,2.128,0,0,1,.624-1.887l2.15-2.149a2.16,2.16,0,0,1,1.915-.616,13.765,13.765,0,0,0,1.649-3.922,2.128,2.128,0,0,1-.9-1.776v-3.04a2.11,2.11,0,0,1,.924-1.792,13.829,13.829,0,0,0-1.615-3.936,2.162,2.162,0,0,1-1.887-.623l-2.149-2.149a2.117,2.117,0,0,1-.616-1.916,13.768,13.768,0,0,0-3.922-1.649,2.126,2.126,0,0,1-1.776.9h-3.04a2.109,2.109,0,0,1-1.792-.924,13.876,13.876,0,0,0-3.936,1.615,2.127,2.127,0,0,1-.624,1.887l-2.15,2.149a2.158,2.158,0,0,1-1.915.616,13.806,13.806,0,0,0-1.649,3.922,2.128,2.128,0,0,1,.9,1.776v3.04a2.11,2.11,0,0,1-.924,1.792,13.872,13.872,0,0,0,1.615,3.936,2.164,2.164,0,0,1,1.887.623l2.15,2.149a2.118,2.118,0,0,1,.615,1.916,13.77,13.77,0,0,0,3.922,1.649A2.129,2.129,0,0,1,552.741-819.09Zm1.584-3.625a9.009,9.009,0,0,1-9-9,9.009,9.009,0,0,1,9-9,9.009,9.009,0,0,1,9,9A9.009,9.009,0,0,1,554.325-822.715Zm0-17.4a8.4,8.4,0,0,0-8.394,8.4,8.4,8.4,0,0,0,8.394,8.4,8.4,8.4,0,0,0,8.4-8.4A8.4,8.4,0,0,0,554.325-840.111Z" transform="translate(-540.082 845.958)" fill="#008755" stroke="#008755" stroke-width="1"/>
      </g>
    </g>
    <g id="Group_37732" data-name="Group 37732" transform="translate(560.573 -853.794)">
      <g id="Group_37731" data-name="Group 37731">
        <path id="Path_51166" data-name="Path 51166" d="M571.693-825.284h-.1l-5.647-3.7c-.389-.321-.755-.628-1.12-.94l-.065-.079a34.546,34.546,0,0,0-5.395-6.925,34.551,34.551,0,0,0-6.925-5.4l-.077-.064q-.472-.548-.922-1.092l-3.722-5.677v-.089a3.182,3.182,0,0,1,.141-.941l0,0,.091-.25a2.764,2.764,0,0,1,.216-.438,3.035,3.035,0,0,1,.349-.456l.212-.23,1.062,1.062,2.807-2.808a1.859,1.859,0,0,1,2.21-.22,57.055,57.055,0,0,1,11.932,9.23,57.117,57.117,0,0,1,9.23,11.932,1.814,1.814,0,0,1-.22,2.21l-2.807,2.807,1.062,1.06-.228.214a3.01,3.01,0,0,1-.456.349,2.976,2.976,0,0,1-.448.22l-.234.095-.012-.01A3.161,3.161,0,0,1,571.693-825.284Zm-6.438-5.07q.527.451,1.048.884l5.467,3.581a2.636,2.636,0,0,0,.821-.164l.111-.042a2.262,2.262,0,0,0,.3-.149c.038-.024.079-.05.117-.079l-1.031-1.029,3.233-3.233a1.218,1.218,0,0,0,.123-1.484,57.24,57.24,0,0,0-9.133-11.805,57.254,57.254,0,0,0-11.805-9.133,1.251,1.251,0,0,0-1.481.123l-3.235,3.233-1.029-1.029c-.028.038-.054.077-.081.117a2.489,2.489,0,0,0-.172.353l-.016.052a2.576,2.576,0,0,0-.165.821l3.6,5.5c.27.321.563.668.864,1.019a35.257,35.257,0,0,1,7,5.464A35.271,35.271,0,0,1,565.255-830.354Z" transform="translate(-547.718 853.794)" fill="#008755" stroke="#008755" stroke-width="1"/>
      </g>
    </g>
    <g id="Group_37734" data-name="Group 37734" transform="translate(535.094 -848.046)">
      <g id="Group_37733" data-name="Group 37733">
        <path id="Path_51167" data-name="Path 51167" d="M559.4-802.325a24.337,24.337,0,0,1-24.31-24.31,24.337,24.337,0,0,1,24.31-24.31c.137,0,.273,0,.41.01l.363.01,3.268,5.233-.468.061a.761.761,0,0,0-.486.262.761.761,0,0,0-.176.559.758.758,0,0,0,.268.519.788.788,0,0,0,1.078-.095.824.824,0,0,0,.115-.2l.192-.46.539.648.117.065a30.784,30.784,0,0,1,6.909,5.233,30.822,30.822,0,0,1,5.235,6.909l.064.119.1.087c.371.313.739.616,1.106.916l5.651,3.532.01.357c.006.18.012.361.012.545A24.337,24.337,0,0,1,559.4-802.325Zm0-48.015a23.731,23.731,0,0,0-23.7,23.7,23.731,23.731,0,0,0,23.7,23.7,23.733,23.733,0,0,0,23.707-23.7c0-.176-.006-.351-.012-.525l0-.036-5.407-3.383c-.4-.325-.771-.63-1.144-.944l-.216-.208-.093-.167a30.2,30.2,0,0,0-5.131-6.773,30.145,30.145,0,0,0-6.773-5.131l-.246-.156a1.4,1.4,0,0,1-1.891.129,1.359,1.359,0,0,1-.484-.928,1.362,1.362,0,0,1,.315-1,1.345,1.345,0,0,1,.448-.347l-2.636-4.226-.045,0C559.665-850.336,559.536-850.34,559.4-850.34Zm.458,46.919a1.372,1.372,0,0,1-.468-.083,1.369,1.369,0,0,1-.817-1.754,1.393,1.393,0,0,1,1.752-.817,1.351,1.351,0,0,1,.773.706,1.357,1.357,0,0,1,.046,1.048A1.371,1.371,0,0,1,559.863-803.421Zm0-2.133a.765.765,0,0,0-.719.5.765.765,0,0,0,.026.585.75.75,0,0,0,.43.394.776.776,0,0,0,.979-.456.76.76,0,0,0-.024-.583.763.763,0,0,0-.432-.4A.769.769,0,0,0,559.863-805.554Zm-7.516,1.164a.859.859,0,0,1-.745-.428.858.858,0,0,1,.313-1.173l4.9-2.828a.885.885,0,0,1,1.173.315.861.861,0,0,1-.315,1.173l-4.9,2.828A.851.851,0,0,1,552.346-804.39Zm4.892-3.938a.254.254,0,0,0-.125.034l-4.9,2.828a.251.251,0,0,0-.093.345.261.261,0,0,0,.347.093l4.9-2.825a.255.255,0,0,0,.093-.347A.254.254,0,0,0,557.239-808.328Zm10.441,3.48a.845.845,0,0,1-.293-.05.852.852,0,0,1-.484-.444.851.851,0,0,1-.028-.656l1.933-5.314a.879.879,0,0,1,1.1-.513.859.859,0,0,1,.484.444.851.851,0,0,1,.028.656l-1.934,5.314A.862.862,0,0,1,567.679-804.848Zm1.936-6.424a.255.255,0,0,0-.24.168l-1.934,5.312a.258.258,0,0,0,.008.194.264.264,0,0,0,.143.133.259.259,0,0,0,.325-.153l1.934-5.312a.248.248,0,0,0-.008-.194.252.252,0,0,0-.143-.133A.243.243,0,0,0,569.615-811.272Zm-7.431,4.59a1.378,1.378,0,0,1-.468-.083,1.361,1.361,0,0,1-.773-.708,1.362,1.362,0,0,1-.044-1.046,1.4,1.4,0,0,1,1.754-.818,1.371,1.371,0,0,1,.818,1.754A1.371,1.371,0,0,1,562.184-806.683Zm0-2.133a.77.77,0,0,0-.719.5.761.761,0,0,0,.026.583.755.755,0,0,0,.43.4.776.776,0,0,0,.979-.458.764.764,0,0,0-.456-.979A.76.76,0,0,0,562.184-808.816Zm-16.415.614a1.375,1.375,0,0,1-1.187-.684,1.371,1.371,0,0,1-.137-1.037,1.357,1.357,0,0,1,.638-.832,1.4,1.4,0,0,1,1.869.5,1.369,1.369,0,0,1-.5,1.869A1.357,1.357,0,0,1,545.769-808.2Zm0-2.131a.77.77,0,0,0-.382.1.754.754,0,0,0-.355.464.753.753,0,0,0,.075.579.785.785,0,0,0,1.043.281.765.765,0,0,0,.281-1.044A.764.764,0,0,0,545.767-810.334Zm27.965,1.516a1.373,1.373,0,0,1-1.286-.9,1.37,1.37,0,0,1,.817-1.754,1.4,1.4,0,0,1,1.754.82,1.37,1.37,0,0,1-.818,1.754A1.377,1.377,0,0,1,573.732-808.818Zm0-2.133a.781.781,0,0,0-.262.046.765.765,0,0,0-.456.979.778.778,0,0,0,.979.456.764.764,0,0,0,.458-.979A.77.77,0,0,0,573.732-810.951Zm-24.09,1.744a1.374,1.374,0,0,1-1.185-.684,1.371,1.371,0,0,1,.5-1.871,1.407,1.407,0,0,1,1.869.5,1.351,1.351,0,0,1,.137,1.037,1.363,1.363,0,0,1-.638.831A1.379,1.379,0,0,1,549.642-809.208Zm0-2.133a.759.759,0,0,0-.38.1.765.765,0,0,0-.28,1.043.785.785,0,0,0,1.044.279.75.75,0,0,0,.355-.464.757.757,0,0,0-.075-.579A.774.774,0,0,0,549.64-811.341Zm9.764,1.229a16.543,16.543,0,0,1-16.524-16.524A16.543,16.543,0,0,1,559.4-843.159a16.543,16.543,0,0,1,16.524,16.524A16.543,16.543,0,0,1,559.4-810.112Zm0-32.444a15.94,15.94,0,0,0-15.92,15.92,15.94,15.94,0,0,0,15.92,15.92,15.94,15.94,0,0,0,15.92-15.92A15.94,15.94,0,0,0,559.4-842.556Zm14.011,29.748a1.374,1.374,0,0,1-1.288-.9,1.371,1.371,0,0,1,.819-1.754,1.394,1.394,0,0,1,1.752.819,1.366,1.366,0,0,1-.817,1.752A1.324,1.324,0,0,1,573.415-812.808Zm0-2.133a.773.773,0,0,0-.261.046.763.763,0,0,0-.456.979.778.778,0,0,0,.979.456.765.765,0,0,0,.456-.979A.765.765,0,0,0,573.413-814.942Zm-27.544,2.028a.937.937,0,0,1-.147-.012l-5.568-.983a.855.855,0,0,1-.555-.353.849.849,0,0,1-.141-.64.857.857,0,0,1,.993-.7l5.568.981a.86.86,0,0,1,.7.995A.858.858,0,0,1,545.87-812.913Zm-5.568-2.093a.257.257,0,0,0-.25.21.25.25,0,0,0,.042.188.25.25,0,0,0,.166.1l5.568.983a.267.267,0,0,0,.293-.206.253.253,0,0,0-.206-.295Zm38.832-.051a.862.862,0,0,1-.807-.563l-1.934-5.314a.851.851,0,0,1,.028-.656.864.864,0,0,1,.484-.444.877.877,0,0,1,1.1.513l1.934,5.314a.86.86,0,0,1-.513,1.1A.841.841,0,0,1,579.133-815.057Zm-1.936-6.424a.242.242,0,0,0-.085.014.252.252,0,0,0-.143.133.249.249,0,0,0-.01.194l1.934,5.312a.261.261,0,0,0,.327.153.256.256,0,0,0,.151-.327l-1.934-5.314A.256.256,0,0,0,577.2-821.481ZM541.659-819.2a1.406,1.406,0,0,1-.24-.022,1.371,1.371,0,0,1-1.11-1.584,1.369,1.369,0,0,1,1.586-1.11,1.369,1.369,0,0,1,1.11,1.584A1.366,1.366,0,0,1,541.659-819.2Zm0-2.133a.764.764,0,0,0-.751.632.765.765,0,0,0,.62.884.765.765,0,0,0,.886-.62.765.765,0,0,0-.62-.884A.791.791,0,0,0,541.655-821.338Zm-3.611.414a1.411,1.411,0,0,1-.24-.022,1.351,1.351,0,0,1-.882-.563,1.351,1.351,0,0,1-.226-1.021,1.362,1.362,0,0,1,1.584-1.11,1.346,1.346,0,0,1,.882.563,1.359,1.359,0,0,1,.228,1.021A1.366,1.366,0,0,1,538.045-820.924Zm0-2.133a.764.764,0,0,0-.753.632.766.766,0,0,0,.127.571.761.761,0,0,0,.492.313.764.764,0,0,0,.886-.62.759.759,0,0,0-.127-.569.756.756,0,0,0-.492-.315A.766.766,0,0,0,538.043-823.057Zm42.844,1.187a1.374,1.374,0,0,1-.682-.182,1.356,1.356,0,0,1-.638-.832,1.356,1.356,0,0,1,.137-1.039,1.4,1.4,0,0,1,1.867-.5,1.354,1.354,0,0,1,.638.83,1.351,1.351,0,0,1-.137,1.037A1.365,1.365,0,0,1,580.887-821.87Zm0-2.131a.764.764,0,0,0-.662.381.756.756,0,0,0-.076.579.755.755,0,0,0,.355.464.785.785,0,0,0,1.044-.278.757.757,0,0,0,.077-.579.756.756,0,0,0-.355-.464A.752.752,0,0,0,580.889-824Zm-40.065-.585a.86.86,0,0,1-.66-.3l-3.633-4.333a.858.858,0,0,1,.1-1.209.883.883,0,0,1,1.209.107L541.48-826a.861.861,0,0,1-.1,1.209A.864.864,0,0,1,540.824-824.587Zm-3.637-5.441a.253.253,0,0,0-.164.058.255.255,0,0,0-.03.357l3.635,4.331a.225.225,0,0,0,.357.032.257.257,0,0,0,.032-.359l-3.635-4.331A.256.256,0,0,0,537.187-830.028Zm40.891,5.306a1.357,1.357,0,0,1-.682-.184,1.353,1.353,0,0,1-.638-.83,1.357,1.357,0,0,1,.137-1.039,1.406,1.406,0,0,1,1.869-.5,1.37,1.37,0,0,1,.5,1.869A1.375,1.375,0,0,1,578.078-824.722Zm0-2.131a.766.766,0,0,0-.662.381.756.756,0,0,0-.077.579.758.758,0,0,0,.357.464.785.785,0,0,0,1.043-.281.763.763,0,0,0-.281-1.041A.745.745,0,0,0,578.08-826.854Zm-36.111-5.141a1.369,1.369,0,0,1-1.05-.49,1.371,1.371,0,0,1,.17-1.928,1.407,1.407,0,0,1,1.927.17,1.369,1.369,0,0,1-.169,1.927A1.371,1.371,0,0,1,541.968-831.994Zm0-2.133a.768.768,0,0,0-.49.18.764.764,0,0,0-.093,1.076.785.785,0,0,0,1.076.1.767.767,0,0,0,.093-1.078A.769.769,0,0,0,541.966-834.128Zm-1.661-1.508a1.366,1.366,0,0,1-1.049-.489,1.363,1.363,0,0,1-.315-1,1.361,1.361,0,0,1,.482-.929,1.4,1.4,0,0,1,1.927.168,1.361,1.361,0,0,1,.317,1,1.359,1.359,0,0,1-.484.928A1.375,1.375,0,0,1,540.305-835.635Zm0-2.133a.765.765,0,0,0-.49.18.756.756,0,0,0-.27.519.757.757,0,0,0,.176.557.788.788,0,0,0,1.078.095.766.766,0,0,0,.268-.519.754.754,0,0,0-.176-.557A.764.764,0,0,0,540.3-837.768Zm4.156.995a.86.86,0,0,1-.86-.858v-5.655a.86.86,0,0,1,.86-.858.859.859,0,0,1,.858.858v5.655A.86.86,0,0,1,544.459-836.773Zm0-6.767a.255.255,0,0,0-.254.254v5.655a.254.254,0,0,0,.254.254.256.256,0,0,0,.254-.254v-5.655A.256.256,0,0,0,544.459-843.541Zm5.966,1.948a1.37,1.37,0,0,1-1.368-1.368,1.369,1.369,0,0,1,1.368-1.368,1.369,1.369,0,0,1,1.368,1.368A1.37,1.37,0,0,1,550.425-841.593Zm0-2.131a.762.762,0,0,0-.763.763.762.762,0,0,0,.763.763.764.764,0,0,0,.765-.763A.764.764,0,0,0,550.425-843.724Zm4.652-.049a.857.857,0,0,1-.551-.2.86.86,0,0,1-.107-1.209l3.635-4.331a.883.883,0,0,1,1.209-.107.855.855,0,0,1,.3.583.851.851,0,0,1-.2.628l-3.635,4.331A.859.859,0,0,1,555.077-843.773Zm3.637-5.441a.26.26,0,0,0-.2.089l-3.633,4.331a.252.252,0,0,0-.058.186.259.259,0,0,0,.089.174.228.228,0,0,0,.359-.032l3.633-4.331a.248.248,0,0,0,.058-.186.252.252,0,0,0-.089-.172A.252.252,0,0,0,558.714-849.214Zm-7.224,3.762a1.371,1.371,0,0,1-1.368-1.368,1.372,1.372,0,0,1,1.368-1.369,1.371,1.371,0,0,1,1.368,1.369A1.37,1.37,0,0,1,551.491-845.452Zm0-2.131a.765.765,0,0,0-.763.763.765.765,0,0,0,.763.765.766.766,0,0,0,.765-.765A.765.765,0,0,0,551.491-847.583Z" transform="translate(-535.094 850.946)" fill="#008755" stroke="#008755" stroke-width="1"/>
      </g>
    </g>
  </g>
</svg>
