<svg xmlns="http://www.w3.org/2000/svg" width="28.436" height="25.281" viewBox="0 0 28.436 25.281">
  <path id="edit-regular" d="M19.861,16.956l1.58-1.58a.4.4,0,0,1,.676.281v7.178a2.37,2.37,0,0,1-2.37,2.37H2.37A2.37,2.37,0,0,1,0,22.836V5.458a2.37,2.37,0,0,1,2.37-2.37h13.5a.4.4,0,0,1,.281.676l-1.58,1.58a.391.391,0,0,1-.281.114H2.37V22.836H19.748v-5.6A.388.388,0,0,1,19.861,16.956Zm7.731-9.963L14.628,19.958l-4.463.494A2.04,2.04,0,0,1,7.914,18.2l.494-4.463L21.372.773a2.881,2.881,0,0,1,4.083,0l2.133,2.133a2.892,2.892,0,0,1,0,4.088ZM22.715,8.519,19.847,5.651l-9.173,9.178-.36,3.224,3.224-.36Zm3.2-3.935L23.781,2.452a.515.515,0,0,0-.731,0L21.525,3.977l2.868,2.868L25.919,5.32A.526.526,0,0,0,25.914,4.584Z" transform="translate(0 0.075)" fill="#008755"/>
</svg>
