<svg xmlns="http://www.w3.org/2000/svg" width="63.202" height="41" viewBox="0 0 63.202 41">
  <g id="Group_37744" data-name="Group 37744" transform="translate(-271.375 967.037)">
    <g id="Group_37745" data-name="Group 37745" transform="translate(299.49 -961.865)">
      <g id="Group_37744-2" data-name="Group 37744">
        <path id="Path_51176" data-name="Path 51176" d="M287.354-961.719h-5.572v-3.141h5.572Zm-4.4-1.171h3.231v-.8h-3.231Z" transform="translate(-281.782 964.861)" fill="#008755" stroke="#008755" stroke-width="1"/>
      </g>
    </g>
    <g id="Group_37747" data-name="Group 37747" transform="translate(290.534 -966.537)">
      <g id="Group_37746" data-name="Group 37746">
        <path id="Path_51177" data-name="Path 51177" d="M300.994-962.395H279.631a1.062,1.062,0,0,1-1.062-1.062v-2.018a1.06,1.06,0,0,1,1.062-1.062h21.363a1.062,1.062,0,0,1,1.062,1.062v2.018A1.063,1.063,0,0,1,300.994-962.395Zm-21.254-1.171h21.143v-1.8H279.74Z" transform="translate(-278.569 966.537)" fill="#008755" stroke="#008755" stroke-width="1"/>
      </g>
    </g>
    <g id="Group_37749" data-name="Group 37749" transform="translate(271.875 -953.263)">
      <g id="Group_37748" data-name="Group 37748">
        <path id="Path_51178" data-name="Path 51178" d="M274.5-940.019h-1.558a1.064,1.064,0,0,1-1.062-1.062v-19.632a1.064,1.064,0,0,1,1.062-1.062H274.5a1.064,1.064,0,0,1,1.062,1.062v19.632A1.064,1.064,0,0,1,274.5-940.019Zm-1.449-1.174h1.338V-960.6h-1.338Z" transform="translate(-271.875 961.775)" fill="#008755" stroke="#008755" stroke-width="1"/>
      </g>
    </g>
    <g id="Group_37751" data-name="Group 37751" transform="translate(276.522 -945.001)">
      <g id="Group_37750" data-name="Group 37750">
        <path id="Path_51179" data-name="Path 51179" d="M276.683-953.579h-3.141v-5.232h3.141Zm-1.971-1.171h.8v-2.89h-.8Z" transform="translate(-273.542 958.811)" fill="#008755" stroke="#008755" stroke-width="1"/>
      </g>
    </g>
    <g id="Group_37753" data-name="Group 37753" transform="translate(280.647 -958.233)">
      <g id="Group_37752" data-name="Group 37752">
        <path id="Path_51180" data-name="Path 51180" d="M307.766-931.862H285.581a1.491,1.491,0,0,1-1.012-.393l-5.352-4.864a.329.329,0,0,0-.223-.086h-2.47a1.5,1.5,0,0,1-1.5-1.5v-18a1.5,1.5,0,0,1,1.5-1.5h2.47a.329.329,0,0,0,.223-.086l5.355-4.867a1.489,1.489,0,0,1,1.009-.39h22.227a1.492,1.492,0,0,1,.792.226l5.7,3.532a.329.329,0,0,0,.176.05h3.967a1.5,1.5,0,0,1,1.5,1.5v4.725h.164v-3.663a1.4,1.4,0,0,1,1.4-1.4h3.219a.823.823,0,0,1,.711.41l1.107,1.94a2.123,2.123,0,0,1,1.909,2.11v13.36a2.123,2.123,0,0,1-1.909,2.11l-1.107,1.937a.823.823,0,0,1-.711.41h-3.219a1.4,1.4,0,0,1-1.4-1.4v-3.666h-.164v3.4a1.5,1.5,0,0,1-1.5,1.5H314.52a.337.337,0,0,0-.2.064l-5.656,4.243A1.507,1.507,0,0,1,307.766-931.862Zm-31.242-25.182a.33.33,0,0,0-.329.332v18a.33.33,0,0,0,.329.332h2.47a1.493,1.493,0,0,1,1.012.39l5.355,4.867a.315.315,0,0,0,.22.084h22.185a.328.328,0,0,0,.2-.064l5.659-4.243a1.483,1.483,0,0,1,.9-.3h3.922a.33.33,0,0,0,.329-.329v-4.571h2.509v4.836a.225.225,0,0,0,.226.226h3.016l1.1-1.926a.822.822,0,0,1,.711-.413.949.949,0,0,0,.951-.948v-13.36a.952.952,0,0,0-.951-.951.822.822,0,0,1-.711-.412l-1.1-1.923h-3.016a.225.225,0,0,0-.226.226v4.836h-2.509v-5.9a.33.33,0,0,0-.329-.329h-3.967a1.492,1.492,0,0,1-.792-.226l-5.7-3.532a.322.322,0,0,0-.176-.05H285.581a.317.317,0,0,0-.22.086l-5.355,4.867a1.507,1.507,0,0,1-1.012.39Z" transform="translate(-275.022 963.558)" fill="#008755" stroke="#008755" stroke-width="1"/>
      </g>
    </g>
  </g>
</svg>
