<svg xmlns="http://www.w3.org/2000/svg" width="55.293" height="57.016" viewBox="0 0 55.293 57.016">
  <path id="Path_51157" data-name="Path 51157" d="M1000.5-511.625h.111a11.759,11.759,0,0,0,1.036.741c.5.287.5.571.175,1.016-1.374,1.9-2.721,3.829-4.082,5.753,1.538.839,3.057,1.671,4.58,2.5a1.764,1.764,0,0,1,1.042,2.24q-.713,3.244-1.426,6.487a2.247,2.247,0,0,1-1.069,1.536c-1.359.826-2.677,1.72-4.036,2.546a.808.808,0,0,0-.448.883,46.48,46.48,0,0,0,1.513,8.49,39.9,39.9,0,0,0,4.472,9.73,15.9,15.9,0,0,1,2.5,7.433,7.032,7.032,0,0,1-2.764,6.436,7.3,7.3,0,0,1-3.168,1.228h-1.225a16.594,16.594,0,0,1-2.985-.911c-2.887-1.5-4.223-4.062-4.6-7.207-.2-1.686-.311-3.392-.656-5.049a18.5,18.5,0,0,0-4.3-8.384c-.643-.742-1.393-1.392-2.119-2.108v8.412c.222,0,.407,0,.59,0a3.093,3.093,0,0,1,3.368,3.347c.006,2.839.029,5.679-.019,8.517a4.649,4.649,0,0,1-.464,1.9,2.925,2.925,0,0,1-2.4,1.479H955.84a2.2,2.2,0,0,0-.263-.084,2.927,2.927,0,0,1-2.509-2.884q-.047-4.673,0-9.348a2.924,2.924,0,0,1,2.322-2.818c.535-.1,1.087-.112,1.618-.163v-13.2c-.1-.013-.177-.028-.249-.03q-.468-.01-.937-.014a2.985,2.985,0,0,1-3.249-2.673c-.193-1.053-.281-2.125-.426-3.187-.435-3.186-.88-6.37-1.31-9.557-.412-3.056-.829-6.113-1.2-9.174a4.8,4.8,0,0,1,.094-1.808,2.935,2.935,0,0,1,2.435-2.072h35.748c.048.027.094.073.144.079a2.915,2.915,0,0,1,2.423,3.1c-.09.789-.166,1.581-.27,2.369-.315,2.383-.642,4.764-.961,7.147q-.475,3.546-.945,7.092c-.245,1.851-.518,3.7-.72,5.553a3.193,3.193,0,0,1-3.4,3.141c-.383,0-.765,0-1.31,0,.156.458.167.95.413,1.141a26.417,26.417,0,0,1,6.3,6.818,22.457,22.457,0,0,1,3.22,8.878c.192,1.372.217,2.772.473,4.13a5.341,5.341,0,0,0,3.379,4.272,3.674,3.674,0,0,0,5.015-2.251,6.761,6.761,0,0,0,0-3.4,20.486,20.486,0,0,0-2.782-6.175,39.372,39.372,0,0,1-5.309-16,15.032,15.032,0,0,0-.556-3.879,17.707,17.707,0,0,1-.565-1.681,1.848,1.848,0,0,1-.074-.815c.67-3.554,1.36-7.1,2.045-10.654a4.58,4.58,0,0,1,.812-2.2c1.193-1.461,2.307-2.988,3.468-4.476C999.292-510.179,999.9-510.9,1000.5-511.625ZM958.16-489.163H981.9c.731-5.48,1.459-10.937,2.191-16.422H955.971C956.7-500.105,957.429-494.65,958.16-489.163Zm38.163-3.2c.866-.457,1.617-.846,2.36-1.253a.5.5,0,0,0,.22-.3c.35-1.748.689-3.5,1.031-5.256l-2.984-1.616C996.741-497.976,996.536-495.23,996.323-492.363Z" transform="translate(-949.592 511.625)" fill="#fff"/>
</svg>
