<svg xmlns="http://www.w3.org/2000/svg" width="18.374" height="18.413" viewBox="0 0 18.374 18.413">
  <g id="_597177" data-name="597177" transform="translate(0)">
    <g id="Group_40656" data-name="Group 40656" transform="translate(0 0)">
      <path id="Path_74089" data-name="Path 74089" d="M18.432,13.513l-2.57-2.57a1.709,1.709,0,0,0-2.845.642A1.749,1.749,0,0,1,11,12.687,7.924,7.924,0,0,1,6.226,7.915,1.663,1.663,0,0,1,7.327,5.9,1.709,1.709,0,0,0,7.97,3.051L5.4.482a1.833,1.833,0,0,0-2.478,0L1.179,2.225c-1.744,1.835.184,6.7,4.5,11.013s9.177,6.332,11.013,4.5l1.744-1.744A1.833,1.833,0,0,0,18.432,13.513Z" transform="translate(-0.539 0)" fill="#9aac8c"/>
    </g>
  </g>
</svg>
