<svg id="Group_37717" data-name="Group 37717" xmlns="http://www.w3.org/2000/svg" width="78.636" height="55.532" viewBox="0 0 78.636 55.532">
  <path id="Path_51153" data-name="Path 51153" d="M275.815-327.1c2.89,1.449,5.519,2.785,8.164,4.089,2.2,1.083,4.4,2.172,6.634,3.167a6.546,6.546,0,0,0,2.3.453c2.371.118,4.747.146,7.12.232a5.741,5.741,0,0,0,3.822-1.207c2.779-2.094,5.619-4.108,8.435-6.155a2.175,2.175,0,0,0,.81-3.139c-.456-1.009-.918-2.015-1.346-3.035a.891.891,0,0,1-.026-.707c1.207-1.757,2.448-3.489,3.725-5.292.219.476.438.936.643,1.4,1.425,3.231,2.864,6.457,4.265,9.7a5.256,5.256,0,0,1-1.641,6.254c-3.7,2.754-7.417,5.5-11.181,8.168a7.986,7.986,0,0,1-5.635,1.335c-2.359-.242-4.738-.276-7.109-.41-1.658-.094-3.317-.176-4.97-.324a4.485,4.485,0,0,1-1.5-.452c-5.222-2.513-10.467-4.983-15.627-7.619-1.274-.651-2.236-1.893-3.391-2.8a5.94,5.94,0,0,1-2.02-3.811,4.451,4.451,0,0,1,1.086-4.039c2.177-2.4,4.376-4.788,6.566-7.181.175-.191.342-.388.546-.62l-5.1-4.385c2.6-2.775,5.255-5.416,7.666-8.266a2.955,2.955,0,0,1,4.037-.955c2.655,1.138,5.445,1.956,8.163,2.95a4.685,4.685,0,0,1,2.835,3.543,2.119,2.119,0,0,1-.576,1.612c-2.944,3.2-5.946,6.353-8.93,9.52-.266.283-.527.57-.912.986.969.66,1.815,1.328,2.742,1.853a54.985,54.985,0,0,0,11.378,4.87,8.7,8.7,0,0,0,3.576-.026c1.379-.2,1.72-.185,2.013.678a1.778,1.778,0,0,1-1.125,2.492c-1.354.4-2.773.582-4.155.9-2.441.563-4.574-.486-6.7-1.344-3.736-1.508-7.417-3.152-11.106-4.771a.859.859,0,0,0-1.142.223C277.441-328.5,276.667-327.869,275.815-327.1Z" transform="translate(-242.148 367.312)" fill="#fff"/>
  <path id="Path_51154" data-name="Path 51154" d="M360.524-373.094a4.213,4.213,0,0,1-5.1.637,1.208,1.208,0,0,0-.816-.063,13.582,13.582,0,0,1-2.047.513,2.585,2.585,0,0,1-2.882-1.777,4.013,4.013,0,0,1-3.627.691,5.082,5.082,0,0,1-1.132-.549c-1.052-.719-1.111-1.411-.217-2.279q3.972-3.859,7.954-7.708a2.044,2.044,0,0,0,.482-2.945c-.421-.821-.893-1.623-1.23-2.478a2.632,2.632,0,0,0-1.547-1.471c-1.1-.49-2.19-1.016-3.508-1.631,1.665-1.282,3.192-2.467,4.73-3.638a5.562,5.562,0,0,1,4.58-.909,5.323,5.323,0,0,0,5.608-2.206c1.867-2.522,3.821-4.979,5.739-7.463.127-.164.264-.32.457-.552.6.677,1.168,1.317,1.728,1.968,1.548,1.8,3.081,3.61,4.642,5.4a1.171,1.171,0,0,1,.291,1.253,17.215,17.215,0,0,0-.388,8.505,8.531,8.531,0,0,1-1.909,7.62c-2.006,2.378-3.975,4.788-5.973,7.172a13.378,13.378,0,0,1-1.167,1.179A3.681,3.681,0,0,1,360.524-373.094Z" transform="translate(-298.753 406.924)" fill="#fff"/>
  <path id="Path_51155" data-name="Path 51155" d="M213.584-373.091c-1.244,1.5-2.413,2.925-3.615,4.323a.759.759,0,0,1-.655.091c-.674-.217-1.328-.494-2.035-.765-.079.14-.15.269-.223.4a.965.965,0,0,1-1.328.506,1.872,1.872,0,0,1-.78-1.109c-.105-.433.021-.9-.564-.975a4.452,4.452,0,0,1-.92.623,1.125,1.125,0,0,1-1.4-1.167c-.018-.868-.018-.868-.778-1.229a3.7,3.7,0,0,1-.663.492,1.1,1.1,0,0,1-1.582-1.064c-.012-.784-.012-.784-.758-1.106a4.839,4.839,0,0,1-.672.513,1.024,1.024,0,0,1-1.538-.7c-.082-.666-.453-.7-.947-.761a6.634,6.634,0,0,0-5.153,1.771c-.5.42-1.037.806-1.563,1.213l-4.941-4.055a30.9,30.9,0,0,1,5.706-4.249,18.01,18.01,0,0,1,3.306-1.462c2.1-.6,4.079.107,5.942,1,2.562,1.233,5.061,2.6,7.6,3.885,2.276,1.158,4.565,2.291,6.847,3.437C213.078-373.372,213.279-373.255,213.584-373.091Z" transform="translate(-180.529 388.595)" fill="#fff"/>
  <path id="Path_51156" data-name="Path 51156" d="M176.763-341.929c1.956,2.268,3.774,4.513,4.4,7.444a4.252,4.252,0,0,1-1.944,4.573,4.354,4.354,0,0,1-5.105-.172,4.188,4.188,0,0,1-1.666-4.592,13.191,13.191,0,0,1,2.361-4.776C175.379-340.291,176.065-341.053,176.763-341.929Z" transform="translate(-172.319 359.08)" fill="#fff"/>
</svg>
