<svg xmlns="http://www.w3.org/2000/svg" width="47.5" height="43.399" viewBox="0 0 47.5 43.399">
  <g id="Group_37715" data-name="Group 37715" transform="translate(-836.988 324.296)">
    <path id="Path_51143" data-name="Path 51143" d="M884.488-324.3v31.264h-5.257v-20.78H842.294v20.8h-5.306V-324.3Z" transform="translate(0)" fill="#fff"/>
    <path id="Path_51144" data-name="Path 51144" d="M858.255-256.309v11.328H837.172c.2-.258.345-.467.514-.651q7.335-7.963,14.694-15.9a2.1,2.1,0,0,1,1.364-.609c4.763-.044,9.526-.038,14.29-.007a1.758,1.758,0,0,1,1.16.469q7.557,8.126,15.06,16.3c.08.086.143.188.29.383H863.509v-11.31Z" transform="translate(-0.106 -35.916)" fill="#fff"/>
  </g>
</svg>
