<?xml version="1.0" encoding="utf-8"?>
<!-- Generator: Adobe Illustrator 24.0.1, SVG Export Plug-In . SVG Version: 6.00 Build 0)  -->
<svg version="1.1" id="Layer_1" xmlns="http://www.w3.org/2000/svg" xmlns:xlink="http://www.w3.org/1999/xlink" x="0px" y="0px"
	 viewBox="0 0 549.5 549.5" style="enable-background:new 0 0 549.5 549.5;" xml:space="preserve">
<style type="text/css">
	.st0{fill:#008556;}
	.st1{fill:#005745;}
	.st2{fill:none;stroke:#005745;stroke-width:4.242;stroke-linecap:round;stroke-miterlimit:10;}
	.st3{fill:none;stroke:#005745;stroke-width:4.242;stroke-linecap:round;stroke-miterlimit:10;stroke-dasharray:0,7.32;}
	.st4{fill:none;stroke:#005745;stroke-width:3.636;stroke-miterlimit:10;stroke-dasharray:13.059,6.969;}
	.st5{fill:none;stroke:#005745;stroke-width:3.771;stroke-linecap:round;stroke-miterlimit:10;}
	.st6{fill:none;stroke:#005745;stroke-width:4.242;stroke-linecap:round;stroke-miterlimit:10;stroke-dasharray:0,7.283;}
	.st7{fill:none;stroke:#005745;stroke-width:3.636;stroke-miterlimit:10;stroke-dasharray:13.029,7.245;}
	.st8{fill:none;stroke:#008556;stroke-width:27.27;stroke-linejoin:round;stroke-dasharray:27.27,33.633;}
	.st9{fill:none;stroke:#008556;stroke-width:30.3;stroke-linecap:round;stroke-linejoin:round;}
	.st10{fill:none;stroke:#008556;stroke-width:30.3;stroke-linecap:round;stroke-linejoin:round;stroke-dasharray:0,47.017;}
	.st11{fill:none;stroke:#008556;stroke-width:27.27;stroke-linecap:round;stroke-miterlimit:10;}
	.st12{fill:none;stroke:#005745;stroke-width:4.242;stroke-linecap:round;stroke-miterlimit:10;stroke-dasharray:0,7.257;}
	.st13{fill:none;stroke:#005745;stroke-width:3.636;stroke-miterlimit:10;stroke-dasharray:13.059,7.272;}
	.st14{opacity:0.5;fill:#FFFFFF;}
</style>
<g>
	<g>
		<path class="st0" d="M-777.4,408.8l-21.6-16.6c5.1-6.7,9.9-13.8,14.1-21.1l23.6,13.7C-766.1,393.1-771.5,401.2-777.4,408.8z
			 M-745.9,352.4l-25.5-9.7c3-7.9,5.5-16.1,7.4-24.3l26.5,6.2C-739.7,334-742.5,343.4-745.9,352.4z M-732.2,289.2l-27.2-1.9
			c0.3-4.4,0.5-8.9,0.5-13.4c0-4-0.1-8.1-0.4-12.1l27.2-1.7c0.3,4.6,0.4,9.2,0.4,13.8C-731.7,279.1-731.8,284.2-732.2,289.2z
			 M-763.7,230.8c-1.9-8.3-4.3-16.4-7.3-24.4l25.6-9.5c3.4,9.1,6.2,18.4,8.3,27.8L-763.7,230.8z M-784.3,178
			c-4.2-7.3-8.9-14.5-14-21.2l21.7-16.5c5.8,7.7,11.2,15.8,16,24.2L-784.3,178z M-819.2,133.4c-6.1-5.8-12.7-11.3-19.5-16.3l16.1-22
			c7.8,5.7,15.3,11.9,22.3,18.6L-819.2,133.4z M-865.5,100.7c-7.6-3.8-15.4-7.2-23.4-10l9-25.7c9.1,3.2,18.1,7,26.7,11.4
			L-865.5,100.7z M-919.3,82.8c-8.3-1.5-16.8-2.4-25.3-2.8l1.2-27.3c9.7,0.4,19.4,1.5,28.8,3.1L-919.3,82.8z"/>
	</g>
</g>
<g>
	<path class="st0" d="M-1126.7,403.4c-0.5,0-1,0-1.5-0.1c-0.5,0-1-0.1-1.5-0.2c-0.5-0.1-1-0.2-1.4-0.4c-0.5-0.1-0.9-0.3-1.4-0.5
		c-0.4-0.2-0.9-0.4-1.3-0.6c-0.4-0.2-0.9-0.5-1.3-0.8c-0.4-0.3-0.8-0.6-1.2-0.9c-0.4-0.3-0.8-0.6-1.1-1s-0.7-0.7-1-1.1
		c-0.3-0.4-0.6-0.8-0.9-1.2s-0.5-0.8-0.8-1.3c-0.2-0.4-0.4-0.9-0.6-1.3c-0.2-0.5-0.4-0.9-0.5-1.4c-0.2-0.5-0.3-1-0.4-1.4
		s-0.2-1-0.2-1.5c-0.1-0.5-0.1-1-0.1-1.5c0-0.5,0-1,0.1-1.5c0.1-0.5,0.1-1,0.2-1.5c0.1-0.5,0.2-1,0.4-1.4c0.1-0.5,0.3-0.9,0.5-1.4
		c0.2-0.5,0.4-0.9,0.6-1.4c0.2-0.4,0.5-0.9,0.8-1.3s0.6-0.8,0.9-1.2c0.3-0.4,0.7-0.8,1-1.1s0.7-0.7,1.1-1c0.4-0.3,0.8-0.6,1.2-0.9
		c0.4-0.3,0.8-0.5,1.3-0.8c0.4-0.2,0.9-0.4,1.3-0.6c0.5-0.2,0.9-0.4,1.4-0.5s0.9-0.3,1.4-0.4c0.5-0.1,1-0.2,1.5-0.2c1-0.1,2-0.1,3,0
		c0.5,0,1,0.1,1.5,0.2c0.5,0.1,1,0.2,1.4,0.4c0.5,0.1,0.9,0.3,1.4,0.5c0.4,0.2,0.9,0.4,1.3,0.6c0.4,0.2,0.9,0.5,1.3,0.8
		c0.4,0.3,0.8,0.6,1.2,0.9c0.4,0.3,0.8,0.6,1.1,1s0.7,0.7,1,1.1c0.3,0.4,0.6,0.8,0.9,1.2s0.5,0.8,0.8,1.3c0.2,0.4,0.4,0.9,0.6,1.4
		c0.2,0.5,0.4,0.9,0.5,1.4c0.2,0.5,0.3,1,0.4,1.4c0.1,0.5,0.2,1,0.2,1.5c0.1,0.5,0.1,1,0.1,1.5c0,0.5,0,1-0.1,1.5
		c-0.1,0.5-0.1,1-0.2,1.5s-0.2,1-0.4,1.4c-0.1,0.5-0.3,0.9-0.5,1.4c-0.2,0.5-0.4,0.9-0.6,1.3c-0.2,0.4-0.5,0.9-0.8,1.3
		s-0.6,0.8-0.9,1.2c-0.3,0.4-0.7,0.8-1,1.1s-0.7,0.7-1.1,1c-0.4,0.3-0.8,0.6-1.2,0.9c-0.4,0.3-0.8,0.5-1.3,0.8
		c-0.4,0.2-0.9,0.4-1.3,0.6c-0.5,0.2-0.9,0.4-1.4,0.5c-0.5,0.1-0.9,0.3-1.4,0.4c-0.5,0.1-1,0.2-1.5,0.2
		C-1125.7,403.4-1126.2,403.4-1126.7,403.4z"/>
</g>
<g>
	<g>
		<path class="st0" d="M-1162.2,351.7c-2.9-7.8,1.1-16.6,8.9-19.5l0,0c7.8-2.9,16.6,1.1,19.5,8.9l0,0c2.9,7.8-1.1,16.6-8.9,19.5l0,0
			c-1.7,0.6-3.5,1-5.3,1l0,0C-1154.1,361.5-1159.9,357.8-1162.2,351.7z M-1174.2,302.8c-1.1-8.3,4.8-15.9,13.1-17l0,0
			c8.3-1.1,15.9,4.8,17,13.1l0,0c1.1,8.3-4.8,15.9-13.1,17l0,0c-0.7,0.1-1.3,0.1-2,0.1l0,0C-1166.7,316-1173.2,310.4-1174.2,302.8z
			 M-1161.4,269c-8.3-0.8-14.4-8.2-13.6-16.5l0,0c0.8-8.3,8.2-14.4,16.5-13.6l0,0c8.3,0.8,14.4,8.2,13.6,16.5l0,0
			c-0.8,7.8-7.3,13.7-15.1,13.7l0,0C-1160.4,269.1-1160.9,269.1-1161.4,269z M-1155,222.4c-7.9-2.7-12.2-11.2-9.6-19.2l0,0
			c2.7-7.9,11.2-12.2,19.2-9.6l0,0c7.9,2.7,12.2,11.2,9.6,19.2l0,0c-2.1,6.3-8,10.3-14.4,10.3l0,0
			C-1151.8,223.2-1153.4,222.9-1155,222.4z M-1138.3,178.4c-7.1-4.4-9.4-13.7-5-20.8l0,0c4.4-7.1,13.7-9.4,20.8-5l0,0
			c7.1,4.4,9.4,13.7,5,20.8l0,0c-2.9,4.7-7.8,7.2-12.9,7.2l0,0C-1133.1,180.7-1135.8,179.9-1138.3,178.4z M-1112.1,139.4
			c-6-5.9-6.1-15.4-0.2-21.4l0,0c5.9-6,15.4-6.1,21.4-0.2l0,0c6,5.9,6.1,15.4,0.2,21.4l0,0c-3,3-6.9,4.6-10.8,4.6l0,0
			C-1105.3,143.7-1109.2,142.3-1112.1,139.4z M-1077.9,107.1c-4.5-7.1-2.5-16.4,4.6-20.9l0,0c7.1-4.5,16.4-2.5,20.9,4.6l0,0
			c4.5,7,2.5,16.4-4.6,20.9l0,0c-2.5,1.6-5.4,2.4-8.2,2.4l0,0C-1070.1,114.1-1075,111.6-1077.9,107.1z M-1037.3,83.3
			c-2.8-7.9,1.3-16.5,9.2-19.4l0,0l0,0l0,0c7.9-2.8,16.5,1.3,19.4,9.2l0,0c2.8,7.9-1.3,16.6-9.2,19.4l0,0c-1.7,0.6-3.4,0.9-5.1,0.9
			l0,0C-1029.3,93.4-1035.1,89.5-1037.3,83.3z"/>
	</g>
</g>
<g>
	<path class="st0" d="M-977.3,82.7c-0.5,0-1,0-1.5-0.1c-0.5-0.1-1-0.1-1.5-0.2c-0.5-0.1-1-0.2-1.4-0.4c-0.5-0.2-0.9-0.3-1.4-0.5
		c-0.5-0.2-0.9-0.4-1.3-0.6c-0.4-0.2-0.9-0.5-1.3-0.8c-0.4-0.3-0.8-0.6-1.2-0.9c-0.4-0.3-0.8-0.7-1.1-1s-0.7-0.7-1-1.1
		c-0.3-0.4-0.6-0.8-0.9-1.2c-0.3-0.4-0.5-0.8-0.8-1.3c-0.2-0.4-0.4-0.9-0.6-1.3c-0.2-0.4-0.3-0.9-0.5-1.4c-0.1-0.5-0.3-1-0.4-1.4
		c-0.1-0.5-0.2-1-0.2-1.5c0-0.5-0.1-1-0.1-1.5c0-0.5,0-1,0.1-1.5s0.1-1,0.2-1.5c0.1-0.5,0.2-1,0.4-1.4c0.2-0.5,0.3-0.9,0.5-1.4
		c0.2-0.5,0.4-0.9,0.6-1.3c0.2-0.4,0.5-0.9,0.8-1.3c0.3-0.4,0.6-0.8,0.9-1.2s0.7-0.8,1-1.1s0.7-0.7,1.1-1c0.4-0.3,0.8-0.6,1.2-0.9
		c0.4-0.3,0.8-0.5,1.3-0.8c0.4-0.2,0.9-0.4,1.3-0.6c0.5-0.2,0.9-0.4,1.4-0.5c0.5-0.2,1-0.3,1.4-0.4c0.5-0.1,1-0.2,1.5-0.2
		c1-0.1,2-0.1,3,0c0.5,0,1,0.1,1.5,0.2c0.5,0.1,1,0.2,1.4,0.4c0.5,0.1,0.9,0.3,1.4,0.5c0.5,0.2,0.9,0.4,1.3,0.6
		c0.4,0.2,0.9,0.5,1.3,0.8s0.8,0.6,1.2,0.9c0.4,0.3,0.8,0.7,1.1,1s0.7,0.7,1,1.1c0.3,0.4,0.6,0.8,0.9,1.2c0.3,0.4,0.5,0.8,0.8,1.3
		c0.2,0.4,0.4,0.9,0.6,1.3c0.2,0.5,0.4,0.9,0.5,1.4s0.3,1,0.4,1.4c0.1,0.5,0.2,1,0.2,1.5c0,0.5,0.1,1,0.1,1.5c0,0.5,0,1-0.1,1.5
		c0,0.5-0.1,1-0.2,1.5c-0.1,0.5-0.2,1-0.4,1.4c-0.1,0.5-0.3,0.9-0.5,1.4c-0.2,0.5-0.4,0.9-0.6,1.3c-0.2,0.4-0.5,0.9-0.8,1.3
		c-0.3,0.4-0.6,0.8-0.9,1.2c-0.3,0.4-0.7,0.8-1,1.1s-0.7,0.7-1.1,1s-0.8,0.6-1.2,0.9c-0.4,0.3-0.8,0.5-1.3,0.8
		c-0.4,0.2-0.9,0.4-1.3,0.6c-0.5,0.2-0.9,0.3-1.4,0.5c-0.5,0.1-1,0.3-1.4,0.4s-1,0.2-1.5,0.2C-976.3,82.7-976.8,82.7-977.3,82.7z"/>
</g>
<g>
	<g>
		<path class="st0" d="M-953.1,495.5c-57.3,0-111.6-21.8-153-61.5c-5.4-5.2-5.6-13.8-0.4-19.3c5.2-5.4,13.8-5.6,19.3-0.4
			c36.3,34.8,84,53.9,134.2,53.9s97.8-19.1,134.2-53.9c5.4-5.2,14.1-5,19.3,0.4s5,14.1-0.4,19.3
			C-841.5,473.6-895.8,495.5-953.1,495.5z"/>
	</g>
	<g>
		<path class="st1" d="M-953.1,445.9c-4.2,0-8.5-0.2-12.8-0.5l0.3-3.6c4.1,0.3,8.3,0.5,12.5,0.5c0,0,0,0,0,0h0.4v3.6L-953.1,445.9
			C-953,445.9-953.1,445.9-953.1,445.9z M-945.3,445.7l-0.2-3.6c4.3-0.2,8.6-0.6,12.9-1.1l0.5,3.6
			C-936.5,445.2-940.9,445.5-945.3,445.7z M-973.2,444.7c-4.3-0.5-8.7-1.2-13-2.1l0.7-3.6c4.2,0.8,8.5,1.5,12.8,2L-973.2,444.7z
			 M-924.9,443.6l-0.6-3.6c4.2-0.7,8.5-1.6,12.7-2.6l0.9,3.5C-916.2,442-920.6,442.9-924.9,443.6z M-904.9,439l-1-3.5
			c4.1-1.2,8.3-2.6,12.3-4.1l1.3,3.4C-896.5,436.3-900.7,437.8-904.9,439z M-885.5,432.1l-1.4-3.3c4-1.7,7.9-3.5,11.7-5.5l1.7,3.2
			C-877.5,428.5-881.5,430.4-885.5,432.1z M-867.2,422.9l-1.8-3.1c3.7-2.1,7.4-4.5,10.9-6.9l2.1,3
			C-859.6,418.3-863.4,420.7-867.2,422.9z M-850,411.6l-2.2-2.9c3.4-2.6,6.8-5.3,10-8.1l2.4,2.7C-843.1,406.1-846.5,408.9-850,411.6
			z M-834.4,398.3l-2.5-2.6c3.1-3,6.1-6.1,9-9.3l2.7,2.4C-828.1,392-831.2,395.2-834.4,398.3z M-820.4,383.2l-2.8-2.3
			c2.7-3.3,5.3-6.8,7.8-10.3l3,2.1C-815,376.3-817.6,379.8-820.4,383.2z M-808.4,366.6l-3.1-2c2.3-3.6,4.5-7.4,6.5-11.1l3.2,1.7
			C-803.8,359-806,362.9-808.4,366.6z M-798.3,348.6l-3.3-1.6c1.9-3.9,3.6-7.9,5.2-11.8l3.4,1.3
			C-794.7,340.6-796.5,344.7-798.3,348.6z M-790.5,329.7l-3.4-1.2c1.4-4,2.7-8.2,3.7-12.4l3.5,0.9
			C-787.8,321.3-789.1,325.5-790.5,329.7z M-785,309.9l-3.5-0.8c0.9-4.2,1.7-8.5,2.2-12.7l3.6,0.5
			C-783.3,301.2-784.1,305.6-785,309.9z M-781.9,289.6l-3.6-0.3c0.4-4.3,0.6-8.6,0.7-12.9l3.6,0
			C-781.3,280.8-781.5,285.2-781.9,289.6z M-784.9,269.2c-0.1-4.3-0.4-8.6-0.9-12.9l3.6-0.4c0.5,4.4,0.8,8.8,0.9,13.2L-784.9,269.2z
			 M-786.7,249.2c-0.6-4.1-1.4-8.3-2.3-12.4l3.5-0.8c1,4.2,1.8,8.4,2.4,12.6L-786.7,249.2z"/>
	</g>
</g>
<g>
	<path class="st1" d="M-792.9,219.1c-0.1,0-0.3,0-0.4,0c-0.1,0-0.3-0.1-0.4-0.1c-0.1-0.1-0.3-0.1-0.4-0.2c-0.1-0.1-0.2-0.2-0.3-0.3
		c-0.4-0.4-0.6-0.9-0.6-1.5s0.2-1.1,0.6-1.5c0.8-0.8,2.2-0.8,3,0c0.4,0.4,0.6,0.9,0.6,1.5s-0.2,1.1-0.6,1.5
		c-0.1,0.1-0.2,0.2-0.3,0.3c-0.1,0.1-0.2,0.1-0.4,0.2c-0.1,0.1-0.3,0.1-0.4,0.1C-792.6,219.1-792.7,219.1-792.9,219.1z"/>
</g>
<g>
	<g>
		<path class="st1" d="M-797.4,211L-797.4,211L-797.4,211c-0.4-1.1,0.1-2.3,1.2-2.8l0,0c1.1-0.4,2.3,0.1,2.8,1.2l0,0
			c0.4,1.1-0.1,2.3-1.2,2.8l0,0c-0.3,0.1-0.5,0.2-0.8,0.2l0,0C-796.3,212.3-797.1,211.8-797.4,211z M-800.2,204.4
			c-0.5-1.1,0-2.3,1-2.8l0,0c1.1-0.5,2.3,0,2.8,1.1l0,0c0.5,1.1,0,2.3-1,2.8l0,0c-0.3,0.1-0.6,0.2-0.9,0.2l0,0
			C-799.1,205.7-799.9,205.2-800.2,204.4z M-803.3,198c-0.5-1.1-0.1-2.3,0.9-2.9l0,0c1-0.5,2.3-0.1,2.8,0.9l0,0
			c0.5,1,0.1,2.3-0.9,2.9l0,0c-0.3,0.1-0.6,0.2-1,0.2l0,0C-802.2,199.1-803,198.7-803.3,198z M-806.7,191.6c-0.6-1-0.2-2.3,0.8-2.9
			l0,0c1-0.6,2.3-0.2,2.9,0.8l0,0c0.6,1,0.2,2.3-0.8,2.9l0,0c-0.3,0.2-0.7,0.3-1,0.3l0,0C-805.6,192.7-806.3,192.3-806.7,191.6z
			 M-810.4,185.5c-0.6-1-0.3-2.3,0.7-2.9l0,0c1-0.6,2.3-0.3,2.9,0.7l0,0c0.6,1,0.3,2.3-0.7,2.9l0,0c-0.3,0.2-0.7,0.3-1.1,0.3l0,0
			C-809.3,186.5-810,186.1-810.4,185.5z M-814.3,179.5c-0.7-1-0.4-2.3,0.6-2.9l0,0c1-0.7,2.3-0.4,3,0.6l0,0c0.7,1,0.4,2.3-0.6,2.9
			l0,0c-0.4,0.3-0.8,0.4-1.2,0.4l0,0C-813.2,180.4-813.9,180.1-814.3,179.5z M-818.5,173.6L-818.5,173.6L-818.5,173.6
			c-0.7-0.9-0.5-2.3,0.4-3l0,0c0.9-0.7,2.3-0.5,3,0.4l0,0c0.7,0.9,0.5,2.3-0.4,3l0,0c-0.4,0.3-0.8,0.4-1.3,0.4l0,0
			C-817.4,174.5-818,174.2-818.5,173.6z M-822.9,168L-822.9,168L-822.9,168c-0.7-0.9-0.6-2.3,0.3-3l0,0c0.9-0.7,2.2-0.6,3,0.3l0,0
			c0.7,0.9,0.6,2.3-0.3,3l0,0c-0.4,0.3-0.9,0.5-1.3,0.5l0,0C-821.8,168.8-822.5,168.5-822.9,168z M-827.5,162.5
			c-0.8-0.9-0.7-2.2,0.2-3l0,0c0.9-0.8,2.2-0.7,3,0.2l0,0c0.8,0.9,0.7,2.2-0.2,3l0,0c-0.4,0.4-0.9,0.5-1.4,0.5l0,0
			C-826.5,163.2-827.1,163-827.5,162.5z M-832.4,157.3c-0.8-0.8-0.8-2.2,0-3l0,0c0.8-0.8,2.2-0.8,3,0l0,0c0.8,0.8,0.8,2.2,0,3l0,0
			c-0.4,0.4-1,0.6-1.5,0.6l0,0C-831.4,157.9-832,157.7-832.4,157.3z M-837.5,152.2L-837.5,152.2L-837.5,152.2
			c-0.8-0.8-0.9-2.1-0.1-3l0,0c0.8-0.9,2.2-0.9,3-0.1l0,0c0.8,0.8,0.9,2.1,0.1,3l0,0c-0.4,0.4-1,0.7-1.5,0.7l0,0
			C-836.6,152.8-837.1,152.6-837.5,152.2z M-842.8,147.4c-0.9-0.8-1-2.1-0.2-3l0,0c0.8-0.9,2.1-1,3-0.2l0,0c0.9,0.8,1,2.1,0.2,3l0,0
			c-0.4,0.5-1,0.7-1.6,0.7l0,0C-841.9,147.9-842.4,147.8-842.8,147.4z M-1063.2,144.3c-0.8-0.9-0.6-2.2,0.3-3l0,0
			c0.9-0.8,2.2-0.6,3,0.3l0,0c0.7,0.9,0.6,2.2-0.3,3l0,0l0,0l0,0c-0.4,0.3-0.9,0.5-1.4,0.5l0,0
			C-1062.1,145.1-1062.7,144.9-1063.2,144.3z M-848.3,142.8c-0.9-0.7-1.1-2.1-0.3-3l0,0c0.7-0.9,2.1-1.1,3-0.3l0,0
			c0.9,0.7,1.1,2.1,0.3,3l0,0c-0.4,0.5-1,0.8-1.7,0.8l0,0C-847.5,143.3-847.9,143.1-848.3,142.8z M-1057.5,139.8
			c-0.7-0.9-0.5-2.3,0.4-3l0,0c0.9-0.7,2.3-0.5,3,0.4l0,0c0.7,0.9,0.5,2.3-0.4,3l0,0l0,0l0,0c-0.4,0.3-0.8,0.4-1.3,0.4l0,0
			C-1056.5,140.6-1057.1,140.3-1057.5,139.8z M-854,138.5C-854,138.5-854,138.5-854,138.5L-854,138.5c-1-0.7-1.2-2-0.5-3l0,0
			c0.7-0.9,2-1.1,3-0.5l0,0c1,0.7,1.2,2,0.5,3l0,0c-0.4,0.6-1.1,0.9-1.7,0.9l0,0C-853.2,138.9-853.7,138.8-854,138.5z
			 M-1051.7,135.4c-0.7-1-0.4-2.3,0.5-2.9l0,0c1-0.7,2.3-0.4,2.9,0.5l0,0c0.7,1,0.4,2.3-0.5,2.9l0,0c-0.4,0.3-0.8,0.4-1.2,0.4l0,0
			C-1050.6,136.3-1051.3,136-1051.7,135.4z M-859.9,134.4c-1-0.6-1.2-2-0.6-2.9l0,0c0.7-1,2-1.2,2.9-0.6l0,0c1,0.6,1.2,2,0.6,2.9
			l0,0c-0.4,0.6-1.1,0.9-1.8,0.9l0,0C-859.1,134.7-859.5,134.6-859.9,134.4z M-1045.7,131.3c-0.6-1-0.3-2.3,0.7-2.9l0,0
			c1-0.6,2.3-0.3,2.9,0.7l0,0c0.6,1,0.3,2.3-0.7,2.9l0,0c-0.3,0.2-0.7,0.3-1.1,0.3l0,0C-1044.6,132.3-1045.3,132-1045.7,131.3z
			 M-866,130.5L-866,130.5L-866,130.5c-1-0.6-1.3-1.9-0.7-2.9l0,0c0.6-1,1.9-1.3,2.9-0.7h0c1,0.6,1.3,1.9,0.7,2.9l0,0
			c-0.4,0.7-1.1,1-1.8,1l0,0C-865.2,130.8-865.6,130.7-866,130.5z M-1039.5,127.5c-0.6-1-0.2-2.3,0.8-2.9l0,0c1-0.6,2.3-0.2,2.9,0.8
			l0,0c0.6,1,0.2,2.3-0.8,2.9l0,0c-0.3,0.2-0.7,0.3-1.1,0.3l0,0C-1038.4,128.6-1039.2,128.2-1039.5,127.5z M-872.2,126.9
			c-1-0.6-1.4-1.9-0.8-2.9l0,0c0.6-1,1.9-1.4,2.9-0.8l0,0c1,0.6,1.4,1.9,0.8,2.9l0,0c-0.4,0.7-1.1,1.1-1.9,1.1l0,0
			C-871.5,127.2-871.8,127.1-872.2,126.9z M-1033.2,123.9c-0.5-1-0.1-2.3,0.9-2.8l0,0c1-0.5,2.3-0.1,2.9,0.9l0,0
			c0.5,1,0.1,2.3-0.9,2.8l0,0c-0.3,0.2-0.6,0.2-1,0.2l0,0C-1032.1,125.1-1032.8,124.7-1033.2,123.9z M-878.5,123.6L-878.5,123.6
			L-878.5,123.6c-1-0.5-1.5-1.8-1-2.8l0,0c0.5-1.1,1.8-1.5,2.8-0.9l0,0c1,0.5,1.5,1.8,1,2.8l0,0c-0.4,0.8-1.1,1.2-1.9,1.2l0,0
			C-877.9,123.8-878.2,123.8-878.5,123.6z M-1026.7,120.7c-0.5-1.1,0-2.3,1-2.8l0,0c1.1-0.5,2.3,0,2.8,1l0,0c0.5,1.1,0,2.3-1,2.8
			l0,0c-0.3,0.1-0.6,0.2-0.9,0.2l0,0C-1025.6,121.9-1026.4,121.4-1026.7,120.7z M-885,120.6c-1.1-0.5-1.5-1.7-1.1-2.8l0,0
			c0.5-1.1,1.7-1.6,2.8-1.1l0,0c1.1,0.5,1.6,1.7,1.1,2.8l0,0c-0.3,0.8-1.1,1.3-1.9,1.3l0,0C-884.4,120.8-884.7,120.7-885,120.6z
			 M-1020.1,117.7c-0.5-1.1,0.1-2.3,1.2-2.8l0,0c1.1-0.4,2.3,0.1,2.8,1.2l0,0c0.5,1.1-0.1,2.3-1.2,2.8l0,0l0,0l0,0
			c-0.3,0.1-0.5,0.2-0.8,0.2l0,0C-1019,119-1019.8,118.5-1020.1,117.7z M-891.6,117.8c-1.1-0.4-1.6-1.7-1.2-2.8l0,0
			c0.4-1.1,1.7-1.6,2.8-1.2l0,0c1.1,0.4,1.6,1.7,1.2,2.8l0,0c-0.3,0.8-1.1,1.3-2,1.3l0,0C-891.1,117.9-891.3,117.9-891.6,117.8z
			 M-1013.4,115c-0.4-1.1,0.2-2.3,1.3-2.7v0c1.1-0.4,2.3,0.2,2.7,1.3l0,0c0.4,1.1-0.2,2.3-1.3,2.7l0,0l0,0l0,0
			c-0.2,0.1-0.5,0.1-0.7,0.1l0,0C-1012.3,116.4-1013.1,115.8-1013.4,115z M-898.3,115.3c-1.1-0.4-1.7-1.6-1.3-2.7l0,0
			c0.4-1.1,1.6-1.7,2.7-1.3l0,0c1.1,0.4,1.7,1.6,1.3,2.7l0,0c-0.3,0.9-1.1,1.4-2,1.4l0,0C-897.8,115.4-898.1,115.4-898.3,115.3z
			 M-1006.5,112.5c-0.4-1.1,0.3-2.3,1.4-2.7l0,0c1.1-0.4,2.3,0.3,2.7,1.4l0,0c0.4,1.1-0.3,2.3-1.4,2.7l0,0c-0.2,0.1-0.4,0.1-0.6,0.1
			l0,0C-1005.4,114-1006.3,113.4-1006.5,112.5z M-905.1,113.1c-1.1-0.3-1.8-1.5-1.4-2.6l0,0c0.3-1.1,1.5-1.8,2.6-1.4l0,0
			c1.1,0.3,1.8,1.5,1.4,2.6l0,0c-0.3,0.9-1.1,1.5-2,1.5l0,0C-904.7,113.2-904.9,113.2-905.1,113.1z M-999.6,110.4
			c-0.3-1.1,0.4-2.3,1.5-2.6l0,0c1.1-0.3,2.3,0.4,2.6,1.5l0,0c0.3,1.1-0.4,2.3-1.5,2.6l0,0c-0.2,0.1-0.4,0.1-0.6,0.1l0,0
			C-998.5,112-999.4,111.3-999.6,110.4z M-912,111.2c-1.1-0.3-1.8-1.4-1.5-2.6l0,0c0.3-1.1,1.4-1.8,2.6-1.5l0,0
			c1.1,0.3,1.8,1.4,1.5,2.6l0,0c-0.2,1-1.1,1.6-2,1.6l0,0C-911.7,111.3-911.8,111.2-912,111.2z M-992.6,108.6
			c-0.3-1.1,0.5-2.3,1.6-2.5l0,0c1.2-0.3,2.3,0.5,2.5,1.6l0,0c0.3,1.2-0.5,2.3-1.6,2.5l0,0c-0.2,0-0.3,0.1-0.5,0.1l0,0
			C-991.5,110.2-992.4,109.6-992.6,108.6z M-919,109.6c-1.2-0.2-1.9-1.4-1.6-2.5l0,0c0.2-1.2,1.4-1.9,2.5-1.7l0,0
			c1.1,0.2,1.9,1.4,1.6,2.5l0,0c-0.2,1-1.1,1.7-2.1,1.7l0,0C-918.7,109.6-918.8,109.6-919,109.6z M-985.5,107
			c-0.2-1.2,0.5-2.3,1.7-2.5l0,0c1.2-0.2,2.3,0.6,2.5,1.7l0,0c0.2,1.2-0.6,2.3-1.7,2.5l0,0c-0.1,0-0.3,0-0.4,0l0,0
			C-984.4,108.8-985.3,108.1-985.5,107z M-926,108.3L-926,108.3L-926,108.3c-1.2-0.2-1.9-1.3-1.7-2.4l0,0c0.2-1.2,1.3-1.9,2.4-1.7
			l0,0c1.2,0.2,1.9,1.3,1.8,2.4l0,0c-0.2,1-1.1,1.8-2.1,1.8l0,0C-925.8,108.3-925.9,108.3-926,108.3z M-978.4,105.8
			c-0.2-1.2,0.7-2.2,1.8-2.4l0,0c1.2-0.2,2.2,0.7,2.4,1.8l0,0c0.2,1.2-0.7,2.2-1.8,2.4l0,0l0,0l0,0c-0.1,0-0.2,0-0.3,0l0,0
			C-977.3,107.6-978.2,106.9-978.4,105.8z M-933.1,107.3c-1.2-0.1-2-1.2-1.8-2.4l0,0c0.1-1.2,1.2-2,2.4-1.8l0,0
			c1.2,0.1,2,1.2,1.8,2.4l0,0c-0.1,1.1-1,1.9-2.1,1.9l0,0C-933,107.3-933,107.3-933.1,107.3z M-971.2,104.9
			c-0.1-1.2,0.8-2.2,1.9-2.3l0,0c1.2-0.1,2.2,0.7,2.3,1.9l0,0c0.1,1.2-0.7,2.2-1.9,2.3l0,0c-0.1,0-0.1,0-0.2,0l0,0
			C-970.1,106.8-971.1,106-971.2,104.9z M-940.2,106.5L-940.2,106.5L-940.2,106.5c-1.2-0.1-2-1.1-2-2.3l0,0c0.1-1.2,1.1-2,2.3-1.9
			l0,0c1.2,0.1,2,1.1,2,2.3l0,0c-0.1,1.1-1,2-2.1,2l0,0C-940.1,106.6-940.2,106.5-940.2,106.5z M-963.9,104.3
			c-0.1-1.2,0.8-2.2,2-2.2l0,0c1.2-0.1,2.2,0.8,2.2,2l0,0c0.1,1.2-0.8,2.2-2,2.2l0,0l0,0l0,0c0,0-0.1,0-0.1,0l0,0
			C-962.9,106.3-963.9,105.4-963.9,104.3z M-947.4,106.1c-1.2,0-2.1-1-2-2.2l0,0c0-1.2,1-2.1,2.2-2.1l0,0c1.2,0,2.1,1,2,2.2l0,0
			C-945.2,105.2-946.2,106.1-947.4,106.1L-947.4,106.1C-947.3,106.1-947.3,106.1-947.4,106.1z M-954.5,106c-1.2,0-2.1-0.9-2.1-2.1
			l0,0c0-1.2,0.9-2.1,2.1-2.1l0,0c1.2,0,2.1,0.9,2.1,2.1l0,0C-952.4,105.1-953.4,106-954.5,106L-954.5,106
			C-954.5,106.1-954.5,106.1-954.5,106z"/>
	</g>
</g>
<g>
	<path class="st1" d="M-1067,149.9c-0.6,0-1.1-0.2-1.5-0.6c-0.4-0.4-0.6-0.9-0.6-1.5s0.2-1.1,0.6-1.5c0.8-0.8,2.2-0.8,3,0
		c0.4,0.4,0.6,0.9,0.6,1.5s-0.2,1.1-0.6,1.5C-1065.9,149.6-1066.5,149.9-1067,149.9z"/>
</g>
<g>
	<g>
		<path class="st1" d="M-1004.9,437.8c-0.2,0-0.4,0-0.6-0.1c-55.1-17.7-97.4-61.4-113.1-116.8s-2.7-114.8,34.9-158.8
			c0.7-0.8,1.9-0.9,2.7-0.2s0.9,1.9,0.2,2.7c-36.8,43-49.5,101.1-34.2,155.3c15.4,54.2,56.7,96.9,110.6,114.2c1,0.3,1.5,1.4,1.2,2.4
			C-1003.3,437.3-1004.1,437.8-1004.9,437.8z"/>
	</g>
</g>
<g>
	<line class="st2" x1="26" y1="159.9" x2="26" y2="159.9"/>
	<g>
		<g>
			<path class="st3" d="M23.1,166.6C-33,297.3,21.3,451.3,149.8,517c39.5,20.2,81.7,29.8,123.3,29.8"/>
		</g>
	</g>
	<path class="st4" d="M497.8,118.1C473,82.4,439.4,52.2,398,31C266.8-36,106,13.8,35.2,141.8"/>
	<path class="st5" d="M508.6,135.1c45.9,77.8,52.4,176.8,8.3,263.1s-128.1,139-218,147.4"/>
	<line class="st2" x1="276.7" y1="546.8" x2="276.7" y2="546.8"/>
</g>
<g>
	<line class="st2" x1="381.3" y1="51.3" x2="381.3" y2="51.3"/>
	<g>
		<g>
			<path class="st6" d="M387.8,54.6c32,16.6,60.8,40.4,83.9,71.2c78.9,105.2,61.1,252.9-38,336.7"/>
		</g>
		<line class="st2" x1="430.9" y1="464.9" x2="430.9" y2="464.9"/>
		<g>
			<path class="st7" d="M414.7,477.1C306,552.6,156.1,529,76.1,422.2c-25.1-33.4-40.4-71.1-46.4-109.7"/>
			<path class="st5" d="M361.1,42.8c-76.4-28.7-165.3-19.1-235.4,33.4C55.6,128.8,21.4,211.4,27.5,292.8"/>
		</g>
	</g>
</g>
<g>
	<g>
		<path class="st8" d="M283,66.4c110.6,4.8,198.7,95.9,198.7,207.6c0,47.6-16,91.5-42.9,126.5"/>
	</g>
	<line class="st9" x1="100.3" y1="388.2" x2="100.3" y2="388.2"/>
	<g>
		<path class="st10" d="M79,346.4c-8.4-22.5-12.9-46.9-12.9-72.4c0-98.5,68.5-181,160.5-202.4"/>
	</g>
	<line class="st9" x1="249.7" y1="67.6" x2="249.7" y2="67.6"/>
	<g>
		<path class="st11" d="M130.3,424.2c37.3,35.7,87.9,57.7,143.6,57.7s106.3-22,143.6-57.7"/>
	</g>
</g>
<g>
	<line class="st2" x1="434.1" y1="217" x2="434.1" y2="217"/>
	<g>
		<path class="st12" d="M431.6,210.2c-32.1-79.4-119.8-123.7-204.1-99.8c-24.7,7-46.6,19.2-64.8,35"/>
	</g>
	<line class="st2" x1="160" y1="147.8" x2="160" y2="147.8"/>
	<g>
		<path class="st5" d="M222.1,435.9c-52.4-16.8-95.7-58.7-111.8-115.5s-1.2-115.2,34.5-157"/>
	</g>
	<path class="st13" d="M241.2,440.9c25.5,5,52.5,4.3,79.1-3.3c87.3-24.8,139.3-113.8,119.5-201.2"/>
</g>
<circle class="st14" cx="273.9" cy="273.7" r="168.2"/>
</svg>
