<?xml version="1.0" encoding="utf-8"?>
<!-- Generator: Adobe Illustrator 24.1.0, SVG Export Plug-In . SVG Version: 6.00 Build 0)  -->
<svg version="1.1" id="Layer_1" xmlns="http://www.w3.org/2000/svg" xmlns:xlink="http://www.w3.org/1999/xlink" x="0px" y="0px"
	 viewBox="0 0 549.45 549.45" style="enable-background:new 0 0 549.45 549.45;" xml:space="preserve">
<style type="text/css">
	.st0{fill:#008556;}
	.st1{fill:#005745;}
	.st2{fill:none;stroke:#005745;stroke-width:4.242;stroke-linecap:round;stroke-miterlimit:10;}
	.st3{fill:none;stroke:#005745;stroke-width:4.242;stroke-linecap:round;stroke-miterlimit:10;stroke-dasharray:0,7.32;}
	.st4{fill:none;stroke:#005745;stroke-width:3.636;stroke-miterlimit:10;stroke-dasharray:13.059,6.969;}
	.st5{fill:none;stroke:#005745;stroke-width:3.771;stroke-linecap:round;stroke-miterlimit:10;}
	.st6{fill:none;stroke:#005745;stroke-width:4.242;stroke-linecap:round;stroke-miterlimit:10;stroke-dasharray:0,7.283;}
	.st7{fill:none;stroke:#005745;stroke-width:3.636;stroke-miterlimit:10;stroke-dasharray:13.029,7.245;}
	.st8{fill:none;stroke:#008556;stroke-width:27.27;stroke-linejoin:round;stroke-dasharray:27.27,33.633;}
	.st9{fill:none;stroke:#008556;stroke-width:30.3;stroke-linecap:round;stroke-linejoin:round;}
	.st10{fill:none;stroke:#008556;stroke-width:30.3;stroke-linecap:round;stroke-linejoin:round;stroke-dasharray:0,47.017;}
	.st11{fill:none;stroke:#008556;stroke-width:27.27;stroke-linecap:round;stroke-miterlimit:10;}
	.st12{fill:none;stroke:#005745;stroke-width:4.242;stroke-linecap:round;stroke-miterlimit:10;stroke-dasharray:0,7.257;}
	.st13{fill:none;stroke:#005745;stroke-width:3.636;stroke-miterlimit:10;stroke-dasharray:13.059,7.272;}
</style>
<g>
	<g>
		<path class="st0" d="M-777.39,408.81l-21.62-16.61c5.14-6.69,9.89-13.79,14.11-21.08l23.6,13.66
			C-766.12,393.09-771.53,401.18-777.39,408.81z M-745.94,352.43l-25.5-9.66c3-7.91,5.5-16.1,7.42-24.34l26.55,6.21
			C-739.67,334.05-742.52,343.4-745.94,352.43z M-732.16,289.23l-27.21-1.85c0.3-4.42,0.45-8.92,0.45-13.38
			c0-4.03-0.12-8.1-0.37-12.11l27.22-1.68c0.28,4.57,0.42,9.21,0.42,13.79C-731.65,279.08-731.82,284.2-732.16,289.23z
			 M-763.73,230.83c-1.87-8.25-4.31-16.45-7.26-24.38l25.57-9.49c3.36,9.05,6.15,18.42,8.29,27.84L-763.73,230.83z M-784.25,178.03
			c-4.18-7.34-8.9-14.49-14.02-21.24l21.73-16.48c5.84,7.69,11.21,15.84,15.99,24.22L-784.25,178.03z M-819.2,133.38
			c-6.13-5.84-12.71-11.34-19.55-16.33l16.08-22.03c7.79,5.69,15.29,11.95,22.28,18.61L-819.2,133.38z M-865.51,100.65
			c-7.56-3.83-15.44-7.18-23.42-9.98l9.01-25.74c9.11,3.19,18.11,7.02,26.73,11.39L-865.51,100.65z M-919.29,82.76
			c-8.31-1.46-16.83-2.38-25.31-2.75l1.17-27.25c9.67,0.42,19.38,1.47,28.85,3.14L-919.29,82.76z"/>
	</g>
</g>
<g>
	<path class="st0" d="M-1126.74,403.38c-0.49,0-0.99-0.02-1.49-0.07c-0.49-0.05-0.98-0.13-1.47-0.23c-0.48-0.09-0.96-0.21-1.43-0.36
		c-0.47-0.14-0.94-0.31-1.4-0.5c-0.45-0.19-0.91-0.4-1.34-0.63c-0.44-0.23-0.86-0.49-1.27-0.76c-0.42-0.28-0.82-0.57-1.2-0.89
		c-0.39-0.31-0.76-0.65-1.11-1s-0.68-0.72-1-1.1c-0.31-0.38-0.61-0.79-0.88-1.2s-0.53-0.84-0.76-1.27
		c-0.23-0.44-0.45-0.89-0.63-1.34c-0.19-0.46-0.36-0.93-0.5-1.4c-0.15-0.47-0.27-0.96-0.37-1.44c-0.1-0.48-0.17-0.98-0.22-1.47
		c-0.05-0.49-0.08-0.99-0.08-1.49c0-0.49,0.03-0.99,0.08-1.49c0.05-0.49,0.12-0.98,0.22-1.47c0.1-0.48,0.22-0.97,0.37-1.44
		c0.14-0.47,0.31-0.94,0.5-1.39c0.18-0.46,0.4-0.91,0.63-1.35c0.23-0.43,0.49-0.86,0.76-1.27s0.57-0.81,0.88-1.2
		c0.32-0.38,0.65-0.75,1-1.1c0.35-0.35,0.72-0.69,1.11-1c0.38-0.31,0.78-0.61,1.19-0.89c0.41-0.27,0.84-0.52,1.28-0.76
		c0.43-0.23,0.89-0.44,1.34-0.63c0.46-0.19,0.93-0.36,1.4-0.5c0.47-0.14,0.95-0.27,1.43-0.36c0.49-0.1,0.98-0.18,1.47-0.23
		c0.99-0.1,2-0.1,2.98,0c0.5,0.05,0.99,0.13,1.48,0.23c0.48,0.09,0.96,0.22,1.43,0.36c0.47,0.14,0.94,0.31,1.4,0.5
		c0.45,0.19,0.91,0.4,1.34,0.63c0.44,0.24,0.87,0.49,1.27,0.76c0.42,0.28,0.82,0.58,1.2,0.89c0.39,0.31,0.76,0.65,1.11,1
		c0.35,0.35,0.68,0.72,1,1.1c0.31,0.39,0.61,0.79,0.88,1.2s0.53,0.84,0.76,1.27c0.23,0.44,0.45,0.89,0.63,1.35
		c0.19,0.45,0.36,0.92,0.5,1.39c0.15,0.47,0.27,0.96,0.37,1.44c0.1,0.49,0.17,0.98,0.22,1.47c0.05,0.5,0.08,1,0.08,1.49
		c0,0.5-0.03,1-0.08,1.49c-0.05,0.49-0.12,0.99-0.22,1.47c-0.1,0.48-0.22,0.97-0.37,1.44c-0.14,0.47-0.31,0.94-0.5,1.4
		c-0.18,0.45-0.4,0.9-0.63,1.34c-0.23,0.43-0.49,0.86-0.76,1.27s-0.57,0.82-0.88,1.2c-0.32,0.38-0.65,0.75-1,1.1
		c-0.35,0.35-0.72,0.69-1.11,1c-0.38,0.32-0.78,0.61-1.2,0.89c-0.4,0.27-0.83,0.53-1.27,0.76c-0.43,0.23-0.89,0.44-1.34,0.63
		c-0.46,0.19-0.93,0.36-1.4,0.5c-0.47,0.15-0.95,0.27-1.43,0.36c-0.49,0.1-0.98,0.18-1.48,0.23
		C-1125.74,403.36-1126.24,403.38-1126.74,403.38z"/>
</g>
<g>
	<g>
		<path class="st0" d="M-1162.16,351.66c-2.92-7.84,1.08-16.56,8.92-19.48l0,0c7.84-2.91,16.56,1.08,19.48,8.93l0,0
			c2.91,7.84-1.08,16.56-8.93,19.48l0,0c-1.74,0.64-3.52,0.95-5.27,0.95l0,0C-1154.11,361.54-1159.9,357.77-1162.16,351.66z
			 M-1174.23,302.78c-1.07-8.3,4.79-15.9,13.09-16.97l0,0c8.3-1.07,15.9,4.79,16.97,13.09l0,0c1.07,8.3-4.79,15.89-13.09,16.96l0,0
			c-0.66,0.09-1.31,0.13-1.96,0.13l0,0C-1166.72,315.99-1173.24,310.42-1174.23,302.78z M-1161.4,269.01
			c-8.33-0.8-14.44-8.2-13.64-16.52l0,0c0.8-8.33,8.2-14.44,16.53-13.64l0,0c8.33,0.8,14.43,8.2,13.63,16.53l0,0
			c-0.75,7.83-7.35,13.7-15.06,13.7l0,0C-1160.43,269.08-1160.91,269.06-1161.4,269.01z M-1155.03,222.4
			c-7.94-2.66-12.22-11.24-9.56-19.18l0,0c2.65-7.93,11.24-12.21,19.17-9.56l0,0c7.94,2.66,12.22,11.24,9.56,19.18l0,0
			c-2.12,6.34-8.03,10.34-14.36,10.34l0,0C-1151.82,223.18-1153.44,222.93-1155.03,222.4z M-1138.31,178.43
			c-7.13-4.37-9.37-13.7-4.99-20.83l0,0c4.37-7.14,13.7-9.37,20.83-5l0,0c7.14,4.38,9.37,13.7,5,20.83l0,0
			c-2.86,4.67-7.84,7.24-12.93,7.24l0,0C-1133.1,180.67-1135.84,179.95-1138.31,178.43z M-1112.12,139.36
			c-5.98-5.86-6.07-15.45-0.22-21.43l0,0c5.86-5.97,15.45-6.07,21.43-0.21l0,0c5.97,5.86,6.07,15.45,0.21,21.42l0,0
			c-2.96,3.03-6.89,4.55-10.82,4.55l0,0C-1105.34,143.69-1109.17,142.25-1112.12,139.36z M-1077.88,107.12
			c-4.52-7.05-2.47-16.42,4.57-20.94l0,0c7.05-4.51,16.42-2.46,20.93,4.58l0,0c4.52,7.04,2.47,16.41-4.57,20.93l0,0
			c-2.53,1.62-5.37,2.4-8.17,2.4l0,0C-1070.1,114.09-1074.99,111.63-1077.88,107.12z M-1037.31,83.35
			c-2.82-7.88,1.29-16.55,9.17-19.37l0,0l0,0l0,0c7.87-2.81,16.54,1.29,19.36,9.17l0,0c2.82,7.88-1.29,16.55-9.17,19.37l0,0
			c-1.68,0.6-3.4,0.88-5.09,0.88l0,0C-1029.27,93.4-1035.1,89.54-1037.31,83.35z"/>
	</g>
</g>
<g>
	<path class="st0" d="M-977.28,82.73c-0.49,0-0.99-0.03-1.49-0.08c-0.49-0.05-0.98-0.12-1.47-0.22c-0.48-0.1-0.97-0.22-1.44-0.36
		c-0.47-0.15-0.94-0.32-1.39-0.5c-0.46-0.19-0.91-0.41-1.35-0.64c-0.43-0.23-0.86-0.48-1.27-0.76c-0.41-0.27-0.81-0.57-1.2-0.88
		c-0.38-0.31-0.75-0.65-1.1-1c-0.35-0.35-0.69-0.72-1-1.11c-0.31-0.38-0.61-0.78-0.89-1.19c-0.27-0.41-0.52-0.84-0.76-1.28
		c-0.23-0.43-0.44-0.88-0.63-1.34c-0.19-0.45-0.35-0.92-0.5-1.39c-0.14-0.48-0.27-0.96-0.36-1.44c-0.1-0.49-0.17-0.98-0.22-1.47
		c-0.05-0.5-0.08-1-0.08-1.49c0-0.5,0.03-1,0.08-1.49c0.05-0.49,0.12-0.99,0.22-1.47c0.09-0.49,0.22-0.97,0.36-1.44
		c0.15-0.47,0.31-0.94,0.5-1.4c0.19-0.45,0.4-0.9,0.63-1.34c0.24-0.43,0.49-0.86,0.76-1.27c0.28-0.42,0.58-0.82,0.89-1.2
		c0.31-0.38,0.65-0.76,1-1.11s0.72-0.68,1.1-1c0.39-0.31,0.79-0.61,1.2-0.88c0.41-0.27,0.84-0.53,1.27-0.76
		c0.44-0.23,0.89-0.44,1.35-0.63c0.45-0.19,0.92-0.36,1.39-0.5c0.47-0.15,0.96-0.27,1.44-0.37c0.49-0.09,0.98-0.17,1.47-0.22
		c0.99-0.1,1.99-0.1,2.98,0c0.49,0.05,0.99,0.13,1.47,0.22c0.48,0.1,0.97,0.22,1.44,0.37c0.47,0.14,0.94,0.31,1.4,0.5
		c0.45,0.19,0.9,0.4,1.34,0.63c0.43,0.23,0.86,0.49,1.27,0.76s0.82,0.57,1.2,0.88c0.38,0.32,0.75,0.65,1.1,1s0.69,0.73,1,1.11
		c0.32,0.38,0.61,0.78,0.89,1.2c0.27,0.41,0.53,0.84,0.76,1.27c0.23,0.44,0.44,0.89,0.63,1.34c0.19,0.46,0.36,0.93,0.5,1.4
		c0.14,0.47,0.27,0.95,0.36,1.44c0.1,0.48,0.18,0.98,0.23,1.47c0.04,0.49,0.07,0.99,0.07,1.49c0,0.49-0.03,0.99-0.07,1.49
		c-0.05,0.49-0.13,0.98-0.23,1.47c-0.09,0.48-0.22,0.96-0.36,1.44c-0.14,0.47-0.31,0.94-0.5,1.39c-0.19,0.46-0.4,0.91-0.63,1.34
		c-0.23,0.44-0.49,0.87-0.76,1.28c-0.28,0.41-0.57,0.81-0.89,1.19c-0.31,0.39-0.65,0.76-1,1.11c-0.35,0.35-0.72,0.69-1.1,1
		c-0.38,0.31-0.79,0.61-1.2,0.88c-0.41,0.28-0.84,0.53-1.27,0.76c-0.44,0.23-0.89,0.45-1.34,0.64c-0.46,0.18-0.93,0.35-1.4,0.5
		c-0.47,0.14-0.96,0.26-1.44,0.36c-0.48,0.1-0.98,0.17-1.47,0.22C-976.28,82.7-976.78,82.73-977.28,82.73z"/>
</g>
<g>
	<g>
		<path class="st0" d="M-953.1,495.46c-57.25,0-111.59-21.82-153.01-61.45c-5.44-5.21-5.63-13.84-0.43-19.28
			c5.21-5.44,13.84-5.63,19.28-0.43c36.32,34.75,83.97,53.88,134.16,53.88s97.84-19.14,134.17-53.88
			c5.44-5.21,14.07-5.01,19.28,0.43c5.21,5.44,5.01,14.07-0.43,19.28C-841.51,473.63-895.85,495.46-953.1,495.46z"/>
	</g>
	<g>
		<path class="st1" d="M-953.08,445.9c-4.24,0-8.54-0.16-12.77-0.48l0.27-3.62c4.14,0.31,8.35,0.47,12.5,0.47c0.01,0,0.03,0,0.04,0
			h0.38v3.64h-0.38C-953.05,445.9-953.06,445.9-953.08,445.9z M-945.31,445.73l-0.17-3.63c4.28-0.19,8.61-0.56,12.87-1.08l0.45,3.61
			C-936.52,445.16-940.94,445.53-945.31,445.73z M-973.16,444.71c-4.34-0.52-8.73-1.21-13.03-2.06l0.71-3.57
			c4.21,0.83,8.51,1.51,12.76,2.02L-973.16,444.71z M-924.89,443.56l-0.6-3.59c4.22-0.7,8.47-1.58,12.65-2.61l0.87,3.53
			C-916.24,441.95-920.58,442.85-924.89,443.56z M-904.88,438.98l-1.02-3.49c4.13-1.21,8.25-2.58,12.25-4.09l1.28,3.4
			C-896.45,436.34-900.66,437.75-904.88,438.98z M-885.55,432.07l-1.43-3.34c3.95-1.68,7.88-3.54,11.67-5.52l1.68,3.22
			C-877.5,428.45-881.51,430.35-885.55,432.07z M-867.18,422.89l-1.82-3.15c3.71-2.14,7.38-4.46,10.93-6.89l2.06,3
			C-859.63,418.34-863.39,420.71-867.18,422.89z M-850.03,411.56l-2.18-2.91c3.42-2.57,6.8-5.31,10.02-8.15l2.4,2.73
			C-843.09,406.14-846.53,408.94-850.03,411.56z M-834.38,398.26l-2.52-2.62c3.09-2.97,6.11-6.09,8.97-9.29l2.71,2.42
			C-828.13,392.04-831.21,395.23-834.38,398.26z M-820.42,383.19l-2.81-2.31c2.72-3.32,5.35-6.78,7.81-10.29l2.98,2.08
			C-814.96,376.27-817.64,379.8-820.42,383.19z M-808.36,366.57l-3.06-1.96c2.31-3.62,4.51-7.36,6.53-11.14l3.2,1.72
			C-803.76,359.05-806,362.88-808.36,366.57z M-798.35,348.64l-3.27-1.58c1.87-3.86,3.61-7.85,5.17-11.84l3.38,1.33
			C-794.67,340.63-796.45,344.7-798.35,348.64z M-790.54,329.66l-3.44-1.18c1.39-4.05,2.65-8.21,3.73-12.36l3.52,0.92
			C-787.83,321.27-789.11,325.52-790.54,329.66z M-785.03,309.89l-3.55-0.77c0.9-4.2,1.65-8.48,2.23-12.72l3.6,0.49
			C-783.34,301.23-784.11,305.6-785.03,309.89z M-781.92,289.61l-3.62-0.33c0.39-4.27,0.63-8.61,0.69-12.89l3.64,0.05
			C-781.28,280.81-781.52,285.24-781.92,289.61z M-784.9,269.19c-0.12-4.28-0.41-8.62-0.87-12.89l3.62-0.38
			c0.46,4.36,0.76,8.79,0.89,13.17L-784.9,269.19z M-786.69,249.17c-0.62-4.12-1.4-8.28-2.33-12.36l3.55-0.81
			c0.95,4.17,1.75,8.42,2.38,12.62L-786.69,249.17z"/>
	</g>
</g>
<g>
	<path class="st1" d="M-792.87,219.12c-0.13,0-0.27-0.01-0.41-0.04c-0.14-0.03-0.27-0.07-0.4-0.12c-0.12-0.05-0.25-0.12-0.36-0.19
		c-0.12-0.08-0.23-0.17-0.33-0.27c-0.39-0.39-0.62-0.94-0.62-1.5s0.23-1.11,0.62-1.5c0.79-0.79,2.22-0.79,3,0
		c0.4,0.4,0.63,0.94,0.63,1.5s-0.23,1.11-0.63,1.5c-0.09,0.1-0.2,0.19-0.32,0.27c-0.11,0.07-0.24,0.14-0.37,0.19
		c-0.12,0.05-0.26,0.09-0.39,0.12C-792.59,219.11-792.73,219.12-792.87,219.12z"/>
</g>
<g>
	<g>
		<path class="st1" d="M-797.4,211.01L-797.4,211.01L-797.4,211.01c-0.44-1.09,0.08-2.32,1.17-2.76l0,0
			c1.08-0.44,2.32,0.08,2.76,1.17l0,0c0.44,1.09-0.09,2.32-1.17,2.76l0,0c-0.27,0.11-0.53,0.16-0.8,0.16l0,0
			C-796.28,212.34-797.07,211.83-797.4,211.01z M-800.23,204.42c-0.48-1.06-0.01-2.32,1.05-2.8l0,0c1.07-0.49,2.33-0.02,2.81,1.05
			l0,0c0.49,1.07,0.02,2.32-1.05,2.81l0,0c-0.29,0.13-0.58,0.19-0.88,0.19l0,0C-799.1,205.67-799.87,205.21-800.23,204.42z
			 M-803.33,197.97c-0.53-1.05-0.12-2.32,0.93-2.85l0,0c1.04-0.53,2.32-0.12,2.85,0.93l0,0c0.53,1.04,0.11,2.32-0.93,2.85l0,0
			c-0.31,0.15-0.64,0.23-0.96,0.23l0,0C-802.21,199.13-802.96,198.7-803.33,197.97z M-806.71,191.65c-0.57-1.02-0.21-2.31,0.81-2.89
			l0,0c1.02-0.57,2.31-0.21,2.89,0.81l0,0c0.57,1.02,0.21,2.31-0.81,2.89l0,0c-0.33,0.18-0.69,0.27-1.04,0.27l0,0
			C-805.6,192.73-806.32,192.34-806.71,191.65z M-810.36,185.47c-0.62-0.99-0.31-2.3,0.68-2.92l0,0c1-0.62,2.3-0.31,2.92,0.68l0,0
			c0.62,1,0.31,2.31-0.68,2.92l0,0c-0.35,0.22-0.74,0.32-1.12,0.32l0,0C-809.27,186.47-809.96,186.12-810.36,185.47z
			 M-814.28,179.46c-0.66-0.97-0.41-2.29,0.56-2.95l0,0c0.97-0.66,2.29-0.41,2.95,0.56l0,0c0.66,0.96,0.41,2.28-0.56,2.94l0,0
			c-0.37,0.25-0.78,0.37-1.19,0.37l0,0C-813.2,180.38-813.87,180.06-814.28,179.46z M-818.45,173.62L-818.45,173.62L-818.45,173.62
			c-0.7-0.94-0.51-2.27,0.43-2.97l0,0c0.94-0.7,2.27-0.51,2.97,0.43l0,0c0.7,0.94,0.51,2.27-0.43,2.97l0,0
			c-0.38,0.28-0.83,0.42-1.27,0.42l0,0C-817.39,174.47-818.03,174.18-818.45,173.62z M-822.87,167.97
			C-822.87,167.97-822.87,167.97-822.87,167.97L-822.87,167.97c-0.73-0.91-0.6-2.25,0.31-2.99l0,0c0.9-0.74,2.24-0.6,2.98,0.3l0,0
			c0.74,0.91,0.61,2.25-0.3,2.99l0,0c-0.39,0.32-0.87,0.48-1.34,0.48l0,0C-821.84,168.75-822.45,168.48-822.87,167.97z
			 M-827.52,162.51c-0.78-0.88-0.7-2.22,0.17-3l0,0c0.88-0.78,2.22-0.7,3,0.18l0,0c0.78,0.87,0.7,2.21-0.18,2.99l0,0
			c-0.4,0.36-0.9,0.54-1.41,0.54l0,0C-826.52,163.22-827.1,162.98-827.52,162.51z M-832.4,157.26c-0.82-0.84-0.8-2.19,0.04-3l0,0
			c0.84-0.82,2.19-0.8,3,0.04l0,0c0.82,0.84,0.8,2.19-0.04,3l0,0c-0.42,0.4-0.95,0.6-1.48,0.6l0,0
			C-831.43,157.9-831.99,157.69-832.4,157.26z M-837.51,152.22L-837.51,152.22L-837.51,152.22c-0.85-0.81-0.88-2.15-0.08-3l0,0
			c0.81-0.85,2.15-0.89,3-0.08l0,0c0.85,0.8,0.89,2.14,0.08,3l0,0c-0.41,0.44-0.98,0.66-1.54,0.66l0,0
			C-836.57,152.8-837.1,152.61-837.51,152.22z M-842.82,147.41c-0.88-0.77-0.98-2.11-0.21-3l0,0c0.77-0.88,2.11-0.98,2.99-0.21l0,0
			c0.89,0.77,0.98,2.11,0.21,2.99l0,0c-0.42,0.49-1.01,0.73-1.6,0.73l0,0C-841.92,147.92-842.42,147.75-842.82,147.41z
			 M-1063.16,144.34c-0.75-0.9-0.62-2.23,0.28-2.98l0,0c0.9-0.75,2.24-0.63,2.99,0.28l0,0c0.74,0.9,0.62,2.23-0.28,2.98l0,0l0,0l0,0
			c-0.4,0.33-0.88,0.49-1.36,0.49l0,0C-1062.13,145.11-1062.74,144.85-1063.16,144.34z M-848.33,142.82
			c-0.92-0.73-1.07-2.06-0.34-2.98l0,0c0.73-0.92,2.07-1.07,2.98-0.34l0,0c0.92,0.73,1.07,2.07,0.34,2.98l0,0
			c-0.42,0.53-1.04,0.8-1.66,0.8l0,0C-847.47,143.28-847.94,143.13-848.33,142.82z M-1057.53,139.76c-0.71-0.93-0.53-2.26,0.4-2.97
			l0,0c0.93-0.71,2.27-0.53,2.98,0.4l0,0c0.7,0.93,0.52,2.27-0.41,2.97l0,0l0,0l0,0c-0.38,0.3-0.83,0.44-1.28,0.44l0,0
			C-1056.48,140.6-1057.11,140.31-1057.53,139.76z M-854.03,138.47c0,0,0,0,0,0.01l0,0c-0.95-0.7-1.16-2.02-0.47-2.97l0,0
			c0.69-0.95,2.02-1.15,2.97-0.46l0,0c0.95,0.69,1.15,2.01,0.46,2.96l0,0c-0.41,0.57-1.06,0.87-1.71,0.87l0,0
			C-853.22,138.88-853.65,138.75-854.03,138.47z M-1051.72,135.42c-0.66-0.96-0.43-2.28,0.54-2.95l0,0
			c0.96-0.67,2.28-0.43,2.95,0.53l0,0c0.67,0.96,0.43,2.28-0.53,2.95l0,0c-0.37,0.26-0.79,0.38-1.21,0.38l0,0
			C-1050.64,136.33-1051.3,136.01-1051.72,135.42z M-859.91,134.37c-0.97-0.65-1.24-1.96-0.59-2.94l0,0
			c0.65-0.97,1.97-1.24,2.94-0.59l0,0c0.98,0.65,1.24,1.97,0.59,2.95l0,0c-0.41,0.61-1.08,0.94-1.77,0.94l0,0
			C-859.14,134.73-859.55,134.62-859.91,134.37z M-1045.72,131.33c-0.62-0.99-0.33-2.3,0.66-2.92l0,0c0.99-0.63,2.3-0.33,2.93,0.66
			l0,0c0.63,0.99,0.33,2.3-0.66,2.92l0,0c-0.35,0.23-0.74,0.33-1.13,0.33l0,0C-1044.62,132.32-1045.31,131.97-1045.72,131.33z
			 M-865.96,130.53L-865.96,130.53L-865.96,130.53c-1-0.61-1.32-1.92-0.71-2.92l0,0c0.61-1,1.91-1.32,2.91-0.71h0.01
			c1,0.61,1.32,1.91,0.71,2.91l0,0c-0.4,0.66-1.1,1.03-1.82,1.02l0,0C-865.23,130.83-865.61,130.74-865.96,130.53z M-1039.54,127.51
			c-0.59-1.02-0.24-2.31,0.78-2.89l0,0c1.01-0.59,2.31-0.24,2.89,0.78l0,0c0.59,1.01,0.24,2.31-0.78,2.89l0,0
			c-0.33,0.2-0.7,0.29-1.05,0.29l0,0C-1038.44,128.58-1039.15,128.19-1039.54,127.51z M-872.16,126.94
			c-1.03-0.57-1.4-1.86-0.84-2.88l0,0c0.57-1.03,1.86-1.4,2.88-0.84l0,0c1.03,0.57,1.4,1.86,0.84,2.88l0,0
			c-0.39,0.71-1.11,1.1-1.86,1.1l0,0C-871.49,127.2-871.84,127.12-872.16,126.94z M-1033.22,123.95c-0.54-1.04-0.13-2.32,0.91-2.85
			l0,0c1.04-0.54,2.32-0.14,2.86,0.91l0,0c0.54,1.04,0.13,2.31-0.91,2.85l0,0c-0.31,0.16-0.64,0.24-0.97,0.24l0,0
			C-1032.1,125.1-1032.84,124.68-1033.22,123.95z M-878.51,123.62L-878.51,123.62L-878.51,123.62c-1.05-0.52-1.48-1.8-0.96-2.85l0,0
			c0.52-1.05,1.8-1.47,2.85-0.95l0,0c1.05,0.52,1.47,1.79,0.95,2.84l0,0c-0.37,0.75-1.12,1.18-1.9,1.18l0,0
			C-877.88,123.84-878.21,123.77-878.51,123.62z M-1026.74,120.67c-0.5-1.06-0.03-2.32,1.03-2.81l0,0c1.06-0.49,2.32-0.03,2.82,1.03
			l0,0c0.49,1.06,0.03,2.32-1.03,2.82l0,0c-0.29,0.13-0.6,0.19-0.9,0.19l0,0C-1025.62,121.9-1026.38,121.45-1026.74,120.67z
			 M-884.99,120.57c-1.07-0.48-1.55-1.73-1.08-2.8l0,0c0.48-1.07,1.73-1.55,2.8-1.08l0,0c1.07,0.48,1.56,1.73,1.08,2.8l0,0
			c-0.35,0.79-1.13,1.26-1.94,1.26l0,0C-884.42,120.75-884.71,120.69-884.99,120.57z M-1020.13,117.68
			c-0.45-1.09,0.07-2.33,1.15-2.77l0,0c1.08-0.45,2.32,0.07,2.77,1.15l0,0c0.45,1.08-0.07,2.32-1.15,2.77l0,0l0,0l0,0
			c-0.26,0.11-0.54,0.16-0.81,0.16l0,0C-1019,118.99-1019.79,118.5-1020.13,117.68z M-891.6,117.79c-1.09-0.43-1.62-1.66-1.19-2.75
			l0,0c0.43-1.09,1.66-1.62,2.75-1.19l0,0c1.09,0.43,1.62,1.66,1.19,2.75l0,0c-0.32,0.83-1.12,1.34-1.97,1.34l0,0
			C-891.08,117.94-891.34,117.89-891.6,117.79z M-1013.4,114.96c-0.4-1.1,0.17-2.31,1.27-2.71v-0.01c1.1-0.4,2.32,0.17,2.72,1.27
			l0,0c0.4,1.1-0.17,2.32-1.27,2.72l0,0l0,0l0,0c-0.24,0.09-0.48,0.13-0.72,0.13l0,0C-1012.27,116.36-1013.08,115.82-1013.4,114.96z
			 M-898.31,115.3c-1.11-0.38-1.69-1.59-1.31-2.69l0,0c0.38-1.11,1.59-1.7,2.7-1.31l0,0c1.1,0.38,1.69,1.59,1.31,2.7l0,0
			c-0.31,0.87-1.13,1.42-2.01,1.42l0,0C-897.85,115.42-898.08,115.38-898.31,115.3z M-1006.55,112.54
			c-0.36-1.12,0.26-2.31,1.38-2.66l0,0c1.12-0.36,2.31,0.26,2.66,1.38l0,0c0.36,1.12-0.26,2.31-1.38,2.66l0,0
			c-0.21,0.07-0.43,0.1-0.64,0.1l0,0C-1005.43,114.02-1006.27,113.44-1006.55,112.54z M-905.13,113.1
			c-1.12-0.33-1.76-1.52-1.42-2.64l0,0c0.34-1.12,1.52-1.76,2.64-1.42l0,0c1.12,0.34,1.76,1.52,1.42,2.64l0,0
			c-0.27,0.92-1.12,1.51-2.03,1.51l0,0C-904.72,113.19-904.92,113.16-905.13,113.1z M-999.61,110.41c-0.31-1.13,0.36-2.3,1.49-2.6
			l0,0c1.13-0.31,2.29,0.36,2.6,1.49l0,0c0.31,1.13-0.36,2.29-1.49,2.6l0,0c-0.19,0.05-0.37,0.07-0.56,0.07l0,0
			C-998.5,111.97-999.36,111.35-999.61,110.41z M-912.03,111.19c-1.13-0.29-1.82-1.44-1.53-2.58l0,0c0.29-1.13,1.44-1.82,2.58-1.53
			l0,0c1.13,0.29,1.82,1.44,1.53,2.58l0,0c-0.24,0.96-1.11,1.6-2.05,1.6l0,0C-911.67,111.26-911.85,111.24-912.03,111.19z
			 M-992.6,108.57c-0.25-1.14,0.46-2.28,1.6-2.54l0,0c1.15-0.26,2.28,0.46,2.54,1.6l0,0c0.26,1.15-0.46,2.28-1.6,2.54l0,0
			c-0.16,0.04-0.31,0.06-0.47,0.06l0,0C-991.5,110.23-992.37,109.56-992.6,108.57z M-919,109.58c-1.15-0.24-1.88-1.37-1.64-2.51l0,0
			c0.24-1.15,1.36-1.88,2.51-1.65l0,0c1.14,0.24,1.88,1.37,1.64,2.52l0,0c-0.21,1-1.09,1.68-2.07,1.68l0,0
			C-918.71,109.62-918.85,109.61-919,109.58z M-985.5,107.03c-0.22-1.15,0.55-2.25,1.7-2.47l0,0c1.15-0.21,2.26,0.56,2.47,1.71l0,0
			c0.21,1.16-0.56,2.26-1.71,2.47l0,0c-0.13,0.02-0.25,0.03-0.38,0.03l0,0C-984.42,108.77-985.32,108.06-985.5,107.03z
			 M-926.04,108.26L-926.04,108.26L-926.04,108.26c-1.15-0.19-1.93-1.28-1.74-2.44l0,0c0.19-1.15,1.28-1.93,2.43-1.74l0,0
			c1.16,0.19,1.94,1.28,1.75,2.43l0,0c-0.17,1.04-1.07,1.78-2.09,1.78l0,0C-925.8,108.29-925.92,108.28-926.04,108.26z
			 M-978.36,105.8c-0.16-1.16,0.65-2.23,1.82-2.4l0,0c1.16-0.16,2.23,0.66,2.39,1.82l0,0c0.16,1.16-0.65,2.23-1.81,2.39l0,0l0,0l0,0
			c-0.1,0.01-0.2,0.02-0.29,0.02l0,0C-977.3,107.63-978.21,106.86-978.36,105.8z M-933.12,107.25c-1.16-0.14-1.99-1.2-1.85-2.36l0,0
			c0.14-1.16,1.2-1.99,2.36-1.85l0,0c1.16,0.14,1.99,1.2,1.85,2.36l0,0c-0.13,1.08-1.04,1.86-2.1,1.86l0,0
			C-932.95,107.26-933.03,107.26-933.12,107.25z M-971.16,104.87c-0.11-1.17,0.75-2.2,1.91-2.31l0,0c1.17-0.11,2.2,0.74,2.31,1.91
			l0,0c0.11,1.16-0.74,2.2-1.91,2.31l0,0c-0.07,0.01-0.13,0.01-0.2,0.01l0,0C-970.13,106.79-971.06,105.96-971.16,104.87z
			 M-940.24,106.54L-940.24,106.54L-940.24,106.54c-1.17-0.09-2.04-1.11-1.95-2.28l0,0c0.09-1.16,1.11-2.04,2.28-1.95l0,0
			c1.17,0.09,2.04,1.11,1.95,2.28l0,0c-0.09,1.11-1.01,1.96-2.11,1.96l0,0C-940.12,106.55-940.18,106.54-940.24,106.54z
			 M-963.93,104.25c-0.06-1.17,0.84-2.17,2.01-2.23l0,0c1.17-0.06,2.17,0.84,2.23,2.01l0,0c0.06,1.17-0.84,2.17-2.01,2.23l0,0l0,0
			l0,0c-0.04,0-0.07,0-0.11,0l0,0C-962.93,106.26-963.87,105.38-963.93,104.25z M-947.38,106.14c-1.17-0.04-2.09-1.02-2.04-2.19l0,0
			c0.04-1.17,1.02-2.09,2.19-2.05l0,0c1.17,0.04,2.09,1.02,2.04,2.19l0,0c-0.04,1.15-0.98,2.05-2.11,2.05l0,0
			C-947.33,106.14-947.35,106.14-947.38,106.14z M-954.54,106.04c-1.17,0.01-2.13-0.93-2.14-2.1l0,0c-0.01-1.17,0.93-2.13,2.1-2.14
			l0,0c1.17-0.01,2.13,0.93,2.14,2.11l0,0C-952.43,105.08-953.37,106.04-954.54,106.04L-954.54,106.04
			C-954.54,106.05-954.54,106.05-954.54,106.04z"/>
	</g>
</g>
<g>
	<path class="st1" d="M-1067.03,149.88c-0.56,0-1.1-0.23-1.5-0.62c-0.39-0.39-0.62-0.94-0.62-1.5s0.23-1.11,0.62-1.5
		c0.79-0.79,2.22-0.79,3,0c0.4,0.4,0.62,0.94,0.62,1.5s-0.22,1.1-0.62,1.5C-1065.92,149.65-1066.47,149.88-1067.03,149.88z"/>
</g>
<g>
	<g>
		<path class="st1" d="M-1004.88,437.79c-0.19,0-0.39-0.03-0.58-0.09c-55.08-17.71-97.35-61.36-113.07-116.78
			c-15.72-55.42-2.66-114.76,34.92-158.75c0.68-0.79,1.87-0.89,2.66-0.21c0.79,0.68,0.89,1.87,0.21,2.66
			c-36.76,43.03-49.54,101.08-34.16,155.28c15.37,54.2,56.72,96.9,110.6,114.22c0.99,0.32,1.54,1.38,1.22,2.37
			C-1003.34,437.28-1004.08,437.79-1004.88,437.79z"/>
	</g>
</g>
<g>
	<line class="st2" x1="26.04" y1="159.94" x2="26.04" y2="159.94"/>
	<g>
		<g>
			<path class="st3" d="M23.06,166.63c-56.03,130.65-1.74,284.71,126.69,350.33c39.52,20.19,81.71,29.79,123.32,29.85"/>
		</g>
	</g>
	<path class="st4" d="M497.79,118.14c-24.77-35.71-58.42-65.98-99.75-87.1C266.79-36.03,106.04,13.78,35.21,141.83"/>
	<path class="st5" d="M508.58,135.07c45.92,77.84,52.36,176.82,8.28,263.09c-44.08,86.27-128.06,139.04-218.05,147.44"/>
	<line class="st2" x1="276.72" y1="546.8" x2="276.72" y2="546.8"/>
</g>
<g>
	<line class="st2" x1="381.28" y1="51.35" x2="381.28" y2="51.35"/>
	<g>
		<g>
			<path class="st6" d="M387.79,54.6c31.99,16.58,60.83,40.43,83.88,71.19c78.87,105.24,61.14,252.89-37.96,336.74"/>
		</g>
		<line class="st2" x1="430.92" y1="464.87" x2="430.92" y2="464.87"/>
		<g>
			<path class="st7" d="M414.74,477.1c-108.73,75.5-258.59,51.91-338.61-54.89c-25.06-33.43-40.36-71.14-46.41-109.73"/>
			<path class="st5" d="M361.1,42.81c-76.36-28.72-165.29-19.13-235.42,33.42C55.56,128.78,21.39,211.44,27.52,292.8"/>
		</g>
	</g>
</g>
<g>
	<g>
		<path class="st8" d="M282.99,66.38c110.56,4.76,198.73,95.89,198.73,207.62c0,47.6-16,91.46-42.92,126.5"/>
	</g>
	<line class="st9" x1="100.26" y1="388.23" x2="100.26" y2="388.23"/>
	<g>
		<path class="st10" d="M79.04,346.39c-8.38-22.54-12.95-46.93-12.95-72.38c0-98.49,68.51-180.97,160.47-202.4"/>
	</g>
	<line class="st9" x1="249.72" y1="67.58" x2="249.72" y2="67.58"/>
	<g>
		<path class="st11" d="M130.31,424.16c37.32,35.7,87.87,57.67,143.59,57.67c55.72,0,106.27-21.97,143.59-57.67"/>
	</g>
</g>
<g>
	<line class="st2" x1="434.13" y1="217" x2="434.13" y2="217"/>
	<g>
		<path class="st12" d="M431.56,210.22C399.49,130.77,311.75,86.5,227.5,110.39c-24.7,7.01-46.58,19.16-64.81,34.97"/>
	</g>
	<line class="st2" x1="159.97" y1="147.76" x2="159.97" y2="147.76"/>
	<g>
		<path class="st5" d="M222.12,435.91c-52.4-16.84-95.72-58.7-111.83-115.5c-16.11-56.8-1.21-115.17,34.54-157.02"/>
	</g>
	<path class="st13" d="M241.16,440.87c25.48,5.04,52.49,4.31,79.14-3.25c87.28-24.76,139.34-113.75,119.46-201.2"/>
</g>
</svg>
