<svg xmlns="http://www.w3.org/2000/svg" viewBox="0 0 143.43 134.92"><defs><style>.cls-1{fill:#fff;}.cls-2{fill:#008556;}</style></defs><title>DubaiPoliceVLogo2</title><g id="Layer_1" data-name="Layer 1"><path class="cls-1" d="M415,148.65a16.45,16.45,0,0,1-9.29-2.81l-1.46-1,.45-.9h-.31a16.88,16.88,0,0,1-12.17-5.09L391,137.6l.63-.78a16.8,16.8,0,0,1-11.14-7.61l-.9-1.48.78-.65a16.77,16.77,0,0,1-9.29-9.78l-.58-1.64.89-.46a16.86,16.86,0,0,1-7-11.52l-.22-1.73,1-.26A16.76,16.76,0,0,1,360.73,89l.15-1.73,1,0a16.8,16.8,0,0,1-1.66-13.39l.51-1.67,1,.16a16.75,16.75,0,0,1,1.2-13.43l.85-1.52.94.37a16.79,16.79,0,0,1,4-12.88l1.16-1.31.84.56a16.82,16.82,0,0,1,6.63-11.75l1.4-1,.71.72a16.82,16.82,0,0,1,8.95-10.08l1.58-.71.55.85a16.75,16.75,0,0,1,10.88-8l1.69-.37.6,1.63a16,16,0,0,1,.88,3.7A16.92,16.92,0,0,1,412,17.33a16.12,16.12,0,0,1,5,.78l1.65.53-.29,1.72a16.74,16.74,0,0,1-6.61,10.54,16.13,16.13,0,0,1,2.86,2.48l1.17,1.29L414.66,36a16.61,16.61,0,0,1-9.24,5.54,16.7,16.7,0,0,1-7.31,6.38,16.64,16.64,0,0,1-5.81,7.78,16.73,16.73,0,0,1-4,8.82A16.71,16.71,0,0,1,386.19,74a16.73,16.73,0,0,1-.05,9.71,16.66,16.66,0,0,1,2,9.49,16.73,16.73,0,0,1,4,8.87,16.6,16.6,0,0,1,5.73,7.82,16.66,16.66,0,0,1,7.25,6.45,16.62,16.62,0,0,1,8.46,4.77,17,17,0,0,1,11.89,5.05,16.8,16.8,0,0,1,4.33,6.75,1.48,1.48,0,0,0,1.48,1.11,1.47,1.47,0,0,0,1.47-1.09,17.77,17.77,0,0,1,16.23-11.82,16.63,16.63,0,0,1,8.45-4.77,16.73,16.73,0,0,1,7.26-6.44,16.64,16.64,0,0,1,5.73-7.83,16.66,16.66,0,0,1,4-8.87,16.66,16.66,0,0,1,2-9.49,16.78,16.78,0,0,1,0-9.7,16.68,16.68,0,0,1-2.08-9.48,16.67,16.67,0,0,1-4-8.82,16.66,16.66,0,0,1-5.8-7.78,16.67,16.67,0,0,1-7.32-6.38A16.74,16.74,0,0,1,447.82,36l-1.11-1.33,1.16-1.29a15.55,15.55,0,0,1,2.86-2.5,16.68,16.68,0,0,1-6.6-10.53l-.3-1.72,1.65-.53a16.35,16.35,0,0,1,5-.77,17.06,17.06,0,0,1,7.43,1.71,15.46,15.46,0,0,1,.87-3.7l.6-1.62,1.69.36a16.72,16.72,0,0,1,10.88,8l.54-.85,1.59.72A16.77,16.77,0,0,1,483,32l.7-.72,1.41,1a16.81,16.81,0,0,1,6.62,11.75l.85-.56,1.14,1.3a16.74,16.74,0,0,1,4,12.87l.93-.36.85,1.52a16.74,16.74,0,0,1,1.2,13.43l1-.16.51,1.67a16.81,16.81,0,0,1-1.66,13.39l1,0,.15,1.74a16.8,16.8,0,0,1-4.44,12.73l1,.26-.22,1.73a16.8,16.8,0,0,1-7,11.52l.89.46-.58,1.64a16.84,16.84,0,0,1-9.29,9.78l.78.64-.91,1.49a16.8,16.8,0,0,1-11.14,7.61l.63.78-1.21,1.27A16.88,16.88,0,0,1,458.05,144h-.32l.45.91-1.44,1a16.55,16.55,0,0,1-9.3,2.8,17.49,17.49,0,0,1-4.48-.58,18.35,18.35,0,0,1-5.73-2.54,10.65,10.65,0,0,0-12,0,18.41,18.41,0,0,1-5.72,2.53A17.5,17.5,0,0,1,415,148.65Zm0-6.55a10.74,10.74,0,0,0,2.81-.37,12.22,12.22,0,0,0,3.34-1.35h-.26a12.75,12.75,0,0,0-3.31.49,10.35,10.35,0,0,0-2.91,1.24Zm26.31-1.72a12.28,12.28,0,0,0,3.33,1.35,11.18,11.18,0,0,0,2.81.37h.3a10.67,10.67,0,0,0-2.88-1.22,12.69,12.69,0,0,0-3.31-.49ZM454,136.77a12.4,12.4,0,0,0,3.56.63h.55a11.19,11.19,0,0,0,2.59-.31,10.8,10.8,0,0,0-3.1-.61l-.81,0A11.81,11.81,0,0,0,454,136.77Zm-52.19.33a11.19,11.19,0,0,0,2.59.31h.55a12.33,12.33,0,0,0,3.56-.63,11.75,11.75,0,0,0-2.79-.3l-.81,0A10.73,10.73,0,0,0,401.79,137.1Zm42.42-8.23a11,11,0,0,0-2.53,1.88,12.62,12.62,0,0,0-2.2,2.86,12.51,12.51,0,0,0,2.85-2.22A11.18,11.18,0,0,0,444.21,128.87Zm-25.93,0a11.24,11.24,0,0,0,1.88,2.53,12.4,12.4,0,0,0,2.82,2.19,13.09,13.09,0,0,0-2.19-2.84A11.13,11.13,0,0,0,418.28,128.87Zm47.37,1.72a9.43,9.43,0,0,0,1.22.07,14.74,14.74,0,0,0,2.37-.21,11.1,11.1,0,0,0,3-.95,9.74,9.74,0,0,0-1.32-.08,11.26,11.26,0,0,0-1.82.15A12.28,12.28,0,0,0,465.65,130.59Zm-75.41-1.09a11.14,11.14,0,0,0,3,.95,14.43,14.43,0,0,0,2.36.21,9.43,9.43,0,0,0,1.22-.07,12.28,12.28,0,0,0-3.44-1,11.05,11.05,0,0,0-1.81-.15A9.94,9.94,0,0,0,390.24,129.5Zm17.84-4.6a10.84,10.84,0,0,0,1.31,2.88,12.2,12.2,0,0,0,2.31,2.76,12.54,12.54,0,0,0-1.56-3.25A11.06,11.06,0,0,0,408.08,124.9Zm46.31,0a10.88,10.88,0,0,0-2.06,2.37,12.3,12.3,0,0,0-1.54,3.25,12.45,12.45,0,0,0,2.3-2.76A10.69,10.69,0,0,0,454.39,124.92Zm9.14-6a10.64,10.64,0,0,0-1.52,2.77,12.62,12.62,0,0,0-.83,3.51,12.66,12.66,0,0,0,1.67-3.19A10.52,10.52,0,0,0,463.53,118.9Zm-64.58,0a10.56,10.56,0,0,0,.67,3.06,12.35,12.35,0,0,0,1.68,3.19,12.26,12.26,0,0,0-.84-3.5A11,11,0,0,0,399,118.92Zm83,.7a11.15,11.15,0,0,0-3.08.73,12.77,12.77,0,0,0-3.16,1.74,12.3,12.3,0,0,0,3.5-.9A10.86,10.86,0,0,0,481.94,119.62Zm-101.42,0a10.5,10.5,0,0,0,2.75,1.57,12.47,12.47,0,0,0,3.48.89,12.65,12.65,0,0,0-3.14-1.73A11.13,11.13,0,0,0,380.52,119.62Zm10.76-8.5a10.8,10.8,0,0,0,0,3.16,12.61,12.61,0,0,0,1,3.46,12.58,12.58,0,0,0-.07-3.6A11.35,11.35,0,0,0,391.28,111.12Zm79.91,0a11.13,11.13,0,0,0-.9,3,12.59,12.59,0,0,0-.07,3.6,12.65,12.65,0,0,0,1-3.48A11,11,0,0,0,471.19,111.11Zm-98.06-3.19a10.8,10.8,0,0,0,2.35,2.12,12.45,12.45,0,0,0,3.23,1.61,12.51,12.51,0,0,0-2.72-2.36A11.06,11.06,0,0,0,373.13,107.92Zm116.2,0a10.81,10.81,0,0,0-2.83,1.35,13,13,0,0,0-2.71,2.35A12.41,12.41,0,0,0,487,110,10.92,10.92,0,0,0,489.33,107.94ZM477,101.87a11,11,0,0,0-.24,3.15,12.79,12.79,0,0,0,.68,3.54,12.42,12.42,0,0,0,.22-3.61A11,11,0,0,0,477,101.87Zm-91.61,0a11.07,11.07,0,0,0-.66,3.08,12.3,12.3,0,0,0,.22,3.59,12.29,12.29,0,0,0,.68-3.53A10.94,10.94,0,0,0,385.43,101.87Zm-17.07-6.93a11,11,0,0,0,1.85,2.56A12.19,12.19,0,0,0,373,99.76a12.45,12.45,0,0,0-2.16-2.89A11.29,11.29,0,0,0,368.36,94.94Zm125.73,0a11.15,11.15,0,0,0-2.48,1.92,12,12,0,0,0-2.15,2.87,12.55,12.55,0,0,0,2.8-2.25A11.08,11.08,0,0,0,494.09,95ZM381.65,91.62a10.84,10.84,0,0,0-1.28,2.86,12.69,12.69,0,0,0-.55,3.57,12.7,12.7,0,0,0,1.41-3.32A11,11,0,0,0,381.65,91.62Zm99.17,0a11.12,11.12,0,0,0,.42,3.12A12.72,12.72,0,0,0,482.65,98a12.56,12.56,0,0,0-.55-3.55A10.69,10.69,0,0,0,480.82,91.62ZM366.43,81.24a11.11,11.11,0,0,0,1.27,2.89A12.28,12.28,0,0,0,370,86.92a12.67,12.67,0,0,0-1.51-3.27A10.74,10.74,0,0,0,366.43,81.24Zm129.6,0a11.18,11.18,0,0,0-2,2.4,12.14,12.14,0,0,0-1.5,3.27,12.7,12.7,0,0,0,2.27-2.8A10.77,10.77,0,0,0,496,81.25Zm-115.9-.47a11,11,0,0,0-1.87,2.54A12.21,12.21,0,0,0,377,86.7a12.62,12.62,0,0,0,2.08-3A11.13,11.13,0,0,0,380.13,80.78Zm102.21,0a11.13,11.13,0,0,0,1.07,3,12.93,12.93,0,0,0,2.09,3,12.84,12.84,0,0,0-1.29-3.38A11,11,0,0,0,482.34,80.78ZM380.91,69.89A11.3,11.3,0,0,0,378.56,72a12.55,12.55,0,0,0-2,3,12.72,12.72,0,0,0,2.67-2.43A10.88,10.88,0,0,0,380.91,69.89Zm100.64,0a10.83,10.83,0,0,0,1.68,2.68A12.64,12.64,0,0,0,485.87,75a12.15,12.15,0,0,0-1.95-3A11,11,0,0,0,481.55,69.87Zm13.5-2.45a11.23,11.23,0,0,0-1.48,2.81,12.43,12.43,0,0,0-.79,3.51,12.1,12.1,0,0,0,1.63-3.2A10.71,10.71,0,0,0,495.05,67.42Zm-127.62,0a11,11,0,0,0,.63,3.08,12.58,12.58,0,0,0,1.63,3.2,12.43,12.43,0,0,0-.79-3.51A10.51,10.51,0,0,0,367.43,67.46Zm111.06-8.07a11.05,11.05,0,0,0,2.21,2.27,12.18,12.18,0,0,0,3.09,1.81,12.29,12.29,0,0,0-2.56-2.53A10.93,10.93,0,0,0,478.49,59.39Zm-94.51,0a10.76,10.76,0,0,0-2.74,1.54,12.32,12.32,0,0,0-2.56,2.54,12.41,12.41,0,0,0,3.1-1.82A11,11,0,0,0,384,59.39Zm107.19-5.23a10.94,10.94,0,0,0-.87,3,12.81,12.81,0,0,0,0,3.6,12,12,0,0,0,.92-3.48A10.79,10.79,0,0,0,491.17,54.16Zm-119.86,0a11,11,0,0,0,0,3.14,12.78,12.78,0,0,0,.92,3.47,12.74,12.74,0,0,0,0-3.59A10.79,10.79,0,0,0,371.31,54.17Zm102-4.4a11.2,11.2,0,0,0,2.63,1.76,12.71,12.71,0,0,0,3.42,1.12,12.67,12.67,0,0,0-3-1.94A11,11,0,0,0,473.28,49.77Zm-84.08,0a11,11,0,0,0-3,.94,12.46,12.46,0,0,0-3,1.93,12.71,12.71,0,0,0,3.42-1.12A11.1,11.1,0,0,0,389.2,49.77ZM377.9,42a11.16,11.16,0,0,0-.69,3.07,12.2,12.2,0,0,0,.17,3.61,12.54,12.54,0,0,0,.73-3.53A11,11,0,0,0,377.9,42Zm106.67,0a11,11,0,0,0-.21,3.14,12.33,12.33,0,0,0,.74,3.52,12.54,12.54,0,0,0,.16-3.6A10.89,10.89,0,0,0,484.57,42Zm-18.41-.54a11.2,11.2,0,0,0,2.94,1.16,13.55,13.55,0,0,0,3,.39l.53,0a12.44,12.44,0,0,0-3.37-1.25,10.78,10.78,0,0,0-2.52-.3ZM389.8,43l.53,0a13.55,13.55,0,0,0,3.05-.39,11.46,11.46,0,0,0,2.93-1.15c-.21,0-.42,0-.63,0a11.4,11.4,0,0,0-2.52.29A12.83,12.83,0,0,0,389.8,43Zm-2.89-11.49a11.08,11.08,0,0,0-1.33,2.85,12.75,12.75,0,0,0-.59,3.56,12.67,12.67,0,0,0,1.46-3.3A10.7,10.7,0,0,0,386.91,31.51Zm88.65,0a10.94,10.94,0,0,0,.47,3.1,12.86,12.86,0,0,0,1.45,3.3,12.68,12.68,0,0,0-.59-3.55A11.08,11.08,0,0,0,475.56,31.51Zm-18.1,3.35a11.25,11.25,0,0,0,3.12.51h.36a11.88,11.88,0,0,0,3.22-.39,12.77,12.77,0,0,0-3.56-.53h-.2A11,11,0,0,0,457.46,34.86ZM398.31,35a11.88,11.88,0,0,0,3.22.39h.37a11.18,11.18,0,0,0,3.11-.51,10.74,10.74,0,0,0-2.9-.39h-.23A12.64,12.64,0,0,0,398.31,35Zm66.24-11.85a10.71,10.71,0,0,0,1.11,2.94A12.1,12.1,0,0,0,467.78,29a12.7,12.7,0,0,0-1.34-3.35A10.62,10.62,0,0,0,464.55,23.14Zm-66.62,0a10.92,10.92,0,0,0-1.9,2.51A12.39,12.39,0,0,0,394.7,29a12.16,12.16,0,0,0,2.12-2.9A11.33,11.33,0,0,0,397.93,23.13Zm11.51,1.06a10.74,10.74,0,0,0-2.91,1.23,12.52,12.52,0,0,0-2.83,2.23,12.57,12.57,0,0,0,3.3-1.46A11,11,0,0,0,409.44,24.19Zm43.6,0a10.94,10.94,0,0,0,2.43,2,12.38,12.38,0,0,0,3.3,1.46,12.09,12.09,0,0,0-2.83-2.23A10.55,10.55,0,0,0,453,24.18Z" transform="translate(-359.52 -13.72)"/><path class="cls-1" d="M398.87,105.32c-4,0-6.21-2.31-6.86-3.68l-1.39-2.87h5.65a96.34,96.34,0,0,1-5.55-9.55l-.19-.4V86.53c1.64-30.71,24.72-57.35,54.89-63.35l2.13,2.94c-10,17.9-5.63,41.18,10.19,54.47h18.18v8.88H472c-1.83,3.44-3.26,6-5.33,9.3h5.16l-1.38,2.87a7.45,7.45,0,0,1-6.86,3.68Zm52.07-20.66a60.57,60.57,0,0,0-22.07-5.16v5.16Zm-30.07,0v-5a60.39,60.39,0,0,0-19,5Zm17.06-52.6A62.91,62.91,0,0,0,398,79.24a66.94,66.94,0,0,1,46.31-3.91A50.45,50.45,0,0,1,437.93,32.06Z" transform="translate(-359.52 -13.72)"/><path class="cls-1" d="M434.11,126.78h-5.74a7.58,7.58,0,0,1-6.81-3.55l1.74-1v-2h19.05L441,123.1A7.45,7.45,0,0,1,434.11,126.78Z" transform="translate(-359.52 -13.72)"/><path class="cls-1" d="M445.67,121.41H416.82a7.47,7.47,0,0,1-6.86-3.67l-1.4-2.88h45.36l-1.4,2.88A7.46,7.46,0,0,1,445.67,121.41Z" transform="translate(-359.52 -13.72)"/><path class="cls-1" d="M454.46,116.05H408a7.47,7.47,0,0,1-6.86-3.67l-1.4-2.88h63l-1.4,2.88A7.47,7.47,0,0,1,454.46,116.05Z" transform="translate(-359.52 -13.72)"/><path class="cls-1" d="M459.83,110.68H402.65a7.47,7.47,0,0,1-6.86-3.67l-1.4-2.88h73.68L466.69,107A7.45,7.45,0,0,1,459.83,110.68Z" transform="translate(-359.52 -13.72)"/><path class="cls-2" d="M499.76,89.12a14,14,0,0,0-3.23.2,18.63,18.63,0,0,0,2.11-2.79,14.85,14.85,0,0,0,1.7-12.17,14.37,14.37,0,0,0-3.12.88,18.75,18.75,0,0,0,1.48-3.17,14.86,14.86,0,0,0-.9-12.26,14,14,0,0,0-2.86,1.52,19.06,19.06,0,0,0,.78-3.41,14.83,14.83,0,0,0-3.47-11.79,13.68,13.68,0,0,0-2.48,2.09,18.36,18.36,0,0,0,0-3.5,14.87,14.87,0,0,0-5.87-10.8,14.11,14.11,0,0,0-2,2.56,18.41,18.41,0,0,0-.7-3.42,14.84,14.84,0,0,0-8-9.32,14.53,14.53,0,0,0-1.4,2.92,18.35,18.35,0,0,0-1.4-3.2,14.81,14.81,0,0,0-9.8-7.42,14.42,14.42,0,0,0-.77,6.55,17.84,17.84,0,0,0-1.57-1.05A14.86,14.86,0,0,0,446.1,20a14.84,14.84,0,0,0,7,10.08c.57.34,1.12.64,1.66.9a14.42,14.42,0,0,0-5.43,3.73,14.78,14.78,0,0,0,9,5A14.7,14.7,0,0,0,466,46.43a14.72,14.72,0,0,0,6.08,8.15,14.71,14.71,0,0,0,4.23,9.25,14.71,14.71,0,0,0,2.18,9.93,14.76,14.76,0,0,0,0,10.17,14.74,14.74,0,0,0-2.1,9.95,14.72,14.72,0,0,0-4.15,9.29,14.7,14.7,0,0,0-6,8.2,14.75,14.75,0,0,0-7.61,6.75,14.75,14.75,0,0,0-8.86,5,15.72,15.72,0,0,0-15.17,10.37,3.53,3.53,0,0,1-6.77,0,15.75,15.75,0,0,0-15.18-10.37,14.7,14.7,0,0,0-8.86-5,14.68,14.68,0,0,0-7.6-6.75,14.71,14.71,0,0,0-6-8.2,14.77,14.77,0,0,0-4.15-9.29,14.73,14.73,0,0,0-2.1-9.95,14.7,14.7,0,0,0,0-10.17,14.67,14.67,0,0,0,2.18-9.93,14.71,14.71,0,0,0,4.23-9.25,14.67,14.67,0,0,0,6.08-8.15,14.67,14.67,0,0,0,7.66-6.69,14.68,14.68,0,0,0,9-5A14.5,14.5,0,0,0,407.7,31a18.33,18.33,0,0,0,1.66-.9,14.84,14.84,0,0,0,7-10.08,14.82,14.82,0,0,0-12.2,1.53,17.84,17.84,0,0,0-1.57,1.05,14.42,14.42,0,0,0-.77-6.55,14.84,14.84,0,0,0-9.8,7.42,17.93,17.93,0,0,0-1.4,3.2,14,14,0,0,0-1.4-2.92,14.87,14.87,0,0,0-8,9.32,18.58,18.58,0,0,0-.7,3.42,14.58,14.58,0,0,0-2-2.56,14.84,14.84,0,0,0-5.87,10.8,18.36,18.36,0,0,0,0,3.5,14.54,14.54,0,0,0-2.48-2.09,14.8,14.8,0,0,0-3.46,11.79,18.9,18.9,0,0,0,.77,3.41,14,14,0,0,0-2.86-1.52,14.82,14.82,0,0,0-.9,12.26,17.32,17.32,0,0,0,1.48,3.17,14.37,14.37,0,0,0-3.12-.88,14.84,14.84,0,0,0,1.7,12.17A18.63,18.63,0,0,0,366,89.32a14.07,14.07,0,0,0-3.23-.2A14.83,14.83,0,0,0,367,100.66a18.36,18.36,0,0,0,2.65,2.28,14.22,14.22,0,0,0-3.2.48,14.86,14.86,0,0,0,6.56,10.4,18.46,18.46,0,0,0,3.07,1.67,14.33,14.33,0,0,0-3,1.14,14.85,14.85,0,0,0,8.6,8.78,19,19,0,0,0,3.35,1,13.62,13.62,0,0,0-2.72,1.76,14.83,14.83,0,0,0,10.26,6.77,18.19,18.19,0,0,0,3.49.26,14.59,14.59,0,0,0-2.29,2.29,14.86,14.86,0,0,0,11.46,4.46,18.28,18.28,0,0,0,3.46-.48,14.86,14.86,0,0,0-1.76,2.72A14.84,14.84,0,0,0,419,146.12a16.29,16.29,0,0,0,5.11-2.25,12.66,12.66,0,0,1,14.27,0,16.29,16.29,0,0,0,5.11,2.25,14.88,14.88,0,0,0,12.14-1.94,13.59,13.59,0,0,0-1.76-2.72,18.28,18.28,0,0,0,3.46.48,14.86,14.86,0,0,0,11.46-4.46,14.59,14.59,0,0,0-2.29-2.29,18.19,18.19,0,0,0,3.49-.26,14.83,14.83,0,0,0,10.26-6.77,14.56,14.56,0,0,0-2.72-1.76,18.79,18.79,0,0,0,3.35-1,14.86,14.86,0,0,0,8.61-8.78,13.8,13.8,0,0,0-3-1.14,18.46,18.46,0,0,0,3.07-1.67,14.84,14.84,0,0,0,6.56-10.4,14.31,14.31,0,0,0-3.2-.48,18.36,18.36,0,0,0,2.65-2.28,14.86,14.86,0,0,0,4.23-11.54M405.7,121.2a12.51,12.51,0,0,1,6.13,5c1.85,2.88,2.46,5.4,2,7.66-2.24-.53-4.28-2.13-6.13-5a12.53,12.53,0,0,1-2-7.66m-8.3-6.42a12.61,12.61,0,0,1,4.94,6.18c1.2,3.2,1.26,5.8.35,7.91-2.08-1-3.74-3-4.94-6.19a12.51,12.51,0,0,1-.35-7.9m-6.76-8a12.57,12.57,0,0,1,3.52,7.09c.5,3.39,0,5.94-1.33,7.81-1.82-1.41-3-3.71-3.52-7.09a12.64,12.64,0,0,1,1.33-7.81m-4.92-9.28a12.56,12.56,0,0,1,1.95,7.67c-.22,3.42-1.24,5.81-2.94,7.35-1.48-1.76-2.17-4.26-2-7.68a12.6,12.6,0,0,1,2.94-7.34M376.5,82.38a12.47,12.47,0,0,1,5.71-5.48,12.55,12.55,0,0,1-1.38,7.79c-1.61,3-3.52,4.78-5.71,5.49-.63-2.22-.23-4.78,1.38-7.8M374,78c-.15-2.3.78-4.72,3-7.33a12.6,12.6,0,0,1,6.73-4.16,12.63,12.63,0,0,1-3,7.33c-2.22,2.6-4.45,3.93-6.74,4.16m4.41,15.92a12.57,12.57,0,0,1,4.42-6.56,12.58,12.58,0,0,1,.29,7.91c-.94,3.29-2.43,5.42-4.42,6.57-1.09-2-1.23-4.62-.29-7.92M383,63.23c-2.71,2.09-5.18,2.91-7.46,2.65.34-2.28,1.76-4.45,4.47-6.54a12.58,12.58,0,0,1,7.46-2.65A12.56,12.56,0,0,1,383,63.23m26.41-28.46a12.59,12.59,0,0,1-7.48,2.6c-3.42.07-5.89-.74-7.58-2.31,1.63-1.63,4.06-2.53,7.48-2.59a12.52,12.52,0,0,1,7.58,2.3M405.5,23.7a12.54,12.54,0,0,1,7.71-1.79,12.57,12.57,0,0,1-5.17,6c-2.93,1.77-5.47,2.3-7.72,1.79.59-2.23,2.25-4.22,5.18-6m-11.22,1a12.52,12.52,0,0,1,5.78-5.4A12.61,12.61,0,0,1,398.58,27c-1.65,3-3.59,4.73-5.78,5.41-.61-2.22-.17-4.78,1.48-7.78M392.71,39.8a12.6,12.6,0,0,1,7.89.66,12.5,12.5,0,0,1-6.76,4.11c-3.33.78-5.91.52-7.89-.66,1.24-1.93,3.43-3.32,6.76-4.11m-9-6a12.58,12.58,0,0,1,4.51-6.5,12.53,12.53,0,0,1,.19,7.91c-1,3.28-2.51,5.38-4.51,6.51-1.06-2.05-1.17-4.65-.19-7.92m1.66,15.12a12.55,12.55,0,0,1,7.85-1,12.5,12.5,0,0,1-5.74,5.44c-3.09,1.47-5.67,1.75-7.86,1,.81-2.15,2.65-4,5.75-5.44m-10.11-4a12.53,12.53,0,0,1,3-7.3,12.61,12.61,0,0,1,1.85,7.69c-.27,3.41-1.32,5.79-3,7.31-1.47-1.77-2.12-4.29-1.85-7.7m-4.49,4.88a12.56,12.56,0,0,1,3.43,7.13c.45,3.39-.07,5.94-1.43,7.79-1.8-1.43-3-3.75-3.43-7.14a12.59,12.59,0,0,1,1.43-7.78M365.94,63.3a12.52,12.52,0,0,1,4.85,6.25c1.16,3.22,1.18,5.82.24,7.92-2.06-1-3.7-3-4.85-6.26a12.58,12.58,0,0,1-.24-7.91m-1.83,14.2a12.53,12.53,0,0,1,6.06,5.09c1.81,2.9,2.38,5.44,1.9,7.69-2.23-.56-4.26-2.19-6.06-5.09a12.49,12.49,0,0,1-1.9-7.69m4.67,21.39a12.47,12.47,0,0,1-3.47-7.11,12.59,12.59,0,0,1,7,3.7c2.38,2.46,3.47,4.81,3.48,7.11-2.31-.08-4.63-1.24-7-3.7m5.59,12.81a12.57,12.57,0,0,1-4.89-6.22,12.51,12.51,0,0,1,7.62,2.14c2.85,1.9,4.41,4,4.9,6.22-2.27.41-4.78-.24-7.63-2.14m8.17,11.35a12.5,12.5,0,0,1-6.09-5,12.56,12.56,0,0,1,7.9.49c3.18,1.26,5.15,3,6.1,5.05-2.13.87-4.73.77-7.91-.49m10.38,9.37a12.52,12.52,0,0,1-7-3.65,12.56,12.56,0,0,1,7.82-1.18c3.38.56,5.66,1.8,7,3.65-1.9,1.3-4.46,1.74-7.83,1.18m12.11,7a12.53,12.53,0,0,1-7.63-2.09,12.56,12.56,0,0,1,7.4-2.81c3.42-.16,5.91.57,7.64,2.09-1.58,1.68-4,2.65-7.41,2.81m13.31,4.27a12.52,12.52,0,0,1-7.9-.44,12.51,12.51,0,0,1,6.64-4.3c3.31-.88,5.9-.69,7.91.43-1.19,2-3.34,3.43-6.65,4.31m.4-10.86a12.6,12.6,0,0,1-3.57-7.06,12.53,12.53,0,0,1,7,3.6c2.41,2.43,3.54,4.77,3.57,7.07-2.29,0-4.63-1.19-7-3.61m79.63-55.3a12.51,12.51,0,0,1-1.9,7.68c-1.81,2.9-3.83,4.53-6.06,5.09-.48-2.25.09-4.78,1.9-7.69a12.66,12.66,0,0,1,6.06-5.08m-1.83-14.2a12.51,12.51,0,0,1-.24,7.91c-1.16,3.22-2.79,5.24-4.85,6.26-.94-2.1-.92-4.7.24-7.92a12.46,12.46,0,0,1,4.85-6.25m-8.22-6.37a12.56,12.56,0,0,1,3.43-7.13,12.51,12.51,0,0,1,1.43,7.78c-.45,3.39-1.62,5.71-3.43,7.14-1.36-1.86-1.88-4.4-1.43-7.79m-6.67,27.76a12.55,12.55,0,0,1-1.38-7.79A12.57,12.57,0,0,1,486,82.38c1.61,3,2,5.59,1.39,7.8-2.2-.71-4.1-2.47-5.72-5.49m2.1,17.16c-2-1.15-3.49-3.28-4.43-6.57a12.58,12.58,0,0,1,.29-7.91A12.51,12.51,0,0,1,484,93.93c.94,3.3.8,5.89-.28,7.92m-2-28a12.48,12.48,0,0,1-3-7.33,12.51,12.51,0,0,1,6.73,4.16c2.21,2.61,3.14,5,3,7.33-2.3-.22-4.53-1.55-6.74-4.16m2.51-36.23a12.5,12.5,0,0,1,3,7.3c.27,3.41-.38,5.93-1.85,7.7-1.72-1.52-2.77-3.9-3-7.31a12.59,12.59,0,0,1,1.85-7.69M474.3,27.28a12.58,12.58,0,0,1,4.51,6.5c1,3.28.87,5.87-.18,7.92-2-1.13-3.53-3.23-4.51-6.51a12.46,12.46,0,0,1,.18-7.91m-11.88-8a12.52,12.52,0,0,1,5.78,5.4c1.65,3,2.09,5.56,1.49,7.78-2.2-.68-4.13-2.41-5.78-5.41a12.55,12.55,0,0,1-1.49-7.77m-8,8.62a12.57,12.57,0,0,1-5.17-6A12.52,12.52,0,0,1,457,23.69c2.93,1.77,4.59,3.77,5.18,6-2.25.52-4.79,0-7.72-1.79m6.1,9.48a12.56,12.56,0,0,1-7.47-2.6,12.59,12.59,0,0,1,7.57-2.31c3.42.07,5.86,1,7.48,2.59-1.69,1.58-4.16,2.39-7.58,2.32m1.34,3.09a12.53,12.53,0,0,1,7.89-.66c3.33.78,5.52,2.18,6.77,4.11-2,1.18-4.56,1.44-7.89.66a12.49,12.49,0,0,1-6.77-4.11m7.43,7.42a12.55,12.55,0,0,1,7.85,1c3.09,1.47,4.94,3.29,5.75,5.45-2.18.73-4.77.45-7.85-1a12.54,12.54,0,0,1-5.75-5.45M475,56.7a12.45,12.45,0,0,1,7.46,2.65c2.71,2.09,4.14,4.26,4.48,6.54-2.29.26-4.75-.56-7.46-2.65A12.6,12.6,0,0,1,475,56.7m1.76,40.77a12.58,12.58,0,0,1,2.94,7.35c.22,3.41-.46,5.92-1.95,7.68-1.71-1.55-2.72-3.94-2.94-7.35a12.51,12.51,0,0,1,1.95-7.68m-8.44,16.36a12.61,12.61,0,0,1,3.52-7.09,12.57,12.57,0,0,1,1.33,7.8c-.5,3.39-1.7,5.69-3.52,7.09-1.35-1.86-1.83-4.41-1.33-7.8M460.14,121a12.5,12.5,0,0,1,4.94-6.18,12.54,12.54,0,0,1-.35,7.91c-1.2,3.2-2.86,5.2-4.94,6.19-.91-2.12-.85-4.71.35-7.92m-9.49,5.25a12.56,12.56,0,0,1,6.13-5,12.6,12.6,0,0,1-2,7.66c-1.85,2.88-3.89,4.48-6.13,5-.45-2.25.15-4.78,2-7.66m-10.38,3.13a12.55,12.55,0,0,1,7.05-3.6,12.56,12.56,0,0,1-3.57,7.06c-2.41,2.42-4.75,3.56-7.05,3.61,0-2.3,1.15-4.64,3.57-7.07m3.87,14.32c-3.31-.88-5.46-2.33-6.65-4.3,2-1.12,4.6-1.31,7.91-.43a12.53,12.53,0,0,1,6.64,4.3,12.67,12.67,0,0,1-7.9.43m13.31-4.27c-3.42-.16-5.83-1.13-7.41-2.81,1.73-1.52,4.22-2.25,7.64-2.09a12.58,12.58,0,0,1,7.4,2.81,12.53,12.53,0,0,1-7.63,2.09m12.12-7c-3.38.56-5.94.12-7.83-1.18,1.37-1.85,3.65-3.09,7-3.65a12.59,12.59,0,0,1,7.83,1.18,12.68,12.68,0,0,1-7,3.65m10.37-9.37c-3.18,1.26-5.78,1.37-7.91.49,1-2.1,2.92-3.79,6.1-5.05A12.56,12.56,0,0,1,486,118a12.55,12.55,0,0,1-6.09,5M493,105.48a12.57,12.57,0,0,1-4.89,6.22c-2.84,1.9-5.36,2.55-7.62,2.15.49-2.25,2.06-4.32,4.9-6.22a12.54,12.54,0,0,1,7.61-2.15m-6.3-2.89c0-2.3,1.1-4.66,3.48-7.11a12.59,12.59,0,0,1,7-3.7,12.6,12.6,0,0,1-3.47,7.11c-2.38,2.46-4.7,3.62-7,3.7" transform="translate(-359.52 -13.72)"/><path class="cls-2" d="M392.53,86.63v1.74a104.72,104.72,0,0,0,7.49,12.4h-6.21s1.23,2.55,5.06,2.55H463.6c3.83,0,5.06-2.55,5.06-2.55H463a126.6,126.6,0,0,0,7.83-13.3h3.11V82.59H457a45.64,45.64,0,0,1-11.22-57.45,66.77,66.77,0,0,0-53.28,61.49m1.31,0a62,62,0,0,1,29-9.11v9.11Zm61.7-2-1.47,2h-27.2V77.45a61.92,61.92,0,0,1,28.67,7.23M450,79.32a64.84,64.84,0,0,0-54.53,3.46,64.35,64.35,0,0,1,45.77-53.89A48.07,48.07,0,0,0,450,79.32" transform="translate(-359.52 -13.72)"/><path class="cls-2" d="M428.37,124.78h5.74c3.83,0,5.06-2.55,5.06-2.55H423.3s1.24,2.55,5.07,2.55" transform="translate(-359.52 -13.72)"/><path class="cls-2" d="M450.73,116.86h-39s1.24,2.55,5.06,2.55h28.85c3.82,0,5.06-2.55,5.06-2.55" transform="translate(-359.52 -13.72)"/><path class="cls-2" d="M459.53,111.5H403s1.24,2.55,5.06,2.55h46.45c3.83,0,5.07-2.55,5.07-2.55" transform="translate(-359.52 -13.72)"/><path class="cls-2" d="M464.89,106.13h-67.3s1.24,2.55,5.06,2.55h57.18c3.83,0,5.06-2.55,5.06-2.55" transform="translate(-359.52 -13.72)"/></g></svg>