<?xml version="1.0" encoding="utf-8"?>
<!-- Generator: Adobe Illustrator 24.1.0, SVG Export Plug-In . SVG Version: 6.00 Build 0)  -->
<svg version="1.1" id="Layer_1" xmlns="http://www.w3.org/2000/svg" xmlns:xlink="http://www.w3.org/1999/xlink" x="0px" y="0px"
	 viewBox="0 0 289 306" style="enable-background:new 0 0 289 306;" xml:space="preserve">
<style type="text/css">
	.st0{fill:#008556;}
</style>
<g>
	<path class="st0" d="M43.62,247.11h-7.61v21.22h7.46c3.37,0,6.22-1.03,8.45-3.06c2.23-2.03,3.37-4.59,3.37-7.61
		c0-3.02-1.11-5.56-3.29-7.55C49.81,248.11,46.99,247.11,43.62,247.11 M48.58,262.31c-1.27,1.21-2.91,1.83-4.87,1.83h-2.88v-12.81
		h2.88c1.96,0,3.6,0.61,4.87,1.81c1.27,1.2,1.91,2.74,1.91,4.58C50.49,259.55,49.85,261.1,48.58,262.31"/>
	<path class="st0" d="M72.21,259.52c0,1.4-0.4,2.55-1.18,3.4c-0.78,0.85-1.83,1.28-3.11,1.28s-2.33-0.43-3.12-1.28
		c-0.8-0.85-1.2-2-1.2-3.4v-12.41h-4.88v12.56c0,2.7,0.83,4.89,2.48,6.51c1.64,1.62,3.86,2.45,6.57,2.45c2.7,0,4.92-0.85,6.62-2.52
		c1.69-1.67,2.55-3.89,2.55-6.59v-12.41h-4.73V259.52z"/>
	<path class="st0" d="M95.21,257.21c0.83-0.47,1.48-1.09,1.96-1.85c0.52-0.82,0.78-1.76,0.78-2.78c0-1.61-0.62-2.94-1.86-3.96
		c-1.23-1.01-2.86-1.53-4.86-1.53h-9.53v21.22h10.07c2.06,0,3.77-0.57,5.1-1.69c1.33-1.13,2.01-2.56,2.01-4.24
		c0-1.22-0.35-2.31-1.04-3.25C97.19,258.28,96.31,257.63,95.21,257.21 M92.36,254.96c-0.52,0.46-1.23,0.69-2.11,0.69h-3.72v-4.78
		h3.72c0.89,0,1.6,0.23,2.11,0.69c0.51,0.46,0.77,1.03,0.77,1.71C93.13,253.94,92.87,254.51,92.36,254.96 M86.53,259.18h4.41
		c0.97,0,1.74,0.26,2.31,0.76c0.57,0.51,0.84,1.14,0.84,1.91c0,0.76-0.28,1.42-0.85,1.94c-0.57,0.53-1.34,0.79-2.3,0.79h-4.41
		V259.18z"/>
	<path class="st0" d="M113.27,247.11h-4.71l-8.61,21.22h5.05l1.68-4.41h8.24l1.68,4.41h5.29l-8.58-21.15L113.27,247.11z
		 M113.53,260.06h-5.51l2.77-7.26L113.53,260.06z"/>
	<rect x="124.42" y="247.11" class="st0" width="4.94" height="21.22"/>
	<path class="st0" d="M151.16,247.11h-9.2v21.22h4.82v-6.66h4.23c2.38,0,4.35-0.7,5.85-2.07c1.51-1.38,2.27-3.15,2.27-5.27
		c0-2.14-0.74-3.9-2.2-5.23C155.48,247.78,153.54,247.11,151.16,247.11 M146.78,251.21h3.93c1.08,0,1.97,0.31,2.63,0.92
		c0.66,0.6,1,1.39,1,2.33c0,0.94-0.34,1.73-1,2.33c-0.66,0.6-1.55,0.91-2.63,0.91h-3.93V251.21z"/>
	<path class="st0" d="M172.83,246.8c-3.14,0-5.82,1.08-7.97,3.2c-2.15,2.12-3.24,4.75-3.24,7.8c0,3.06,1.07,5.65,3.17,7.72
		c2.1,2.06,4.76,3.11,7.89,3.11c3.13,0,5.82-1.07,7.97-3.18c2.15-2.11,3.24-4.73,3.24-7.79c0-3.06-1.07-5.66-3.17-7.73
		S175.96,246.8,172.83,246.8 M177.29,262.34c-1.2,1.23-2.72,1.85-4.52,1.85c-1.82,0-3.34-0.62-4.53-1.85
		c-1.19-1.23-1.8-2.79-1.8-4.63c0-1.82,0.6-3.36,1.8-4.6c1.19-1.23,2.72-1.85,4.53-1.85c1.8,0,3.32,0.62,4.52,1.85
		c1.2,1.23,1.81,2.78,1.81,4.6C179.1,259.56,178.49,261.11,177.29,262.34"/>
	<path class="st0" d="M230.49,261.89c-1.25,1.54-2.9,2.31-4.93,2.31c-3.67,0-6.33-2.73-6.33-6.48c0-3.74,2.66-6.45,6.33-6.45
		c1.95,0,3.56,0.73,4.8,2.16l0.08,0.09l3.52-3.13l-0.08-0.09c-2.16-2.32-4.93-3.5-8.26-3.5c-6.29,0-11.21,4.83-11.21,11
		s4.76,10.82,11.06,10.82c3.42,0,6.29-1.26,8.51-3.76l0.08-0.09l-3.5-2.99L230.49,261.89z"/>
	<polygon class="st0" points="192.57,247.11 187.75,247.11 187.75,268.33 202.83,268.33 202.83,264.02 192.57,264.02 	"/>
	<rect x="205.62" y="247.11" class="st0" width="4.94" height="21.22"/>
	<polygon class="st0" points="241.84,264.14 241.84,259.39 251.19,259.39 251.19,255.44 241.84,255.44 241.84,251.33 252.69,251.33 
		252.69,247.11 237.02,247.11 237.02,268.33 252.99,268.33 252.99,264.14 	"/>
	<path class="st0" d="M152.77,195.57c1.74,0,3.16-1.42,3.16-3.16c0-1.74-1.42-3.16-3.16-3.16c-1.74,0-3.16,1.42-3.16,3.16
		C149.61,194.16,151.03,195.57,152.77,195.57"/>
	<path class="st0" d="M235.81,190.82c1.74,0,3.16-1.41,3.16-3.16s-1.42-3.16-3.16-3.16c-1.74,0-3.16,1.42-3.16,3.16
		S234.06,190.82,235.81,190.82"/>
	<path class="st0" d="M231.42,198.1c1.74,0,3.16-1.42,3.16-3.16c0-1.74-1.42-3.16-3.16-3.16c-1.74,0-3.16,1.42-3.16,3.16
		C228.26,196.69,229.68,198.1,231.42,198.1"/>
	<path class="st0" d="M237.03,194.94c0,1.74,1.42,3.16,3.16,3.16c1.74,0,3.16-1.42,3.16-3.16c0-1.74-1.42-3.16-3.16-3.16
		C238.45,191.79,237.03,193.21,237.03,194.94"/>
	<path class="st0" d="M248.43,198.85l-5.31,3.23c1.25,2.05,4.93,9.18,3.22,19.29h-7.43v-19.29h-6.21v19.29h-4.71v-19.29h-6.21v19.29
		h-8.78v-21.82h-6.21v24.49c0,5.02-4.08,9.1-9.1,9.1h-1.58v6.21h1.58c7.23,0,13.29-5.03,14.89-11.78h38.73l0.58-2.37
		C255.23,211.53,250.09,201.57,248.43,198.85"/>
	<path class="st0" d="M113.89,198.81l-2.79,5.55c8.06,4.05,8.54,12.04,7.94,17H105.2v6.21h18.95l0.54-2.44
		C128.53,207.68,117.4,200.57,113.89,198.81"/>
	<path class="st0" d="M199.48,227.57l1.64-5.53c1.48-4.99,0.51-10.47-2.59-14.65c-2.72-3.67-6.88-6.06-11.42-6.58
		c-4.53-0.51-9.13,0.89-12.6,3.85l-5.48,4.67v-16.92h-6.21v28.94h-6.98v-21.82h-6.42c-8.57,0-15.53,6.97-15.53,15.53v12.49h6.21
		v-12.49c0-5.14,4.18-9.32,9.32-9.32h0.21v21.81H199.48z M169.04,217.49l9.51-8.11c2.17-1.85,5.03-2.73,7.87-2.4
		c2.83,0.32,5.43,1.82,7.13,4.11c1.94,2.62,2.55,6.05,1.62,9.18l-0.32,1.09h-25.8V217.49z"/>
	<path class="st0" d="M94.95,231.55c-1.74,0-3.16,1.42-3.16,3.16c0,1.74,1.42,3.16,3.16,3.16c1.74,0,3.16-1.42,3.16-3.16
		C98.11,232.97,96.69,231.55,94.95,231.55"/>
	<path class="st0" d="M61.8,231.55c-1.74,0-3.16,1.42-3.16,3.16c0,1.74,1.42,3.16,3.16,3.16c1.74,0,3.16-1.42,3.16-3.16
		C64.96,232.97,63.54,231.55,61.8,231.55"/>
	<path class="st0" d="M53.85,231.55c-1.74,0-3.16,1.42-3.16,3.16c0,1.74,1.42,3.16,3.16,3.16c1.74,0,3.16-1.42,3.16-3.16
		C57.01,232.97,55.59,231.55,53.85,231.55"/>
	<path class="st0" d="M145.03,195.58c1.74,0,3.16-1.42,3.16-3.16c0-1.74-1.42-3.16-3.16-3.16c-1.74,0-3.16,1.42-3.16,3.16
		C141.86,194.16,143.28,195.58,145.03,195.58"/>
	<path class="st0" d="M95.28,217.57c0,2.09-1.7,3.79-3.8,3.79h-2.85v-21.81h-6.54c-8.4,0-14.97,6.82-14.97,15.53v6.28h-24.9v-0.84
		c0-6.51,1.65-13.18,4.63-18.77l-5.48-2.92c-3.46,6.48-5.37,14.18-5.37,21.7v7.05h37.32v-12.49c0-5.32,3.77-9.32,8.76-9.32h0.33
		v21.82h9.06c5.52,0,10.01-4.49,10.01-10.01v-18.02h-6.21V217.57z"/>
	<path class="st0" d="M213.02,110.47c-1.07-0.06-2.16,0.01-3.23,0.2c0.72-0.78,1.43-1.7,2.11-2.79c2.4-3.85,2.88-8.32,1.7-12.17
		c-1.06,0.17-2.11,0.47-3.12,0.88c0.54-0.91,1.04-1.96,1.48-3.17c1.53-4.27,1.07-8.74-0.9-12.26c-1,0.39-1.96,0.9-2.86,1.52
		c0.34-1.01,0.6-2.14,0.78-3.41c0.6-4.49-0.8-8.77-3.47-11.79c-0.9,0.59-1.73,1.29-2.48,2.09c0.12-1.06,0.14-2.22,0.04-3.5
		c-0.36-4.52-2.63-8.4-5.87-10.8c-0.75,0.77-1.42,1.63-1.98,2.56c-0.11-1.06-0.33-2.19-0.7-3.42c-1.3-4.34-4.34-7.66-8.02-9.32
		c-0.57,0.91-1.04,1.89-1.4,2.92c-0.33-1.01-0.78-2.08-1.4-3.2c-2.19-3.97-5.85-6.58-9.8-7.42c-0.75,2.04-1.02,4.29-0.77,6.55
		c-0.48-0.36-1-0.71-1.57-1.05c-3.88-2.34-8.36-2.77-12.2-1.53c0.69,3.97,3.15,7.74,7.03,10.08c0.57,0.34,1.12,0.64,1.66,0.9
		c-2.11,0.83-3.98,2.12-5.43,3.73c2.17,2.59,5.34,4.43,8.98,5.02c1.58,2.95,4.27,5.37,7.66,6.69c0.93,3.21,3.04,6.15,6.08,8.15
		c0.23,3.34,1.68,6.65,4.23,9.25c-0.48,3.31,0.24,6.86,2.18,9.93c-1.16,3.13-1.21,6.75,0.04,10.17c-1.8,2.82-2.6,6.35-2.1,9.95
		c-2.35,2.37-3.88,5.65-4.15,9.29c-2.8,1.83-4.99,4.71-6.01,8.2c-3.12,1.2-5.87,3.55-7.61,6.75c-3.3,0.51-6.48,2.24-8.86,5
		c-3.99-0.23-8.18,1.26-11.34,4.44c-2.05,2.06-3.24,4.05-3.83,5.93c-1,3.36-5.77,3.36-6.77,0c-0.59-1.88-1.79-3.87-3.84-5.93
		c-3.17-3.18-7.35-4.68-11.34-4.44c-2.37-2.76-5.55-4.49-8.86-5c-1.74-3.2-4.48-5.56-7.6-6.75c-1.03-3.49-3.21-6.38-6.01-8.2
		c-0.27-3.63-1.8-6.91-4.15-9.29c0.5-3.61-0.3-7.13-2.1-9.95c1.25-3.42,1.21-7.04,0.04-10.17c1.95-3.08,2.66-6.62,2.18-9.93
		c2.55-2.6,4-5.91,4.23-9.25c3.04-2,5.16-4.94,6.08-8.15c3.4-1.32,6.08-3.74,7.66-6.69c3.64-0.58,6.81-2.42,8.98-5.02
		c-1.46-1.61-3.32-2.9-5.43-3.73c0.54-0.26,1.09-0.55,1.66-0.9c3.88-2.34,6.34-6.11,7.03-10.08c-3.84-1.24-8.32-0.82-12.2,1.53
		c-0.57,0.34-1.09,0.69-1.57,1.05c0.25-2.26-0.02-4.51-0.77-6.55c-3.95,0.85-7.61,3.45-9.8,7.42c-0.62,1.13-1.08,2.19-1.4,3.2
		c-0.36-1.03-0.82-2.01-1.4-2.92c-3.68,1.66-6.71,4.98-8.02,9.32c-0.37,1.23-0.59,2.37-0.7,3.42c-0.57-0.93-1.23-1.79-1.98-2.56
		c-3.25,2.4-5.51,6.28-5.87,10.8c-0.1,1.28-0.08,2.44,0.04,3.5c-0.75-0.79-1.58-1.49-2.48-2.09c-2.67,3.03-4.07,7.3-3.46,11.79
		c0.17,1.28,0.44,2.4,0.77,3.41c-0.9-0.62-1.86-1.13-2.86-1.52c-1.97,3.52-2.44,7.99-0.9,12.26c0.43,1.21,0.93,2.26,1.48,3.17
		c-1.01-0.41-2.06-0.71-3.12-0.88c-1.18,3.85-0.7,8.33,1.7,12.17c0.68,1.09,1.39,2.01,2.11,2.79c-1.08-0.19-2.16-0.26-3.23-0.2
		c-0.35,4.02,1.07,8.29,4.22,11.54c0.89,0.92,1.78,1.67,2.65,2.28c-1.09,0.04-2.17,0.2-3.2,0.48c0.51,4,2.79,7.88,6.56,10.4
		c1.07,0.71,2.09,1.26,3.07,1.67c-1.06,0.27-2.08,0.65-3.03,1.14c1.34,3.81,4.39,7.11,8.6,8.78c1.2,0.47,2.31,0.79,3.35,0.99
		c-0.98,0.48-1.89,1.07-2.72,1.76c2.11,3.44,5.79,6.03,10.26,6.77c1.27,0.21,2.42,0.29,3.49,0.26c-0.85,0.68-1.62,1.45-2.29,2.29
		c2.79,2.92,6.93,4.67,11.46,4.46c1.28-0.06,2.43-0.23,3.46-0.48c-0.69,0.85-1.28,1.76-1.76,2.72c3.34,2.26,7.76,3.11,12.14,1.94
		c2.11-0.56,3.79-1.34,5.11-2.25c4.26-2.9,9.9-2.97,14.27,0c1.32,0.91,3,1.69,5.11,2.25c4.38,1.16,8.8,0.32,12.14-1.94
		c-0.47-0.96-1.06-1.88-1.76-2.72c1.03,0.25,2.18,0.42,3.46,0.48c4.53,0.21,8.67-1.54,11.46-4.46c-0.67-0.84-1.44-1.61-2.29-2.29
		c1.07,0.03,2.22-0.05,3.49-0.26c4.47-0.74,8.15-3.33,10.26-6.77c-0.83-0.68-1.74-1.27-2.72-1.76c1.04-0.2,2.16-0.52,3.35-0.99
		c4.22-1.67,7.26-4.97,8.61-8.78c-0.95-0.49-1.97-0.88-3.03-1.14c0.98-0.41,2-0.96,3.07-1.67c3.77-2.52,6.05-6.39,6.56-10.4
		c-1.04-0.28-2.11-0.44-3.2-0.48c0.87-0.61,1.76-1.36,2.65-2.28C211.95,118.75,213.36,114.48,213.02,110.47 M118.96,142.55
		c2.4,0.9,4.59,2.6,6.13,5.01c1.85,2.88,2.46,5.4,2.01,7.66c-2.24-0.53-4.28-2.13-6.13-5.01
		C119.42,147.81,118.78,145.1,118.96,142.55 M110.66,136.13c2.15,1.38,3.93,3.51,4.94,6.18c1.2,3.2,1.26,5.8,0.35,7.91
		c-2.08-0.99-3.74-2.99-4.94-6.19C110,141.36,109.95,138.58,110.66,136.13 M103.9,128.1c1.81,1.8,3.1,4.26,3.52,7.09
		c0.5,3.39,0.01,5.94-1.33,7.81c-1.82-1.41-3.02-3.71-3.52-7.09C102.16,133.07,102.69,130.35,103.9,128.1 M98.98,118.82
		c1.39,2.15,2.14,4.82,1.95,7.67c-0.22,3.42-1.24,5.81-2.94,7.35c-1.48-1.76-2.17-4.26-1.95-7.68
		C96.23,123.32,97.32,120.77,98.98,118.82 M89.76,103.73c1.34-2.52,3.39-4.4,5.71-5.48c0.39,2.53-0.04,5.27-1.38,7.79
		c-1.61,3.02-3.52,4.78-5.71,5.49C87.75,109.31,88.15,106.75,89.76,103.73 M87.3,99.36c-0.15-2.3,0.78-4.72,3-7.33
		c1.85-2.18,4.24-3.58,6.73-4.16c-0.16,2.55-1.15,5.15-2.99,7.33C91.82,97.8,89.59,99.13,87.3,99.36 M91.71,115.28
		c0.78-2.74,2.39-5.01,4.42-6.56c0.91,2.39,1.07,5.16,0.29,7.91c-0.94,3.29-2.43,5.42-4.42,6.57
		C90.91,121.17,90.77,118.58,91.71,115.28 M96.27,84.58c-2.71,2.09-5.18,2.91-7.46,2.65c0.34-2.28,1.76-4.45,4.47-6.54
		c2.26-1.74,4.9-2.61,7.46-2.65C100.05,80.51,98.53,82.84,96.27,84.58 M122.68,56.12c-2.02,1.57-4.62,2.54-7.48,2.6
		c-3.42,0.07-5.89-0.74-7.58-2.31c1.63-1.63,4.06-2.53,7.48-2.59C117.97,53.76,120.6,54.63,122.68,56.12 M118.76,45.05
		c2.45-1.48,5.16-2.04,7.71-1.79c-0.96,2.37-2.73,4.51-5.17,5.99c-2.93,1.77-5.47,2.3-7.72,1.79
		C114.17,48.81,115.83,46.82,118.76,45.05 M107.54,46.02c1.38-2.5,3.45-4.35,5.78-5.4c0.35,2.53-0.11,5.27-1.48,7.77
		c-1.65,3-3.59,4.73-5.78,5.41C105.45,51.58,105.89,49.02,107.54,46.02 M105.97,61.15c2.78-0.65,5.54-0.36,7.89,0.66
		c-1.64,1.96-3.98,3.46-6.76,4.11c-3.33,0.78-5.91,0.52-7.89-0.66C100.45,63.33,102.64,61.94,105.97,61.15 M96.93,55.13
		c0.82-2.73,2.46-4.98,4.51-6.5c0.88,2.4,1.01,5.17,0.19,7.91c-0.98,3.28-2.51,5.38-4.51,6.51C96.06,61,95.95,58.4,96.93,55.13
		 M98.59,70.25c2.58-1.23,5.34-1.52,7.85-1.02c-1.19,2.26-3.16,4.22-5.74,5.44c-3.09,1.47-5.67,1.75-7.86,1.02
		C93.65,73.54,95.49,71.72,98.59,70.25 M88.48,66.26c0.23-2.85,1.35-5.38,3.04-7.3c1.36,2.16,2.07,4.85,1.85,7.69
		c-0.27,3.41-1.32,5.79-3.04,7.31C88.86,72.19,88.21,69.67,88.48,66.26 M83.99,71.14c1.79,1.83,3.05,4.3,3.43,7.13
		c0.45,3.39-0.07,5.94-1.43,7.79c-1.8-1.43-2.98-3.75-3.43-7.14C82.18,76.1,82.75,73.38,83.99,71.14 M79.2,84.65
		c2.13,1.41,3.89,3.56,4.85,6.25c1.16,3.22,1.18,5.82,0.24,7.92c-2.06-1.02-3.7-3.04-4.85-6.26C78.47,89.87,78.46,87.09,79.2,84.65
		 M77.37,98.85c2.38,0.93,4.55,2.66,6.06,5.09c1.81,2.9,2.38,5.44,1.9,7.69c-2.23-0.56-4.26-2.19-6.06-5.09
		C77.75,104.11,77.15,101.4,77.37,98.85 M82.04,120.24c-1.99-2.05-3.15-4.57-3.47-7.11c2.53,0.41,5.01,1.65,7,3.7
		c2.38,2.46,3.47,4.81,3.48,7.11C86.74,123.86,84.42,122.7,82.04,120.24 M87.63,133.05c-2.37-1.59-4.04-3.81-4.89-6.22
		c2.55-0.14,5.24,0.55,7.62,2.14c2.85,1.9,4.41,3.97,4.9,6.22C92.99,135.6,90.48,134.95,87.63,133.05 M95.8,144.4
		c-2.66-1.05-4.75-2.87-6.09-5.05c2.47-0.67,5.24-0.56,7.9,0.49c3.18,1.26,5.15,2.96,6.1,5.05
		C101.58,145.76,98.98,145.66,95.8,144.4 M106.18,153.77c-2.82-0.47-5.25-1.8-7.02-3.65c2.27-1.17,5.01-1.65,7.82-1.18
		c3.38,0.56,5.66,1.8,7.03,3.65C112.11,153.89,109.55,154.33,106.18,153.77 M118.29,160.74c-2.85,0.14-5.51-0.66-7.63-2.09
		c1.97-1.63,4.55-2.67,7.4-2.81c3.42-0.16,5.91,0.57,7.64,2.09C124.12,159.61,121.71,160.58,118.29,160.74 M131.6,165.01
		c-2.76,0.73-5.53,0.52-7.9-0.44c1.59-2.01,3.88-3.57,6.64-4.3c3.31-0.88,5.9-0.69,7.91,0.43
		C137.06,162.67,134.91,164.13,131.6,165.01 M132,154.15c-2.01-2.03-3.21-4.53-3.57-7.06c2.53,0.37,5.03,1.58,7.04,3.6
		c2.41,2.43,3.54,4.77,3.57,7.07C136.75,157.71,134.41,156.57,132,154.15 M211.63,98.85c0.22,2.55-0.39,5.26-1.9,7.68
		c-1.81,2.9-3.83,4.53-6.06,5.09c-0.48-2.25,0.09-4.78,1.9-7.69C207.09,101.52,209.25,99.78,211.63,98.85 M209.8,84.65
		c0.75,2.45,0.73,5.22-0.24,7.91c-1.16,3.22-2.79,5.24-4.85,6.26c-0.94-2.1-0.92-4.7,0.24-7.92
		C205.91,88.21,207.66,86.06,209.8,84.65 M201.58,78.28c0.38-2.83,1.64-5.3,3.43-7.13c1.25,2.24,1.81,4.95,1.43,7.78
		c-0.45,3.39-1.62,5.71-3.43,7.14C201.65,84.21,201.13,81.67,201.58,78.28 M194.91,106.04c-1.34-2.52-1.77-5.26-1.38-7.79
		c2.32,1.09,4.36,2.96,5.71,5.48c1.61,3.02,2.02,5.59,1.39,7.8C198.43,110.82,196.53,109.06,194.91,106.04 M197.01,123.2
		c-1.99-1.15-3.49-3.28-4.43-6.57c-0.78-2.75-0.62-5.52,0.29-7.91c2.04,1.55,3.64,3.82,4.42,6.56
		C198.23,118.58,198.09,121.17,197.01,123.2 M194.97,95.19c-1.85-2.18-2.84-4.77-2.99-7.33c2.49,0.57,4.89,1.98,6.73,4.16
		c2.21,2.61,3.14,5.04,3,7.33C199.41,99.13,197.18,97.8,194.97,95.19 M197.48,58.96c1.69,1.92,2.82,4.46,3.04,7.3
		c0.27,3.41-0.38,5.93-1.85,7.7c-1.72-1.52-2.77-3.9-3.04-7.31C195.41,63.8,196.12,61.12,197.48,58.96 M187.56,48.63
		c2.05,1.52,3.69,3.77,4.51,6.5c0.98,3.28,0.87,5.87-0.18,7.92c-2.01-1.13-3.53-3.23-4.51-6.51
		C186.55,53.8,186.68,51.03,187.56,48.63 M175.68,40.62c2.33,1.05,4.4,2.9,5.78,5.4c1.65,3,2.09,5.56,1.49,7.78
		c-2.2-0.68-4.13-2.41-5.78-5.41C175.79,45.89,175.33,43.15,175.68,40.62 M167.7,49.24c-2.44-1.48-4.21-3.62-5.17-5.99
		c2.55-0.25,5.27,0.31,7.71,1.79c2.93,1.77,4.59,3.77,5.18,5.99C173.17,51.55,170.63,51.01,167.7,49.24 M173.8,58.72
		c-2.85-0.06-5.46-1.03-7.47-2.6c2.08-1.49,4.71-2.36,7.57-2.31c3.42,0.07,5.86,0.97,7.48,2.59
		C179.69,57.98,177.22,58.79,173.8,58.72 M175.14,61.81c2.35-1.02,5.11-1.32,7.89-0.66c3.33,0.78,5.52,2.18,6.77,4.11
		c-1.98,1.18-4.56,1.44-7.89,0.66C179.12,65.27,176.78,63.77,175.14,61.81 M182.57,69.23c2.51-0.5,5.27-0.21,7.85,1.02
		c3.09,1.47,4.94,3.29,5.75,5.45c-2.18,0.73-4.77,0.45-7.85-1.02C185.73,73.45,183.76,71.49,182.57,69.23 M188.26,78.05
		c2.56,0.03,5.2,0.9,7.46,2.65c2.71,2.09,4.14,4.26,4.48,6.54c-2.29,0.26-4.75-0.56-7.46-2.65
		C190.47,82.84,188.95,80.51,188.26,78.05 M190.02,118.82c1.66,1.94,2.75,4.5,2.94,7.35c0.22,3.41-0.46,5.92-1.95,7.68
		c-1.71-1.55-2.72-3.94-2.94-7.35C187.88,123.64,188.62,120.97,190.02,118.82 M181.58,135.18c0.42-2.83,1.71-5.28,3.52-7.09
		c1.22,2.25,1.74,4.98,1.33,7.8c-0.5,3.39-1.7,5.69-3.52,7.09C181.56,141.12,181.08,138.57,181.58,135.18 M173.4,142.31
		c1-2.67,2.78-4.8,4.94-6.18c0.71,2.46,0.66,5.23-0.35,7.91c-1.2,3.2-2.86,5.2-4.94,6.19C172.14,148.11,172.2,145.52,173.4,142.31
		 M163.91,147.56c1.54-2.4,3.73-4.11,6.13-5.01c0.18,2.55-0.46,5.25-2,7.66c-1.85,2.88-3.89,4.48-6.13,5.01
		C161.46,152.97,162.06,150.44,163.91,147.56 M153.53,150.69c2.01-2.02,4.52-3.23,7.05-3.6c-0.36,2.53-1.56,5.04-3.57,7.06
		c-2.41,2.42-4.75,3.56-7.05,3.61C149.99,155.46,151.11,153.12,153.53,150.69 M157.4,165.01c-3.31-0.88-5.46-2.33-6.65-4.3
		c2.01-1.12,4.6-1.31,7.91-0.43c2.76,0.73,5.06,2.3,6.64,4.3C162.92,165.52,160.16,165.74,157.4,165.01 M170.71,160.74
		c-3.42-0.16-5.83-1.13-7.41-2.81c1.73-1.52,4.22-2.25,7.64-2.09c2.85,0.14,5.42,1.18,7.4,2.81
		C176.22,160.08,173.56,160.88,170.71,160.74 M182.83,153.77c-3.38,0.56-5.94,0.12-7.83-1.18c1.37-1.85,3.65-3.09,7.03-3.65
		c2.82-0.47,5.55,0.01,7.83,1.18C188.08,151.96,185.64,153.3,182.83,153.77 M193.2,144.4c-3.18,1.26-5.78,1.37-7.91,0.49
		c0.95-2.1,2.92-3.79,6.1-5.05c2.65-1.05,5.43-1.16,7.9-0.49C197.95,141.53,195.86,143.34,193.2,144.4 M206.26,126.83
		c-0.85,2.41-2.52,4.63-4.89,6.22c-2.84,1.9-5.36,2.55-7.62,2.15c0.49-2.25,2.06-4.32,4.9-6.22
		C201.02,127.39,203.71,126.7,206.26,126.83 M199.96,123.94c0-2.3,1.1-4.66,3.48-7.11c1.99-2.05,4.47-3.29,6.99-3.7
		c-0.33,2.54-1.49,5.06-3.47,7.11C204.58,122.7,202.26,123.86,199.96,123.94"/>
	<path class="st0" d="M105.79,107.98v1.74c0.52,1.11,3.14,6.1,7.49,12.4h-6.21c0,0,1.23,2.55,5.06,2.55h64.73
		c3.83,0,5.06-2.55,5.06-2.55h-5.68c3.45-5.13,5.12-8.19,7.83-13.3h3.11v-4.88h-16.89c-17.74-14.41-21.54-39.03-11.22-57.45
		C129.56,52.36,107.39,78.03,105.79,107.98 M107.1,108.01c8.72-5.4,18.75-8.52,29.03-9.11v9.11H107.1z M168.8,106.03l-1.47,1.98
		h-27.2V98.8C149.87,98.87,159.71,101.2,168.8,106.03 M163.23,100.67c-17.44-6.81-37.53-5.83-54.53,3.46
		c3.1-25.79,21.64-46.92,45.77-53.89C147.64,66.83,150.52,86.54,163.23,100.67"/>
	<path class="st0" d="M141.63,146.13h5.74c3.83,0,5.06-2.55,5.06-2.55h-15.87C136.57,143.58,137.8,146.13,141.63,146.13"/>
	<path class="st0" d="M163.99,138.21h-38.97c0,0,1.24,2.55,5.06,2.55h28.85C162.75,140.76,163.99,138.21,163.99,138.21"/>
	<path class="st0" d="M172.79,132.85h-56.58c0,0,1.24,2.55,5.06,2.55h46.45C171.55,135.4,172.79,132.85,172.79,132.85"/>
	<path class="st0" d="M178.15,127.48h-67.3c0,0,1.24,2.55,5.06,2.55h57.18C176.92,130.03,178.15,127.48,178.15,127.48"/>
</g>
</svg>
