<?xml version="1.0" encoding="utf-8"?>
<!-- Generator: Adobe Illustrator 24.1.0, SVG Export Plug-In . SVG Version: 6.00 Build 0)  -->
<svg version="1.1" xmlns="http://www.w3.org/2000/svg" xmlns:xlink="http://www.w3.org/1999/xlink" x="0px" y="0px"
	 viewBox="0 0 1024 1024" style="enable-background:new 0 0 1024 1024; fill: #018755" xml:space="preserve">
<g id="Icon_Guidlines">
</g>
<g id="Icons" style="display:none;">
</g>
<g id="Layer_3">
	<path id="Path_4964" d="M886.07,148.14c-0.24-9.35-7.94-16.74-17.19-16.51H157.12c-9.25-0.23-16.94,7.16-17.19,16.51v485.41
		c0.24,9.35,7.94,16.74,17.19,16.51h711.75c9.25,0.23,16.95-7.16,17.19-16.51L886.07,148.14z M174.32,617.03v-74.39h142.36
		c7.47,16.91,24.16,27.72,42.47,27.51c24.05,1.26,44.56-17.43,45.81-41.75c1.25-24.32-17.24-45.05-41.3-46.31
		c-1.5-0.08-3.01-0.08-4.51,0c-18.33-0.2-35.02,10.64-42.47,27.57H174.32v-36.79H438l43.22,41.51c-2.63,5.6-4,11.73-4.01,17.93
		c-1.3,25.6,18.17,47.42,43.49,48.74s46.9-18.37,48.21-43.97c1.3-25.6-18.17-47.42-43.49-48.74c-0.78-0.04-1.57-0.06-2.35-0.06
		c-5.83,0-11.62,1.08-17.06,3.19l-48.69-46.79c-3.29-3.12-7.64-4.85-12.15-4.83H174.32v-32.49h472.46
		c7.46,16.9,24.13,27.72,42.43,27.53c24.05,1.26,44.56-17.43,45.81-41.75c1.25-24.32-17.24-45.05-41.3-46.31
		c-1.5-0.08-3.01-0.08-4.51,0c-18.33-0.2-35.02,10.64-42.47,27.57H174.32V341.9h118.37c4.51,0.02,8.86-1.71,12.15-4.83l48.69-46.8
		c5.45,2.11,11.23,3.19,17.06,3.19c24.05-1.25,42.55-21.98,41.31-46.3c-1.24-24.32-21.74-43.02-45.79-41.77
		c-23.18,1.21-41.37,20.56-41.37,44.03c0.01,6.2,1.38,12.33,4.01,17.93l-43.2,41.5H174.32v-144.2h677.37v40.71H584.64
		c-4.51-0.02-8.86,1.71-12.15,4.83l-48.69,46.8c-5.45-2.11-11.23-3.19-17.06-3.19c-24.05,1.25-42.55,21.98-41.31,46.3
		c1.24,24.32,21.74,43.02,45.79,41.77c23.18-1.21,41.37-20.56,41.37-44.03c-0.01-6.2-1.38-12.33-4.01-17.93l43.23-41.52h259.92
		v277.42H715.05c-7.45-16.93-24.14-27.77-42.47-27.57c-24.05-1.26-44.56,17.43-45.81,41.75c-1.25,24.32,17.24,45.05,41.3,46.31
		c1.5,0.08,3.01,0.08,4.51,0c18.32,0.21,35-10.6,42.47-27.51h136.64v68.24H174.32z M347.67,526.1c-0.32-6.4,4.55-11.85,10.87-12.17
		c6.33-0.33,11.72,4.6,12.04,10.99c0.32,6.4-4.55,11.85-10.87,12.17c-0.19,0.01-0.39,0.01-0.58,0.02
		c-6.15,0.14-11.26-4.77-11.44-10.99L347.67,526.1z M523.04,521.27c6.02,0.31,10.64,5.49,10.34,11.57
		c-0.31,6.08-5.43,10.76-11.45,10.45c-5.8-0.3-10.36-5.14-10.35-11.02c0.19-6.23,5.32-11.14,11.48-10.98L523.04,521.27z
		 M677.78,390.85c-0.32-6.4,4.55-11.85,10.87-12.17c6.33-0.33,11.72,4.6,12.04,10.99c0.32,6.4-4.55,11.85-10.87,12.17
		c-0.21,0.01-0.41,0.02-0.62,0.01C683.05,401.98,677.95,397.07,677.78,390.85z M359.16,249.39c-0.32-6.4,4.55-11.85,10.87-12.17
		c6.33-0.33,11.72,4.6,12.04,10.99c0.32,6.4-4.55,11.85-10.87,12.17c-0.19,0.01-0.39,0.01-0.58,0.02
		C364.46,260.55,359.33,255.63,359.16,249.39z M518.15,297.83c0.32,6.4-4.55,11.85-10.87,12.17c-6.33,0.33-11.72-4.6-12.04-10.99
		c-0.32-6.4,4.55-11.85,10.87-12.17c0.19-0.01,0.39-0.02,0.58-0.02C512.86,286.67,518,291.6,518.15,297.83L518.15,297.83z
		 M684.05,532.31c0.32,6.4-4.55,11.85-10.87,12.17c-6.33,0.33-11.72-4.6-12.04-10.99c-0.32-6.4,4.55-11.85,10.87-12.17
		c0.19-0.01,0.39-0.01,0.58-0.02C678.75,521.15,683.88,526.07,684.05,532.31z"/>
	<path id="Path_4965" d="M893.46,755.78H729.62v-39.65h155.99c37.25,0.9,68.21-28.83,69.23-66.49V132.07
		c-1.02-37.66-31.98-67.39-69.23-66.49H140.39c-37.25-0.9-68.21,28.83-69.23,66.49v517.56c1.02,37.66,31.98,67.39,69.23,66.49
		h155.99v39.66H132.54c-35.8-0.86-65.55,27.71-66.54,63.9v76.9c0.99,36.19,30.74,64.76,66.54,63.9h760.93
		c35.8,0.86,65.55-27.71,66.54-63.9v-76.92c-0.99-36.19-30.74-64.76-66.54-63.9V755.78z M105.58,649.66V132.07
		c0.53-18.95,16.1-33.91,34.85-33.48h745.23c18.75-0.43,34.32,14.53,34.85,33.48v517.56c-0.53,18.95-16.1,33.91-34.85,33.48H140.39
		c-18.75,0.43-34.32-14.53-34.85-33.48L105.58,649.66z M330.8,716.15h364.44v39.63H330.76L330.8,716.15z M925.61,896.58
		c-0.48,17.48-14.84,31.28-32.14,30.88H132.54c-17.29,0.41-31.66-13.39-32.14-30.88v-76.92c0.48-17.48,14.84-31.28,32.14-30.88
		h760.93c17.29-0.41,31.66,13.39,32.14,30.88L925.61,896.58L925.61,896.58z"/>
	<path id="Path_4966" d="M463.15,841.62H167.43c-9.02-0.45-16.69,6.59-17.13,15.71c-0.44,9.12,6.51,16.87,15.53,17.32
		c0.53,0.03,1.06,0.03,1.59,0h295.71c9.02,0.45,16.69-6.59,17.13-15.71c0.44-9.12-6.51-16.87-15.53-17.32
		C464.21,841.59,463.68,841.59,463.15,841.62z"/>
	<path id="Path_4967" d="M862,841.62h-51.62c-9.02-0.45-16.69,6.59-17.13,15.71s6.51,16.87,15.53,17.32c0.53,0.03,1.06,0.03,1.6,0
		H862c9.02,0.45,16.69-6.59,17.13-15.71c0.44-9.12-6.51-16.87-15.53-17.32C863.06,841.59,862.53,841.59,862,841.62z"/>
</g>
</svg>
