<?xml version="1.0" encoding="utf-8"?>
<!-- Generator: Adobe Illustrator 24.1.0, SVG Export Plug-In . SVG Version: 6.00 Build 0)  -->
<svg version="1.1" xmlns="http://www.w3.org/2000/svg" xmlns:xlink="http://www.w3.org/1999/xlink" x="0px" y="0px"
	 viewBox="0 0 1024 1024" style="enable-background:new 0 0 1024 1024;" xml:space="preserve">
<style type="text/css">
	.st0{display:none;}
	.st1{display:inline;}
	.st2{fill:#CCCCCC;}
	.st3{fill:#E6E6EB;}
	.st4{fill:#666666;}
	.st5{display:inline;fill:#008755;}
	.st6{display:inline;fill:#FFFFFF;}
	.st7{display:inline;fill:none;stroke:#0000FF;stroke-width:30;stroke-linecap:round;stroke-linejoin:round;stroke-miterlimit:10;}
	
		.st8{display:inline;fill-rule:evenodd;clip-rule:evenodd;fill:none;stroke:#0000FF;stroke-width:30;stroke-linecap:round;stroke-linejoin:round;stroke-miterlimit:10;}
	.st9{fill:#0000FF;}
	.st10{fill:none;stroke:#0000FF;stroke-width:30;stroke-linecap:round;stroke-linejoin:round;stroke-miterlimit:10;}
	
		.st11{fill-rule:evenodd;clip-rule:evenodd;fill:none;stroke:#0000FF;stroke-width:30;stroke-linecap:round;stroke-linejoin:round;stroke-miterlimit:10;}
	.st12{display:inline;fill-rule:evenodd;clip-rule:evenodd;fill:none;}
	.st13{fill:none;stroke:#000000;stroke-width:30;stroke-linecap:round;stroke-linejoin:round;stroke-miterlimit:10;}
	
		.st14{fill-rule:evenodd;clip-rule:evenodd;fill:none;stroke:#000000;stroke-width:30;stroke-linecap:round;stroke-linejoin:round;stroke-miterlimit:10;}
	.st15{fill-rule:evenodd;clip-rule:evenodd;fill:none;stroke:#000000;stroke-miterlimit:10;}
	.st16{fill-rule:evenodd;clip-rule:evenodd;}
	
		.st17{fill-rule:evenodd;clip-rule:evenodd;fill:none;stroke:#FFFFFF;stroke-width:30;stroke-linecap:round;stroke-linejoin:round;stroke-miterlimit:10;}
</style>
<g id="Icon_Guidlines" class="st0">
	<g class="st1">
		<g>
			<g>
				<polygon class="st3" points="318,1152.87 -131.79,1152.87 25.64,995.45 27.05,996.86 -126.96,1150.87 318,1150.87 				"/>
			</g>
			<g>
				<g>
					<polygon class="st3" points="34.33,988.17 18.48,994.82 25.75,996.75 27.68,1004.02 					"/>
				</g>
			</g>
		</g>
	</g>
	<g class="st1">
		<g>
			<rect x="510" y="-1.5" class="st4" width="4" height="1024"/>
		</g>
		<g>
			<rect x="704" y="-1.5" class="st4" width="4" height="1024"/>
		</g>
		<g>
			<rect x="956" y="-1.5" class="st4" width="4" height="1024"/>
		</g>
		<g>
			<rect x="1022" y="-239.5" class="st4" width="4" height="1264"/>
		</g>
		<g>
			<rect x="-2" y="-239.5" class="st4" width="4" height="1264"/>
		</g>
		<g>
			<rect x="316" y="-1.5" class="st4" width="4" height="1024"/>
		</g>
		<g>
			<rect x="64" y="-1.5" class="st4" width="4" height="1024"/>
		</g>
		<g>
			<rect x="-238" y="702.5" class="st4" width="1262" height="4"/>
		</g>
		<g>
			<rect x="0" y="954.5" class="st4" width="1262" height="4"/>
		</g>
		<g>
			<rect x="-238" y="314.5" class="st4" width="1262" height="4"/>
		</g>
		<g>
			<rect x="-238" y="62.5" class="st4" width="1500" height="4"/>
		</g>
		<g>
			<rect x="0" y="-3.5" class="st4" width="1024" height="4"/>
		</g>
		<g>
			<rect x="-2" y="1020.5" class="st4" width="1028" height="4"/>
		</g>
		<g>
			<rect x="0" y="508.5" class="st4" width="1024" height="4"/>
		</g>
		<g>
			<path class="st4" d="M512,786.85c-73.82,0-143.21-28.75-195.41-80.94c-52.2-52.2-80.94-121.59-80.94-195.41
				c0-73.82,28.75-143.21,80.94-195.41c52.2-52.2,121.59-80.94,195.41-80.94s143.21,28.75,195.41,80.94
				c52.2,52.2,80.94,121.59,80.94,195.41c0,73.82-28.75,143.21-80.94,195.41C655.21,758.1,585.82,786.85,512,786.85z M512,238.15
				c-72.75,0-141.14,28.33-192.58,79.77c-51.44,51.44-79.77,119.83-79.77,192.58s28.33,141.14,79.77,192.58
				c51.44,51.44,119.83,79.77,192.58,79.77s141.14-28.33,192.58-79.77c51.44-51.44,79.77-119.83,79.77-192.58
				s-28.33-141.14-79.77-192.58C653.14,266.48,584.75,238.15,512,238.15z"/>
		</g>
		<g>
			<path class="st4" d="M512,958.5c-60.48,0-119.15-11.85-174.38-35.21c-53.35-22.56-101.26-54.87-142.4-96.01
				c-41.14-41.14-73.45-89.05-96.01-142.4C75.85,629.65,64,570.98,64,510.5s11.85-119.15,35.21-174.38
				c22.56-53.35,54.87-101.26,96.01-142.4s89.05-73.45,142.4-96.01C392.85,74.34,451.52,62.5,512,62.5
				c60.48,0,119.15,11.85,174.38,35.21c53.35,22.56,101.26,54.87,142.4,96.01c41.14,41.14,73.44,89.05,96.01,142.4
				C948.15,391.35,960,450.02,960,510.5s-11.85,119.15-35.21,174.38c-22.56,53.35-54.87,101.26-96.01,142.4
				c-41.14,41.14-89.05,73.44-142.4,96.01C631.15,946.65,572.48,958.5,512,958.5z M512,66.5c-59.94,0-118.09,11.74-172.82,34.89
				c-52.87,22.36-100.35,54.38-141.13,95.15c-40.78,40.78-72.79,88.26-95.15,141.13C79.74,392.41,68,450.56,68,510.5
				s11.74,118.09,34.89,172.82c22.36,52.87,54.38,100.35,95.15,141.13c40.78,40.78,88.26,72.79,141.13,95.15
				C393.91,942.76,452.06,954.5,512,954.5c59.94,0,118.09-11.74,172.82-34.89c52.87-22.36,100.35-54.38,141.13-95.15
				c40.78-40.78,72.79-88.26,95.15-141.13C944.26,628.59,956,570.44,956,510.5s-11.74-118.09-34.89-172.82
				c-22.36-52.87-54.38-100.35-95.15-141.13c-40.78-40.78-88.26-72.79-141.13-95.15C630.09,78.24,571.94,66.5,512,66.5z"/>
		</g>
		<g>
			
				<rect x="510" y="-213.58" transform="matrix(0.7071 -0.7071 0.7071 0.7071 -211.0157 511.5602)" class="st4" width="4" height="1448.15"/>
		</g>
		<g>
			
				<rect x="-132.41" y="475.5" transform="matrix(0.7071 -0.7071 0.7071 0.7071 -178.0157 525.2292)" class="st4" width="1354.82" height="4"/>
		</g>
	</g>
</g>
<g id="Icons" class="st0">
</g>
<g id="Layer_3">
	<path class="st14" d="M279.39,822.4c0-31.18,6.31-61.01,17.74-88.11c11.87-28.2,29.31-53.6,50.91-74.99
		c21.54-21.27,47.31-38.47,75.85-50.14c27.47-11.24,57.56-17.49,89.22-17.49c31.54,0.05,61.65,6.28,89.13,17.59
		c28.52,11.71,54.31,28.96,75.85,50.28c21.57,21.28,38.94,46.7,50.8,74.96c11.37,27.08,17.7,56.87,17.65,88.09l65.54,0.05
		c0-39.88-8.11-78.01-22.71-112.8c-15.16-36.22-37.44-68.79-65.06-96.07c-27.51-27.28-60.48-49.23-97.08-64.28
		c-35.21-14.5-73.77-22.47-114.12-22.47c-40.36,0-78.92,7.91-114.17,22.39c-36.62,14.98-69.62,36.98-97.2,64.23
		c-27.62,27.23-49.88,59.81-65.09,95.92c-14.63,34.82-22.76,72.92-22.76,112.8L279.39,822.4z"/>
	<circle class="st13" cx="503.61" cy="257.15" r="180.32"/>
</g>
</svg>
