<?xml version="1.0" encoding="utf-8"?>
<!-- Generator: Adobe Illustrator 24.1.0, SVG Export Plug-In . SVG Version: 6.00 Build 0)  -->
<svg version="1.1" xmlns="http://www.w3.org/2000/svg" xmlns:xlink="http://www.w3.org/1999/xlink" x="0px" y="0px"
	 viewBox="0 0 1024 1024" style="enable-background:new 0 0 1024 1024;" xml:space="preserve">
<style type="text/css">
	.st0{display:none;}
	.st1{display:inline;}
	.st2{fill:#CCCCCC;}
	.st3{fill:#E6E6EB;}
	.st4{fill:#666666;}
	.st5{display:inline;fill:#008755;}
	.st6{display:inline;fill:#FFFFFF;}
	.st7{display:inline;fill:none;stroke:#0000FF;stroke-width:30;stroke-linecap:round;stroke-linejoin:round;stroke-miterlimit:10;}
	
		.st8{display:inline;fill-rule:evenodd;clip-rule:evenodd;fill:none;stroke:#0000FF;stroke-width:30;stroke-linecap:round;stroke-linejoin:round;stroke-miterlimit:10;}
	.st9{fill:#0000FF;}
	.st10{fill:none;stroke:#0000FF;stroke-width:30;stroke-linecap:round;stroke-linejoin:round;stroke-miterlimit:10;}
	
		.st11{fill-rule:evenodd;clip-rule:evenodd;fill:none;stroke:#0000FF;stroke-width:30;stroke-linecap:round;stroke-linejoin:round;stroke-miterlimit:10;}
	.st12{display:inline;fill-rule:evenodd;clip-rule:evenodd;fill:none;}
	.st13{fill:none;stroke:#000000;stroke-width:30;stroke-linecap:round;stroke-linejoin:round;stroke-miterlimit:10;}
	
		.st14{fill-rule:evenodd;clip-rule:evenodd;fill:none;stroke:#000000;stroke-width:30;stroke-linecap:round;stroke-linejoin:round;stroke-miterlimit:10;}
	.st15{fill-rule:evenodd;clip-rule:evenodd;fill:none;stroke:#000000;stroke-miterlimit:10;}
	.st16{fill-rule:evenodd;clip-rule:evenodd;}
	
		.st17{fill-rule:evenodd;clip-rule:evenodd;fill:none;stroke:#FFFFFF;stroke-width:30;stroke-linecap:round;stroke-linejoin:round;stroke-miterlimit:10;}
</style>
<g id="Icon_Guidlines" class="st0">
	<g class="st1">
		<g>
			<g>
				<polygon class="st3" points="318,1152.87 -131.79,1152.87 25.64,995.45 27.05,996.86 -126.96,1150.87 318,1150.87 				"/>
			</g>
			<g>
				<g>
					<polygon class="st3" points="34.33,988.17 18.48,994.82 25.75,996.75 27.68,1004.02 					"/>
				</g>
			</g>
		</g>
	</g>
	<g class="st1">
		<g>
			<rect x="510" y="-1.5" class="st4" width="4" height="1024"/>
		</g>
		<g>
			<rect x="704" y="-1.5" class="st4" width="4" height="1024"/>
		</g>
		<g>
			<rect x="956" y="-1.5" class="st4" width="4" height="1024"/>
		</g>
		<g>
			<rect x="1022" y="-239.5" class="st4" width="4" height="1264"/>
		</g>
		<g>
			<rect x="-2" y="-239.5" class="st4" width="4" height="1264"/>
		</g>
		<g>
			<rect x="316" y="-1.5" class="st4" width="4" height="1024"/>
		</g>
		<g>
			<rect x="64" y="-1.5" class="st4" width="4" height="1024"/>
		</g>
		<g>
			<rect x="-238" y="702.5" class="st4" width="1262" height="4"/>
		</g>
		<g>
			<rect x="0" y="954.5" class="st4" width="1262" height="4"/>
		</g>
		<g>
			<rect x="-238" y="314.5" class="st4" width="1262" height="4"/>
		</g>
		<g>
			<rect x="-238" y="62.5" class="st4" width="1500" height="4"/>
		</g>
		<g>
			<rect x="0" y="-3.5" class="st4" width="1024" height="4"/>
		</g>
		<g>
			<rect x="-2" y="1020.5" class="st4" width="1028" height="4"/>
		</g>
		<g>
			<rect x="0" y="508.5" class="st4" width="1024" height="4"/>
		</g>
		<g>
			<path class="st4" d="M512,786.85c-73.82,0-143.21-28.75-195.41-80.94c-52.2-52.2-80.94-121.59-80.94-195.41
				c0-73.82,28.75-143.21,80.94-195.41c52.2-52.2,121.59-80.94,195.41-80.94s143.21,28.75,195.41,80.94
				c52.2,52.2,80.94,121.59,80.94,195.41c0,73.82-28.75,143.21-80.94,195.41C655.21,758.1,585.82,786.85,512,786.85z M512,238.15
				c-72.75,0-141.14,28.33-192.58,79.77c-51.44,51.44-79.77,119.83-79.77,192.58s28.33,141.14,79.77,192.58
				c51.44,51.44,119.83,79.77,192.58,79.77s141.14-28.33,192.58-79.77c51.44-51.44,79.77-119.83,79.77-192.58
				s-28.33-141.14-79.77-192.58C653.14,266.48,584.75,238.15,512,238.15z"/>
		</g>
		<g>
			<path class="st4" d="M512,958.5c-60.48,0-119.15-11.85-174.38-35.21c-53.35-22.56-101.26-54.87-142.4-96.01
				c-41.14-41.14-73.45-89.05-96.01-142.4C75.85,629.65,64,570.98,64,510.5s11.85-119.15,35.21-174.38
				c22.56-53.35,54.87-101.26,96.01-142.4s89.05-73.45,142.4-96.01C392.85,74.34,451.52,62.5,512,62.5
				c60.48,0,119.15,11.85,174.38,35.21c53.35,22.56,101.26,54.87,142.4,96.01c41.14,41.14,73.44,89.05,96.01,142.4
				C948.15,391.35,960,450.02,960,510.5s-11.85,119.15-35.21,174.38c-22.56,53.35-54.87,101.26-96.01,142.4
				c-41.14,41.14-89.05,73.44-142.4,96.01C631.15,946.65,572.48,958.5,512,958.5z M512,66.5c-59.94,0-118.09,11.74-172.82,34.89
				c-52.87,22.36-100.35,54.38-141.13,95.15c-40.78,40.78-72.79,88.26-95.15,141.13C79.74,392.41,68,450.56,68,510.5
				s11.74,118.09,34.89,172.82c22.36,52.87,54.38,100.35,95.15,141.13c40.78,40.78,88.26,72.79,141.13,95.15
				C393.91,942.76,452.06,954.5,512,954.5c59.94,0,118.09-11.74,172.82-34.89c52.87-22.36,100.35-54.38,141.13-95.15
				c40.78-40.78,72.79-88.26,95.15-141.13C944.26,628.59,956,570.44,956,510.5s-11.74-118.09-34.89-172.82
				c-22.36-52.87-54.38-100.35-95.15-141.13c-40.78-40.78-88.26-72.79-141.13-95.15C630.09,78.24,571.94,66.5,512,66.5z"/>
		</g>
		<g>
			
				<rect x="510" y="-213.58" transform="matrix(0.7071 -0.7071 0.7071 0.7071 -211.0157 511.5602)" class="st4" width="4" height="1448.15"/>
		</g>
		<g>
			
				<rect x="-132.41" y="475.5" transform="matrix(0.7071 -0.7071 0.7071 0.7071 -178.0157 525.2292)" class="st4" width="1354.82" height="4"/>
		</g>
	</g>
</g>
<g id="Icons" class="st0">
	<path class="st8" d="M512.87,489.42c-21.4,0-40.82,8.56-54.85,22.4c-14,13.87-22.75,33.05-22.75,54.21
		c0,12.67,3.07,24.61,8.58,35.1c4.82,9.17,11.44,17.29,19.37,23.85l-0.05,92.05c0,10.5,4.35,20.04,11.27,26.89
		c6.99,6.95,16.68,11.22,27.26,11.22l0,0h22.15c10.61,0,20.27-4.27,27.21-11.13c7.02-6.93,11.39-16.48,11.39-26.93h-0.05l0.05-92.05
		c7.98-6.56,14.57-14.7,19.37-23.85c5.5-10.5,8.59-22.45,8.59-35.07c0.03-21.15-8.67-40.33-22.67-54.19
		C553.75,498.03,534.29,489.42,512.87,489.42L512.87,489.42z M304.79,340.9c0-27.79,5.63-54.38,15.81-78.53
		c10.58-25.13,26.12-47.78,45.37-66.84c19.2-18.95,42.16-34.29,67.61-44.69c24.49-10.01,51.3-15.59,79.52-15.59
		c28.11,0.05,54.94,5.6,79.44,15.68c25.42,10.44,48.4,25.81,67.61,44.82c19.23,18.97,34.7,41.63,45.28,66.81
		c10.14,24.14,15.78,50.69,15.73,78.51l58.41,0.05c0-35.54-7.23-69.53-20.24-100.54c-13.51-32.28-33.37-61.31-57.99-85.63
		c-24.52-24.32-53.91-43.88-86.53-57.29c-31.39-12.93-65.75-20.03-101.71-20.03c-35.97,0-70.34,7.05-101.76,19.95
		c-32.64,13.35-62.05,32.96-86.64,57.25c-24.61,24.27-44.46,53.3-58.02,85.49c-13.04,31.04-20.29,64.99-20.29,100.54L304.79,340.9z
		 M318.35,424.87c-0.83,0.21-1.74,0.33-2.6,0.33l-48.28-0.03v0.03h-2l-2.03,0.14l-0.86,0.05l0,0h-27.18h-0.21
		c-9.45,1.45-17.86,5.86-24.31,12.23l-0.04,0.04c-7.94,7.89-12.92,18.76-12.92,30.76v317.69c0,11.98,4.98,22.85,12.96,30.74
		c8.01,7.87,19.02,12.79,31.16,12.79h541.65c12.14,0,23.19-4.88,31.16-12.71v-0.09c8.03-7.88,12.92-18.76,12.92-30.74V468.41
		c0-11.95-4.94-22.87-12.92-30.76c-6.5-6.37-14.95-10.78-24.35-12.28l0,0h-80.34c-1.18,0-2.29-0.18-3.38-0.51H318.35z"/>
</g>
<g id="Layer_3">
	<path class="st14" d="M512.87,489.42c-21.4,0-40.82,8.56-54.85,22.4c-14,13.87-22.75,33.05-22.75,54.21
		c0,12.67,3.07,24.61,8.58,35.1c4.82,9.17,11.44,17.29,19.37,23.85l-0.05,92.05c0,10.5,4.35,20.04,11.27,26.89
		c6.99,6.95,16.68,11.22,27.26,11.22l0,0h22.15c10.61,0,20.27-4.27,27.21-11.13c7.02-6.93,11.39-16.48,11.39-26.93h-0.05l0.05-92.05
		c7.98-6.56,14.57-14.7,19.37-23.85c5.5-10.5,8.59-22.45,8.59-35.07c0.03-21.15-8.67-40.33-22.67-54.19
		C553.75,498.03,534.29,489.42,512.87,489.42L512.87,489.42z M304.79,340.9c0-27.79,5.63-54.38,15.81-78.53
		c10.58-25.13,26.12-47.78,45.37-66.84c19.2-18.95,42.16-34.29,67.61-44.69c24.49-10.01,51.3-15.59,79.52-15.59
		c28.11,0.05,54.94,5.6,79.44,15.68c25.42,10.44,48.4,25.81,67.61,44.82c19.23,18.97,34.7,41.63,45.28,66.81
		c10.14,24.14,15.78,50.69,15.73,78.51l58.41,0.05c0-35.54-7.23-69.53-20.24-100.54c-13.51-32.28-33.37-61.31-57.99-85.63
		c-24.52-24.32-53.91-43.88-86.53-57.29c-31.39-12.93-65.75-20.03-101.71-20.03c-35.97,0-70.34,7.05-101.76,19.95
		c-32.64,13.35-62.05,32.96-86.64,57.25c-24.61,24.27-44.46,53.3-58.02,85.49c-13.04,31.04-20.29,64.99-20.29,100.54L304.79,340.9z
		 M318.35,424.87c-0.83,0.21-1.74,0.33-2.6,0.33l-48.28-0.03v0.03h-2l-2.03,0.14l-0.86,0.05l0,0h-27.18h-0.21
		c-9.45,1.45-17.86,5.86-24.31,12.23l-0.04,0.04c-7.94,7.89-12.92,18.76-12.92,30.76v317.69c0,11.98,4.98,22.85,12.96,30.74
		c8.01,7.87,19.02,12.79,31.16,12.79h541.65c12.14,0,23.19-4.88,31.16-12.71v-0.09c8.03-7.88,12.92-18.76,12.92-30.74V468.41
		c0-11.95-4.94-22.87-12.92-30.76c-6.5-6.37-14.95-10.78-24.35-12.28l0,0h-80.34c-1.18,0-2.29-0.18-3.38-0.51H318.35z"/>
</g>
</svg>
