<?xml version="1.0" encoding="utf-8"?>
<!-- Generator: Adobe Illustrator 24.1.0, SVG Export Plug-In . SVG Version: 6.00 Build 0)  -->
<svg version="1.1" xmlns="http://www.w3.org/2000/svg" xmlns:xlink="http://www.w3.org/1999/xlink" x="0px" y="0px"
	 viewBox="0 0 1024 1024" style="enable-background:new 0 0 1024 1024;" xml:space="preserve">
<style type="text/css">
	.st0{display:none;}
	.st1{display:inline;}
	.st2{fill:#CCCCCC;}
	.st3{fill:#E6E6EB;}
	.st4{fill:#666666;}
	.st5{display:inline;fill:none;stroke:#0000FF;stroke-width:30;stroke-linecap:round;stroke-linejoin:round;stroke-miterlimit:10;}
	
		.st6{display:inline;fill-rule:evenodd;clip-rule:evenodd;fill:none;stroke:#0000FF;stroke-width:30;stroke-linecap:round;stroke-linejoin:round;stroke-miterlimit:10;}
	.st7{fill:#0000FF;}
	.st8{fill:none;stroke:#0000FF;stroke-width:30;stroke-linecap:round;stroke-linejoin:round;stroke-miterlimit:10;}
	
		.st9{fill-rule:evenodd;clip-rule:evenodd;fill:none;stroke:#0000FF;stroke-width:30;stroke-linecap:round;stroke-linejoin:round;stroke-miterlimit:10;}
	.st10{display:inline;fill-rule:evenodd;clip-rule:evenodd;fill:none;}
	.st11{fill:none;stroke:#fff;stroke-width:30;stroke-linecap:round;stroke-linejoin:round;stroke-miterlimit:10;}
	
		.st12{fill-rule:evenodd;clip-rule:evenodd;fill:none;stroke:#fff;stroke-width:30;stroke-linecap:round;stroke-linejoin:round;stroke-miterlimit:10;}
	.st13{fill-rule:evenodd;clip-rule:evenodd;fill:none;stroke:#fff;stroke-miterlimit:10;}
</style>
<g id="Icon_Guidlines" class="st0">
	<g class="st1">
	</g>
	<g class="st1">
		<g>
			<g>
				<polygon class="st3" points="318,1152.87 -131.79,1152.87 25.64,995.45 27.05,996.86 -126.96,1150.87 318,1150.87 				"/>
			</g>
			<g>
				<g>
					<polygon class="st3" points="34.33,988.17 18.48,994.82 25.75,996.75 27.68,1004.02 					"/>
				</g>
			</g>
		</g>
	</g>
	<g class="st1">
		<g>
			<rect x="510" y="-1.5" class="st4" width="4" height="1024"/>
		</g>
		<g>
			<rect x="704" y="-1.5" class="st4" width="4" height="1024"/>
		</g>
		<g>
			<rect x="956" y="-1.5" class="st4" width="4" height="1024"/>
		</g>
		<g>
			<rect x="1022" y="-239.5" class="st4" width="4" height="1264"/>
		</g>
		<g>
			<rect x="-2" y="-239.5" class="st4" width="4" height="1264"/>
		</g>
		<g>
			<rect x="316" y="-1.5" class="st4" width="4" height="1024"/>
		</g>
		<g>
			<rect x="64" y="-1.5" class="st4" width="4" height="1024"/>
		</g>
		<g>
			<rect x="-238" y="702.5" class="st4" width="1262" height="4"/>
		</g>
		<g>
			<rect x="0" y="954.5" class="st4" width="1262" height="4"/>
		</g>
		<g>
			<rect x="-238" y="314.5" class="st4" width="1262" height="4"/>
		</g>
		<g>
			<rect x="-238" y="62.5" class="st4" width="1500" height="4"/>
		</g>
		<g>
			<rect x="0" y="-3.5" class="st4" width="1024" height="4"/>
		</g>
		<g>
			<rect x="-2" y="1020.5" class="st4" width="1028" height="4"/>
		</g>
		<g>
			<rect x="0" y="508.5" class="st4" width="1024" height="4"/>
		</g>
		<g>
			<path class="st4" d="M512,786.85c-73.82,0-143.21-28.75-195.41-80.94c-52.2-52.2-80.94-121.59-80.94-195.41
				c0-73.82,28.75-143.21,80.94-195.41c52.2-52.2,121.59-80.94,195.41-80.94s143.21,28.75,195.41,80.94
				c52.2,52.2,80.94,121.59,80.94,195.41c0,73.82-28.75,143.21-80.94,195.41C655.21,758.1,585.82,786.85,512,786.85z M512,238.15
				c-72.75,0-141.14,28.33-192.58,79.77c-51.44,51.44-79.77,119.83-79.77,192.58s28.33,141.14,79.77,192.58
				c51.44,51.44,119.83,79.77,192.58,79.77s141.14-28.33,192.58-79.77c51.44-51.44,79.77-119.83,79.77-192.58
				s-28.33-141.14-79.77-192.58C653.14,266.48,584.75,238.15,512,238.15z"/>
		</g>
		<g>
			<path class="st4" d="M512,958.5c-60.48,0-119.15-11.85-174.38-35.21c-53.35-22.56-101.26-54.87-142.4-96.01
				c-41.14-41.14-73.45-89.05-96.01-142.4C75.85,629.65,64,570.98,64,510.5s11.85-119.15,35.21-174.38
				c22.56-53.35,54.87-101.26,96.01-142.4s89.05-73.45,142.4-96.01C392.85,74.34,451.52,62.5,512,62.5
				c60.48,0,119.15,11.85,174.38,35.21c53.35,22.56,101.26,54.87,142.4,96.01c41.14,41.14,73.44,89.05,96.01,142.4
				C948.15,391.35,960,450.02,960,510.5s-11.85,119.15-35.21,174.38c-22.56,53.35-54.87,101.26-96.01,142.4
				c-41.14,41.14-89.05,73.44-142.4,96.01C631.15,946.65,572.48,958.5,512,958.5z M512,66.5c-59.94,0-118.09,11.74-172.82,34.89
				c-52.87,22.36-100.35,54.38-141.13,95.15c-40.78,40.78-72.79,88.26-95.15,141.13C79.74,392.41,68,450.56,68,510.5
				s11.74,118.09,34.89,172.82c22.36,52.87,54.38,100.35,95.15,141.13c40.78,40.78,88.26,72.79,141.13,95.15
				C393.91,942.76,452.06,954.5,512,954.5c59.94,0,118.09-11.74,172.82-34.89c52.87-22.36,100.35-54.38,141.13-95.15
				c40.78-40.78,72.79-88.26,95.15-141.13C944.26,628.59,956,570.44,956,510.5s-11.74-118.09-34.89-172.82
				c-22.36-52.87-54.38-100.35-95.15-141.13c-40.78-40.78-88.26-72.79-141.13-95.15C630.09,78.24,571.94,66.5,512,66.5z"/>
		</g>
		<g>
			
				<rect x="510" y="-213.58" transform="matrix(0.7071 -0.7071 0.7071 0.7071 -211.0157 511.5602)" class="st4" width="4" height="1448.15"/>
		</g>
		<g>
			
				<rect x="-132.41" y="475.5" transform="matrix(0.7071 -0.7071 0.7071 0.7071 -178.0157 525.2292)" class="st4" width="1354.82" height="4"/>
		</g>
	</g>
</g>
<g id="Icons" class="st0">
	<path class="st6" d="M820.67,813.18c-78.57,80.57-188.32,130.6-309.75,130.6c-238.94,0-432.63-193.7-432.63-432.63
		S271.98,78.51,510.92,78.51c121.43,0,231.18,50.03,309.75,130.6"/>
	<g class="st1">
		<polyline class="st8" points="747.81,705.75 940.79,510.22 573.01,510.22 		"/>
		<line class="st8" x1="940.79" y1="510.22" x2="747.81" y2="317.24"/>
		<line class="st8" x1="512.5" y1="510.22" x2="512.5" y2="510.22"/>
	</g>
</g>
<g id="Layer_3">
	<path class="st12" d="M820.67,813.18c-78.57,80.57-188.32,130.6-309.75,130.6c-238.94,0-432.63-193.7-432.63-432.63
		S271.98,78.51,510.92,78.51c121.43,0,231.18,50.03,309.75,130.6"/>
	<g>
		<polyline class="st11" points="747.81,705.75 940.79,510.22 573.01,510.22 		"/>
		<line class="st11" x1="940.79" y1="510.22" x2="747.81" y2="317.24"/>
		<line class="st11" x1="512.5" y1="510.22" x2="512.5" y2="510.22"/>
	</g>
</g>
</svg>
